<svg id="Group_3551" data-name="Group 3551" xmlns="http://www.w3.org/2000/svg" xmlns:xlink="http://www.w3.org/1999/xlink" width="181.503" height="25.952" viewBox="0 0 181.503 25.952">
  <defs>
    <clipPath id="clip-path">
      <rect id="Rectangle_1563" data-name="Rectangle 1563" width="181.503" height="25.952" fill="#fff"/>
    </clipPath>
  </defs>
  <g id="Group_3550" data-name="Group 3550" clip-path="url(#clip-path)">
    <path id="Path_1212" data-name="Path 1212" d="M114.807,34.714l-.3,1.543h-.091c-.393-.847-1.482-2.057-3.9-2.057a9.257,9.257,0,0,0-8.772,7.774c-.756,4.174,1.24,7.834,5.868,7.834a5.828,5.828,0,0,0,4.658-2.087h.091l-.272,1.573h4.325L119.1,34.714h-4.3m-1.422,7.259a4.57,4.57,0,0,1-4.356,3.751,2.96,2.96,0,0,1-2.964-3.69,4.5,4.5,0,0,1,4.325-3.751,2.927,2.927,0,0,1,2.994,3.69" transform="translate(-70.857 -23.855)" fill="#fff"/>
    <path id="Path_1213" data-name="Path 1213" d="M161.392,34.714h4.053l-.272,1.543h.091a4.554,4.554,0,0,1,4.023-2.057l-.817,4.416c-2.057.03-3.539.454-3.932,2.692l-1.482,7.985H158.7Z" transform="translate(-110.697 -23.855)" fill="#fff"/>
    <path id="Path_1214" data-name="Path 1214" d="M194.651,17.1h4.386L196.98,28.08h.061l5.051-5.293h5.142L200.579,29.2l3.811,8.167h-4.93l-2.813-7.017h-.091l-1.27,7.017H190.9Z" transform="translate(-133.158 -11.928)" fill="#fff"/>
    <path id="Path_1215" data-name="Path 1215" d="M246.759,34.2c-4.416,0-8.348,3.811-9.074,7.864a6.24,6.24,0,0,0,6.291,7.713,7.993,7.993,0,0,0,4.356-1.331,10.711,10.711,0,0,0,3.63-3.72h-4.446a3.809,3.809,0,0,1-2.9,1.361,2.593,2.593,0,0,1-2.873-2.753h10.919a5.592,5.592,0,0,0,.3-1.149c.847-4.446-1.754-7.985-6.2-7.985m-4.416,6.2a4.132,4.132,0,0,1,3.811-2.511,2.523,2.523,0,0,1,2.813,2.511Z" transform="translate(-165.696 -23.855)" fill="#fff"/>
    <path id="Path_1216" data-name="Path 1216" d="M25.105,17.1,17.423,28.655h-.06V17.1h-3.72L0,37.366H5.293l7.653-11.555h.06V37.366h3.751L24.41,25.811h.06V37.366h4.386V17.1Z" transform="translate(0 -11.928)" fill="#fff"/>
    <path id="Path_1217" data-name="Path 1217" d="M302.361,25.925h-2.753l.817-4.325h-3.811l-.3,1.664c-.333,1.906-1.543,2.48-3.116,2.662h-.03l-.665,3.3h2.148L292.56,40.474h4.356L299,29.222h2.783Z" transform="translate(-204.026 -15.067)" fill="#fff"/>
    <path id="Path_1218" data-name="Path 1218" d="M396.288,19.933a9.889,9.889,0,0,1-8.772,6.019c-4.416,0-7.169-3.478-6.382-7.834a9.638,9.638,0,0,1,9.135-7.743c3.841,0,6.5,2.571,6.594,6.14h-4.416a2.562,2.562,0,0,0-2.783-2.057,4.239,4.239,0,0,0-4.144,3.69c-.393,2.148.7,3.72,2.783,3.72a4.131,4.131,0,0,0,3.509-1.966ZM360.2,0l-8.469,5.172h2.39L346.44,16.727h-.091V5.172H342.6l-7.653,11.555h-.091V5.172H330.5V25.438h3.811l7.683-11.555h.091V25.438h3.751L359.417,5.172h2.148Zm8.258,25.438h-4.325l.272-1.573h-.091a5.828,5.828,0,0,1-4.658,2.087c-4.628,0-6.624-3.63-5.868-7.834a9.233,9.233,0,0,1,8.772-7.774c2.39,0,3.509,1.18,3.9,2.057h.091l.3-1.543h4.325Zm-7.32-3.539a4.628,4.628,0,0,0,4.356-3.751c.3-1.754-.514-3.69-2.995-3.69a4.558,4.558,0,0,0-4.325,3.751,2.96,2.96,0,0,0,2.964,3.69m20.931-11.04H379.35l.817-4.325h-3.811l-.3,1.664c-.333,1.906-1.543,2.48-3.116,2.662h-.06l-.635,3.3h2.148L372.3,25.408h4.356l2.087-11.252h2.783ZM400.4,5.172h4.356L403.427,12.4h.091a4.542,4.542,0,0,1,4.114-2.057,4.439,4.439,0,0,1,3.69,1.633c.938,1.422.847,2.692.333,5.293l-1.482,8.137h-4.356l1.452-7.925c.121-.7.544-3.055-1.754-3.055a3.021,3.021,0,0,0-2.994,2.9l-1.482,8.076h-4.356Z" transform="translate(-230.532)" fill="#fff"/>
  </g>
</svg>
