<svg id="tech-times" xmlns="http://www.w3.org/2000/svg" width="85.224" height="50.6" viewBox="0 0 85.224 50.6">
  <path id="Path_1243" data-name="Path 1243" d="M0,8.792H6.776V25.886h4.1V8.792h6.776V5H0Z" transform="translate(0 -1.892)" fill="#fff"/>
  <path id="Path_1244" data-name="Path 1244" d="M45.1,22.032H37.2V17.059h6.838V13.205H37.2V8.792H45.1V5h-12V25.886h12Z" transform="translate(-12.524 -1.892)" fill="#fff"/>
  <path id="Path_1245" data-name="Path 1245" d="M66.705,22.241c-3.73,0-6.216-2.984-6.216-7.024s2.486-6.962,6.154-6.962c2.8,0,4.351,1.243,5.1,3.295h4.476C75.1,7.322,71.989,4.4,66.643,4.4,60.551,4.4,56.2,8.938,56.2,15.216s4.351,10.878,10.443,10.878c5.346,0,8.516-2.8,9.635-7.335H71.927C71.305,20.749,69.627,22.241,66.705,22.241Z" transform="translate(-21.265 -1.665)" fill="#fff"/>
  <path id="Path_1246" data-name="Path 1246" d="M97.3,15.105h4.165v.062h4.786v8.827h4.1V15.105h4.724a3.034,3.034,0,0,0,2.362,1.181,3.1,3.1,0,0,0,3.046-3.108,3.065,3.065,0,0,0-3.046-3.108,3.034,3.034,0,0,0-2.362,1.181h-4.724V0h-4.1V11.251H97.3V3.108H93.2V23.995h4.1Z" transform="translate(-35.265)" fill="#fff"/>
  <path id="Path_1247" data-name="Path 1247" d="M0,50.992H6.776V68.086h4.1V50.992h6.776V47.2H0Z" transform="translate(0 -17.859)" fill="#fff"/>
  <path id="Path_1248" data-name="Path 1248" d="M35.611,45.2A2.574,2.574,0,0,0,33,47.749a2.612,2.612,0,0,0,5.222,0A2.656,2.656,0,0,0,35.611,45.2Z" transform="translate(-12.487 -17.103)" fill="#fff"/>
  <rect id="Rectangle_1574" data-name="Rectangle 1574" width="3.854" height="15.105" transform="translate(21.135 35.122)" fill="#fff"/>
  <path id="Path_1249" data-name="Path 1249" d="M58.362,60.627l-.435,1.243-.5-1.243L51.462,47.2H46.8V68.086h4.041V54.846l.622,1.865,4.724,11.376h3.481l4.724-11.376.622-1.865V68.086h4.1V47.2H64.392Z" transform="translate(-17.708 -17.859)" fill="#fff"/>
  <path id="Path_1250" data-name="Path 1250" d="M89.5,68.086h12V64.232H93.6V59.259h6.838V55.405H93.6V50.992H101.5V47.2h-12Z" transform="translate(-33.865 -17.859)" fill="#fff"/>
  <path id="Path_1251" data-name="Path 1251" d="M120.93,55.427c-2.549-.87-3.668-1.43-3.668-2.984a2.1,2.1,0,0,1,2.362-2.238,2.463,2.463,0,0,1,2.549,2.611h4.165c-.186-4.165-2.673-6.216-6.589-6.216-4.1,0-6.589,2.611-6.589,6.216,0,3.481,2.238,5.159,5.968,6.4,2.611.87,3.668,1.678,3.668,3.046s-.995,2.362-2.735,2.362c-2.114,0-3.17-1.119-3.295-3.17H112.6c.124,3.978,2.611,6.776,7.335,6.776,3.916,0,6.962-2.3,6.962-6.341C126.959,58.784,125.405,56.919,120.93,55.427Z" transform="translate(-42.605 -17.632)" fill="#fff"/>
</svg>
