<svg xmlns="http://www.w3.org/2000/svg" xmlns:xlink="http://www.w3.org/1999/xlink" width="172.057" height="49.603" viewBox="0 0 172.057 49.603">
  <defs>
    <clipPath id="clip-path">
      <rect id="Rectangle_1560" data-name="Rectangle 1560" width="172.057" height="49.602" fill="#fff"/>
    </clipPath>
  </defs>
  <g id="Group_3545" data-name="Group 3545" transform="translate(0.076 -0.001)">
    <g id="Group_3544" data-name="Group 3544" transform="translate(-0.076 0.001)" clip-path="url(#clip-path)">
      <path id="Path_1191" data-name="Path 1191" d="M26.313,0c1.53.252,3.079.425,4.588.771A23.567,23.567,0,0,1,41.1,6.007a23.885,23.885,0,0,1,7.868,12.572A24.2,24.2,0,0,1,43.784,41.02,24.3,24.3,0,0,1,28.6,49.452c-.756.123-1.523.184-2.285.274h-2.9c-.744-.091-1.492-.156-2.231-.276A24.771,24.771,0,0,1,7.49,42.612,23.938,23.938,0,0,1,.759,30.794C.414,29.322.248,27.808,0,26.313v-2.9c.04-.246.1-.491.116-.739a22.562,22.562,0,0,1,1.615-6.859A24.541,24.541,0,0,1,19.66.58C20.888.29,22.161.189,23.413,0Zm9.84,8.923H21.52c-2.452,0-4.9.008-7.355-.009-.379,0-.563.1-.589.487-.085,1.282-.243,2.563-.25,3.845a19.41,19.41,0,0,0,.318,2.575h7.411V40.388a18.4,18.4,0,0,0,7.8-.022V15.781h7.3a16.251,16.251,0,0,0,0-6.859" transform="translate(0.059 0)" fill="#fff"/>
      <path id="Path_1192" data-name="Path 1192" d="M1511.084,225.27h-2.851c-.012-.238-.029-.426-.029-.614,0-1.45,0-2.9,0-4.349a2.8,2.8,0,0,0-1.141-2.427,2.34,2.34,0,0,0-3.6,1.5,5.472,5.472,0,0,0-.125,1.222c-.017,1.485-.011,2.971-.015,4.456a.672.672,0,0,1-.046.143h-2.888V215.088c.724,0,1.435-.015,2.144.014.135.005.287.166.386.291a3.846,3.846,0,0,1,.308.552c.279-.185.529-.377.8-.528a4.626,4.626,0,0,1,6.5,2.3c.227.5.377,1.027.563,1.542Z" transform="translate(-1339.187 -191.762)" fill="#fff"/>
      <path id="Path_1193" data-name="Path 1193" d="M1020.927,165.408a5.024,5.024,0,0,1,1.416,6.135,5.156,5.156,0,0,1-5.635,2.749v-2.757c.345,0,.662.005.979,0a1.963,1.963,0,0,0,2.111-1.883,1.936,1.936,0,0,0-2.063-2.045c-1.557-.033-3.114-.009-4.671-.01h-.65v-9.609c.039-.032.066-.072.093-.073,1.628,0,3.267-.129,4.881.017a4.776,4.776,0,0,1,3.673,7.215c-.044.076-.08.156-.134.262m-5.544-1.035c.536,0,1.034.03,1.528-.006a1.833,1.833,0,0,0,1.73-1.782,1.762,1.762,0,0,0-1.594-1.885,13.4,13.4,0,0,0-1.665-.012Z" transform="translate(-903.622 -140.907)" fill="#fff"/>
      <path id="Path_1194" data-name="Path 1194" d="M885.475,166.755V149.344H888.6v7.809a15.621,15.621,0,0,1,1.7-.635,5.312,5.312,0,0,1,6.684,5.051c.054,1.713.009,3.429.009,5.182h-3.083c-.011-.177-.032-.364-.033-.551,0-1.449.012-2.9-.006-4.348a2.682,2.682,0,0,0-1.639-2.66,2.6,2.6,0,0,0-3.6,2.335c-.045,1.538-.017,3.077-.021,4.616,0,.193,0,.385,0,.612Z" transform="translate(-790.317 -133.305)" fill="#fff"/>
      <path id="Path_1195" data-name="Path 1195" d="M548.241,161.725v-3.267h12.386v3.256h-4.5v13.175H552.8V161.725Z" transform="translate(-489.301 -141.44)" fill="#fff"/>
      <path id="Path_1196" data-name="Path 1196" d="M677.744,220.261h-7.429a2.252,2.252,0,0,0,3.25,1.531,1.282,1.282,0,0,1,1.743.175c.373.3.794.539,1.192.8-1.232,1.864-4.379,2.47-6.558,1.291a5.387,5.387,0,1,1,7.8-3.8m-2.8-1.822a2.393,2.393,0,0,0-2.479-1.859,2.293,2.293,0,0,0-2.2,1.859Z" transform="translate(-595.367 -190.943)" fill="#fff"/>
      <path id="Path_1197" data-name="Path 1197" d="M1385.789,225.077a5.36,5.36,0,0,1-5.248-7.123,5.705,5.705,0,0,1,7.448-3.176,5.3,5.3,0,0,1,3.058,7,5.542,5.542,0,0,1-5.259,3.3m.081-8.076a2.753,2.753,0,0,0-.013,5.5,2.754,2.754,0,0,0,.013-5.5" transform="translate(-1231.933 -191.355)" fill="#fff"/>
      <path id="Path_1198" data-name="Path 1198" d="M1139.178,217.491c0,1.174.008,2.314,0,3.455a9.749,9.749,0,0,1-.292,3.237,5.29,5.29,0,0,1-10.331-1.478c-.053-1.644-.018-3.291-.02-4.936a2.012,2.012,0,0,1,.045-.287h2.958c.009.183.025.371.026.559,0,1.5-.014,3.005.009,4.507a2.372,2.372,0,0,0,2.1,2.439,2.338,2.338,0,0,0,2.441-2.421c.027-1.484.009-2.969.01-4.454v-.622Z" transform="translate(-1007.261 -194.125)" fill="#fff"/>
      <rect id="Rectangle_1556" data-name="Rectangle 1556" width="2.966" height="17.424" transform="translate(133.857 16.033)" fill="#fff"/>
      <rect id="Rectangle_1557" data-name="Rectangle 1557" width="2.968" height="17.408" transform="translate(138.726 16.038)" fill="#fff"/>
      <path id="Path_1199" data-name="Path 1199" d="M792.946,215.229l-1.317,2.306c-1.651-1.038-3.208-.92-4.228.287a2.567,2.567,0,0,0,.028,3.349c1.059,1.219,2.606,1.351,4.193.315l1.271,2.261c-1.942,1.7-5.56,1.357-7.49-.675a5.2,5.2,0,0,1,.018-7.226c1.98-2.062,5.545-2.362,7.526-.616" transform="translate(-699.696 -191.096)" fill="#fff"/>
      <rect id="Rectangle_1558" data-name="Rectangle 1558" width="2.998" height="10.106" transform="translate(143.633 23.353)" fill="#fff"/>
      <rect id="Rectangle_1559" data-name="Rectangle 1559" width="2.986" height="3.225" transform="translate(143.633 17.018)" fill="#fff"/>
    </g>
  </g>
</svg>
