<svg id="Group_3549" data-name="Group 3549" xmlns="http://www.w3.org/2000/svg" xmlns:xlink="http://www.w3.org/1999/xlink" width="121.5" height="44.507" viewBox="0 0 121.5 44.507">
  <defs>
    <clipPath id="clip-path">
      <rect id="Rectangle_1562" data-name="Rectangle 1562" width="121.5" height="44.507" fill="#fff"/>
    </clipPath>
  </defs>
  <g id="Group_3548" data-name="Group 3548" transform="translate(0 0)" clip-path="url(#clip-path)">
    <path id="Path_1211" data-name="Path 1211" d="M43.558,13.4v13.4h6.591V21.687c0-3.376.018-5.234.051-5.48a3.467,3.467,0,0,1,.5-1.409A2.22,2.22,0,0,1,54.732,15.9c.031.2.049,2.222.049,5.6v5.289h6.592V20.62c0-5.2-.011-6.27-.073-6.789a7.082,7.082,0,0,0-1.908-4.353A5.758,5.758,0,0,0,55.942,7.83a10.715,10.715,0,0,0-2.4.076,5.762,5.762,0,0,0-2.973,1.609l-.466.463V0H43.558ZM113.625.2c-.179.41-6.88,16.609-6.88,16.633s1.757.019,3.9.011l3.9-.011,3.474-8.383c1.911-4.61,3.476-8.4,3.478-8.418S119.75,0,117.608,0h-3.9ZM29.11,7.815a8.523,8.523,0,0,0-3.659,1.35A9.8,9.8,0,0,0,21.3,15.973a11.782,11.782,0,0,0,.212,4.262,9.113,9.113,0,0,0,5.8,6.608,6.608,6.608,0,0,0,2.679.4,6.777,6.777,0,0,0,1.528-.087,5.937,5.937,0,0,0,3.117-1.61l.418-.422v1.666h6.352V8.215H35.057V9.927l-.3-.313a6.121,6.121,0,0,0-3.093-1.67,5.508,5.508,0,0,0-1.456-.135c-.525-.008-1.02-.005-1.1.006m42.079.05a10.247,10.247,0,0,0-4.965,2.11,9.8,9.8,0,0,0-3.392,9.08,9.488,9.488,0,0,0,7.161,7.9,10.057,10.057,0,0,0,2.668.311,9.788,9.788,0,0,0,4.675-1.055,9.432,9.432,0,0,0,5.175-7.236,12.544,12.544,0,0,0,0-2.909,9.887,9.887,0,0,0-1.726-4.327A12.08,12.08,0,0,0,79.02,9.91a10.047,10.047,0,0,0-4.935-2.049,14.619,14.619,0,0,0-2.9,0m20.966,0A10.135,10.135,0,0,0,87.282,9.91a12.123,12.123,0,0,0-1.762,1.835,9.9,9.9,0,0,0-1.727,4.327,12.6,12.6,0,0,0,0,2.909,9.747,9.747,0,0,0,9.85,8.291,10.09,10.09,0,0,0,4.771-1.1,9.685,9.685,0,0,0,4.961-10.7,9.542,9.542,0,0,0-8.347-7.616,14.689,14.689,0,0,0-2.87.007M0,8.241c0,.014,1.777,4.221,3.949,9.347S7.9,26.93,7.894,26.958s-.639,1.553-1.417,3.39S5.063,33.692,5.063,33.7s1.574.012,3.5.005l3.5-.012,5.263-12.681c2.894-6.974,5.264-12.707,5.266-12.74a26.99,26.99,0,0,0-3.466-.047l-3.469.012-2.131,5.4c-1.172,2.972-2.141,5.395-2.155,5.381s-.97-2.445-2.128-5.4L7.136,8.24,3.569,8.227C1.606,8.22,0,8.226,0,8.241m32.332,5.616a3.711,3.711,0,0,1,2.731,2.692,4.569,4.569,0,0,1,0,1.959,3.75,3.75,0,0,1-2.706,2.7,4.63,4.63,0,0,1-1.958,0A3.845,3.845,0,0,1,27.831,19a4,4,0,0,1,.355-3.6,3.844,3.844,0,0,1,4.146-1.539m41.03.014a3.617,3.617,0,0,1,2.9,2.78,4.721,4.721,0,0,1-.026,1.857,3.661,3.661,0,0,1-2.584,2.633,5.416,5.416,0,0,1-1.958,0,3.611,3.611,0,0,1-2.342-1.966A3.327,3.327,0,0,1,69,17.529a3.342,3.342,0,0,1,.276-1.488A3.673,3.673,0,0,1,70.612,14.4a3.894,3.894,0,0,1,2.75-.531m20.965,0a3.572,3.572,0,0,1,2.7,2.169,3.356,3.356,0,0,1,.276,1.488,3.327,3.327,0,0,1-.35,1.648,3.614,3.614,0,0,1-2.342,1.966,5.421,5.421,0,0,1-1.959,0,3.662,3.662,0,0,1-2.584-2.633,4.557,4.557,0,0,1,0-1.953,3.618,3.618,0,0,1,3.54-2.746,4.539,4.539,0,0,1,.716.062m13.971,4.6a4.448,4.448,0,0,0-3.833,3.472,5.273,5.273,0,0,0,.027,1.956,4.222,4.222,0,0,0,3.267,3.157,5.412,5.412,0,0,0,.9.076,4.389,4.389,0,0,0,4.395-4.413,4.13,4.13,0,0,0-2-3.648,4.549,4.549,0,0,0-2.748-.6M54.006,28.555a2.143,2.143,0,0,0-1.216,3.122,2.582,2.582,0,0,0,.976.863,2.7,2.7,0,0,0,1.8,0A2.465,2.465,0,0,0,56.618,31.5a2.11,2.11,0,0,0-1.052-2.829,1.558,1.558,0,0,0-.825-.19,1.852,1.852,0,0,0-.735.073m-5.505.1a4.127,4.127,0,0,0-3.37,3.255A5.769,5.769,0,0,0,45,32.991l-.027.681H43.556l.013,1.564.012,1.563.7.013.7.013v7.4h3.821v-7.4l1.3-.013,1.3-.012.012-1.563.012-1.564H48.806l.033-.346a1.379,1.379,0,0,1,.987-1.38A2.55,2.55,0,0,1,51.267,32c.154.055.289.1.3.1s.016-.719.016-1.6V28.9l-.274-.1a4.418,4.418,0,0,0-1.676-.234,6.058,6.058,0,0,0-1.131.091m15.642,4.8a3.119,3.119,0,0,0-1.884,1.132l-.217.288v-1.2H58.173V44.227h3.868V41.349c0-1.654.021-3,.047-3.164a1.838,1.838,0,0,1,.5-1,1.317,1.317,0,0,1,1.808.2c.29.419.285.365.3,3.745l.018,3.093h3.862V40.762c0-3.674-.02-4.1-.221-4.789a3.407,3.407,0,0,0-.924-1.587A2.979,2.979,0,0,0,66,33.529a5.1,5.1,0,0,0-1.862-.074m9.767-.035a5.459,5.459,0,0,0-2.045.811A5.621,5.621,0,0,0,69.7,37.8a8.354,8.354,0,0,0,.005,2.334,6,6,0,0,0,1.081,2.5,4.733,4.733,0,0,0,2.807,1.785,5.477,5.477,0,0,0,2.135-.051,3.613,3.613,0,0,0,1.5-.847l.385-.363v1.061h3.821V33.672H77.611v1.093l-.25-.268a3.62,3.62,0,0,0-2.029-1.04,6.028,6.028,0,0,0-1.422-.037m15,.042a3.451,3.451,0,0,0-1.864,1.154l-.166.216V33.671l-1.946.012-1.947.012-.012,5.265-.012,5.266h3.917v-3c0-3.169,0-3.235.227-3.666a1.189,1.189,0,0,1,1.08-.644,1.092,1.092,0,0,1,.893.334c.416.414.4.262.415,3.832l.014,3.14h3.868l-.015-3.832c-.015-3.79-.016-3.838-.123-4.239a6.009,6.009,0,0,0-.345-.9,2.543,2.543,0,0,0-.609-.86,2.967,2.967,0,0,0-1.183-.782,4.424,4.424,0,0,0-2.194-.157m10.2,0a5.448,5.448,0,0,0-3.927,2.577,5.666,5.666,0,0,0-.594,1.49,4.23,4.23,0,0,0-.135,1.4,5.085,5.085,0,0,0,.266,1.965A5.242,5.242,0,0,0,98.722,44.4a5.793,5.793,0,0,0,1.313.089,4.654,4.654,0,0,0,2.149-.373l.382-.157.012-1.774.012-1.774-.323.19a2.835,2.835,0,0,1-1.446.413,2.42,2.42,0,0,1-1.378-.253,2.027,2.027,0,0,1-.928-.965,1.375,1.375,0,0,1-.151-.823,1.752,1.752,0,0,1,.111-.776,2.18,2.18,0,0,1,2.061-1.312,3.3,3.3,0,0,1,2.018.55c.02.009.036-.778.036-1.749V33.921l-.3-.123a6.385,6.385,0,0,0-3.181-.34m8.793,0a5.8,5.8,0,0,0-3.7,8.8A5.091,5.091,0,0,0,107.51,44.4a10.2,10.2,0,0,0,2.961-.024,5.429,5.429,0,0,0,2.69-1.41,4.411,4.411,0,0,0,.792-1.052c-.012-.01-.752-.3-1.645-.644l-1.624-.624-.238.242a1.788,1.788,0,0,1-.905.541,1.915,1.915,0,0,1-2.457-1.288l-.04-.213,3.637-.012,3.636-.012,0-.884a6.046,6.046,0,0,0-.088-1.286,5.41,5.41,0,0,0-1.482-2.846,5.076,5.076,0,0,0-2.63-1.386,8.431,8.431,0,0,0-2.215-.043M52.728,38.949v5.277H56.6V33.672H52.728ZM109.444,36.4a1.6,1.6,0,0,1,1.116,1.133l.044.195h-1.762c-1.989,0-1.829.04-1.66-.411a1.848,1.848,0,0,1,2.262-.917m-33.29.525a2.229,2.229,0,0,1,1.329,1.1,2.11,2.11,0,0,1-1.2,2.915,2.7,2.7,0,0,1-1.4.027A2.156,2.156,0,0,1,73.5,39.585a1.877,1.877,0,0,1-.08-.754,1.5,1.5,0,0,1,.2-.777,2.17,2.17,0,0,1,2.541-1.126" transform="translate(0 0.001)" fill="#fff"/>
  </g>
</svg>
