<svg id="Group_3547" data-name="Group 3547" xmlns="http://www.w3.org/2000/svg" xmlns:xlink="http://www.w3.org/1999/xlink" width="121.495" height="44.477" viewBox="0 0 121.495 44.477">
  <defs>
    <clipPath id="clip-path">
      <rect id="Rectangle_1561" data-name="Rectangle 1561" width="121.495" height="44.477" fill="#fff"/>
    </clipPath>
  </defs>
  <g id="Group_3546" data-name="Group 3546" clip-path="url(#clip-path)">
    <path id="Path_1200" data-name="Path 1200" d="M0,50.553c2.24,0,4.48.015,6.72,0a.492.492,0,0,1,.547.381q1.946,5.031,3.914,10.052c.048.122.108.239.2.43l4.281-10.844h6.91c-.059.164-.106.311-.165.453q-5.091,12.258-10.175,24.52a.605.605,0,0,1-.673.446c-2.131-.02-4.263-.01-6.462-.01.065-.169.112-.3.166-.427.844-2,1.7-3.992,2.526-5.995a.857.857,0,0,0,.007-.6Q3.976,59.915.135,50.878A2.546,2.546,0,0,0,0,50.634v-.081" transform="translate(0 -42.364)" fill="#fff"/>
    <path id="Path_1201" data-name="Path 1201" d="M673.568.09c-.142.3-.3.6-.424.9q-3.234,7.711-6.46,15.426c-.087.208-.154.364-.443.362-2.428-.013-4.857-.008-7.285-.009a1.489,1.489,0,0,1-.163-.023c.046-.131.082-.254.131-.371Q662.257,8.357,665.6.342c.059-.142.237-.335.36-.335,2.536-.014,5.072,0,7.608,0Z" transform="translate(-552.073 0)" fill="#fff"/>
    <path id="Path_1202" data-name="Path 1202" d="M269.216.073h6.5v9.934a1.893,1.893,0,0,0,.18-.143,6.033,6.033,0,0,1,5.142-2.036,5.947,5.947,0,0,1,5.7,5.092,11.642,11.642,0,0,1,.226,2.207c.022,3.71.01,7.421.01,11.132v.508H280.44v-.485c0-3.157.011-6.315-.011-9.472a5.523,5.523,0,0,0-.249-1.586,1.9,1.9,0,0,0-1.734-1.37,2.176,2.176,0,0,0-2.156.916,3.664,3.664,0,0,0-.577,2.192q0,4.655,0,9.31v.5h-6.5Z" transform="translate(-225.605 -0.061)" fill="#fff"/>
    <path id="Path_1203" data-name="Path 1203" d="M144.418,49.907V48.334h6.288v18.48h-6.279V65.268l-.151-.091a3.766,3.766,0,0,1-.359.466,6.45,6.45,0,0,1-5.462,1.645,9.051,9.051,0,0,1-7.764-7.778,10,10,0,0,1,2.505-8.89,8.073,8.073,0,0,1,8.28-2.473,5.516,5.516,0,0,1,2.553,1.5,1.552,1.552,0,0,1,.215.387l.175-.125m.133,7.7a3.821,3.821,0,1,0-7.642.011,3.848,3.848,0,0,0,3.864,3.806,3.77,3.77,0,0,0,3.779-3.817" transform="translate(-109.37 -40.109)" fill="#fff"/>
    <path id="Path_1204" data-name="Path 1204" d="M526.449,66.471a9.925,9.925,0,1,1,9.9-9.873,9.907,9.907,0,0,1-9.9,9.873m-.026-6.227a3.7,3.7,0,1,0-3.689-3.7,3.689,3.689,0,0,0,3.689,3.7" transform="translate(-432.84 -39.068)" fill="#fff"/>
    <path id="Path_1205" data-name="Path 1205" d="M406.917,56.565A9.925,9.925,0,1,1,397,46.621a9.9,9.9,0,0,1,9.92,9.944m-6.226-.016a3.7,3.7,0,1,0-3.694,3.7,3.7,3.7,0,0,0,3.694-3.7" transform="translate(-324.364 -39.069)" fill="#fff"/>
    <path id="Path_1206" data-name="Path 1206" d="M520.529,212.076c.868,0,1.7-.01,2.539.014.1,0,.244.176.278.3.43,1.517.843,3.038,1.261,4.558a.982.982,0,0,0,.173.374l.96-5.217h3.818c-.186.644-.371,1.283-.557,1.922-.726,2.5-1.455,4.992-2.17,7.492-.075.263-.171.37-.461.364-.985-.02-1.971-.024-2.956,0-.317.008-.41-.124-.478-.392-.318-1.253-.651-2.5-.98-3.754-.027-.1-.062-.2-.129-.421l-1.209,4.557h-2.58c-1.1,0-1.1,0-1.4-1.04q-1.212-4.172-2.423-8.345c-.037-.127-.062-.258-.1-.41,1.213,0,2.4-.007,3.587.013.1,0,.248.173.273.288.335,1.54.652,3.085.975,4.628.021.1.055.2.115.42l1.466-5.348" transform="translate(-430.83 -177.719)" fill="#fff"/>
    <path id="Path_1207" data-name="Path 1207" d="M382.177,210.389h3.582v.823c.136-.116.214-.172.279-.241,1.374-1.462,4.506-1.252,5.391.936a6.16,6.16,0,0,1,.489,2.062c.061,1.955.013,3.913.007,5.869,0,.092-.01.183-.016.3h-3.6v-.414q0-2.227,0-4.454c0-.148,0-.3-.009-.445-.04-.841-.432-1.243-1.214-1.247a1.248,1.248,0,0,0-1.31,1.3c-.024.958-.007,1.916-.007,2.874,0,.781,0,1.562,0,2.379h-3.593Z" transform="translate(-320.267 -176.012)" fill="#fff"/>
    <path id="Path_1208" data-name="Path 1208" d="M456.006,216.91l2.384,2.01a9.851,9.851,0,0,1-1.222.863,6.167,6.167,0,0,1-6.146-.137,4.74,4.74,0,0,1-2.371-4.565,5.146,5.146,0,1,1,10.277.51c-.018.305-.072.608-.114.943h-6.435c.426,1.152,2.044,1.31,3.627.375m-.473-2.719a1.413,1.413,0,0,0-1.419-1.129c-1.013,0-1.65.393-1.815,1.129Z" transform="translate(-375.97 -176.059)" fill="#fff"/>
    <path id="Path_1209" data-name="Path 1209" d="M618.673,212.7l-2.9,1.062a4.934,4.934,0,0,0-.467-.551,1.017,1.017,0,0,0-1.061-.189.5.5,0,0,0-.273.337.414.414,0,0,0,.234.318c.341.12.7.177,1.05.28.72.214,1.445.414,2.149.672a2.077,2.077,0,0,1,1.12,1.115,3.059,3.059,0,0,1-1.6,4.322,6.633,6.633,0,0,1-5.417-.133,3.2,3.2,0,0,1-1.6-1.711l3.117-1.394c.063.111.119.211.178.31a1.348,1.348,0,0,0,1.534.623.586.586,0,0,0,.339-.376c.019-.1-.165-.3-.3-.348-.484-.161-.986-.269-1.479-.407-.363-.1-.726-.2-1.08-.331a2.459,2.459,0,0,1-1.8-2.031,3.071,3.071,0,0,1,1.137-3.135,4.374,4.374,0,0,1,1.948-.844,4.92,4.92,0,0,1,3.592.531,4.1,4.1,0,0,1,1.582,1.879" transform="translate(-511.105 -176.131)" fill="#fff"/>
    <path id="Path_1210" data-name="Path 1210" d="M648.258,122.236a4.211,4.211,0,0,1-4.228-4.335,4.432,4.432,0,0,1,4.544-4.348,4.2,4.2,0,0,1,4.171,4.221,4.451,4.451,0,0,1-4.486,4.462" transform="translate(-539.701 -95.158)" fill="#fff"/>
  </g>
</svg>
