<svg xmlns="http://www.w3.org/2000/svg" xmlns:xlink="http://www.w3.org/1999/xlink" width="60.76" height="54.326" viewBox="0 0 60.76 54.326">
  <defs>
    <clipPath id="clip-path">
      <rect id="Rectangle_1499" data-name="Rectangle 1499" width="60.76" height="54.326" fill="none"/>
    </clipPath>
    <clipPath id="clip-path-2">
      <rect id="Rectangle_1496" data-name="Rectangle 1496" width="45.836" height="45.388" transform="translate(-2 -4)" fill="none"/>
    </clipPath>
    <clipPath id="clip-path-3">
      <rect id="Rectangle_1798" data-name="Rectangle 1798" width="40.568" height="40.877" fill="none"/>
    </clipPath>
    <clipPath id="clip-path-5">
      <rect id="Rectangle_1788" data-name="Rectangle 1788" width="14.624" height="6.832" fill="none"/>
    </clipPath>
    <clipPath id="clip-path-6">
      <rect id="Rectangle_1789" data-name="Rectangle 1789" width="10.004" height="13.251" fill="none"/>
    </clipPath>
    <clipPath id="clip-path-7">
      <rect id="Rectangle_1790" data-name="Rectangle 1790" width="21.684" height="13.437" fill="none"/>
    </clipPath>
    <clipPath id="clip-path-8">
      <rect id="Rectangle_1791" data-name="Rectangle 1791" width="23.29" height="27.907" fill="none"/>
    </clipPath>
    <clipPath id="clip-path-9">
      <rect id="Rectangle_1792" data-name="Rectangle 1792" width="7.757" height="11.162" fill="none"/>
    </clipPath>
    <clipPath id="clip-path-10">
      <rect id="Rectangle_1793" data-name="Rectangle 1793" width="20.538" height="8.3" fill="none"/>
    </clipPath>
    <clipPath id="clip-path-11">
      <rect id="Rectangle_1794" data-name="Rectangle 1794" width="20.656" height="7.72" fill="none"/>
    </clipPath>
    <clipPath id="clip-path-12">
      <rect id="Rectangle_1795" data-name="Rectangle 1795" width="5.129" height="7.085" fill="none"/>
    </clipPath>
    <clipPath id="clip-path-13">
      <rect id="Rectangle_1796" data-name="Rectangle 1796" width="6.61" height="6.012" fill="none"/>
    </clipPath>
  </defs>
  <g id="helmet" transform="translate(-3.552 -3.176)">
    <path id="Path_801" data-name="Path 801" d="M10.725,17.238a51.829,51.829,0,0,0-2.85,4.5c-1.212,2.213-1.5,8.35,0,13.563s7.075,12.288,9.788,14.575S27.236,55,32.587,55.088s11.863-1.637,15.788-4.712,7.359-7.016,10-14.425,1.487-12.35.5-14.212-1.306-1.981-3-4-1.288-3.15-3.788-5.363S42.156,6.7,32.587,6.451,17.3,9.876,15.875,10.876,10.725,17.238,10.725,17.238Z" fill="#58584b"/>
    <g id="Group_3269" data-name="Group 3269" transform="translate(3.552 3.176)" clip-path="url(#clip-path)">
      <g id="ryoshi" transform="matrix(0.999, 0.035, -0.035, 0.999, 8.662, 6.25)" opacity="0.45">
        <g id="Group_3252" data-name="Group 3252" clip-path="url(#clip-path-2)">
          <g id="Group_4160" data-name="Group 4160" transform="matrix(0.999, -0.035, 0.035, 0.999, 0.292, -0.904)">
            <g id="Mask_Group_4159" data-name="Mask Group 4159" clip-path="url(#clip-path-3)">
              <g id="Group_4158" data-name="Group 4158">
                <g id="Mask_Group_4157" data-name="Mask Group 4157" clip-path="url(#clip-path-3)">
                  <path id="Path_2498" data-name="Path 2498" d="M49.126,37.016c.049-.032.1-.066.145-.1l.032-.024c.049-.035.1-.07.146-.106l.027-.021c.05-.037.1-.074.146-.112l.024-.018.146-.118.018-.015c.05-.041.1-.083.147-.125l.012-.01c.051-.044.1-.088.149-.134l0,0A7.3,7.3,0,0,0,52.3,32.463c.71-2.986-.686-4.568-.737-9.348A14.831,14.831,0,0,0,50.6,18c3.664-4.976,1.626-9.313,1.626-9.313a13.574,13.574,0,0,0-5.421.536,13.486,13.486,0,0,0-.752-3.269c-.022-.058-.045-.117-.072-.176l-.005-.013c-.025-.056-.054-.113-.083-.171l-.01-.019c-.03-.056-.062-.112-.1-.169l-.013-.022c-.035-.056-.071-.112-.11-.168l-.016-.023c-.039-.056-.08-.113-.123-.17L45.5,5c-.045-.058-.092-.115-.14-.173l-.014-.017c-.051-.06-.1-.119-.159-.178l-.008-.008a13.382,13.382,0,0,0-7.24-3.391,1.328,1.328,0,0,0-2.59-.305c.155.009.317.023.481.037L35.651.953c-5.69-.38-8.084.188-9.156,2.13a9.158,9.158,0,0,0-.488,1.073l-.037,0-.093.008-.091.008-.092.009-.09.008-.091.01-.088.01-.089.01-.087.01-.089.011-.084.011-.088.012-.082.012-.086.012-.082.012-.083.013-.08.013-.083.014-.078.014-.081.015-.076.015-.08.015-.075.016-.078.016-.073.016-.076.017-.071.016-.075.018-.068.017-.072.019-.067.018-.071.019-.065.019-.069.021-.062.02-.067.022-.061.02-.065.023-.058.021-.063.023-.044.018-.016.006-.056.023-.053.023-.007,0-.013.005-.038.017-.051.023-.057.026-.048.024-.036.018a12.1,12.1,0,0,0-4.351-1.386,10.891,10.891,0,0,0,.134,10.117l-.029.056c-.032.062-.064.124-.1.186l-.069.14-.059.124c-.022.045-.043.09-.064.135l-.055.118c-.035.076-.07.153-.1.231-.017.037-.033.075-.049.112l-.066.154c-.017.039-.033.079-.05.118-.024.058-.048.116-.072.174l-.04.1c-.032.081-.065.162-.1.244l-.042.107-.066.176-.039.1c-.032.087-.065.175-.1.263-.008.022-.016.045-.024.067l-.077.217-.033.1-.074.215-.024.069c-.031.093-.062.186-.093.28l-.024.075-.072.22-.026.084-.091.286c-.335,1.073-.631,2.007-.9,2.827s-.514,1.524-.745,2.139c-.047.123-.092.242-.138.358q-.136.347-.267.655l-.065.152c-.044.1-.087.2-.131.291-.066.141-.13.276-.2.4-2.14,4.232.029,9,6.783,11.914.205.089.408.174.61.258l.2.082.4.163.238.094.351.138.25.1.332.124.254.094.319.113.255.09.31.106.253.085.307.1.249.079c.072.023.145.045.217.067l-.113.46-.2.244a63.7,63.7,0,0,0,11.174,1.448c9.182,0,12.1-2.977,12.187-3.043s.509-.311.522-.32" transform="translate(-12.221 0)" fill="#0c0c0c"/>
                  <path id="Path_2499" data-name="Path 2499" d="M9.564,108.4c-2.66.968-4.069,4.3-5.12,7.685a49.44,49.44,0,0,1-2.391,6.734c-2.091,4.176.013,8.877,6.585,11.736,6.707,2.918,11.412,3.325,17.841,2.928s11.45-2.028,12.627-7c.7-2.945-.66-4.5-.7-9.216A13.559,13.559,0,0,0,32.77,110.1c-5.036-3.336-13.608-5.194-23.206-1.7" transform="translate(-1.16 -96.849)" fill="#f6a24c"/>
                  <path id="Path_2500" data-name="Path 2500" d="M16.828,136.23a34.921,34.921,0,0,1-9.4-2.767c-3.656-1.591-6.084-3.8-7.021-6.378a6.847,6.847,0,0,1,.378-5.517,49.475,49.475,0,0,0,2.384-6.716c1.016-3.273,2.427-6.754,5.191-7.76l.04.11-.04-.11a29.3,29.3,0,0,1,13.367-1.718,22.406,22.406,0,0,1,9.944,3.43,13.642,13.642,0,0,1,5.686,11.261,24.37,24.37,0,0,0,.552,4.868,9.424,9.424,0,0,1,.147,4.376,7.638,7.638,0,0,1-4.406,5.3,22.289,22.289,0,0,1-8.327,1.8,42.333,42.333,0,0,1-8.5-.17m5.489-30.537a28.975,28.975,0,0,0-13.872,1.617c-2.669.972-4.05,4.392-5.048,7.61A48.813,48.813,0,0,1,1,121.671,6.619,6.619,0,0,0,.63,127c.915,2.521,3.3,4.68,6.895,6.244,6.8,2.957,11.494,3.307,17.787,2.919a22.073,22.073,0,0,0,8.239-1.773,7.417,7.417,0,0,0,4.282-5.14,9.243,9.243,0,0,0-.149-4.278,24.564,24.564,0,0,1-.556-4.91A13.407,13.407,0,0,0,31.546,109a22.359,22.359,0,0,0-9.229-3.3" transform="translate(0 -95.653)"/>
                  <g id="Group_4132" data-name="Group 4132" transform="translate(23.253 33.897)" opacity="0.2">
                    <g id="Group_4131" data-name="Group 4131">
                      <g id="Mask_Group_4130" data-name="Mask Group 4130" clip-path="url(#clip-path-5)">
                        <path id="Path_2501" data-name="Path 2501" d="M267.337,376.924c-2.438,1.334-2.131-.879-2.131-.879l-9.053,4.194c.671-.022,1.358-.055,2.066-.1,6.311-.389,11.266-1.969,12.558-6.733a9.107,9.107,0,0,1-3.44,3.517" transform="translate(-256.153 -373.407)"/>
                      </g>
                    </g>
                  </g>
                  <path id="Path_2502" data-name="Path 2502" d="M35.981,282.339c-1.889.84-2.412,1.142-3.781-.32a5.272,5.272,0,0,0-6.656-.811c-1.959,1.414-2.236.577-5.006-.684-3.431-1.633-7.3.279-7.493,3.88-.185,3.5,2.69,6.153,7.91,8.493a32.557,32.557,0,0,0,13.824,2.365c4.954-.24,8.4-1.589,9.851-5.17,1.922-4.739-4.264-9.7-8.649-7.752" transform="translate(-11.853 -254.522)" fill="#fff"/>
                  <path id="Path_2503" data-name="Path 2503" d="M27.856,294.265a32.7,32.7,0,0,1-7.709-2.084c-5.607-2.513-8.135-5.236-7.959-8.57a4.645,4.645,0,0,1,2.286-3.809,5.642,5.642,0,0,1,5.318-.137c.612.278,1.092.531,1.516.754,1.438.756,1.923,1.011,3.411-.063a4.761,4.761,0,0,1,3.731-.774,5.707,5.707,0,0,1,3.027,1.6c1.288,1.375,1.76,1.165,3.516.381l.177-.079c2.54-1.13,5.406.038,7.119,1.7a5.556,5.556,0,0,1,1.634,6.157,7.167,7.167,0,0,1-3.65,3.878A16.034,16.034,0,0,1,34,294.552a37.5,37.5,0,0,1-6.148-.287m-9.894-14.989a5.249,5.249,0,0,0-3.408.66,4.491,4.491,0,0,0-2.21,3.684c-.172,3.261,2.327,5.936,7.864,8.418A32.27,32.27,0,0,0,34,294.4c5.434-.264,8.451-1.843,9.781-5.122a5.406,5.406,0,0,0-1.6-5.987c-1.676-1.622-4.475-2.766-6.948-1.666l-.177.079c-1.742.777-2.329,1.039-3.693-.417-1.247-1.331-4.192-2.506-6.554-.8-1.566,1.131-2.113.843-3.574.075-.422-.222-.9-.474-1.509-.751a6,6,0,0,0-1.765-.531m17.24,2.276h0Z" transform="translate(-11.074 -253.734)"/>
                  <path id="Path_2504" data-name="Path 2504" d="M158.3,307.769c-.616-.3-1.186-.652-.6-1.357a2.662,2.662,0,0,1,2.333-.564,2.755,2.755,0,0,1,1.986,1.252c.293.726-.145,1.059-.626.993a1.225,1.225,0,0,0-1.081.735.779.779,0,0,1-1.361-.088c-.244-.719-.1-.7-.652-.972" transform="translate(-143.162 -278.042)"/>
                  <path id="Path_2505" data-name="Path 2505" d="M281.371,334.1a.078.078,0,0,1-.022-.148c.236-.108,5.8-2.653,8.525-2.573a.078.078,0,1,1,0,.155c-2.685-.078-8.4,2.533-8.455,2.559a.078.078,0,0,1-.043.006" transform="translate(-255.768 -301.292)"/>
                  <path id="Path_2506" data-name="Path 2506" d="M311.728,376.931l-.017,0c-2.017-.757-6.572-.9-6.618-.9a.078.078,0,1,1,0-.155c.046,0,4.627.146,6.668.912a.078.078,0,0,1-.038.15" transform="translate(-277.329 -341.748)"/>
                  <path id="Path_2507" data-name="Path 2507" d="M33.839,278.162l-.015,0c-.039-.014-.976-.355-2.006-2.167a6.45,6.45,0,0,0-2.278-2.443.078.078,0,1,1,.072-.138,6.476,6.476,0,0,1,2.342,2.5c1,1.754,1.913,2.094,1.922,2.1a.078.078,0,0,1-.036.15" transform="translate(-26.82 -248.584)"/>
                  <path id="Path_2508" data-name="Path 2508" d="M9.461,314.39a4.22,4.22,0,0,1-1.976-1.083,3.983,3.983,0,0,0-2.643-1.038.078.078,0,0,1-.014-.155,4.059,4.059,0,0,1,2.757,1.073c1.354,1.128,2.042,1.056,2.049,1.055a.078.078,0,0,1,.021.154.75.75,0,0,1-.194-.007" transform="translate(-4.326 -283.778)"/>
                  <path id="Path_2509" data-name="Path 2509" d="M26.892,349.1a9.52,9.52,0,0,1-2.188-.591.078.078,0,1,1,.062-.143,8.466,8.466,0,0,0,3.212.634.078.078,0,1,1,.008.155,5.956,5.956,0,0,1-1.093-.055" transform="translate(-22.418 -316.738)"/>
                  <path id="Path_2510" data-name="Path 2510" d="M120.252,35.983a31.972,31.972,0,0,1,1.953-6.4c1.046-1.916,3.379-2.48,8.919-2.116s9.388,2.865,10.116,4.913c1.063,2.989.843,5.313.615,8.42,0,0-5.648-4.6-21.6-4.815" transform="translate(-109.336 -24.878)" fill="#cd31b5"/>
                  <path id="Path_2511" data-name="Path 2511" d="M140.532,39.858l-.173-.141a17.262,17.262,0,0,0-4.8-2.312c-3.1-1.068-8.515-2.364-16.73-2.477l-.141,0,.028-.138a31.525,31.525,0,0,1,1.965-6.434c1.078-1.975,3.441-2.544,9.029-2.176,5.413.356,9.446,2.817,10.218,4.99,1.033,2.906.862,5.216.645,8.139ZM127.342,35.3a43.625,43.625,0,0,1,8.309,1.889,18.909,18.909,0,0,1,4.68,2.215l.009-.116c.215-2.9.384-5.184-.633-8.044-.747-2.1-4.7-4.485-10.014-4.835-5.478-.361-7.784.177-8.809,2.055a30.588,30.588,0,0,0-1.913,6.231,69.848,69.848,0,0,1,8.371.6" transform="translate(-107.912 -23.706)"/>
                  <g id="Group_4135" data-name="Group 4135" transform="translate(22.704 2.67)" opacity="0.7" style="mix-blend-mode: overlay;isolation: isolate">
                    <g id="Group_4134" data-name="Group 4134">
                      <g id="Mask_Group_4133" data-name="Mask Group 4133" clip-path="url(#clip-path-6)">
                        <path id="Path_2512" data-name="Path 2512" d="M258.344,34.115c1.008,2.835.862,5.072.65,7.946a7.925,7.925,0,0,1,.928.605c.228-3.107.448-5.431-.615-8.42-.687-1.932-4.155-4.268-9.2-4.831,4.522.733,7.6,2.892,8.238,4.7" transform="translate(-250.106 -29.416)" fill="#fff"/>
                      </g>
                    </g>
                  </g>
                  <g id="Group_4138" data-name="Group 4138" transform="translate(10.916 2.484)" opacity="0.2">
                    <g id="Group_4137" data-name="Group 4137">
                      <g id="Mask_Group_4136" data-name="Mask Group 4136" clip-path="url(#clip-path-7)">
                        <path id="Path_2513" data-name="Path 2513" d="M124.35,29.678c.9-1.648,2.753-2.3,6.776-2.212h0c-5.54-.365-7.873.2-8.919,2.116a31.972,31.972,0,0,0-1.953,6.4q1.109.015,2.152.058a31.275,31.275,0,0,1,1.945-6.363" transform="translate(-120.252 -27.362)"/>
                        <path id="Path_2514" data-name="Path 2514" d="M159.761,123.761c13.225.786,18.017,4.686,18.017,4.686.028-.38.056-.748.081-1.106-2.726-1.315-8.36-3.275-18.1-3.579" transform="translate(-156.174 -115.01)"/>
                      </g>
                    </g>
                  </g>
                  <g id="Group_4141" data-name="Group 4141" transform="translate(0.116 12.851)" opacity="0.2">
                    <g id="Group_4140" data-name="Group 4140">
                      <g id="Mask_Group_4139" data-name="Mask Group 4139" clip-path="url(#clip-path-8)">
                        <path id="Path_2515" data-name="Path 2515" d="M13.066,167.022a12.117,12.117,0,0,1-8.4-9.582c-.441-2.512,2.22-3.325,2.22-3.325-1.689.161-2.612-.259-1.46-5.1s2.513-4.756,5.332-6.725l-3.139-.722c-1.469,1.518-2.415,3.935-3.175,6.381a49.408,49.408,0,0,1-2.391,6.734c-2.091,4.176.013,8.877,6.585,11.736a33.286,33.286,0,0,0,15.927,3.022,62.616,62.616,0,0,1-11.5-2.417" transform="translate(-1.275 -141.566)"/>
                      </g>
                    </g>
                  </g>
                  <path id="Path_2516" data-name="Path 2516" d="M127.527,360.908a.818.818,0,0,1,.893-.465,15.7,15.7,0,0,0,7.469-.428,4.6,4.6,0,0,1,1.015-.22.922.922,0,0,1,.6.16l.661.452a.692.692,0,0,1,.274.775,1.828,1.828,0,0,1-1.3,1.13,13.891,13.891,0,0,1-9.428-.844A.434.434,0,0,1,127.527,360.908Z" transform="translate(-115.915 -327.13)" fill="#fff"/>
                  <path id="Path_2517" data-name="Path 2517" d="M130.428,361.582a11.688,11.688,0,0,1-3.933-1.18.553.553,0,0,1-.236-.711h0a.931.931,0,0,1,1.02-.532,15.668,15.668,0,0,0,7.411-.424,4.733,4.733,0,0,1,1.041-.226,1.041,1.041,0,0,1,.677.18l.661.452a.813.813,0,0,1,.319.907,1.94,1.94,0,0,1-1.372,1.206,13.049,13.049,0,0,1-5.588.328m-3.957-1.794a.319.319,0,0,0,.136.41,13.706,13.706,0,0,0,9.334.836,1.72,1.72,0,0,0,1.224-1.055.579.579,0,0,0-.228-.644l-.661-.452a.807.807,0,0,0-.525-.141,4.492,4.492,0,0,0-.989.215,15.907,15.907,0,0,1-7.526.432A.7.7,0,0,0,126.471,359.788Z" transform="translate(-114.753 -325.962)"/>
                  <path id="Path_2518" data-name="Path 2518" d="M184.5,40.089c-.079-4.7-.709-7.531-1.924-8.644-1.077-.986-5.154-2.352-5.421-2.441-.266.012-4.149.209-5.483,1.14-1.422.993-1.885,6.78-1.89,6.838l-.155-.012c.019-.241.474-5.919,1.956-6.954,1.412-.986,5.41-1.162,5.579-1.169h.014l.013,0c.177.058,4.359,1.442,5.491,2.478,1.249,1.143,1.895,4.007,1.975,8.756Z" transform="translate(-154.232 -26.228)"/>
                  <g id="Group_4144" data-name="Group 4144" transform="translate(22.592 2.697)" opacity="0.7" style="mix-blend-mode: overlay;isolation: isolate">
                    <g id="Group_4143" data-name="Group 4143">
                      <g id="Mask_Group_4142" data-name="Mask Group 4142" clip-path="url(#clip-path-9)">
                        <path id="Path_2519" data-name="Path 2519" d="M254.009,32.079c1.129,1.034,1.858,3.573,1.948,8.651l.675.141c-.086-5.111-.816-7.663-1.949-8.7s-5.463-2.462-5.463-2.462-.128.005-.345.019c1.031.355,4.191,1.487,5.134,2.351" transform="translate(-248.875 -29.709)" fill="#fff"/>
                      </g>
                    </g>
                  </g>
                  <path id="Path_2520" data-name="Path 2520" d="M198.289,368.086a13.979,13.979,0,0,1-4.838,1.107" transform="translate(-175.89 -334.672)" fill="#fff"/>
                  <path id="Path_2521" data-name="Path 2521" d="M198.323,367.356a14.36,14.36,0,0,1-4.251.989c-.207.019-.415.032-.622.048.207-.023.413-.043.62-.068a16.61,16.61,0,0,0,3.035-.657,8.987,8.987,0,0,0,1.148-.452.078.078,0,1,1,.07.139" transform="translate(-175.889 -333.873)"/>
                  <path id="Path_2522" data-name="Path 2522" d="M77.66,242.9c-2.062-1.338-3.308-1.629-2.857-2.058s2.267-.083,3.8.911,2.113,1.76,1.815,2.5c-.136.276-1.225-.364-2.757-1.357" transform="translate(-67.929 -218.812)"/>
                  <path id="Path_2523" data-name="Path 2523" d="M239.486,271.907c-1.33.407-1.813.6-2.153.686-.508.127-.9-.613.281-1.335a7.941,7.941,0,0,1,4.459-1.058c1.553.114,1.873.648.967.819a35.456,35.456,0,0,0-3.554.887" transform="translate(-215.34 -245.657)"/>
                  <path id="Path_2524" data-name="Path 2524" d="M110.537,197.166c-1.373-.489-1.546-1.045-.92-1.647s1.942-.3,2.631.606.548,1.763-.46,1.466a8.773,8.773,0,0,1-1.251-.425" transform="translate(-99.351 -177.486)" fill="#fff"/>
                  <path id="Path_2525" data-name="Path 2525" d="M247.491,216.947c1.445-.187,1.732-.695,1.247-1.415s-1.835-.7-2.7.036-.909,1.607.139,1.53a8.781,8.781,0,0,0,1.313-.15" transform="translate(-223.115 -195.484)" fill="#fff"/>
                  <path id="Path_2526" data-name="Path 2526" d="M41.565,68.1s-3.88-5.335-.824-11.194A12.386,12.386,0,0,1,49.9,63.058" transform="translate(-35.976 -51.737)" fill="#f6a24c"/>
                  <path id="Path_2527" data-name="Path 2527" d="M40.427,67.044A.116.116,0,0,1,40.349,67a12.038,12.038,0,0,1-1.576-3.437,10.555,10.555,0,0,1,.743-7.88.116.116,0,0,1,.111-.062,11.134,11.134,0,0,1,3.37.93,12.617,12.617,0,0,1,5.885,5.283.117.117,0,1,1-.2.117,12.385,12.385,0,0,0-5.768-5.182,11.459,11.459,0,0,0-3.226-.908,10.328,10.328,0,0,0-.692,7.631,11.8,11.8,0,0,0,1.542,3.372.117.117,0,0,1-.11.184" transform="translate(-34.854 -50.569)"/>
                  <path id="Path_2528" data-name="Path 2528" d="M57.761,83.61a7.464,7.464,0,0,1-.9-7.085,10.937,10.937,0,0,1,5.99,4.251" transform="translate(-51.265 -69.578)" fill="#fff"/>
                  <path id="Path_2529" data-name="Path 2529" d="M57.014,82.908a.077.077,0,0,1-.049-.027,7.607,7.607,0,0,1-.91-7.161.078.078,0,0,1,.092-.051,11.109,11.109,0,0,1,6.037,4.284.078.078,0,1,1-.13.085,10.929,10.929,0,0,0-5.874-4.2,7.432,7.432,0,0,0,.9,6.941.078.078,0,0,1-.07.128" transform="translate(-50.529 -68.799)"/>
                  <path id="Path_2530" data-name="Path 2530" d="M109.437,70.857a14.958,14.958,0,0,0-1.671-3.563c-1.5-2.657-4.629-4.163-9.084-4.575s-9.207-.081-9.816,1.5,2.226,4.521,2.226,4.521,5.95-2.276,18.344,2.114" transform="translate(-80.722 -56.878)" fill="#cd31b5"/>
                  <path id="Path_2531" data-name="Path 2531" d="M89.9,67.705l-.054-.055c-.118-.122-2.879-3.009-2.251-4.644.64-1.666,5.451-1.992,9.936-1.577,4.591.425,7.678,1.984,9.174,4.634a14.949,14.949,0,0,1,1.684,3.6l.037.2-.191-.068a41,41,0,0,0-13.78-2.7,14.23,14.23,0,0,0-4.483.582Zm8.614-5.93q-.49-.067-1-.115c-4.254-.394-9.1-.115-9.7,1.428-.531,1.382,1.773,3.939,2.15,4.344a14.979,14.979,0,0,1,4.491-.571A41,41,0,0,1,108.1,69.5a19.664,19.664,0,0,0-1.6-3.32c-1.346-2.383-4.031-3.861-7.988-4.4" transform="translate(-79.56 -55.704)"/>
                  <g id="Group_4147" data-name="Group 4147" transform="translate(8.177 5.679)" opacity="0.7" style="mix-blend-mode: overlay;isolation: isolate">
                    <g id="Group_4146" data-name="Group 4146">
                      <g id="Mask_Group_4145" data-name="Mask Group 4145" clip-path="url(#clip-path-10)">
                        <path id="Path_2532" data-name="Path 2532" d="M99.4,63.244c4.455.413,7.583,1.919,9.084,4.575a25.849,25.849,0,0,1,1.4,2.783c.243.082.487.167.734.254a14.956,14.956,0,0,0-1.671-3.563c-1.5-2.657-4.629-4.163-9.084-4.575-4.384-.406-9.056-.092-9.784,1.428,1.454-1.063,5.5-1.257,9.32-.9" transform="translate(-90.079 -62.556)" fill="#fff"/>
                      </g>
                    </g>
                  </g>
                  <path id="Path_2533" data-name="Path 2533" d="M97.808,74.636a.077.077,0,0,1-.048-.025c-.9-1.013-2.531-3.346-2.223-4.147.145-.378,1-.87,2.979-1.119a30.054,30.054,0,0,1,6.219,0c.331.031.66.068.975.111,3.8.52,6.374,1.92,7.639,4.161.4.7.839,1.693,1.132,2.347.085.189.156.35.21.466a.078.078,0,1,1-.141.065c-.054-.117-.126-.278-.211-.468-.291-.652-.732-1.637-1.126-2.334-1.24-2.2-3.772-3.57-7.525-4.083-.314-.043-.64-.08-.969-.111a29.888,29.888,0,0,0-6.186,0c-2.041.257-2.754.762-2.853,1.02-.248.646,1.133,2.793,2.194,3.988a.078.078,0,0,1-.069.129" transform="translate(-86.83 -62.904)"/>
                  <g id="Group_4150" data-name="Group 4150" transform="translate(8.059 6.259)" opacity="0.2">
                    <g id="Group_4149" data-name="Group 4149">
                      <g id="Mask_Group_4148" data-name="Mask Group 4148" clip-path="url(#clip-path-11)">
                        <path id="Path_2534" data-name="Path 2534" d="M109.329,76.313c-13.59-5.044-16.35-1.2-18.747-4.474-1.789-2.44-.2-2.871-.2-2.871l-.023-.017a2.25,2.25,0,0,0-1.5,1.084c-.609,1.584,2.226,4.521,2.226,4.521s5.95-2.276,18.344,2.114a2.838,2.838,0,0,0-.108-.358" transform="translate(-88.781 -68.952)"/>
                      </g>
                    </g>
                  </g>
                  <path id="Path_2535" data-name="Path 2535" d="M236.817,19.062a1.289,1.289,0,0,1,2.521.3s-1.451-.231-2.521-.3" transform="translate(-215.319 -16.497)"/>
                  <path id="Path_2536" data-name="Path 2536" d="M306.321,115.177s3.327-4.253,10.105-3.621c0,0,2.423,5.235-2.944,10.778" transform="translate(-278.514 -101.371)" fill="#f6a24c"/>
                  <path id="Path_2537" data-name="Path 2537" d="M312.3,121.29a.117.117,0,0,1-.068-.2,11.1,11.1,0,0,0,3.451-7.378,8.117,8.117,0,0,0-.5-3.209,12.4,12.4,0,0,0-7.446,1.558,9.489,9.489,0,0,0-2.488,2.024.117.117,0,0,1-.184-.144,9.519,9.519,0,0,1,2.544-2.076,12.644,12.644,0,0,1,7.664-1.589.114.114,0,0,1,.1.067,7.977,7.977,0,0,1,.551,3.363,11.322,11.322,0,0,1-3.517,7.545.117.117,0,0,1-.1.034" transform="translate(-277.346 -100.212)"/>
                  <path id="Path_2538" data-name="Path 2538" d="M331.338,134.168s3.02-2.726,6.609-2.431a10,10,0,0,1-2.474,6.625" transform="translate(-301.26 -119.758)" fill="#fff"/>
                  <path id="Path_2539" data-name="Path 2539" d="M334.683,137.663a.078.078,0,0,1-.047-.13,9.99,9.99,0,0,0,2.455-6.5c-3.482-.247-6.45,2.39-6.48,2.417a.078.078,0,0,1-.1-.115c.031-.027,3.087-2.745,6.667-2.451a.077.077,0,0,1,.071.074,10.168,10.168,0,0,1-2.495,6.681.078.078,0,0,1-.068.024" transform="translate(-300.481 -118.982)"/>
                  <path id="Path_2540" data-name="Path 2540" d="M295.74,397.627h-.006a41,41,0,0,1-6.294-2.138.078.078,0,1,1,.062-.142,40.833,40.833,0,0,0,6.264,2.128.078.078,0,0,1-.026.153" transform="translate(-263.123 -359.451)"/>
                  <g id="Group_4153" data-name="Group 4153" transform="translate(5.118 6.947)" opacity="0.2">
                    <g id="Group_4152" data-name="Group 4152">
                      <g id="Mask_Group_4151" data-name="Mask Group 4151" clip-path="url(#clip-path-12)">
                        <path id="Path_2541" data-name="Path 2541" d="M57.274,80.356a5.282,5.282,0,0,1-.266-3.793c-.092-.026-.142-.038-.142-.038a7.464,7.464,0,0,0,.9,7.085l3.751-2.087c-1.6.337-3.4.615-4.239-1.167" transform="translate(-56.383 -76.525)"/>
                      </g>
                    </g>
                  </g>
                  <g id="Group_4156" data-name="Group 4156" transform="translate(30.078 11.957)" opacity="0.2">
                    <g id="Group_4155" data-name="Group 4155">
                      <g id="Mask_Group_4154" data-name="Mask Group 4154" clip-path="url(#clip-path-13)">
                        <path id="Path_2542" data-name="Path 2542" d="M337.948,131.795c0-.037,0-.058,0-.058-3.588-.294-6.609,2.431-6.609,2.431l3.509,3.559c-.978-1.149-1.871-2.734-.762-3.919a6.926,6.926,0,0,1,3.864-2.013" transform="translate(-331.338 -131.714)"/>
                      </g>
                    </g>
                  </g>
                </g>
              </g>
            </g>
          </g>
        </g>
      </g>
      <path id="Path_771" data-name="Path 771" d="M7.919,13.052,7.7,13.3l-.351.4c-.057.114-.157.236.012.327.022.012.119-.118.181-.182l.364-.37.238-.24.183-.221L9.4,11.964a22.441,22.441,0,0,1,8.434-4.23A43.972,43.972,0,0,1,36.6,7.2c5.237.878,10.076,2.681,14.093,6.3l.368.328.236.227.236.23c.01.141.07.234.223.243l.147.389c.187-.175.072-.332-.029-.49l-.2-.268-.232-.262-.182-.2-.385-.379a19.089,19.089,0,0,0-6.4-4.724,36.616,36.616,0,0,0-19.143-3.3C19.446,5.725,14,7.439,9.456,11.421c-.187.164-.367.254-.322.526-.492.1-.731.491-.991.859l-.223.247M49.2,49.924c.023.086.006.231.155.159.032-.016-.011-.185-.019-.284a7.321,7.321,0,0,0-1.951-3.717c-.394-.427-.853-.589-1.283-.134-.45.476.182.644.381.881.883,1.051,1.808,2.067,2.718,3.1M12.424,45.959c.264-.177.744-.281.419-.731-.245-.339-.61-.513-.906.01-1.542.907-3.032,3.175-2.849,4.392.545-.628,1.061-1.244,1.6-1.838.566-.622,1.155-1.223,1.735-1.833M3.532,28.7A29.22,29.22,0,0,1,4.3,17.763C1.824,18.227.2,19.819.074,21.947a31.37,31.37,0,0,0,.062,5.11,4.734,4.734,0,0,0,3.527,5.222c.585.124.687-.007.558-.541-.243-1.008-.461-2.023-.69-3.035m55.651-1.867a31.953,31.953,0,0,0,.027-5.224,4.716,4.716,0,0,0-3.411-4c-.551-.151-.913-.206-.688.6a26.833,26.833,0,0,1,.677,10.25c-.162.876-.3,1.759-.5,2.627-.182.8-.037,1.075.837.771a4.635,4.635,0,0,0,3.054-5.024M15.044,44.709a.491.491,0,0,0-.677-.046l.465.276c8.861,6.849,21.107,5.9,27.469,1.283a2.172,2.172,0,0,0-1.349.245A35.687,35.687,0,0,1,27.3,48.121a35.576,35.576,0,0,1-12.253-3.412M11.6,8.116C24.351,1.4,36.8,2.708,49.075,9.464c0-.386-.351-.607-.595-.874C41.821,1.3,33.612-1.374,23.984.659A22.643,22.643,0,0,0,11.47,7.985c-.088.024-.225.021-.149.162.017.031.18-.018.276-.03M9.673,32.345c.126-.358.25-.717.378-1.074a46.888,46.888,0,0,1,5.129-10.66c3.345-4.911,8.323-7.52,13.876-9.19.408-.123.915-.064,1.32-.593a14.676,14.676,0,0,0-1.592-.206,28.962,28.962,0,0,0-13.7,3.077,10.2,10.2,0,0,0-5.276,5.63c-1.591,4.3-1.232,8.655-.138,13.016M43.6,25.237c0,2.428.91,3.892,2.315,4.2,1.512.336,3.069-.677,3.794-2.556a6.871,6.871,0,0,0,.443-3.962,2.759,2.759,0,0,0-4.039-2A5.058,5.058,0,0,0,43.6,25.237m.7,8.387a1.74,1.74,0,0,0-1.679-1.849,2.251,2.251,0,0,0-1.991,2.313,1.763,1.763,0,0,0,1.624,1.795A2.217,2.217,0,0,0,44.3,33.624m5-24.041c-.079.059-.182.116-.176.134a1.913,1.913,0,0,0,.151.288c.051-.047.15-.1.145-.138a1.141,1.141,0,0,0-.12-.284" transform="translate(0 0)" fill="#371b46"/>
      <path id="Path_772" data-name="Path 772" d="M260.378,114.616a.093.093,0,0,1,0-.138l.067.069Z" transform="translate(-199.685 -87.804)" fill="#b8acbd"/>
      <path id="Path_773" data-name="Path 773" d="M38.421,67.3c-1.095-4.361-1.453-8.717.138-13.016a10.2,10.2,0,0,1,5.276-5.629,28.959,28.959,0,0,1,13.7-3.077,14.673,14.673,0,0,1,1.592.205c-.405.529-.912.471-1.32.593-5.552,1.669-10.531,4.278-13.876,9.19A46.9,46.9,0,0,0,38.8,66.227c-.128.357-.252.716-.378,1.074" transform="translate(-28.748 -34.956)" fill="#fefefe"/>
      <path id="Path_774" data-name="Path 774" d="M49.227,7.985A22.643,22.643,0,0,1,61.741.659c9.628-2.033,17.837.639,24.5,7.931.243.267.592.488.595.874C74.561,2.708,62.107,1.4,49.354,8.116a1.185,1.185,0,0,0-.127-.132" transform="translate(-37.757 0)" fill="#fefefe"/>
      <path id="Path_775" data-name="Path 775" d="M89.194,200.644a55.519,55.519,0,0,1-5.326,3.908,20.879,20.879,0,0,1-20.67.242,21.764,21.764,0,0,1-5.944-4.585c.5-.768.975-.773,1.791-.268,9.351,5.788,18.826,5.975,28.355.438.78-.453,1.3-.565,1.794.264" transform="translate(-43.913 -153.086)" fill="#fefefe"/>
      <path id="Path_776" data-name="Path 776" d="M187.109,92.96a5.058,5.058,0,0,1,2.512-4.313,2.76,2.76,0,0,1,4.04,2,6.873,6.873,0,0,1-.443,3.962c-.725,1.878-2.282,2.892-3.794,2.556-1.405-.312-2.313-1.776-2.315-4.2" transform="translate(-143.511 -67.723)" fill="#fefefe"/>
      <path id="Path_777" data-name="Path 777" d="M39.176,28.931c-.044-.272.135-.362.322-.526,4.545-3.982,9.99-5.7,15.872-6.13a36.616,36.616,0,0,1,19.143,3.3,19.086,19.086,0,0,1,6.4,4.724l-.182.185c-4.017-3.622-8.856-5.424-14.093-6.3a43.975,43.975,0,0,0-18.765.534,22.437,22.437,0,0,0-8.434,4.23l-.263-.017" transform="translate(-30.042 -16.984)" fill="#fefefe"/>
      <path id="Path_778" data-name="Path 778" d="M63.864,191.879a33.969,33.969,0,0,0,25.908,1.758,2.173,2.173,0,0,1,1.349-.246c-6.362,4.622-18.609,5.567-27.469-1.282l.212-.23" transform="translate(-48.821 -147.17)" fill="#fefefe"/>
      <path id="Path_779" data-name="Path 779" d="M236.974,86.143a26.834,26.834,0,0,0-.677-10.25c-.226-.8.136-.748.688-.6a4.716,4.716,0,0,1,3.411,4,31.9,31.9,0,0,1-.027,5.224c-.481-.03-.71.391-1.045.61a4.426,4.426,0,0,1-2.351,1.016" transform="translate(-181.187 -57.681)" fill="#fefefe"/>
      <path id="Path_780" data-name="Path 780" d="M.136,85.53a31.37,31.37,0,0,1-.062-5.11C.2,78.292,1.824,76.7,4.3,76.237a29.225,29.225,0,0,0-.764,10.94,11.318,11.318,0,0,1-3.4-1.647" transform="translate(0 -58.473)" fill="#fefefe"/>
      <path id="Path_781" data-name="Path 781" d="M178.03,138.219a2.217,2.217,0,0,1-2.046,2.259,1.764,1.764,0,0,1-1.624-1.795,2.251,2.251,0,0,1,1.991-2.313,1.74,1.74,0,0,1,1.679,1.849" transform="translate(-133.733 -104.595)" fill="#fefefe"/>
      <path id="Path_782" data-name="Path 782" d="M.483,116.121a11.319,11.319,0,0,0,3.4,1.647c.229,1.012.447,2.026.69,3.034.129.534.027.665-.558.541a4.734,4.734,0,0,1-3.527-5.222" transform="translate(-0.347 -89.064)" fill="#c3c1c1"/>
      <path id="Path_783" data-name="Path 783" d="M237.569,116.793a4.426,4.426,0,0,0,2.351-1.016c.334-.219.563-.64,1.045-.61a4.635,4.635,0,0,1-3.054,5.024c-.874.3-1.019.028-.837-.771.2-.868.333-1.751.5-2.627" transform="translate(-181.781 -88.332)" fill="#c3c1c1"/>
      <path id="Path_784" data-name="Path 784" d="M42.29,194.87c-.579.61-1.169,1.21-1.735,1.833-.54.594-1.055,1.21-1.6,1.838-.184-1.217,1.307-3.485,2.849-4.392a1,1,0,0,0,.487.721" transform="translate(-29.866 -148.911)" fill="#c3c1c1"/>
      <path id="Path_785" data-name="Path 785" d="M200.442,200.274c-.91-1.028-1.835-2.044-2.718-3.1-.2-.237-.831-.405-.381-.881.431-.455.889-.293,1.283.134a7.316,7.316,0,0,1,1.951,3.717,1.055,1.055,0,0,0-.135.125" transform="translate(-151.24 -150.35)" fill="#faf9fa"/>
      <path id="Path_786" data-name="Path 786" d="M51.719,193.78a1,1,0,0,1-.487-.721c.3-.523.661-.349.906-.01.325.45-.156.554-.419.731" transform="translate(-39.295 -147.821)" fill="#c3c1c1"/>
      <path id="Path_787" data-name="Path 787" d="M35.934,51.272l.263.017-1.066,1.05-.189-.208c.26-.368.5-.759.991-.859" transform="translate(-26.801 -39.325)" fill="#c3c1c1"/>
      <path id="Path_788" data-name="Path 788" d="M62.121,191.577l-.465-.276a.492.492,0,0,1,.677.046l-.212.23" transform="translate(-47.29 -146.638)" fill="#c3c1c1"/>
      <path id="Path_789" data-name="Path 789" d="M222.224,61.926c.1.158.215.316.028.491l-.148-.389c.039-.035.078-.069.119-.1" transform="translate(-170.353 -47.497)" fill="#faf9fa"/>
      <path id="Path_790" data-name="Path 790" d="M217.91,57.67l-.368-.328.182-.185.385.379-.2.134" transform="translate(-166.853 -43.839)" fill="#faf9fa"/>
      <path id="Path_791" data-name="Path 791" d="M210.982,41.129a1.141,1.141,0,0,1,.12.284c.005.038-.093.092-.145.138a1.917,1.917,0,0,1-.151-.288c-.007-.018.1-.075.176-.134" transform="translate(-161.687 -31.546)" fill="#faf9fa"/>
      <path id="Path_792" data-name="Path 792" d="M31.554,57.487l.351-.4.207.173-.365.37-.194-.145" transform="translate(-24.202 -43.787)" fill="#c3c1c1"/>
      <path id="Path_793" data-name="Path 793" d="M211.3,213.725c.008.1.051.268.019.284-.149.072-.132-.073-.155-.159a1.072,1.072,0,0,1,.135-.125" transform="translate(-161.962 -163.926)" fill="#faf9fa"/>
      <path id="Path_794" data-name="Path 794" d="M31.481,58.943c-.062.064-.159.194-.181.182-.169-.09-.069-.213-.013-.327l.194.145" transform="translate(-23.935 -45.098)" fill="#c3c1c1"/>
      <path id="Path_795" data-name="Path 795" d="M221.287,60.774l.2.268c-.041.033-.08.067-.119.1-.154-.008-.214-.1-.224-.243.048-.041.1-.084.142-.127" transform="translate(-169.617 -46.613)" fill="#faf9fa"/>
      <path id="Path_796" data-name="Path 796" d="M220.279,59.65l.232.262q-.069.065-.141.127l-.236-.23a1.705,1.705,0,0,0,.145-.159" transform="translate(-168.841 -45.751)" fill="#faf9fa"/>
      <path id="Path_797" data-name="Path 797" d="M219.319,58.783l.182.2a1.7,1.7,0,0,1-.145.159l-.236-.227.2-.134" transform="translate(-168.064 -45.086)" fill="#faf9fa"/>
      <path id="Path_798" data-name="Path 798" d="M48.79,34.4c-.1.012-.259.061-.276.03-.076-.141.062-.139.149-.162a1.162,1.162,0,0,1,.127.131" transform="translate(-37.193 -26.286)" fill="#faf9fa"/>
      <path id="Path_799" data-name="Path 799" d="M33.507,56.2l-.238.24-.207-.173.216-.249.23.182" transform="translate(-25.358 -42.966)" fill="#c3c1c1"/>
      <path id="Path_800" data-name="Path 800" d="M33.987,55.207l.223-.247.189.208-.182.221-.23-.182" transform="translate(-26.068 -42.154)" fill="#c3c1c1"/>
    </g>
  </g>
</svg>
