<svg xmlns="http://www.w3.org/2000/svg" xmlns:xlink="http://www.w3.org/1999/xlink" width="710.3" height="597.461" viewBox="0 0 710.3 597.461">
  <defs>
    <clipPath id="clip-path">
      <rect id="Rectangle_1498" data-name="Rectangle 1498" width="710.3" height="597.46" transform="translate(-49)" fill="none"/>
    </clipPath>
    <radialGradient id="radial-gradient" cx="0.5" cy="0.5" r="0.503" gradientUnits="objectBoundingBox">
      <stop offset="0" stop-color="#fff6e0"/>
      <stop offset="1" stop-color="#fff6e0" stop-opacity="0"/>
    </radialGradient>
    <clipPath id="clip-path-2">
      <rect id="Rectangle_1809" data-name="Rectangle 1809" width="39.781" height="40.084" fill="none"/>
    </clipPath>
    <clipPath id="clip-path-4">
      <rect id="Rectangle_1799" data-name="Rectangle 1799" width="14.34" height="6.7" fill="none"/>
    </clipPath>
    <clipPath id="clip-path-5">
      <rect id="Rectangle_1800" data-name="Rectangle 1800" width="9.81" height="12.994" fill="none"/>
    </clipPath>
    <clipPath id="clip-path-6">
      <rect id="Rectangle_1801" data-name="Rectangle 1801" width="21.264" height="13.176" fill="none"/>
    </clipPath>
    <clipPath id="clip-path-7">
      <rect id="Rectangle_1802" data-name="Rectangle 1802" width="22.838" height="27.366" fill="none"/>
    </clipPath>
    <clipPath id="clip-path-8">
      <rect id="Rectangle_1803" data-name="Rectangle 1803" width="7.607" height="10.946" fill="none"/>
    </clipPath>
    <clipPath id="clip-path-9">
      <rect id="Rectangle_1804" data-name="Rectangle 1804" width="20.14" height="8.139" fill="none"/>
    </clipPath>
    <clipPath id="clip-path-10">
      <rect id="Rectangle_1805" data-name="Rectangle 1805" width="20.255" height="7.57" fill="none"/>
    </clipPath>
    <clipPath id="clip-path-11">
      <rect id="Rectangle_1806" data-name="Rectangle 1806" width="5.029" height="6.948" fill="none"/>
    </clipPath>
    <clipPath id="clip-path-12">
      <rect id="Rectangle_1807" data-name="Rectangle 1807" width="6.482" height="5.896" fill="none"/>
    </clipPath>
  </defs>
  <g id="moon" transform="translate(49)">
    <g id="Group_3265" data-name="Group 3265" clip-path="url(#clip-path)">
      <ellipse id="glow" cx="233.492" cy="223.85" rx="233.492" ry="223.85" transform="translate(562.25 28.438) rotate(90)" opacity="0.5" fill="url(#radial-gradient)"/>
      <path id="Path_749" data-name="Path 749" d="M.351,301.624,0,301.564c.065.217.442-1.214.351.06" transform="translate(0 84.622)" fill="#282735"/>
      <path id="Path_751" data-name="Path 751" d="M23.229,21.775c.147.018.361-.017.425.065.087.113.06.315.083.478l-.652-.074c.047-.156.1-.313.143-.469" transform="translate(6.488 6.12)" fill="#2b2d42"/>
      <path id="Path_752" data-name="Path 752" d="M25.9,19.8a1.2,1.2,0,0,1,1.15.176L25.9,19.8" transform="translate(7.278 5.544)" fill="#2b2d42"/>
      <path id="Path_753" data-name="Path 753" d="M477.882,35.148l-1.285-1.5,1.285,1.5" transform="translate(133.949 9.457)" fill="#29293b"/>
      <g id="Group_3267" data-name="Group 3267" transform="translate(0 0)">
        <path id="Path_735" data-name="Path 735" d="M57.9,132.9c-5.149-.187-7.861-2.707-8.017-7.08-.159-4.423,2.457-7.246,7.009-7.381s7.22,2.4,7.378,6.955c.159,4.59-2.581,6.869-6.369,7.507" transform="translate(14.019 33.285)" fill="#c3c1c1"/>
        <path id="Path_736" data-name="Path 736" d="M53.352,207.649c-.68,3.491-2.679,5.742-6.4,5.616-3.449-.115-5.469-2.3-5.5-5.7-.028-3.7,2.092-5.975,5.86-6,3.838-.031,5.5,2.5,6.036,6.088" transform="translate(11.651 56.649)" fill="#c3c1c1"/>
        <path id="Path_737" data-name="Path 737" d="M90.439,381.939c-2.8-.065-4.611-1.864-4.59-5.065.019-2.94,1.852-4.631,4.8-4.709C94,372.077,95.8,374.1,95.78,377.22c-.023,2.844-1.781,4.6-5.341,4.719" transform="translate(24.128 104.597)" fill="#c3c1c1"/>
        <path id="Path_738" data-name="Path 738" d="M473.943,32.845q2.175.513,4.35,1.026l1.284,1.5-.05-.022c.48,2.953.192,5.6-3.155,6.678a4.105,4.105,0,0,1-5.268-2.362c-1.528-3.178.442-5.146,2.839-6.823" transform="translate(132.254 9.231)" fill="#c3c1c1"/>
        <path id="Path_739" data-name="Path 739" d="M94.927,43.764c-.219,2.62-1.428,4.5-4.2,4.675-3.072.192-4.856-1.56-4.874-4.555A4.091,4.091,0,0,1,90.264,39.5c2.676-.023,4.262,1.551,4.663,4.266" transform="translate(24.13 11.101)" fill="#c3c1c1"/>
        <path id="Path_740" data-name="Path 740" d="M155.836,396.908c-.567,2.434-1.8,4.441-4.6,4.216a4.1,4.1,0,0,1-4.09-4.662,3.976,3.976,0,0,1,4.174-3.937c2.716.032,4.2,1.642,4.521,4.383" transform="translate(41.348 110.32)" fill="#c3c1c1"/>
        <path id="Path_741" data-name="Path 741" d="M193.8,365.425c-.238-1.463-3-2.667-.1-4.494,1.5-.943,2.734-2.148,4.472-1.262,2.571,1.311,2.777,3.452,1.549,5.872l-1,.822-.119.05c-1.786.568-3.324-.069-4.805-.989" transform="translate(54.069 100.999)" fill="#c3c1c1"/>
        <path id="Path_742" data-name="Path 742" d="M17.6,101.067c-2.056-.275-3.569-1.326-3.665-3.586a3.436,3.436,0,0,1,3.479-3.8A3.382,3.382,0,0,1,21.2,97.144c.133,2.243-1.419,3.406-3.6,3.923" transform="translate(3.916 26.327)" fill="#c3c1c1"/>
        <path id="Path_743" data-name="Path 743" d="M395.243,354.529c.341-2.389,1.654-3.587,3.844-3.472a3.194,3.194,0,0,1,3.3,3.732,3.284,3.284,0,0,1-3.778,3.289c-2.271-.142-3.254-1.56-3.365-3.549" transform="translate(111.084 98.663)" fill="#c3c1c1"/>
        <path id="Path_744" data-name="Path 744" d="M6.234,306.961c-3.564.272-5.07-1.434-4.725-4.918-.355-.866-.867-.971-1.509-.309l.351.06c2.25.751,4.347-3.077,6.635-.263,1.645,2.024.939,3.818-.752,5.429" transform="translate(0 84.451)" fill="#c3c1c1"/>
        <path id="Path_745" data-name="Path 745" d="M452.857,380.231c-.448,1.91-1.5,3.336-3.418,3.245-2.077-.1-3.756-1.327-3.483-3.645a3.327,3.327,0,0,1,3.982-3.158c1.868.279,2.752,1.769,2.919,3.557" transform="translate(125.329 105.851)" fill="#c3c1c1"/>
        <path id="Path_746" data-name="Path 746" d="M476.354,309.87c-1.9-.2-2.844-1.139-2.809-2.905.035-1.726.879-2.8,2.691-2.785,2.059.015,3.122,1.118,2.957,3.185a2.541,2.541,0,0,1-2.839,2.506" transform="translate(133.091 85.49)" fill="#c3c1c1"/>
        <path id="Path_747" data-name="Path 747" d="M158.8,5.441a2.63,2.63,0,0,1-2.39-3.1A2.461,2.461,0,0,1,158.927,0a2.6,2.6,0,0,1,2.8,2.753C161.685,4.5,160.4,5.218,158.8,5.441" transform="translate(43.953 0)" fill="#c3c1c1"/>
        <path id="Path_748" data-name="Path 748" d="M287.084,3.2a2.545,2.545,0,0,1-3.1,2.2,2.561,2.561,0,0,1-2.13-3.309A2.439,2.439,0,0,1,284.59.015c1.635.163,2.608,1.23,2.494,3.185" transform="translate(79.192 0)" fill="#c3c1c1"/>
        <path id="Path_750" data-name="Path 750" d="M26.705,22.172c-2.525-1.863-4.654-3.965-3.241-7.462,1.108-2.741,3.328-3.809,6.2-3.292,2.649.477,4.423,2.307,4.263,4.841-.218,3.482-2.187,5.916-6.073,6.089a1.2,1.2,0,0,0-1.15-.176" transform="translate(6.468 3.173)" fill="#c3c1c1"/>
        <path id="Path_754" data-name="Path 754" d="M182.169,56.859c2.338,2.329,4.148,4.609-.578,6.289-2.033.566-3.3.274-3.538-2.282-.3-3.262,1.859-3.59,4.116-4.007" transform="translate(50.034 15.98)" fill="#c3c1c1"/>
        <path id="Path_755" data-name="Path 755" d="M444.257,249.223c0-1.89-.195-4.2,2.4-4.277,2.8-.085,3.276,2,2.863,4.363a3.972,3.972,0,0,1-5.259-.086" transform="translate(124.859 68.842)" fill="#c3c1c1"/>
      </g>
      <path id="Path_756" data-name="Path 756" d="M455.892,173.4c.147.055.364.07.424.174s-.035.3-.061.456l-.674-.265.311-.365" transform="matrix(0.966, 0.259, -0.259, 0.966, 186.528, 1.633)" fill="#29293b"/>
      <path id="Path_757" data-name="Path 757" d="M426.232,381.77c47.895-42.983,69.244-96.948,61.959-160.489C473.216,90.631,332.33,17.738,216.225,79.658c-12.736,6.792-24.786,14.727-35.011,25.111a17.564,17.564,0,0,0-2.107,1.412c-71.74,64.2-80.377,179.237-18.587,252.934,43.241,51.571,98.909,74.017,165.744,67.2,37.918-3.869,71.4-19.031,99.968-44.54" transform="matrix(0.966, 0.259, -0.259, 0.966, 103.66, -54.356)" fill="#5c5a67"/>
      <path id="Path_758" data-name="Path 758" d="M369.761,98.624l.228-.263-.256.234.028.028" transform="matrix(0.966, 0.259, -0.259, 0.966, 168.681, -24.982)" fill="#5c5a67"/>
      <path id="Path_759" data-name="Path 759" d="M167.613,104.769c10.224-10.384,22.275-18.319,35.011-25.111,116.1-61.92,256.991,10.974,271.966,141.623,7.283,63.541-14.065,117.507-61.959,160.489a386.973,386.973,0,0,1-47.393-6.669c-3.23-.655-4.787.067-6.39,3.144-5.419,10.4-15.681,14.829-26.177,11.863-10.047-2.841-16.113-12.133-14.709-23.913.5-4.188-.986-5.684-4.279-7.1a236.092,236.092,0,0,1-26.3-13.109c-41.852-24.609-71.52-59.907-91.339-103.82-1.936-4.289-4.47-5.388-8.853-5.274-7.483.195-13.021-3.7-14.976-9.68a15.366,15.366,0,0,1,5.994-18.023c3.041-2.142,4.172-4.234,3.135-7.986a332.033,332.033,0,0,1-12.4-88.933c0-2.5-.87-5-1.335-7.494m68.612,1.43c-21.319-.049-37.56,15.83-37.682,36.841-.124,21.359,16.655,38.62,37.651,38.734,20.027.108,37.969-17.573,37.926-37.376-.049-21.815-16.251-38.149-37.895-38.2m127.41,142.358c.1-11.2-10.183-21.52-21.737-21.818-11.522-.3-21.456,9.58-21.628,21.5-.163,11.249,9.717,21.683,20.741,21.907,11.751.24,22.52-10.037,22.623-21.591m-6.079,120.5c-.05-10.976-7.5-18.267-18.664-18.273a18.654,18.654,0,0,0-.074,37.307c11,.051,18.789-7.858,18.738-19.034m9.129-183.285c9.9.063,17.6-7.138,17.512-16.381-.095-10.132-7.238-17.125-17.48-17.115a16.714,16.714,0,0,0-16.884,16.385,16.967,16.967,0,0,0,16.852,17.111M174.2,221.665c.029,7.333,5.251,12.694,12.348,12.679,6.731-.015,13.087-6.2,12.864-12.515A13.388,13.388,0,0,0,186,209.049c-6.59.073-11.832,5.676-11.8,12.616M260.158,80.257a9.573,9.573,0,1,0,19.093,1.208,9.574,9.574,0,0,0-19.093-1.208m56.257,99.756c-.032-5.391-3.719-9.341-7.863-9.368-4.016-.027-8.288,4.125-8.355,8.119a7.751,7.751,0,0,0,7.994,8.087c4.795-.245,7.985-2.549,8.224-6.838m-56.292,98.741c-.188-3.32-1.882-5.8-5.753-5.792-4.061.013-6.427,2.635-6.31,6.439.105,3.426,2.3,6.081,6.162,5.834,3.563-.228,5.857-2.224,5.9-6.481m198.01-17.719a3.057,3.057,0,0,0-3.04-3.328c-2.121-.154-3.715.835-3.718,3.176a3.235,3.235,0,0,0,2.971,3.446c2.209.208,3.313-1.321,3.787-3.294" transform="matrix(0.966, 0.259, -0.259, 0.966, 116.798, -50.836)" fill="#fefefe"/>
      <path id="Path_760" data-name="Path 760" d="M181.214,94.352c.465,2.5,1.336,5,1.335,7.494a332.033,332.033,0,0,0,12.4,88.933c1.039,3.753-.092,5.844-3.135,7.986a15.366,15.366,0,0,0-5.994,18.023c1.955,5.981,7.493,9.874,14.976,9.68,4.384-.114,6.918.985,8.853,5.275,19.819,43.913,49.488,79.21,91.339,103.819a235.866,235.866,0,0,0,26.3,13.109c3.292,1.421,4.777,2.917,4.279,7.1-1.4,11.781,4.662,21.072,14.709,23.913,10.5,2.967,20.758-1.467,26.177-11.863,1.6-3.077,3.16-3.8,6.39-3.144a386.982,386.982,0,0,0,47.393,6.669c-28.573,25.51-62.05,40.671-99.968,44.541-66.835,6.82-122.5-15.625-165.744-67.2C98.73,275,107.366,159.968,179.107,95.764a17.564,17.564,0,0,1,2.107-1.412" transform="matrix(0.966, 0.259, -0.259, 0.966, 100.964, -44.294)" fill="#c3c1c1"/>
      <path id="Path_761" data-name="Path 761" d="M229.439,95.468c21.643.05,37.846,16.383,37.895,38.2.044,19.8-17.9,37.484-37.926,37.376-21-.114-37.776-17.375-37.651-38.734.122-21.011,16.363-36.889,37.682-36.841" transform="matrix(0.966, 0.259, -0.259, 0.966, 120.575, -38.714)" fill="#c3c1c1"/>
      <path id="Path_762" data-name="Path 762" d="M330.142,211.382c-.1,11.553-10.872,21.829-22.623,21.591-11.025-.224-20.9-10.658-20.742-21.907.172-11.923,10.106-21.8,21.629-21.5,11.554.3,21.837,10.62,21.736,21.819" transform="matrix(0.966, 0.259, -0.259, 0.966, 139.526, -6.26)" fill="#c3c1c1"/>
      <path id="Path_763" data-name="Path 763" d="M324.064,304.67c.051,11.176-7.735,19.085-18.738,19.034A18.653,18.653,0,0,1,305.4,286.4c11.167.005,18.614,7.3,18.664,18.272" transform="matrix(0.966, 0.259, -0.259, 0.966, 132.483, 20.031)" fill="#c3c1c1"/>
      <path id="Path_764" data-name="Path 764" d="M326.708,164.936a16.968,16.968,0,0,1-16.852-17.112,16.716,16.716,0,0,1,16.884-16.385c10.242-.01,17.385,6.984,17.48,17.115.087,9.243-7.611,16.445-17.512,16.382" transform="matrix(0.966, 0.259, -0.259, 0.966, 150.018, -20.359)" fill="#c3c1c1"/>
      <path id="Path_765" data-name="Path 765" d="M172.755,188.37c-.028-6.939,5.214-12.543,11.8-12.616a13.388,13.388,0,0,1,13.409,12.78c.223,6.317-6.132,12.5-12.864,12.515-7.1.015-12.317-5.346-12.348-12.679" transform="matrix(0.966, 0.259, -0.259, 0.966, 109.576, -18.301)" fill="#c3c1c1"/>
      <path id="Path_766" data-name="Path 766" d="M239.86,77.1A9.574,9.574,0,0,1,258.952,78.3,9.573,9.573,0,1,1,239.86,77.1" transform="matrix(0.966, 0.259, -0.259, 0.966, 135.585, -42.528)" fill="#c3c1c1"/>
      <path id="Path_767" data-name="Path 767" d="M287.327,155.144c-.24,4.289-3.431,6.594-8.224,6.838a7.752,7.752,0,0,1-7.994-8.089c.067-3.993,4.339-8.145,8.354-8.119,4.144.028,7.832,3.979,7.864,9.37" transform="matrix(0.966, 0.259, -0.259, 0.966, 138.458, -19.285)" fill="#c3c1c1"/>
      <path id="Path_768" data-name="Path 768" d="M242.475,231.437c-.045,4.256-2.339,6.253-5.9,6.481-3.857.247-6.054-2.408-6.161-5.834-.118-3.8,2.248-6.427,6.309-6.439,3.874-.012,5.566,2.471,5.754,5.792" transform="matrix(0.966, 0.259, -0.259, 0.966, 121.598, -0.563)" fill="#c3c1c1"/>
      <path id="Path_769" data-name="Path 769" d="M395.878,217.068c-.474,1.973-1.578,3.5-3.787,3.294a3.235,3.235,0,0,1-2.971-3.446c0-2.34,1.6-3.329,3.718-3.176a3.057,3.057,0,0,1,3.04,3.328" transform="matrix(0.966, 0.259, -0.259, 0.966, 165.552, 7.746)" fill="#c3c1c1"/>
    </g>
    <g id="flag" transform="translate(-623.85 -4007.978)">
      <path id="Path_803" data-name="Path 803" d="M4658.6,4024.825l-50.7,92.85" transform="translate(-3569)" fill="none" stroke="#c3c1c1" stroke-linecap="round" stroke-width="3"/>
      <path id="Path_802" data-name="Path 802" d="M4654.1,4059.6s13.95,3.925,24.4,14.575,5.523,18.344,17.4,28.025,27.175,13.425,27.175,13.425-12.15,5.75-20.15,15.575-11.85,23.725-11.85,23.725-16.032-3.919-28.15-13-6.943-15.994-17.725-26.3-25.4-14.925-25.4-14.925,12.9-8.98,21.472-19.255A83.26,83.26,0,0,0,4654.1,4059.6Z" transform="translate(-4255.875 931.814) rotate(-11)" fill="#f2ca66"/>
      <g id="ryoshi" transform="translate(1565.244 1887.961) rotate(37)">
        <g id="Group_4191" data-name="Group 4191" transform="matrix(0.995, -0.105, 0.105, 0.995, 931.387, 2000.143)">
          <g id="Group_4190" data-name="Group 4190" clip-path="url(#clip-path-2)">
            <g id="Group_4189" data-name="Group 4189">
              <g id="Group_4188" data-name="Group 4188" clip-path="url(#clip-path-2)">
                <path id="Path_2543" data-name="Path 2543" d="M48.434,36.3c.048-.032.1-.065.143-.1l.032-.023c.049-.034.1-.068.143-.1l.027-.02c.049-.036.1-.072.143-.11l.023-.018.143-.116.018-.014c.049-.04.1-.081.144-.123l.011-.01c.05-.043.1-.087.147-.132l0,0a7.154,7.154,0,0,0,2.133-3.7c.7-2.928-.672-4.48-.723-9.167a14.543,14.543,0,0,0-.945-5.016c3.593-4.879,1.594-9.132,1.594-9.132a13.311,13.311,0,0,0-5.316.526,13.225,13.225,0,0,0-.738-3.206c-.021-.057-.044-.115-.07-.173l-.005-.012c-.025-.055-.053-.111-.082-.167l-.01-.019c-.029-.055-.061-.11-.094-.165l-.013-.022c-.034-.055-.07-.11-.108-.165l-.016-.023c-.039-.055-.079-.111-.121-.167L44.881,4.9c-.044-.057-.09-.113-.138-.17l-.014-.016c-.05-.058-.1-.116-.156-.175l-.007-.008a13.123,13.123,0,0,0-7.1-3.326,1.3,1.3,0,0,0-2.539-.3c.152.009.311.022.472.037L35.22.934c-5.579-.372-7.928.184-8.978,2.088a8.98,8.98,0,0,0-.478,1.052l-.037,0-.091.008-.089.008-.09.009-.088.008-.089.009-.087.01-.087.01-.085.01-.087.01-.082.01-.086.012-.081.011L24.6,4.2l-.08.012-.082.013-.079.013-.081.014-.077.013-.08.015-.074.015-.078.015-.074.015-.076.016-.071.016-.075.017-.069.016-.073.018-.067.017-.071.019-.066.018-.07.019L23.2,4.5l-.067.02-.061.019L23,4.562l-.06.02-.064.022-.057.021-.062.022-.043.017-.015.006-.055.022-.052.022-.006,0-.013.005-.038.016-.05.022-.056.025-.047.024-.036.017a11.869,11.869,0,0,0-4.267-1.359,10.679,10.679,0,0,0,.131,9.92l-.028.055c-.031.06-.063.122-.093.183l-.068.137-.058.121c-.021.044-.042.088-.063.132l-.054.116c-.034.075-.068.15-.1.226-.016.036-.032.073-.048.11l-.064.151c-.017.038-.033.077-.049.116-.024.057-.047.114-.07.17l-.039.1c-.032.08-.063.159-.094.24l-.041.105-.065.173-.038.1c-.032.086-.063.171-.094.258-.008.022-.015.044-.024.066l-.075.213-.033.094-.073.211-.023.068c-.03.091-.061.182-.091.275l-.024.074-.07.216-.026.082-.089.28c-.328,1.052-.619,1.968-.884,2.772s-.5,1.495-.731,2.1c-.046.121-.09.237-.135.351q-.133.341-.262.642l-.064.149c-.043.1-.086.192-.128.285-.064.138-.128.27-.192.4-2.1,4.15.028,8.828,6.652,11.683.2.087.4.171.6.253l.2.081.39.159.234.092.345.136.245.093.325.121.249.092.313.111.25.088.3.1.248.083.3.1.244.077.213.065-.111.451-.2.24A62.465,62.465,0,0,0,35.972,39.6c9,0,11.865-2.919,11.951-2.984s.5-.3.511-.313" transform="translate(-12.244 0)" fill="#0c0c0c"/>
                <path id="Path_2544" data-name="Path 2544" d="M9.4,108.359c-2.608.949-3.99,4.215-5.021,7.536a48.482,48.482,0,0,1-2.345,6.6c-2.05,4.1.013,8.7,6.457,11.509,6.577,2.861,11.191,3.26,17.495,2.871s11.228-1.989,12.382-6.867c.683-2.888-.647-4.416-.688-9.038a13.3,13.3,0,0,0-5.524-10.948c-4.938-3.271-13.344-5.093-22.756-1.667" transform="translate(-1.162 -97.036)" fill="#f6a24c"/>
                <path id="Path_2545" data-name="Path 2545" d="M16.5,135.628a34.245,34.245,0,0,1-9.214-2.714C3.7,131.355,1.322,129.192.4,126.66a6.714,6.714,0,0,1,.371-5.41,48.514,48.514,0,0,0,2.338-6.586c1-3.209,2.38-6.623,5.091-7.61l.039.108-.039-.108a28.73,28.73,0,0,1,13.107-1.684,21.971,21.971,0,0,1,9.751,3.363,13.378,13.378,0,0,1,5.575,11.043,23.9,23.9,0,0,0,.541,4.773,9.241,9.241,0,0,1,.144,4.291A7.49,7.49,0,0,1,33,134.034a21.857,21.857,0,0,1-8.166,1.761,41.514,41.514,0,0,1-8.333-.167m5.382-29.945a28.414,28.414,0,0,0-13.6,1.585c-2.617.953-3.971,4.307-4.951,7.463a47.867,47.867,0,0,1-2.352,6.621,6.49,6.49,0,0,0-.36,5.23c.9,2.472,3.235,4.589,6.761,6.123,6.664,2.9,11.271,3.243,17.442,2.862a21.645,21.645,0,0,0,8.079-1.739,7.273,7.273,0,0,0,4.2-5.041,9.064,9.064,0,0,0-.146-4.195,24.088,24.088,0,0,1-.546-4.815,13.147,13.147,0,0,0-5.473-10.854,21.926,21.926,0,0,0-9.051-3.24" transform="translate(0 -95.838)"/>
                <g id="Group_4163" data-name="Group 4163" transform="translate(22.802 33.24)" opacity="0.2">
                  <g id="Group_4162" data-name="Group 4162">
                    <g id="Group_4161" data-name="Group 4161" clip-path="url(#clip-path-4)">
                      <path id="Path_2546" data-name="Path 2546" d="M267.12,376.856c-2.391,1.308-2.09-.862-2.09-.862l-8.878,4.113c.658-.022,1.331-.054,2.026-.1,6.189-.382,11.047-1.931,12.315-6.6a8.93,8.93,0,0,1-3.373,3.449" transform="translate(-256.153 -373.407)"/>
                    </g>
                  </g>
                </g>
                <path id="Path_2547" data-name="Path 2547" d="M35.536,282.292c-1.853.824-2.365,1.119-3.708-.314a5.169,5.169,0,0,0-6.527-.8c-1.921,1.387-2.193.566-4.909-.671-3.364-1.6-7.161.274-7.348,3.8-.181,3.435,2.637,6.034,7.757,8.329a31.925,31.925,0,0,0,13.556,2.319c4.858-.236,8.235-1.558,9.66-5.07,1.885-4.647-4.181-9.515-8.482-7.6" transform="translate(-11.876 -255.015)" fill="#fff"/>
                <path id="Path_2548" data-name="Path 2548" d="M27.552,293.97a32.066,32.066,0,0,1-7.559-2.043c-5.5-2.465-7.977-5.134-7.8-8.4a4.555,4.555,0,0,1,2.242-3.735,5.533,5.533,0,0,1,5.215-.134c.6.273,1.071.521,1.487.74,1.41.742,1.885.991,3.345-.062a4.668,4.668,0,0,1,3.659-.759,5.6,5.6,0,0,1,2.968,1.565c1.263,1.348,1.726,1.142,3.447.374l.173-.077c2.49-1.108,5.3.037,6.981,1.663a5.449,5.449,0,0,1,1.6,6.037,7.028,7.028,0,0,1-3.58,3.8,15.723,15.723,0,0,1-6.147,1.314,36.771,36.771,0,0,1-6.028-.281m-9.7-14.7a5.147,5.147,0,0,0-3.342.647,4.4,4.4,0,0,0-2.167,3.612c-.169,3.2,2.282,5.821,7.712,8.255A31.646,31.646,0,0,0,33.575,294.1c5.329-.259,8.287-1.808,9.591-5.022a5.3,5.3,0,0,0-1.567-5.87c-1.644-1.59-4.388-2.712-6.813-1.633l-.173.077c-1.708.762-2.284,1.019-3.621-.409-1.223-1.305-4.11-2.458-6.426-.786-1.536,1.109-2.072.827-3.505.073-.414-.218-.883-.464-1.48-.736a5.882,5.882,0,0,0-1.73-.521M34.755,281.5h0Z" transform="translate(-11.096 -254.226)"/>
                <path id="Path_2549" data-name="Path 2549" d="M158.285,307.731c-.6-.3-1.163-.64-.588-1.33a2.611,2.611,0,0,1,2.287-.553,2.7,2.7,0,0,1,1.948,1.228c.287.712-.142,1.038-.614.974a1.2,1.2,0,0,0-1.06.721.764.764,0,0,1-1.335-.086c-.24-.7-.1-.687-.639-.953" transform="translate(-143.44 -278.581)"/>
                <path id="Path_2550" data-name="Path 2550" d="M281.37,334.043a.076.076,0,0,1-.022-.145c.231-.106,5.691-2.6,8.36-2.524a.076.076,0,1,1,0,.152c-2.633-.077-8.235,2.484-8.292,2.51a.077.077,0,0,1-.042.006" transform="translate(-256.263 -301.875)"/>
                <path id="Path_2551" data-name="Path 2551" d="M311.6,376.91l-.017,0a28.7,28.7,0,0,0-6.489-.885.076.076,0,0,1,0-.152,28.826,28.826,0,0,1,6.538.895.076.076,0,0,1-.037.147" transform="translate(-277.866 -342.41)"/>
                <path id="Path_2552" data-name="Path 2552" d="M33.755,278.07l-.015,0c-.039-.013-.957-.348-1.968-2.125a6.326,6.326,0,0,0-2.234-2.4.076.076,0,0,1,.07-.135,6.351,6.351,0,0,1,2.3,2.455c.978,1.72,1.876,2.053,1.885,2.056a.076.076,0,0,1-.035.147" transform="translate(-26.872 -249.065)"/>
                <path id="Path_2553" data-name="Path 2553" d="M9.37,314.346a4.139,4.139,0,0,1-1.938-1.062,3.906,3.906,0,0,0-2.592-1.018.076.076,0,0,1-.014-.152,3.979,3.979,0,0,1,2.7,1.052c1.328,1.106,2,1.036,2.009,1.035a.076.076,0,0,1,.021.151.735.735,0,0,1-.19-.007" transform="translate(-4.334 -284.328)"/>
                <path id="Path_2554" data-name="Path 2554" d="M26.848,349.088a9.339,9.339,0,0,1-2.146-.58.076.076,0,1,1,.06-.14,8.3,8.3,0,0,0,3.15.621.076.076,0,1,1,.007.152,5.837,5.837,0,0,1-1.072-.054" transform="translate(-22.461 -317.352)"/>
                <path id="Path_2555" data-name="Path 2555" d="M120.252,35.816a31.352,31.352,0,0,1,1.916-6.278c1.026-1.879,3.314-2.432,8.746-2.075s9.206,2.81,9.92,4.817c1.042,2.931.827,5.21.6,8.256,0,0-5.539-4.507-21.185-4.722" transform="translate(-109.547 -24.926)" fill="#cd31b5"/>
                <path id="Path_2556" data-name="Path 2556" d="M140.108,39.591l-.17-.138a16.927,16.927,0,0,0-4.708-2.267,52.9,52.9,0,0,0-16.405-2.429l-.138,0,.027-.135a30.913,30.913,0,0,1,1.927-6.31c1.057-1.936,3.374-2.495,8.854-2.134,5.308.349,9.263,2.762,10.02,4.893,1.013,2.85.845,5.114.633,7.982Zm-12.934-4.468a42.78,42.78,0,0,1,8.148,1.853,18.543,18.543,0,0,1,4.589,2.172l.008-.114c.21-2.84.377-5.084-.62-7.888-.733-2.061-4.606-4.4-9.82-4.742-5.372-.354-7.633.174-8.638,2.015a30,30,0,0,0-1.876,6.11,68.492,68.492,0,0,1,8.208.593" transform="translate(-108.121 -23.752)"/>
                <g id="Group_4166" data-name="Group 4166" transform="translate(22.264 2.618)" opacity="0.7" style="mix-blend-mode: overlay;isolation: isolate">
                  <g id="Group_4165" data-name="Group 4165">
                    <g id="Group_4164" data-name="Group 4164" clip-path="url(#clip-path-5)">
                      <path id="Path_2557" data-name="Path 2557" d="M258.184,34.024c.988,2.78.846,4.974.637,7.792a7.767,7.767,0,0,1,.91.594c.224-3.047.439-5.325-.6-8.256-.674-1.895-4.074-4.185-9.022-4.737,4.434.719,7.449,2.836,8.078,4.608" transform="translate(-250.106 -29.416)" fill="#fff"/>
                    </g>
                  </g>
                </g>
                <g id="Group_4169" data-name="Group 4169" transform="translate(10.705 2.436)" opacity="0.2">
                  <g id="Group_4168" data-name="Group 4168">
                    <g id="Group_4167" data-name="Group 4167" clip-path="url(#clip-path-6)">
                      <path id="Path_2558" data-name="Path 2558" d="M124.27,29.634c.882-1.616,2.7-2.251,6.645-2.169h0c-5.433-.358-7.72.2-8.746,2.075a31.352,31.352,0,0,0-1.916,6.278q1.088.015,2.111.057a30.67,30.67,0,0,1,1.908-6.239" transform="translate(-120.252 -27.362)"/>
                      <path id="Path_2559" data-name="Path 2559" d="M159.761,123.761c12.968.771,17.668,4.6,17.668,4.6.027-.372.055-.733.079-1.085-2.673-1.289-8.2-3.211-17.747-3.51" transform="translate(-156.244 -115.18)"/>
                    </g>
                  </g>
                </g>
                <g id="Group_4172" data-name="Group 4172" transform="translate(0.114 12.602)" opacity="0.2">
                  <g id="Group_4171" data-name="Group 4171">
                    <g id="Group_4170" data-name="Group 4170" clip-path="url(#clip-path-7)">
                      <path id="Path_2560" data-name="Path 2560" d="M12.837,166.529a11.882,11.882,0,0,1-8.237-9.4c-.433-2.463,2.177-3.261,2.177-3.261-1.656.158-2.562-.254-1.432-5s2.464-4.664,5.229-6.594L7.5,141.566c-1.441,1.489-2.369,3.858-3.113,6.257a48.449,48.449,0,0,1-2.345,6.6c-2.05,4.1.013,8.7,6.457,11.509A32.641,32.641,0,0,0,24.113,168.9a61.4,61.4,0,0,1-11.276-2.37" transform="translate(-1.275 -141.566)"/>
                    </g>
                  </g>
                </g>
                <path id="Path_2561" data-name="Path 2561" d="M127.527,360.886a.8.8,0,0,1,.876-.456,15.394,15.394,0,0,0,7.324-.42,4.513,4.513,0,0,1,1-.216.9.9,0,0,1,.589.157l.648.443a.678.678,0,0,1,.268.76,1.792,1.792,0,0,1-1.273,1.108,13.621,13.621,0,0,1-9.245-.828A.426.426,0,0,1,127.527,360.886Z" transform="translate(-116.139 -327.763)" fill="#fff"/>
                <path id="Path_2562" data-name="Path 2562" d="M130.346,361.522a11.463,11.463,0,0,1-3.857-1.157.542.542,0,0,1-.231-.7h0a.913.913,0,0,1,1-.521,15.363,15.363,0,0,0,7.267-.416,4.642,4.642,0,0,1,1.021-.221,1.021,1.021,0,0,1,.664.177l.648.443a.8.8,0,0,1,.313.889,1.9,1.9,0,0,1-1.346,1.183,12.8,12.8,0,0,1-5.48.321m-3.88-1.759a.313.313,0,0,0,.133.4,13.441,13.441,0,0,0,9.153.819,1.687,1.687,0,0,0,1.2-1.034.567.567,0,0,0-.224-.632l-.648-.443a.792.792,0,0,0-.515-.138,4.406,4.406,0,0,0-.97.211,15.6,15.6,0,0,1-7.38.423A.688.688,0,0,0,126.466,359.763Z" transform="translate(-114.975 -326.593)"/>
                <path id="Path_2563" data-name="Path 2563" d="M184.216,39.871c-.078-4.613-.695-7.385-1.887-8.477-1.056-.967-5.054-2.306-5.316-2.394-.261.012-4.068.2-5.376,1.118-1.395.974-1.849,6.649-1.853,6.706l-.152-.012c.018-.237.464-5.8,1.918-6.819,1.384-.967,5.3-1.139,5.471-1.146h.014l.013,0c.174.057,4.274,1.414,5.385,2.43,1.224,1.121,1.858,3.93,1.936,8.586Z" transform="translate(-154.531 -26.279)"/>
                <g id="Group_4175" data-name="Group 4175" transform="translate(22.154 2.645)" opacity="0.7" style="mix-blend-mode: overlay;isolation: isolate">
                  <g id="Group_4174" data-name="Group 4174">
                    <g id="Group_4173" data-name="Group 4173" clip-path="url(#clip-path-8)">
                      <path id="Path_2564" data-name="Path 2564" d="M253.91,32.033c1.108,1.014,1.822,3.5,1.911,8.483l.662.139c-.084-5.012-.8-7.514-1.911-8.532s-5.357-2.414-5.357-2.414-.125.005-.338.019c1.011.348,4.109,1.458,5.035,2.3" transform="translate(-248.875 -29.709)" fill="#fff"/>
                    </g>
                  </g>
                </g>
                <path id="Path_2565" data-name="Path 2565" d="M198.2,368.086a13.707,13.707,0,0,1-4.744,1.085" transform="translate(-176.23 -335.32)" fill="#fff"/>
                <path id="Path_2566" data-name="Path 2566" d="M198.229,367.353a14.082,14.082,0,0,1-4.169.97c-.2.018-.407.032-.61.047.2-.022.405-.042.608-.066a16.284,16.284,0,0,0,2.976-.644,8.809,8.809,0,0,0,1.126-.443.076.076,0,1,1,.069.136" transform="translate(-176.23 -334.519)"/>
                <path id="Path_2567" data-name="Path 2567" d="M77.6,242.853c-2.022-1.312-3.244-1.6-2.8-2.018s2.223-.081,3.725.894,2.072,1.726,1.78,2.455c-.133.27-1.2-.357-2.7-1.331" transform="translate(-68.061 -219.235)"/>
                <path id="Path_2568" data-name="Path 2568" d="M239.434,271.874c-1.3.4-1.778.59-2.112.673-.5.124-.88-.6.275-1.309a7.787,7.787,0,0,1,4.373-1.037c1.523.112,1.836.636.948.8a34.761,34.761,0,0,0-3.485.87" transform="translate(-215.757 -246.132)"/>
                <path id="Path_2569" data-name="Path 2569" d="M110.513,197.128c-1.346-.479-1.516-1.025-.9-1.615s1.9-.293,2.58.594.538,1.729-.451,1.437a8.6,8.6,0,0,1-1.227-.416" transform="translate(-99.543 -177.83)" fill="#fff"/>
                <path id="Path_2570" data-name="Path 2570" d="M247.451,216.909c1.417-.183,1.7-.681,1.223-1.388s-1.8-.689-2.647.035-.891,1.576.137,1.5a8.609,8.609,0,0,0,1.288-.147" transform="translate(-223.547 -195.862)" fill="#fff"/>
                <path id="Path_2571" data-name="Path 2571" d="M41.526,67.88s-3.8-5.232-.808-10.977A12.146,12.146,0,0,1,49.7,62.939" transform="translate(-36.045 -51.838)" fill="#f6a24c"/>
                <path id="Path_2572" data-name="Path 2572" d="M40.387,66.823a.114.114,0,0,1-.077-.046,11.8,11.8,0,0,1-1.545-3.37,10.35,10.35,0,0,1,.728-7.727.114.114,0,0,1,.109-.061,10.918,10.918,0,0,1,3.3.912,12.372,12.372,0,0,1,5.771,5.18.114.114,0,1,1-.2.115,12.145,12.145,0,0,0-5.656-5.082,11.238,11.238,0,0,0-3.163-.891,10.128,10.128,0,0,0-.678,7.483,11.575,11.575,0,0,0,1.513,3.306.114.114,0,0,1-.108.181" transform="translate(-34.921 -50.667)"/>
                <path id="Path_2573" data-name="Path 2573" d="M57.734,83.473a7.32,7.32,0,0,1-.878-6.948,10.725,10.725,0,0,1,5.874,4.168" transform="translate(-51.364 -69.713)" fill="#fff"/>
                <path id="Path_2574" data-name="Path 2574" d="M56.986,82.768a.075.075,0,0,1-.048-.026,7.46,7.46,0,0,1-.892-7.022.077.077,0,0,1,.09-.05,10.894,10.894,0,0,1,5.92,4.2.076.076,0,0,1-.127.084,10.717,10.717,0,0,0-5.76-4.118,7.288,7.288,0,0,0,.886,6.806.076.076,0,0,1-.068.125" transform="translate(-50.627 -68.932)"/>
                <path id="Path_2575" data-name="Path 2575" d="M109.036,70.7A14.668,14.668,0,0,0,107.4,67.2c-1.471-2.605-4.539-4.082-8.907-4.487s-9.029-.08-9.626,1.474,2.183,4.433,2.183,4.433,5.834-2.232,17.988,2.073" transform="translate(-80.878 -56.988)" fill="#cd31b5"/>
                <path id="Path_2576" data-name="Path 2576" d="M89.854,67.58l-.053-.054c-.116-.12-2.823-2.951-2.207-4.554.628-1.633,5.346-1.954,9.743-1.546,4.5.417,7.529,1.946,9,4.544a14.658,14.658,0,0,1,1.651,3.529l.037.2-.187-.066a40.2,40.2,0,0,0-13.513-2.645,13.954,13.954,0,0,0-4.4.57ZM98.3,61.766q-.48-.066-.985-.112c-4.172-.386-8.927-.113-9.508,1.4-.521,1.356,1.739,3.863,2.108,4.26a14.689,14.689,0,0,1,4.4-.559A40.2,40.2,0,0,1,107.7,69.338a19.282,19.282,0,0,0-1.568-3.256c-1.32-2.337-3.952-3.786-7.833-4.317" transform="translate(-79.714 -55.812)"/>
                <g id="Group_4178" data-name="Group 4178" transform="translate(8.019 5.569)" opacity="0.7" style="mix-blend-mode: overlay;isolation: isolate">
                  <g id="Group_4177" data-name="Group 4177">
                    <g id="Group_4176" data-name="Group 4176" clip-path="url(#clip-path-9)">
                      <path id="Path_2577" data-name="Path 2577" d="M99.218,63.23c4.368.4,7.436,1.882,8.907,4.487a25.349,25.349,0,0,1,1.373,2.729c.238.081.477.163.72.249A14.666,14.666,0,0,0,108.58,67.2c-1.471-2.605-4.539-4.082-8.907-4.487-4.3-.4-8.881-.09-9.594,1.4,1.426-1.043,5.39-1.233,9.139-.886" transform="translate(-90.079 -62.556)" fill="#fff"/>
                    </g>
                  </g>
                </g>
                <path id="Path_2578" data-name="Path 2578" d="M97.763,74.53a.076.076,0,0,1-.047-.025c-.882-.994-2.481-3.281-2.18-4.066.142-.37.984-.853,2.921-1.1a29.471,29.471,0,0,1,6.1,0c.325.03.647.067.956.109,3.73.51,6.25,1.882,7.491,4.08.389.69.823,1.66,1.11,2.3.083.186.153.343.206.457a.076.076,0,1,1-.138.064c-.053-.114-.124-.272-.207-.459-.286-.639-.718-1.605-1.1-2.289-1.216-2.154-3.7-3.5-7.379-4-.308-.042-.627-.079-.95-.108a29.309,29.309,0,0,0-6.066,0c-2,.252-2.7.747-2.8,1-.244.634,1.111,2.739,2.151,3.91a.076.076,0,0,1-.067.126" transform="translate(-86.998 -63.026)"/>
                <g id="Group_4181" data-name="Group 4181" transform="translate(7.903 6.138)" opacity="0.2">
                  <g id="Group_4180" data-name="Group 4180">
                    <g id="Group_4179" data-name="Group 4179" clip-path="url(#clip-path-10)">
                      <path id="Path_2579" data-name="Path 2579" d="M108.93,76.171C95.6,71.224,92.9,74.99,90.547,71.784c-1.755-2.393-.192-2.815-.192-2.815l-.022-.016a2.206,2.206,0,0,0-1.467,1.063c-.6,1.553,2.183,4.433,2.183,4.433s5.834-2.232,17.988,2.073a2.784,2.784,0,0,0-.106-.351" transform="translate(-88.781 -68.952)"/>
                    </g>
                  </g>
                </g>
                <path id="Path_2580" data-name="Path 2580" d="M236.817,19.044a1.264,1.264,0,0,1,2.472.29s-1.423-.227-2.472-.29" transform="translate(-215.736 -16.529)"/>
                <path id="Path_2581" data-name="Path 2581" d="M306.321,115.106s3.262-4.17,9.909-3.55c0,0,2.376,5.133-2.887,10.569" transform="translate(-279.053 -101.568)" fill="#f6a24c"/>
                <path id="Path_2582" data-name="Path 2582" d="M312.158,121.075a.114.114,0,0,1-.067-.193,10.884,10.884,0,0,0,3.384-7.234,7.96,7.96,0,0,0-.494-3.147,12.161,12.161,0,0,0-7.3,1.528,9.3,9.3,0,0,0-2.439,1.985.114.114,0,1,1-.18-.141,9.332,9.332,0,0,1,2.494-2.036,12.4,12.4,0,0,1,7.516-1.558.112.112,0,0,1,.093.066,7.822,7.822,0,0,1,.541,3.3,11.1,11.1,0,0,1-3.449,7.4.114.114,0,0,1-.1.034" transform="translate(-277.883 -100.406)"/>
                <path id="Path_2583" data-name="Path 2583" d="M331.338,134.12s2.962-2.673,6.48-2.384a9.81,9.81,0,0,1-2.426,6.5" transform="translate(-301.843 -119.989)" fill="#fff"/>
                <path id="Path_2584" data-name="Path 2584" d="M334.6,137.531a.076.076,0,0,1-.046-.127,9.8,9.8,0,0,0,2.408-6.374c-3.415-.242-6.325,2.344-6.355,2.37a.076.076,0,0,1-.1-.113c.03-.027,3.027-2.691,6.538-2.4a.075.075,0,0,1,.07.072,9.971,9.971,0,0,1-2.446,6.551.076.076,0,0,1-.066.024" transform="translate(-301.063 -119.213)"/>
                <path id="Path_2585" data-name="Path 2585" d="M295.617,397.582h-.005a40.205,40.205,0,0,1-6.172-2.1.076.076,0,1,1,.061-.14,40.038,40.038,0,0,0,6.143,2.087.076.076,0,0,1-.026.15" transform="translate(-263.632 -360.147)"/>
                <g id="Group_4184" data-name="Group 4184" transform="translate(5.019 6.812)" opacity="0.2">
                  <g id="Group_4183" data-name="Group 4183">
                    <g id="Group_4182" data-name="Group 4182" clip-path="url(#clip-path-11)">
                      <path id="Path_2586" data-name="Path 2586" d="M57.256,80.282A5.18,5.18,0,0,1,57,76.563c-.09-.026-.139-.038-.139-.038a7.32,7.32,0,0,0,.878,6.948l3.679-2.047c-1.574.331-3.337.6-4.156-1.144" transform="translate(-56.383 -76.525)"/>
                    </g>
                  </g>
                </g>
                <g id="Group_4187" data-name="Group 4187" transform="translate(29.495 11.725)" opacity="0.2">
                  <g id="Group_4186" data-name="Group 4186">
                    <g id="Group_4185" data-name="Group 4185" clip-path="url(#clip-path-12)">
                      <path id="Path_2587" data-name="Path 2587" d="M337.82,131.793c0-.036,0-.057,0-.057-3.519-.288-6.48,2.384-6.48,2.384l3.441,3.49c-.959-1.126-1.835-2.681-.748-3.843a6.792,6.792,0,0,1,3.789-1.974" transform="translate(-331.338 -131.714)"/>
                    </g>
                  </g>
                </g>
              </g>
            </g>
          </g>
        </g>
      </g>
    </g>
  </g>
</svg>
