<svg id="nft-vector" xmlns="http://www.w3.org/2000/svg" xmlns:xlink="http://www.w3.org/1999/xlink" width="167.044" height="198.647" viewBox="0 0 167.044 198.647">
  <defs>
    <clipPath id="clip-path">
      <rect id="Rectangle_1664" data-name="Rectangle 1664" width="167.044" height="198.647" fill="none"/>
    </clipPath>
    <clipPath id="clip-path-2">
      <rect id="Rectangle_1663" data-name="Rectangle 1663" width="167.043" height="198.648" fill="none"/>
    </clipPath>
    <clipPath id="clip-path-3">
      <rect id="Rectangle_1643" data-name="Rectangle 1643" width="10.286" height="32.361" fill="none"/>
    </clipPath>
    <clipPath id="clip-path-4">
      <rect id="Rectangle_1644" data-name="Rectangle 1644" width="20.29" height="11.824" fill="none"/>
    </clipPath>
    <clipPath id="clip-path-5">
      <rect id="Rectangle_1645" data-name="Rectangle 1645" width="23.414" height="15.102" fill="none"/>
    </clipPath>
    <clipPath id="clip-path-6">
      <rect id="Rectangle_1646" data-name="Rectangle 1646" width="16.03" height="38.498" fill="none"/>
    </clipPath>
    <clipPath id="clip-path-7">
      <rect id="Rectangle_1647" data-name="Rectangle 1647" width="19.884" height="20.378" fill="none"/>
    </clipPath>
    <clipPath id="clip-path-8">
      <rect id="Rectangle_1648" data-name="Rectangle 1648" width="38.074" height="20.295" fill="none"/>
    </clipPath>
    <clipPath id="clip-path-9">
      <rect id="Rectangle_1649" data-name="Rectangle 1649" width="42.647" height="44.788" fill="none"/>
    </clipPath>
    <clipPath id="clip-path-10">
      <rect id="Rectangle_1650" data-name="Rectangle 1650" width="15.871" height="17.357" fill="none"/>
    </clipPath>
    <clipPath id="clip-path-11">
      <rect id="Rectangle_1651" data-name="Rectangle 1651" width="36.694" height="11.445" fill="none"/>
    </clipPath>
    <clipPath id="clip-path-12">
      <rect id="Rectangle_1652" data-name="Rectangle 1652" width="36.788" height="9.417" fill="none"/>
    </clipPath>
    <clipPath id="clip-path-13">
      <rect id="Rectangle_1653" data-name="Rectangle 1653" width="9.414" height="11.908" fill="none"/>
    </clipPath>
    <clipPath id="clip-path-14">
      <rect id="Rectangle_1654" data-name="Rectangle 1654" width="10.751" height="10.97" fill="none"/>
    </clipPath>
    <clipPath id="clip-path-15">
      <rect id="Rectangle_1655" data-name="Rectangle 1655" width="11.928" height="10.597" fill="none"/>
    </clipPath>
    <clipPath id="clip-path-16">
      <rect id="Rectangle_1656" data-name="Rectangle 1656" width="48.864" height="34.495" fill="none"/>
    </clipPath>
    <clipPath id="clip-path-17">
      <rect id="Rectangle_1657" data-name="Rectangle 1657" width="52.341" height="48.721" fill="none"/>
    </clipPath>
    <clipPath id="clip-path-18">
      <rect id="Rectangle_1658" data-name="Rectangle 1658" width="34.657" height="44.278" fill="none"/>
    </clipPath>
    <clipPath id="clip-path-19">
      <rect id="Rectangle_1660" data-name="Rectangle 1660" width="23.284" height="31.825" fill="none"/>
    </clipPath>
    <clipPath id="clip-path-20">
      <rect id="Rectangle_1661" data-name="Rectangle 1661" width="26.221" height="31.124" fill="none"/>
    </clipPath>
    <clipPath id="clip-path-21">
      <rect id="Rectangle_1662" data-name="Rectangle 1662" width="23.511" height="14.828" fill="none"/>
    </clipPath>
  </defs>
  <g id="Group_3820" data-name="Group 3820" clip-path="url(#clip-path)">
    <g id="Group_3819" data-name="Group 3819" transform="translate(0 -0.001)">
      <g id="Group_3818" data-name="Group 3818" clip-path="url(#clip-path-2)">
        <path id="Path_1620" data-name="Path 1620" d="M352.5,808.7a5.7,5.7,0,1,1-5.7-5.7,5.7,5.7,0,0,1,5.7,5.7" transform="translate(-295.309 -695.218)" fill="#01c1c1"/>
        <path id="Path_1621" data-name="Path 1621" d="M787.357,1215.129A10.134,10.134,0,1,1,777.224,1205a10.134,10.134,0,0,1,10.134,10.133" transform="translate(-664.132 -1043.262)" fill="#01c1c1"/>
        <path id="Path_1622" data-name="Path 1622" d="M831,1009.452a8.456,8.456,0,1,1-8.456-8.456,8.456,8.456,0,0,1,8.456,8.456" transform="translate(-704.823 -866.643)" fill="#01c1c1"/>
        <path id="Path_1623" data-name="Path 1623" d="M328.667,789.284A3.288,3.288,0,1,1,325.378,786a3.288,3.288,0,0,1,3.288,3.288" transform="translate(-278.859 -680.5)" fill="#01c1c1"/>
        <path id="Path_1624" data-name="Path 1624" d="M1075.667,1043.284a3.288,3.288,0,1,1-3.288-3.288,3.288,3.288,0,0,1,3.288,3.288" transform="translate(-925.598 -900.408)" fill="#01c1c1"/>
        <path id="Path_1625" data-name="Path 1625" d="M109.788,828.345A2.349,2.349,0,1,1,107.439,826a2.349,2.349,0,0,1,2.349,2.349" transform="translate(-90.985 -715.131)" fill="#01c1c1"/>
        <path id="Path_1626" data-name="Path 1626" d="M728.788,1364.345a2.349,2.349,0,1,1-2.349-2.349,2.349,2.349,0,0,1,2.349,2.349" transform="translate(-626.903 -1179.19)" fill="#01c1c1"/>
        <path id="Path_1627" data-name="Path 1627" d="M791.372,1438.137a1.141,1.141,0,1,1-1.141-1.141,1.141,1.141,0,0,1,1.141,1.141" transform="translate(-683.179 -1244.123)" fill="#01c1c1"/>
        <path id="Path_1628" data-name="Path 1628" d="M1040.526,1120.312a3.846,3.846,0,0,0-1.425-2.627,5.3,5.3,0,0,0-3.653-1.244l-1.416-.037c.1-.43.19-.864.251-1.306a14.991,14.991,0,0,0,.019-3.324q.013.141.026.281c0-.209.011-.414.021-.622a4.291,4.291,0,0,0-2.447-3.825,4.75,4.75,0,0,0-4.753.031,8.814,8.814,0,0,0-3.124,4.214,6.959,6.959,0,0,0-1.212-.627,6.223,6.223,0,0,0-4.342-.179,3.628,3.628,0,0,0-2.484,4.257,12.536,12.536,0,0,0,1.475,3.506l-.287.058a9.731,9.731,0,0,0-2.165.648,7.477,7.477,0,0,0-2.346,1.688,2.476,2.476,0,0,0-.422.539c-.008.012-.039.061-.106.169a9.478,9.478,0,0,0-.643,1.169,2.212,2.212,0,0,0,.755,2.439,2.93,2.93,0,0,0,2.806.622c.082-.037.165-.072.249-.107a5.352,5.352,0,0,0,4.57,1.993c.882-.116,1.74-.32,2.6-.494l.077-.016,2.855,4.02a5,5,0,0,0,1.57,1.718,5.658,5.658,0,0,0,2.344.924,7.058,7.058,0,0,0,2.709-.218,5.139,5.139,0,0,0,2.1-1.357,4.307,4.307,0,0,0,1.153-2.937,13.717,13.717,0,0,0-1.335-4.593l-.549-1.433h.108c.868.056,1.739.137,2.607.2a4.869,4.869,0,0,0,3.02-.6,3.016,3.016,0,0,0,1.39-2.928" transform="translate(-875.616 -958.409)" fill="#01c1c1"/>
        <path id="Path_1629" data-name="Path 1629" d="M999.32,1111.709a9.114,9.114,0,0,0-1.437.194,3.279,3.279,0,0,1-2.053,1.758l.526,1.253a4.021,4.021,0,0,1-1.131,4.879,3.7,3.7,0,0,1-1.337.8,3.4,3.4,0,0,1-.943,1.815,4.377,4.377,0,0,1-3.2.926,3.063,3.063,0,0,1-.781,1.118,4.311,4.311,0,0,1-4.44.626,4.215,4.215,0,0,1-2.39-2.274c-1.018-2.3-2-4.689-2.99-7.075-1.4.4-2.839.877-4.177,1.4a4.218,4.218,0,0,1-2.907-.1l-.392-.155a6.621,6.621,0,0,1-2.647-.473,6.96,6.96,0,0,1-4.488-5.289,4.311,4.311,0,0,1,2.83-4.589c.816-.344,1.5-.645,2.284-.906.033-.082.163-.126.2-.208a5.086,5.086,0,0,1-.176-5.3,5.751,5.751,0,0,1,4.435-2.625,6,6,0,0,1,6.5-1.813,4.966,4.966,0,0,1,3.947-1.962c1.3-1.864,3.717-2.528,6.267-1.808a1.568,1.568,0,0,1,.621.15,7.172,7.172,0,0,1,3.535,3.106,4.332,4.332,0,0,1,.368,3.378c-.161.983-.452,2.009-.679,2.871a6.888,6.888,0,0,1,1.536.13,9.607,9.607,0,0,1,1.536.416,5.838,5.838,0,0,1,3.636,4l.067.692a3.876,3.876,0,0,1,.658,2.066,3.2,3.2,0,0,1-2.769,3m-1.023-4.017c-.294-.116-.523-.111-.719-.189,1.239-.843.352-2.9-1.477-3.15a30.8,30.8,0,0,0-5.487.118l-.261.087c.032-.368.194-.779.193-1.065l1.651-5.911c.487-1.234-.758-2.677-2.1-3.015a2.388,2.388,0,0,0-3.067,1.453l-1.59,4.032c-.227.576-.356,1.191-.551,1.685-1.145-.832-2.226-1.829-3.305-2.54-3.829-2.936-7.541,1.591-3.615,4.28l2.225,1.543-.131.043-.816.058a25.991,25.991,0,0,0-6.2,1.929c-3.3,1.458.374,5.948,3.18,4.583.881-.223,1.665-.485,2.578-.79a10.238,10.238,0,0,1-1.893.775c-.424.213.1.9.524.682l7.637-2.409c1.184,3.32,2.565,6.717,4.075,10.071.427.929,1.863.449,1.338-.518a18.644,18.644,0,0,0-.886-1.776c1.7,1.147,4.606.1,3.751-2.039a47.82,47.82,0,0,0-3.577-6.736,32.307,32.307,0,0,0,8.623-.023.606.606,0,0,0-.1-1.181m-12.538,1.9a30.557,30.557,0,0,1,2.267,5.173l-2.4-5.13a.093.093,0,0,0,.13-.044" transform="translate(-835.046 -945.101)" fill="#0c0c0c"/>
        <path id="Path_1630" data-name="Path 1630" d="M440.453,1116.952a7.451,7.451,0,0,1-.236.826v6.133a1.358,1.358,0,0,1-2.713,0h-.118v-2.477a8.339,8.339,0,0,1-3.067,1.533c.118.826.118,1.769.236,2.595.236,3.774.118,7.667.118,11.559a1.061,1.061,0,1,1-2.123,0c-.118-3.892-.354-7.784-.118-11.559v-2.241a7.855,7.855,0,0,1-3.3-.236c.236,9.553,0,19.225-.236,28.9.236.944-1.651,1.062-1.651,0,.236-6.133.354-12.266.59-18.4v-10.969a7.593,7.593,0,0,1-2.831-2.359c.118,4.246.236,8.492.118,12.738a.593.593,0,0,1-1.18,0,125.6,125.6,0,0,1,.118-13.328l-2.949-.472a26.652,26.652,0,0,1-.118,3.067c-.118,1.769-2.949,1.769-2.831,0v-.118a16.147,16.147,0,0,1-.236-3.42,165.729,165.729,0,0,0-21.584-.708c-10.5.236-20.758,1.651-31.255,2.595-2,.236-2-2.595-.354-3.185.118,0,.236-.118.354-.118-.708,0-1.533.118-2.359.118,0,1.533.236,2.949.236,4.364.236,2.713.472,5.426.472,8.138,0,1.415-2.241,1.769-2.477.354a47.616,47.616,0,0,1-.472-10.025,17.43,17.43,0,0,1,.118-2.477,16.689,16.689,0,0,0-2.359.472c0,6.959.236,14.036.472,20.994.118,1.3-1.887,1.3-2.005,0-.354-6.959-.708-14.036-.826-20.994-2.595-.826-4.364-4.482-1.769-6.6,5.425-4.364,11.794-5.9,18.517-6.841,7.313-1.062,14.743-1.887,22.056-2.359,7.313-.354,14.507-.59,21.82-.354a103.121,103.121,0,0,1,12.03.826c3.42.472,6.841,1.062,10.143,1.769,4.6.944,4.954,6.959,2.123,9.553a11.425,11.425,0,0,1-.354,2.713m-69.941-5.779c.118,0,.118-.236,0-.236s-.118.236,0,.236m4.482,2.949c.118-.118.354-.118.59-.236-.354,0-.59.118-.944.118h-.118a.71.71,0,0,1,.472.118" transform="translate(-305.486 -954.086)" fill="#0c0c0c"/>
        <path id="Path_1631" data-name="Path 1631" d="M474.29,81.27c-.031-.072-.062-.144-.093-.215l-.009-.022q-.074-.166-.152-.327l-.053-.108-.063-.128q.106-.608.211-1.2l0-.024q.028-.153.055-.3l.017-.092.044-.235.023-.119.04-.211.024-.124q.02-.1.041-.2c.008-.04.016-.081.024-.121l.044-.214.022-.106q.033-.157.068-.312a10.873,10.873,0,0,0,.307-2.645q-.006-.209-.024-.4c-.012-.127-.028-.247-.047-.362a4.425,4.425,0,0,0-.107-.482,3.919,3.919,0,0,0-.143-.418,4.056,4.056,0,0,0-.363-.687c-.066-.1-.134-.2-.2-.29-.159-.216-.32-.412-.466-.611-.041-.057-.082-.114-.12-.172a2.3,2.3,0,0,1-.395-.992c-.005-.039-.01-.08-.013-.121-.007-.082-.009-.168-.008-.258a3.262,3.262,0,0,1,.04-.435c.016-.1.037-.212.064-.327s.059-.234.1-.359a10.021,10.021,0,0,1,.517-1.307c.051-.108.1-.214.146-.32l.022-.049q.067-.152.128-.3l.021-.051c.041-.1.08-.2.117-.3l.009-.025q.056-.151.105-.3l0-.008c.012-.037.024-.074.035-.11.868-1.95.013-3.575-2.481-4.324a17.1,17.1,0,0,0-3.818-.58q-.149-.029-.3-.056l.044-.036q.115-.093.228-.188l.065-.055q.114-.1.226-.2l.058-.052q.114-.1.225-.2l.05-.047q.114-.107.225-.215l.043-.042c.075-.074.15-.149.224-.225l.036-.037q.113-.117.222-.235l.028-.03c.075-.082.149-.164.222-.248l.018-.021q.114-.13.223-.263l.007-.008a12.589,12.589,0,0,0,2.839-6.953c.517-5.272-2.24-7.653-3.446-15.817a25.628,25.628,0,0,0-2.844-8.522c5.1-9.367.6-16.308.6-16.308a23.415,23.415,0,0,0-9.147,2.184,23.274,23.274,0,0,0-2.052-5.416c-.05-.1-.1-.19-.163-.285l-.012-.019c-.057-.091-.118-.182-.183-.273l-.022-.031c-.064-.089-.132-.177-.2-.266l-.029-.035q-.108-.131-.227-.262l-.033-.036q-.121-.131-.252-.261l-.033-.032q-.135-.132-.281-.263l-.028-.025q-.152-.135-.314-.268l-.015-.012c-2.579-2.1-7.261-3.854-13.177-4.108h0a2.292,2.292,0,0,0-4.5.084c.266-.02.547-.036.832-.048l-.315.02c-9.82.68-13.783,2.211-15.161,5.782a15.776,15.776,0,0,0-.584,1.949L421,9.612l-.157.035-.153.035-.155.036-.151.036-.153.037-.149.037-.149.038-.146.038-.149.039-.141.038-.148.041-.138.039-.145.041-.137.04-.14.042-.134.041-.139.043-.13.042-.135.044-.127.042-.132.045-.125.044-.128.046-.121.044-.126.047-.117.045-.123.048-.113.046-.12.049-.11.047-.117.05-.106.047-.112.051-.1.048-.109.052-.1.049-.106.053-.095.05-.1.054-.072.04-.024.014-.092.052-.086.051-.01.006-.022.013-.062.037-.082.051-.09.058-.077.052-.058.039a20.881,20.881,0,0,0-7.766-1.354c-2.818,7.741.463,14.19,2.594,17.27l-.037.1q-.06.17-.119.342c-.029.085-.058.169-.086.255s-.049.15-.073.226-.052.164-.077.246-.045.143-.066.215q-.063.208-.124.419c-.019.067-.038.135-.057.2q-.039.139-.077.278c-.019.071-.038.142-.057.213q-.042.157-.082.315c-.015.059-.03.117-.045.176q-.055.219-.108.441c-.015.064-.03.129-.046.193q-.037.158-.074.317l-.042.185q-.053.235-.1.472l-.025.121q-.041.194-.081.389l-.035.173q-.038.192-.076.385l-.024.123q-.048.25-.094.5l-.024.134q-.036.2-.071.394l-.026.148q-.045.255-.088.51c-.323,1.913-.612,3.581-.882,5.046s-.523,2.728-.775,3.832q-.076.331-.151.644c-.1.417-.2.81-.3,1.182q-.038.14-.077.275-.077.271-.156.527-.118.385-.24.738c-2.67,7.738,2.154,15.391,14.386,18.793q.557.155,1.1.3l.363.094c.24.063.481.125.718.185l.429.105c.212.052.424.1.634.153l.45.1.6.135.456.1.572.121.457.093c.186.037.371.073.556.108l.453.086c.184.034.367.066.549.1l.443.077.387.063-.087.814-2.164,3.468a1.912,1.912,0,0,0,.121.3l-.156.007a6.918,6.918,0,0,0-5.011,2.543c-.342-.521-1-.678-2.052-.245h0c-.059.024-.12.05-.182.079l-.008,0c-.06.027-.12.056-.182.087l-.022.011c-.058.029-.117.059-.177.092l-.041.023c-.055.03-.11.06-.167.092l-.07.041-.147.087-.115.071-.114.071q-.117.075-.239.157-.633.428-1.214.805-.291.19-.57.368-.558.358-1.069.676c-.511.32-.989.615-1.437.893q-.336.209-.649.406c-.767.483-1.438.924-2.034,1.373l-.16.123q-.159.123-.31.248c-.2.167-.4.337-.58.512q-.208.2-.4.405-.065.069-.128.14a8.871,8.871,0,0,0-.6.753q-.114.16-.225.329a11.529,11.529,0,0,0-.919,1.737q-.1.22-.188.455t-.184.483q-.137.374-.27.783c-.178.547-.352,1.038-.526,1.483q-.087.223-.173.432t-.172.4q-.086.2-.172.379c-.115.245-.23.476-.346.7s-.232.427-.35.627l-.088.148c-.148.245-.3.479-.45.708q-.092.138-.185.274c-.218.318-.442.632-.676.96l-.1.142-.205.29c-.138.2-.28.4-.426.616-.109.161-.221.328-.335.5a36.579,36.579,0,0,0-2.514,4.583q-.284.6-.54,1.139c-.942,1.965-1.62,3.279-2.109,4.387-.067.151-.13.3-.19.443-.12.289-.226.567-.321.844l-.046.138c-.045.138-.088.276-.128.415q-.04.139-.076.28t-.069.284c-.055.239-.1.486-.145.745q-.025.155-.048.317c-.023.162-.043.328-.062.5-.069.635-.113,1.354-.143,2.213q-.012.352-.011.7a14.352,14.352,0,0,0,.573,4.105q.059.193.125.38t.138.367a7.01,7.01,0,0,0,.877,1.6q.1.138.213.267.055.064.112.126.113.123.232.237a4.217,4.217,0,0,0,.373.315,3.882,3.882,0,0,0,3.226.653c2.778-.56,4.234.573,7.19.787l.209.013q.317.018.657.02h.23c.466,0,.968-.034,1.514-.093q.273-.03.56-.07t.591-.092q.3-.052.623-.116t.657-.141q.337-.077.692-.168l.7-.177c2.174-.542,3.993-.928,5.564-1.295l.924.541c-.669,5.593-.927,9.66-.927,9.66s8.272,2.994,24.541,6.533,18.75-3.811,18.75-3.811,11.03-14.154,12.822-31.846c1.2-11.895-1.12-15.957-2.773-17.342m-55.827,2.605-.046.208c.016-.082.034-.165.054-.248l-.008.039" transform="translate(-342.763 0.004)" fill="#0c0c0c"/>
        <path id="Path_1632" data-name="Path 1632" d="M624.835,592.5s7.651,2.148,5.906,19.6S617.319,643.5,617.319,643.5s0,7.248-15.838,3.758-23.891-6.443-23.891-6.443,1.879-30.065,8.724-38.789,38.521-9.53,38.521-9.53" transform="translate(-500.066 -512.971)" fill="#333"/>
        <path id="Path_1633" data-name="Path 1633" d="M607.642,647.1a35.538,35.538,0,0,1-7.561-.947,208.247,208.247,0,0,1-23.917-6.45l-.141-.052.009-.15c0-.075.485-7.624,1.8-16.141,1.764-11.457,4.109-19.114,6.97-22.76s10.259-6.389,21.956-8.111a158.065,158.065,0,0,1,16.718-1.5h.03l.029.008a7.3,7.3,0,0,1,3.724,3.342c1.563,2.506,3.235,7.4,2.328,16.468-.9,9.047-4.518,17.134-7.389,22.324a65.388,65.388,0,0,1-6.034,9.139,4.369,4.369,0,0,1-1.738,3.034c-1.147.922-3.184,1.793-6.782,1.793m-31.2-7.725a214.049,214.049,0,0,0,23.723,6.384c8.451,1.862,12.273.616,13.992-.756a3.969,3.969,0,0,0,1.6-2.806v-.072l.047-.056a64.046,64.046,0,0,0,6.04-9.137c2.851-5.155,6.439-13.185,7.336-22.161.892-8.924-.729-13.723-2.246-16.177a7.229,7.229,0,0,0-3.488-3.2,157.869,157.869,0,0,0-16.639,1.491c-11.427,1.683-18.928,4.435-21.695,7.961-6.48,8.259-8.514,36.209-8.672,38.527" transform="translate(-498.71 -511.668)"/>
        <path id="Path_1634" data-name="Path 1634" d="M841.635,851c.09-.187.46-.875.037-.09a3.611,3.611,0,0,0,.3-3.455,3.358,3.358,0,0,0-2.811-1.948c-1.845.079-3.7.046-5.551.067-1.766.02-3.533.123-5.3.2-3.58.147-7.169.377-10.753.327a70.932,70.932,0,0,1-10.359-1.189c-3.61-.583-7.254-1.357-10.928-.981a10.571,10.571,0,0,0-8.192,5.116,6.459,6.459,0,0,0-.678,1.584,3.353,3.353,0,0,0,.936,3.508c-.01.211-.013.421-.008.631a4.8,4.8,0,0,0-.265,3.7,4.646,4.646,0,0,0,2.916,3.091,103.023,103.023,0,0,0,15.553,3.1q-.138.528-.269,1.057c-1.753,7.031-3.546,14.156-4.067,21.406a49.286,49.286,0,0,0,.471,11.324,13.03,13.03,0,0,0,2.294,6.177,7.855,7.855,0,0,0,7.673,2.743,9.031,9.031,0,0,0,6-4.269,13.268,13.268,0,0,0,1.487-4.193,16.234,16.234,0,0,0,.262-2.358c.182-3.593.224-7.2.27-10.794a156.022,156.022,0,0,1,1.113-20.47q2.493-.093,4.984-.3c3.013-.248,6.224-.729,8.866-2.286l-.13.084.158-.1c.254-.151.5-.311.746-.482l-.414.267A12.662,12.662,0,0,0,840.4,857.8a9.793,9.793,0,0,0,1.092-6.489c.047-.1.093-.208.142-.311" transform="translate(-681.581 -730.569)" fill="#01c1c1"/>
        <path id="Path_1635" data-name="Path 1635" d="M809.383,841.5a6.052,6.052,0,0,1-2.451,4.085,7.326,7.326,0,0,1-3.573,5.451,1.254,1.254,0,0,1-.386.241,7.066,7.066,0,0,1-3.169,3.932,4.369,4.369,0,0,1-1.793.669,3.588,3.588,0,0,1-1.407.428c-2.677.319-5.528.532-8.477.829l-.473,5.533-.419,4.9c-.326,3.81-.576,7.809-1,11.7-.036,2.555-.24,6.01-.353,9.473l-.016.182-.106.173c-.238,1.716-.911,5.313-3.819,7.257l-.674.4a7.973,7.973,0,0,1-2.881,3.774l-4.3,1.185a9.876,9.876,0,0,1-2.3.169,6.062,6.062,0,0,1-1.882-.435c-6.187-2.448-5.937-9.645-5.917-12.019.178-5.285.794-10.349,1.309-14.234l.807-6.236c.4-2.525.714-5.147,1.121-7.762l.424-3.893-.635-.054c-2.441-.3-4.981-.517-7.589-1.014a15.9,15.9,0,0,1-6.542-2.57,9.686,9.686,0,0,1-3.287-4.3,7.555,7.555,0,0,1-2.129-8.223,7.4,7.4,0,0,1,3.547-4.083l.008-.091a7.748,7.748,0,0,1,4.97-4.692,3.164,3.164,0,0,1,3.073-1.748l.181.016c4.784.683,9.667,1.284,14.566,1.7,7.347.628,15.089.925,22.944.957a20.239,20.239,0,0,1,3.115-.1l.181.016a5.2,5.2,0,0,1,1.278.018l.091.008c1.467-.057,2.654-.047,3.841-.037a.683.683,0,0,1,.461-.052,3.646,3.646,0,0,1,3.251,3.659,4.447,4.447,0,0,1-.184,1.081,6.4,6.4,0,0,1,.6,3.706m-4.09-3.457a1.909,1.909,0,0,0-.513-.409,1.55,1.55,0,0,1,.643-.036c.923-.1.782-1.669-.042-1.648-1.376.065-2.745.039-4.121.1a8.78,8.78,0,0,0-1.542-.132c-.915.013-1.83.026-2.843.122a266.612,266.612,0,0,1-38.061-2.615c-.264-.114-.4.423-.13.446a135.307,135.307,0,0,0,14.555,2.889c-.008.091-.106.174-.114.265-4.989-.427-9.856-1.208-14.807-2.089-1.98-.352-3.942,1.216-4.641,2.984a4.839,4.839,0,0,0,1.9,5.553,8.006,8.006,0,0,0,2.6,3.786,14.44,14.44,0,0,0,5.4,2.015c2.343.383,4.784.683,7.233.893l3.538.3c-.078.907-.163,1.905-.248,2.9l-.523,3.976c-.585,4.7-1.26,9.395-1.928,14-.577,4.611-1.071,9.32-1.195,13.969-.121,3.553.339,7.8,4.048,9.3a4.018,4.018,0,0,0,5.025-2.129c.79-1.76,1.1-4.292,1.6-5.893l-.295,3.447c-.2,1.262-.308,2.532-.507,3.794l-.015.181c1.741-1.13,2.29-3.276,2.658-5.438.181-3.183.271-6.373.452-9.556.473-5.533.856-11.074,1.329-16.607.341-3.991.773-7.975,1.115-11.966,4.68-.239,9.286-.668,13.989-1.179a.922.922,0,0,0,.666-.309,3.588,3.588,0,0,0,1.407-.428c1.537-.874,2.039-2.475,2.27-4.1a2.729,2.729,0,0,0,.44-.876c2.255-.721,2.64-4.16.655-5.518m-47.335,6.46a55.543,55.543,0,0,0,10.616,3.009,42.649,42.649,0,0,1-4.807-.411,9.613,9.613,0,0,1-5.809-2.6" transform="translate(-646.751 -719.044)" fill="#0c0c0c"/>
        <path id="Path_1636" data-name="Path 1636" d="M378.81,894.117l.017.018c.008,0,.013.006.013,0s-.012-.013-.029-.022" transform="translate(-327.966 -774.109)" fill="#01c1c1"/>
        <path id="Path_1637" data-name="Path 1637" d="M540.069,892.833a8.013,8.013,0,0,0-1.507-9.407,7.616,7.616,0,0,0-5.226-2.212,25.056,25.056,0,0,0-4.728.877,36.613,36.613,0,0,1-8.173-.4l1.158.156c-8.728-1.176-17.511-1.973-26.295-2.582a3.469,3.469,0,0,0-3.453,3.454,5.182,5.182,0,0,0,.505,2.161,6.771,6.771,0,0,0,.5.769,8.243,8.243,0,0,0,1.022,1.159,3.759,3.759,0,0,0,0,.384c.2,3.77,1.414,7.392,2.016,11.1a17.681,17.681,0,0,1,.068,3.16,23.144,23.144,0,0,0-.688,4.195,7.767,7.767,0,0,0,2.411,5.735,7.059,7.059,0,0,0,1.616,1.105,50.486,50.486,0,0,0-.6,8.848,40.24,40.24,0,0,0,.88,8.059,13.4,13.4,0,0,0,4.02,7.277,5.307,5.307,0,0,0,4.972,1.314,5.1,5.1,0,0,0,3.569-3.569,62.052,62.052,0,0,0,1.692-12.982,50.924,50.924,0,0,0-.712-9.084l5.834.6,6.487.669c2.456.253,4.933.643,7.37-.017a8.85,8.85,0,0,0,6.212-5.846c1.036-3.457-.758-6.827-3.53-8.817a9.817,9.817,0,0,0-4.069-1.586h.02c3.327.1,7.03-1.463,8.631-4.522m-11.582,4.218c-2.182-.109-4.365-.188-6.548-.282l-7.152-.307-3.709-.159c-.363-.016-.728-.024-1.093-.033a18.838,18.838,0,0,0-.572-1.827q-.21-.542-.435-1.084,3.057.342,6.107.736c2.486.349,4.963.767,7.409,1.334,2.171.5,4.3,1.247,6.492,1.649q-.25-.016-.5-.028" transform="translate(-425.824 -761.244)" fill="#01c1c1"/>
        <path id="Path_1638" data-name="Path 1638" d="M515.066,859.753a8.376,8.376,0,0,1-1.275,2.549,9.977,9.977,0,0,1,3,4.461,9.481,9.481,0,0,1-1.73,7.829,7.78,7.78,0,0,1-1.73,1.73,9.834,9.834,0,0,1-1.457,2.731,7.7,7.7,0,0,1-6.1,3.278c-.364,0-.728-.091-1-.091a129.267,129.267,0,0,0-14.2-1.092c.182,2.094.364,4.188.455,6.282v.728c.091,4.1.273,10.105-4.1,13.383a9.173,9.173,0,0,1-5.1,5.554,6.861,6.861,0,0,1-3,.637,6.084,6.084,0,0,1-6.1-4.643C470.82,895.9,470.82,887.975,470,880.6l-1-.546a8.222,8.222,0,0,1-2.822-11.2,9.631,9.631,0,0,1,1.73-2.094,74.412,74.412,0,0,0-2.367-9.832,11.524,11.524,0,0,1-.273-2.549,9.94,9.94,0,0,1-1.366-7.92,5.967,5.967,0,0,1,3.1-4.1c0-.182.091-.273.091-.364a6.49,6.49,0,0,1,6.464-5.008,5.794,5.794,0,0,1,3.46,1.093c3,.819,6.008,1.548,8.922,2.185a3.872,3.872,0,0,1,1-.182c.273,0,.455.091.637.091,4.279.819,8.649,1.457,12.746,1.912,1.821.182,3.55.273,5.28.364l1.275.091a8.338,8.338,0,0,0,1.548.091,17.612,17.612,0,0,1,4.734.546,3.7,3.7,0,0,1,.819.455,9.094,9.094,0,0,1,4.552,10.561,8.629,8.629,0,0,1-3.459,5.553m.637-6.282a6.249,6.249,0,0,0-3.368-7.465l-.091-.091c-1.73-.546-3.733-.364-5.553-.455-2.185-.182-4.461-.273-6.646-.546-4.37-.455-8.649-1.092-13.019-1.912-.273-.091-.455.091-.637.364-3.55-.819-7.1-1.639-10.652-2.64-1.912-1.73-5.371-.546-5.827,1.821a6.919,6.919,0,0,0,1.639,6.646,3.788,3.788,0,0,0,0,2.458,104.619,104.619,0,0,1,2.731,12.017,5.208,5.208,0,0,0-2.458,2.185,5.459,5.459,0,0,0,1.912,7.374,6.977,6.977,0,0,0,2.094.91c.364,3.1.728,6.191,1,9.377.182,1.73.455,3.46.637,5.28a15.362,15.362,0,0,0,.546,3.277,18.468,18.468,0,0,0,.637,5.827c.637,2.367,3.186,3,5.189,2.094,4.825-2.094,4.37-8.1,4.279-12.473a96.662,96.662,0,0,0-1.548-13.565c1.548-.091,3.1-.091,4.643-.091a107.378,107.378,0,0,1,17.115,1.092c3.915.455,6.555-4.188,5.645-7.465a6.369,6.369,0,0,0-6.1-4.37,127.17,127.17,0,0,0-15.568-.637c-2.731.091-5.371.182-8.1.455h-.091c-.182-1-1.821-6.919-2.185-8.74,1.821.455,3.551.819,5.007,1.092,3.915.729,7.92,1.184,11.835,1.548l5.735.546a3.736,3.736,0,0,1,1,.091h.273a7.643,7.643,0,0,0,4.279,1,5.772,5.772,0,0,0,5.644-5.007m-39.6-11.744c3.368,1.275,8.194,2,11.653,2.913H486.3c-.819-.182-6.919-.364-9.1-1.274a10.282,10.282,0,0,0-1.092-1.639" transform="translate(-401.395 -724.652)" fill="#0c0c0c"/>
        <path id="Path_1639" data-name="Path 1639" d="M621.371,468.315s20.966-5.7,33.042-5.87,13.083,1.845,11.07,6.206c-2.424,5.251,2.348,2.851.839,9.728s-1.51,17.947-12.915,19.121-32.035-29.184-32.035-29.184" transform="translate(-537.971 -400.367)" fill="#333"/>
        <path id="Path_1640" data-name="Path 1640" d="M650.657,496.434c-2.54,0-5.659-1.389-9.287-4.138a75.954,75.954,0,0,1-10.507-10.114,171.276,171.276,0,0,1-11.756-15.053l-.159-.233.272-.074c.21-.057,21.128-5.711,33.092-5.878,7.136-.1,10.641.562,11.712,2.211.783,1.2.208,2.84-.457,4.281-1.146,2.482-.654,3.125.027,4.013.717.936,1.609,2.1.825,5.674-.219,1-.4,2.074-.6,3.215-1.155,6.7-2.592,15.044-12.49,16.063a6.558,6.558,0,0,1-.672.034m-31.056-29.3a171.567,171.567,0,0,0,11.567,14.781c8.568,9.686,15.524,14.555,20.121,14.082,9.594-.988,11-9.162,12.135-15.73.2-1.146.384-2.228.6-3.233.744-3.39-.051-4.427-.752-5.342s-1.321-1.724-.073-4.427c.877-1.9,1.022-3.065.484-3.893-.973-1.5-4.479-2.124-11.369-2.027-11.167.155-30.206,5.122-32.717,5.79" transform="translate(-535.873 -399.068)"/>
        <g id="Group_3763" data-name="Group 3763" transform="translate(118.366 63.943)" opacity="0.7" style="mix-blend-mode: overlay;isolation: isolate">
          <g id="Group_3762" data-name="Group 3762">
            <g id="Group_3761" data-name="Group 3761" clip-path="url(#clip-path-3)">
              <path id="Path_1641" data-name="Path 1641" d="M891.033,480.741c.867-1.878,1.173-3.321.276-4.341l-1.869,4.593a3.312,3.312,0,0,0,0,4.193c1.677,2.348,1.006,4.864,0,9.9s-3.187,3.522-3.187,3.522-4.529,9.56-4.361,9.728c.031.031.3.19.7.429,7.786-2.947,7.948-12.241,9.276-18.292,1.51-6.877-3.262-4.477-.839-9.728" transform="translate(-881.887 -476.4)" fill="#fff"/>
            </g>
          </g>
        </g>
        <g id="Group_3766" data-name="Group 3766" transform="translate(105.576 61.658)" opacity="0.2">
          <g id="Group_3765" data-name="Group 3765">
            <g id="Group_3764" data-name="Group 3764" clip-path="url(#clip-path-4)">
              <path id="Path_1642" data-name="Path 1642" d="M789.665,470.452s12.579-2.516,15.934-5.7-.168-5.367-6.709-5.367-12.291,6.351-12.291,6.351l.449,5.473Z" transform="translate(-786.599 -459.382)"/>
            </g>
          </g>
        </g>
        <path id="Path_1643" data-name="Path 1643" d="M617.043,493.261l-.671,6.374a22.267,22.267,0,0,0,16.278,1.3l9.216-2.809-1.006-6.877Z" transform="translate(-533.643 -425.313)" fill="#f6a24c"/>
        <path id="Path_1644" data-name="Path 1644" d="M624.849,500.807a22.413,22.413,0,0,1-9.864-2.292.2.2,0,0,1-.112-.2l.671-6.374a.2.2,0,0,1,.183-.179l23.817-2.013a.2.2,0,0,1,.216.171l1.006,6.877a.2.2,0,0,1-.141.222l-9.216,2.809a22.5,22.5,0,0,1-6.561.981m-9.561-2.592a21.992,21.992,0,0,0,16,1.226l9.05-2.758-.954-6.518-23.462,1.983Z" transform="translate(-532.345 -424.013)"/>
        <path id="Path_1645" data-name="Path 1645" d="M509.712,541.68s-5.7,0-6.541,6.877-7.044,28.178-8.051,32.2S517.6,589.985,528.5,586.8s26.046-28.8,26.836-37.235-27.842-8.722-27.842-8.722Z" transform="translate(-428.638 -468.249)" fill="#333"/>
        <path id="Path_1646" data-name="Path 1646" d="M518.681,586.7a65.081,65.081,0,0,1-10.055-.847c-6.81-1.078-12.429-2.946-14.314-4.759a1.752,1.752,0,0,1-.687-1.677c.241-.962.781-2.922,1.465-5.4,2.223-8.061,5.944-21.554,6.581-26.775.443-3.636,2.249-5.361,3.686-6.168a6.831,6.831,0,0,1,3.05-.885l17.775-.839a114.641,114.641,0,0,1,11.533.814c8.1,1.013,13.293,2.729,15.432,5.1a3.864,3.864,0,0,1,1.087,3.025c-.8,8.574-15.99,34.2-26.98,37.409a31.478,31.478,0,0,1-8.572,1m7.508-46.951-17.777.839a6.534,6.534,0,0,0-2.873.843c-1.963,1.11-3.129,3.08-3.468,5.857-.64,5.251-4.366,18.762-6.592,26.834-.683,2.479-1.223,4.436-1.463,5.394-.1.394.1.827.576,1.289,2.792,2.684,14.452,5.488,24.134,5.488a30.953,30.953,0,0,0,8.416-.982c4.764-1.393,11-7.431,17.1-16.568,5.255-7.867,9.2-16.294,9.593-20.492a3.478,3.478,0,0,0-.985-2.718c-4.961-5.5-26.442-5.781-26.659-5.784" transform="translate(-427.338 -466.951)"/>
        <path id="Path_1647" data-name="Path 1647" d="M462.035,126.057c-4.322,2.277-5.954,8.3-6.961,14.34s-1.669,9.591-2.516,12.076c-2.6,7.632,2.1,15.179,14.005,18.534,12.152,3.423,20.295,3.019,31.2.839s19.109-6.144,19.959-14.928c.5-5.2-2.181-7.548-3.355-15.6s-6.027-14.782-12.244-17.779c-9.393-4.529-24.488-5.7-40.086,2.516" transform="translate(-391.215 -103.898)" fill="#f6a24c"/>
        <path id="Path_1648" data-name="Path 1648" d="M481.936,172.437A60.275,60.275,0,0,1,465.22,169.9c-6.624-1.866-11.292-5.071-13.5-9.268a11.819,11.819,0,0,1-.643-9.524c.828-2.432,1.494-5.964,2.508-12.044.972-5.835,2.572-12.118,7.065-14.486l.094.178-.094-.178a50.577,50.577,0,0,1,22.459-6.061,38.686,38.686,0,0,1,17.808,3.542c6.463,3.116,11.2,9.987,12.356,17.931a42.062,42.062,0,0,0,2.082,8.2c.868,2.551,1.553,4.566,1.274,7.45a13.184,13.184,0,0,1-6.3,10.088c-3.221,2.161-7.743,3.8-13.822,5.018a73.089,73.089,0,0,1-14.574,1.695m2.251-53.51a50.015,50.015,0,0,0-23.348,6.007c-4.337,2.285-5.9,8.458-6.856,14.2-1.039,6.234-1.682,9.636-2.524,12.108a11.425,11.425,0,0,0,.618,9.207c2.154,4.1,6.736,7.233,13.251,9.068,12.313,3.468,20.431,2.969,31.1.835,6.026-1.205,10.5-2.827,13.677-4.958a12.8,12.8,0,0,0,6.122-9.792c.271-2.8-.4-4.777-1.254-7.282a42.4,42.4,0,0,1-2.1-8.268c-1.139-7.814-5.788-14.568-12.132-17.627a38.592,38.592,0,0,0-16.557-3.494" transform="translate(-389.925 -102.597)"/>
        <g id="Group_3769" data-name="Group 3769" transform="translate(103.036 53.498)" opacity="0.2">
          <g id="Group_3768" data-name="Group 3768">
            <g id="Group_3767" data-name="Group 3767" clip-path="url(#clip-path-5)">
              <path id="Path_1649" data-name="Path 1649" d="M786.025,405.4c-3.858,2.851-3.85-1.005-3.85-1.005l-14.5,9.288c1.143-.194,2.309-.411,3.51-.652,10.7-2.141,18.807-6,19.9-14.451a15.72,15.72,0,0,1-5.061,6.819" transform="translate(-767.672 -398.577)"/>
            </g>
          </g>
        </g>
        <path id="Path_1650" data-name="Path 1650" d="M506.214,334.28c-3.035,1.879-3.858,2.516-6.541.335s-8.051-3.187-11.573.168c-3.021,2.877-3.69,1.51-8.722,0-6.249-1.991-12.425,2.184-11.909,8.386.5,6.034,6.038,9.9,15.513,12.678a56.2,56.2,0,0,0,24.2.815c8.416-1.569,13.992-4.68,15.64-11.145,2.18-8.554-9.56-15.6-16.6-11.238" transform="translate(-404.7 -287.969)" fill="#fff"/>
        <path id="Path_1651" data-name="Path 1651" d="M495.76,356.874a56.449,56.449,0,0,1-13.671-1.762c-10.177-2.988-15.137-7.054-15.615-12.8a8.018,8.018,0,0,1,3.02-7.049,9.739,9.739,0,0,1,9.064-1.477c1.111.333,1.992.653,2.769.936,2.637.958,3.525,1.28,5.819-.9a8.218,8.218,0,0,1,6.2-2.2,9.852,9.852,0,0,1,5.55,2.022c2.524,2.051,3.282,1.58,6.1-.169l.284-.176.071.114-.071-.114c4.079-2.525,9.254-1.2,12.573,1.237,3.6,2.64,5.18,6.433,4.233,10.148a12.371,12.371,0,0,1-5.337,7.486,27.682,27.682,0,0,1-10.408,3.757,64.744,64.744,0,0,1-10.581.946M475.335,333.55a9.061,9.061,0,0,0-5.675,1.926,7.754,7.754,0,0,0-2.919,6.817c.468,5.618,5.367,9.609,15.417,12.56a55.7,55.7,0,0,0,24.136.811c9.232-1.721,14.023-5.128,15.532-11.045.919-3.6-.626-7.293-4.131-9.865-3.246-2.382-8.3-3.684-12.273-1.225l-.284.176c-2.8,1.736-3.74,2.321-6.413.15-2.443-1.985-7.755-3.307-11.4.161-2.415,2.3-3.417,1.936-6.1.963-.774-.281-1.651-.6-2.757-.931a10.351,10.351,0,0,0-3.142-.5" transform="translate(-403.838 -287.102)"/>
        <g id="Group_3772" data-name="Group 3772" transform="translate(66.637 73.411)" opacity="0.2">
          <g id="Group_3771" data-name="Group 3771">
            <g id="Group_3770" data-name="Group 3770" clip-path="url(#clip-path-6)">
              <path id="Path_1652" data-name="Path 1652" d="M511.33,546.944l-.415.02s-5.7,0-6.541,6.877c-.8,6.587-6.53,26.4-7.9,31.6l16.031-.992s-6.374-8.386-4.193-11.741.168-6.709-.839-10.567,1.677-4.529,1.677-7.883c0-5.406.214-5.708,2.176-7.316" transform="translate(-496.478 -546.944)"/>
            </g>
          </g>
        </g>
        <path id="Path_1653" data-name="Path 1653" d="M634.508,361.226c-1.125-.375-2.18-.838-1.342-2.18s2.851-1.51,3.858-1.51,3.019.5,3.69,1.677,0,1.845-.839,1.845c-.691,0-1.342.671-1.677,1.51a1.345,1.345,0,0,1-2.348.168c-.586-1.172-.335-1.174-1.342-1.51" transform="translate(-547.922 -309.547)"/>
        <path id="Path_1654" data-name="Path 1654" d="M782.957,363.179a.134.134,0,0,1-.072-.248c.378-.24,9.305-5.893,13.979-6.394a.134.134,0,1,1,.029.267c-4.611.494-13.771,6.295-13.864,6.353a.134.134,0,0,1-.072.021" transform="translate(-677.753 -308.682)"/>
        <path id="Path_1655" data-name="Path 1655" d="M824.523,416.9a.134.134,0,0,1-.03,0c-3.626-.824-11.45-.006-11.529,0a.136.136,0,0,1-.148-.119.134.134,0,0,1,.119-.148c.079-.008,7.948-.832,11.617,0a.134.134,0,0,1-.03.265" transform="translate(-703.72 -360.392)"/>
        <path id="Path_1656" data-name="Path 1656" d="M486.432,351.185l-.026,0c-.071-.014-1.752-.378-3.938-3.237A11.137,11.137,0,0,0,478,344.3a.134.134,0,1,1,.09-.253,11.175,11.175,0,0,1,4.59,3.735c2.115,2.767,3.761,3.134,3.778,3.137a.134.134,0,0,1-.027.266" transform="translate(-413.767 -297.862)"/>
        <path id="Path_1657" data-name="Path 1657" d="M463.978,395.111a7.285,7.285,0,0,1-3.633-1.39,6.878,6.878,0,0,0-4.763-1.157.134.134,0,0,1-.06-.262,7.008,7.008,0,0,1,4.965,1.191c2.58,1.612,3.739,1.329,3.751,1.326a.134.134,0,0,1,.073.258,1.3,1.3,0,0,1-.333.033" transform="translate(-394.293 -339.581)"/>
        <path id="Path_1658" data-name="Path 1658" d="M488.139,432.278a16.43,16.43,0,0,1-3.881-.5.134.134,0,1,1,.072-.258,14.617,14.617,0,0,0,5.642.333.134.134,0,1,1,.049.264,10.283,10.283,0,0,1-1.882.161" transform="translate(-419.176 -373.597)"/>
        <path id="Path_1659" data-name="Path 1659" d="M558.888,44.186s.5-7.883,1.845-11.405,5.2-5.032,14.76-5.7,16.727,2.707,18.45,6.038c2.516,4.864,2.684,8.889,3.019,14.257,0,0-10.734-6.541-38.074-3.187" transform="translate(-483.875 -23.369)" fill="#cd31b5"/>
        <path id="Path_1660" data-name="Path 1660" d="M595.791,46.458l-.33-.2c-.027-.016-2.744-1.639-8.753-2.833-5.548-1.1-15.116-2.054-29.192-.326l-.241.03.016-.242c.021-.323.521-7.954,1.858-11.464,1.382-3.629,5.29-5.155,14.934-5.832,9.34-.656,16.814,2.61,18.643,6.146,2.446,4.729,2.693,8.719,3.006,13.77Zm-23.623-4.71a75.3,75.3,0,0,1,14.653,1.289,32.641,32.641,0,0,1,8.521,2.695l-.013-.2c-.31-5-.555-8.956-2.962-13.61-1.769-3.42-9.082-6.573-18.257-5.93-9.454.663-13.271,2.122-14.586,5.574-1.185,3.109-1.717,9.753-1.815,11.1a120.57,120.57,0,0,1,14.458-.922" transform="translate(-482.479 -22.082)"/>
        <g id="Group_3775" data-name="Group 3775" transform="translate(93.203 3.626)" opacity="0.7" style="mix-blend-mode: overlay;isolation: isolate">
          <g id="Group_3774" data-name="Group 3774">
            <g id="Group_3773" data-name="Group 3773" clip-path="url(#clip-path-7)">
              <path id="Path_1661" data-name="Path 1661" d="M709.6,33.127c2.386,4.613,2.66,8.473,2.968,13.438a13.648,13.648,0,0,1,1.728.818c-.335-5.367-.5-9.393-3.019-14.257-1.626-3.144-8.1-6.328-16.865-6.112,7.9.2,13.667,3.172,15.188,6.112" transform="translate(-694.409 -27.006)" fill="#fff"/>
            </g>
          </g>
        </g>
        <g id="Group_3778" data-name="Group 3778" transform="translate(75.014 3.709)" opacity="0.2">
          <g id="Group_3777" data-name="Group 3777">
            <g id="Group_3776" data-name="Group 3776" clip-path="url(#clip-path-8)">
              <path id="Path_1662" data-name="Path 1662" d="M564.424,33c1.154-3.029,4.172-4.569,11.073-5.367h0c-9.56.671-13.418,2.18-14.76,5.7s-1.845,11.405-1.845,11.405q1.9-.233,3.695-.4c.052-.773.571-8,1.84-11.337" transform="translate(-558.889 -27.63)"/>
              <path id="Path_1663" data-name="Path 1663" d="M604.815,146.141c22.8-1.746,31.909,3.8,31.909,3.8-.041-.656-.08-1.291-.12-1.911-4.97-1.611-15.063-3.647-31.789-1.893" transform="translate(-598.651 -129.65)"/>
            </g>
          </g>
        </g>
        <g id="Group_3781" data-name="Group 3781" transform="translate(60.649 24.844)" opacity="0.2">
          <g id="Group_3780" data-name="Group 3780">
            <g id="Group_3779" data-name="Group 3779" clip-path="url(#clip-path-9)">
              <path id="Path_1664" data-name="Path 1664" d="M474.279,227.363a20.916,20.916,0,0,1-16.6-14.424c-1.342-4.193,3.019-6.206,3.019-6.206-2.851.671-4.529.168-3.69-8.386s3.187-8.722,7.548-12.747l-5.538-.5c-2.158,2.94-3.211,7.294-3.938,11.655-1.006,6.038-1.669,9.591-2.516,12.076-2.6,7.631,2.1,15.179,14.005,18.534a57.458,57.458,0,0,0,27.946,1.446,108.087,108.087,0,0,1-20.231-1.446" transform="translate(-451.863 -185.098)"/>
            </g>
          </g>
        </g>
        <path id="Path_1665" data-name="Path 1665" d="M607.03,416.124a1.412,1.412,0,0,1,1.419-1,27.1,27.1,0,0,0,12.673-2.477,7.946,7.946,0,0,1,1.684-.614,1.593,1.593,0,0,1,1.065.134l1.236.618a1.194,1.194,0,0,1,.649,1.262,3.156,3.156,0,0,1-1.956,2.237c-4.3,2.141-11.956,2.445-16.321.76a.749.749,0,0,1-.449-.915" transform="translate(-525.527 -356.693)" fill="#fff"/>
        <path id="Path_1666" data-name="Path 1666" d="M613.114,417.029a20.178,20.178,0,0,1-7-1.1.955.955,0,0,1-.569-1.16,1.608,1.608,0,0,1,1.621-1.148,27.04,27.04,0,0,0,12.576-2.457,8.172,8.172,0,0,1,1.727-.629,1.8,1.8,0,0,1,1.2.15l1.236.618a1.4,1.4,0,0,1,.758,1.476,3.349,3.349,0,0,1-2.065,2.383,22.53,22.53,0,0,1-9.481,1.867m-7.187-2.143a.55.55,0,0,0,.328.669c4.4,1.7,11.948,1.346,16.159-.752a2.968,2.968,0,0,0,1.847-2.09,1,1,0,0,0-.541-1.049l-1.236-.618a1.394,1.394,0,0,0-.93-.118,7.761,7.761,0,0,0-1.641.6,27.457,27.457,0,0,1-12.771,2.5A1.21,1.21,0,0,0,605.927,414.885Z" transform="translate(-524.232 -355.395)"/>
        <path id="Path_1667" data-name="Path 1667" d="M641.059,43.515c-1.235-8.026-2.972-12.715-5.311-14.334-2.072-1.435-9.365-2.818-9.843-2.908-.452.083-7.047,1.326-9.111,3.231-2.2,2.032-1.64,12.037-1.634,12.137l-.268.016c-.024-.417-.573-10.233,1.72-12.35,2.184-2.016,8.981-3.251,9.269-3.3l.024,0,.024,0c.317.058,7.792,1.447,9.971,2.956,2.4,1.664,4.177,6.411,5.424,14.514Z" transform="translate(-532.297 -22.51)"/>
        <g id="Group_3784" data-name="Group 3784" transform="translate(93.023 3.627)" opacity="0.7" style="mix-blend-mode: overlay;isolation: isolate">
          <g id="Group_3783" data-name="Group 3783">
            <g id="Group_3782" data-name="Group 3782" clip-path="url(#clip-path-10)">
              <path id="Path_1668" data-name="Path 1668" d="M702.4,29.95c2.173,1.5,4.013,5.677,5.354,14.341l1.187.084c-1.342-8.722-3.187-12.915-5.367-14.424s-9.919-2.934-9.919-2.934-.217.039-.585.114c1.846.366,7.515,1.563,9.33,2.82" transform="translate(-693.066 -27.017)" fill="#fff"/>
            </g>
          </g>
        </g>
        <path id="Path_1669" data-name="Path 1669" d="M692.346,419.371a24.129,24.129,0,0,1-8.016,3.023" transform="translate(-592.48 -363.083)" fill="#fff"/>
        <path id="Path_1670" data-name="Path 1670" d="M692.422,418.589a24.783,24.783,0,0,1-7.04,2.685c-.35.08-.7.152-1.052.228.348-.087.7-.17,1.044-.261a28.661,28.661,0,0,0,5.038-1.832,15.531,15.531,0,0,0,1.858-1.041.134.134,0,1,1,.152.221" transform="translate(-592.48 -362.191)"/>
        <path id="Path_1671" data-name="Path 1671" d="M530.993,300.847c-3.839-1.807-6.038-2.013-5.367-2.851s3.858-.671,6.709.671,4.026,2.516,3.69,3.858c-.168.5-2.18-.335-5.032-1.677" transform="translate(-454.973 -257.555)"/>
        <path id="Path_1672" data-name="Path 1672" d="M725.064,302.185c-2.181,1.006-2.961,1.453-3.522,1.677-.839.336-1.677-.839.167-2.348a13.71,13.71,0,0,1,7.38-2.851c2.684-.168,3.354.671,1.845,1.174a61.217,61.217,0,0,0-5.87,2.348" transform="translate(-623.885 -258.557)"/>
        <path id="Path_1673" data-name="Path 1673" d="M561.7,242.169c-2.463-.515-2.889-1.426-1.958-2.6s3.252-.965,4.641.422,1.35,2.887-.444,2.615a15.149,15.149,0,0,1-2.24-.434" transform="translate(-484.217 -206.75)" fill="#fff"/>
        <path id="Path_1674" data-name="Path 1674" d="M724.705,241.867c2.428-.658,2.8-1.593,1.8-2.712s-3.3-.774-4.609.692-1.179,2.961.6,2.584a15.158,15.158,0,0,0,2.211-.564" transform="translate(-624.25 -206.481)" fill="#fff"/>
        <path id="Path_1675" data-name="Path 1675" d="M467.332,108.995s-7.883-8.219-4.025-18.953a21.381,21.381,0,0,1,17.108,8.386" transform="translate(-400.202 -77.946)" fill="#f6a24c"/>
        <path id="Path_1676" data-name="Path 1676" d="M466.084,107.89a.2.2,0,0,1-.145-.062,20.784,20.784,0,0,1-3.5-5.51,18.219,18.219,0,0,1-.571-13.651.2.2,0,0,1,.176-.133,19.232,19.232,0,0,1,5.981.8,21.779,21.779,0,0,1,11.3,7.66.2.2,0,1,1-.318.247,21.378,21.378,0,0,0-11.076-7.515,19.775,19.775,0,0,0-5.729-.8,17.828,17.828,0,0,0,.6,13.212,20.364,20.364,0,0,0,3.426,5.406.2.2,0,0,1-.145.341" transform="translate(-398.953 -76.641)"/>
        <path id="Path_1677" data-name="Path 1677" d="M485.168,123.266s-4.7-4.193-3.187-11.908a18.879,18.879,0,0,1,11.238,5.87" transform="translate(-417.031 -96.411)" fill="#fff"/>
        <path id="Path_1678" data-name="Path 1678" d="M484.323,122.534a.134.134,0,0,1-.089-.034c-.047-.042-4.736-4.333-3.229-12.034a.134.134,0,0,1,.145-.108,19.176,19.176,0,0,1,11.325,5.916.134.134,0,0,1-.2.176,18.866,18.866,0,0,0-11.028-5.81c-1.4,7.476,3.122,11.619,3.168,11.66a.134.134,0,0,1-.09.234" transform="translate(-416.186 -95.544)"/>
        <path id="Path_1679" data-name="Path 1679" d="M553.394,86.9s-.5-1.51-3.69-5.7-8.889-6.038-16.6-5.7-15.766,2.013-16.437,4.864,4.864,7.212,4.864,7.212,9.644-5.283,31.868-.671" transform="translate(-447.267 -65.326)" fill="#cd31b5"/>
        <path id="Path_1680" data-name="Path 1680" d="M520.211,86.509l-.1-.082c-.23-.181-5.628-4.474-4.935-7.416.705-3,8.858-4.681,16.624-5.019,7.951-.346,13.6,1.6,16.774,5.782s3.7,5.7,3.721,5.761l.111.332-.343-.071c-11.433-2.373-19.452-2.069-24.167-1.4a24.691,24.691,0,0,0-7.564,2.047Zm13.347-12.154q-.853,0-1.745.039c-7.368.32-15.6,1.931-16.25,4.709-.586,2.489,3.954,6.323,4.692,6.927A25.861,25.861,0,0,1,527.8,84c4.7-.674,12.65-.985,23.956,1.318a33.916,33.916,0,0,0-3.51-5.305c-2.858-3.761-7.8-5.662-14.691-5.662" transform="translate(-445.972 -64.026)"/>
        <g id="Group_3787" data-name="Group 3787" transform="translate(69.432 10.127)" opacity="0.7" style="mix-blend-mode: overlay;isolation: isolate">
          <g id="Group_3786" data-name="Group 3786">
            <g id="Group_3785" data-name="Group 3785" clip-path="url(#clip-path-11)">
              <path id="Path_1681" data-name="Path 1681" d="M533.035,76.5c7.715-.335,13.418,1.51,16.6,5.7a44.565,44.565,0,0,1,3.045,4.433c.434.084.872.171,1.316.263,0,0-.5-1.51-3.69-5.7s-8.889-6.038-16.6-5.7c-7.593.33-15.511,1.96-16.4,4.729,2.238-2.159,9.107-3.435,15.729-3.723" transform="translate(-517.306 -75.454)" fill="#fff"/>
            </g>
          </g>
        </g>
        <path id="Path_1682" data-name="Path 1682" d="M529.271,93.908a.134.134,0,0,1-.087-.032c-1.776-1.523-5.11-5.131-4.771-6.573.16-.68,1.513-1.722,4.833-2.609a51.857,51.857,0,0,1,10.637-1.454c.574-.025,1.144-.038,1.695-.038,6.626,0,11.349,1.794,14.037,5.331.844,1.11,1.831,2.7,2.485,3.75.189.3.349.562.468.748a.134.134,0,0,1-.226.145c-.12-.187-.281-.446-.471-.751-.651-1.047-1.635-2.629-2.471-3.73-2.635-3.467-7.286-5.225-13.824-5.225-.547,0-1.113.013-1.683.037a51.585,51.585,0,0,0-10.579,1.445c-3.431.917-4.532,1.947-4.641,2.411-.274,1.163,2.591,4.513,4.684,6.307a.134.134,0,0,1-.087.236" transform="translate(-454.006 -72.034)"/>
        <g id="Group_3790" data-name="Group 3790" transform="translate(69.338 12.827)" opacity="0.2">
          <g id="Group_3789" data-name="Group 3789">
            <g id="Group_3788" data-name="Group 3788" clip-path="url(#clip-path-12)">
              <path id="Path_1683" data-name="Path 1683" d="M553.125,103.72c-24.422-5.451-28.244,1.761-33.108-3.271-3.631-3.756-1.006-4.864-1.006-4.864l-.043-.023c-1.274.631-2.109,1.366-2.306,2.2-.671,2.851,4.864,7.212,4.864,7.212s9.644-5.283,31.868-.671a4.9,4.9,0,0,0-.269-.587" transform="translate(-516.606 -95.562)"/>
            </g>
          </g>
        </g>
        <path id="Path_1684" data-name="Path 1684" d="M678.854,15.758a2.226,2.226,0,0,1,4.38-.083s-2.535-.057-4.38.083" transform="translate(-587.739 -12.021)"/>
        <path id="Path_1685" data-name="Path 1685" d="M778.825,104.915s4.7-8.051,16.437-8.554c0,0,5.367,8.386-2.516,19.121" transform="translate(-674.292 -83.427)" fill="#f6a24c"/>
        <path id="Path_1686" data-name="Path 1686" d="M791.447,114.384a.2.2,0,0,1-.162-.321c4.027-5.484,4.5-10.327,4.178-13.424a14.009,14.009,0,0,0-1.611-5.371,21.4,21.4,0,0,0-12.386,4.417,16.315,16.315,0,0,0-3.766,4.032.2.2,0,1,1-.348-.2,16.438,16.438,0,0,1,3.865-4.145,21.827,21.827,0,0,1,12.737-4.509.2.2,0,0,1,.178.093,13.767,13.767,0,0,1,1.729,5.623c.329,3.172-.142,8.129-4.252,13.726a.2.2,0,0,1-.162.082" transform="translate(-672.993 -82.128)"/>
        <path id="Path_1687" data-name="Path 1687" d="M808.817,127.057s4.529-5.367,10.734-5.7a17.269,17.269,0,0,1-2.684,11.909" transform="translate(-700.258 -105.065)" fill="#fff"/>
        <path id="Path_1688" data-name="Path 1688" d="M816,132.532a.134.134,0,0,1-.11-.211,17.256,17.256,0,0,0,2.68-11.69c-6.013.391-10.474,5.6-10.518,5.648a.134.134,0,0,1-.205-.173c.046-.054,4.638-5.415,10.83-5.75a.137.137,0,0,1,.139.11,17.553,17.553,0,0,1-2.706,12.01.134.134,0,0,1-.11.057" transform="translate(-699.392 -104.201)"/>
        <path id="Path_1689" data-name="Path 1689" d="M809.191,446.459h-.01a70.794,70.794,0,0,1-11.265-2.185.134.134,0,0,1,.073-.258,70.443,70.443,0,0,0,11.211,2.176.134.134,0,0,1-.009.268" transform="translate(-690.737 -384.415)"/>
        <g id="Group_3793" data-name="Group 3793" transform="translate(64.651 14.947)" opacity="0.2">
          <g id="Group_3792" data-name="Group 3792">
            <g id="Group_3791" data-name="Group 3791" clip-path="url(#clip-path-13)">
              <path id="Path_1690" data-name="Path 1690" d="M483.575,117.814c-1.845-2.851-1.385-4.941-1.342-6.425-.163-.023-.252-.032-.252-.032-1.509,7.715,3.187,11.908,3.187,11.908l5.928-4.446c-2.666.952-5.677,1.847-7.522-1" transform="translate(-481.682 -111.357)"/>
            </g>
          </g>
        </g>
        <g id="Group_3796" data-name="Group 3796" transform="translate(108.559 16.288)" opacity="0.2">
          <g id="Group_3795" data-name="Group 3795">
            <g id="Group_3794" data-name="Group 3794" clip-path="url(#clip-path-14)">
              <path id="Path_1691" data-name="Path 1691" d="M819.568,121.453c-.01-.063-.016-.1-.016-.1-6.206.335-10.734,5.7-10.734,5.7l6.832,5.267c-1.942-1.736-3.84-4.238-2.22-6.525a11.954,11.954,0,0,1,6.138-4.346" transform="translate(-808.817 -121.353)"/>
            </g>
          </g>
        </g>
        <path id="Path_1692" data-name="Path 1692" d="M648.849,462.478a16.937,16.937,0,0,0-3.953-.585,4.414,4.414,0,0,1-.775.657c2.894.449,5.115,1.522,1.709,3.618-4.361,2.684-26.165,10.4-32.874,9.56-5.339-.667-6.559-6.122-6.559-6.122l-2.107,3.42s.939,3.509,8.163,4.044c4.529.335,9.225-.336,15.934-2.348s15.1-1.006,19.624-4.361,4.7-6.709.839-7.883" transform="translate(-523.183 -399.898)" fill="#333"/>
        <path id="Path_1693" data-name="Path 1693" d="M613.256,476.029c-.749,0-1.485-.028-2.217-.082-7.282-.539-8.3-4.043-8.343-4.192l-.022-.084,2.412-3.915.109.483c.012.053,1.255,5.325,6.387,5.966,6.55.819,28.383-6.849,32.744-9.532,1.154-.71,1.712-1.34,1.615-1.821-.122-.6-1.306-1.125-3.25-1.427l-.514-.08.433-.287a4.242,4.242,0,0,0,.74-.628l.063-.067.093,0a17.424,17.424,0,0,1,4,.594c1.651.5,2.633,1.4,2.84,2.6.288,1.668-1.031,3.723-3.618,5.639-2.756,2.041-6.856,2.487-11.2,2.958a48.024,48.024,0,0,0-8.49,1.434,47.728,47.728,0,0,1-13.789,2.438m-10.144-4.3c.2.5,1.58,3.346,7.956,3.819,4.531.336,9.275-.364,15.861-2.34a48.3,48.3,0,0,1,8.562-1.448c4.285-.465,8.332-.905,11-2.882,2.46-1.823,3.722-3.735,3.46-5.247-.179-1.037-1.065-1.826-2.561-2.281a16.826,16.826,0,0,0-3.813-.573,4.812,4.812,0,0,1-.359.332c1.916.351,2.964.911,3.116,1.666.137.68-.451,1.414-1.8,2.244-2.27,1.4-8.977,4.028-15.6,6.121-4.779,1.51-13.393,3.969-17.4,3.467-4.5-.563-6.161-4.489-6.6-5.83Z" transform="translate(-521.784 -398.573)"/>
        <g id="Group_3799" data-name="Group 3799" transform="translate(116.476 61.995)" opacity="0.7" style="mix-blend-mode: overlay;isolation: isolate">
          <g id="Group_3798" data-name="Group 3798">
            <g id="Group_3797" data-name="Group 3797" clip-path="url(#clip-path-15)">
              <path id="Path_1694" data-name="Path 1694" d="M876.993,462.478a16.936,16.936,0,0,0-3.953-.585,4.41,4.41,0,0,1-.775.657c2.894.449,5.116,1.522,1.709,3.618a45.977,45.977,0,0,1-6.172,2.8c1.22.2,3.469.335,3.572,1.982a2.023,2.023,0,0,1-.6,1.541,13.492,13.492,0,0,0,5.385-2.128c4.529-3.355,4.7-6.709.839-7.883" transform="translate(-867.802 -461.893)" fill="#fff"/>
            </g>
          </g>
        </g>
        <path id="Path_1695" data-name="Path 1695" d="M545.191,564.337c0,7.814-2.684,2.315-4.529,8.393s-3.69,4.052-4.7,7.959-7.212,2.315-12.747,4.631-10.567-.868-12.579,3.183-3.522,6.656,2.348,9.55,7.715,5.5,14.928,5.933,10.231,2.749,14.424,1.447,6.877-4.486,14.089-11.721,15.1-16.062,13.25-25.9-9.728-11.721-16.437-10.274-8.051,6.8-8.051,6.8" transform="translate(-440.552 -482.329)" fill="#333"/>
        <path id="Path_1696" data-name="Path 1696" d="M538.434,604.7a21.125,21.125,0,0,1-4.59-.7,42.2,42.2,0,0,0-7.251-1.135c-5.229-.315-7.69-1.776-10.806-3.626-1.2-.71-2.552-1.516-4.2-2.327-2.327-1.147-3.62-2.3-4.068-3.631-.587-1.741.316-3.555,1.46-5.851l.168-.338c1.2-2.409,3.448-2.38,6.054-2.347a15.806,15.806,0,0,0,6.628-.933,25.354,25.354,0,0,1,6.515-1.5c3.094-.418,5.537-.749,6.115-2.993a5.138,5.138,0,0,1,1.861-3.057c.864-.765,1.842-1.632,2.837-4.91.866-2.854,1.951-3.256,2.824-3.578.948-.351,1.7-.628,1.7-4.756l.006-.049c.014-.055,1.45-5.492,8.2-6.949,4.354-.939,8.391-.367,11.369,1.612,2.77,1.841,4.556,4.809,5.309,8.822,1.854,9.889-5.9,18.648-13.306,26.081-.981.984-1.9,1.914-2.708,2.734-5.351,5.423-7.794,7.9-11.464,9.037a8.8,8.8,0,0,1-2.655.4M514.3,585.139c-2.147,0-3.837.209-4.793,2.131l-.169.339c-1.1,2.212-1.973,3.96-1.439,5.542.412,1.222,1.64,2.3,3.865,3.4,1.661.819,3.024,1.628,4.226,2.342,3.069,1.822,5.492,3.261,10.624,3.57a42.514,42.514,0,0,1,7.316,1.144c2.706.61,4.662,1.05,7.037.312,3.575-1.11,5.995-3.562,11.3-8.936.81-.82,1.727-1.75,2.709-2.735,7.338-7.361,15.013-16.026,13.2-25.722-.732-3.9-2.46-6.782-5.136-8.56-2.886-1.918-6.814-2.47-11.061-1.554a10.125,10.125,0,0,0-7.892,6.631c0,4.17-.747,4.658-1.959,5.107-.829.307-1.77.655-2.578,3.318-1.028,3.387-2.052,4.294-2.956,5.094a4.746,4.746,0,0,0-1.738,2.856c-.646,2.507-3.336,2.871-6.451,3.292a25.024,25.024,0,0,0-6.413,1.474,16.139,16.139,0,0,1-6.789.964c-.306,0-.605-.008-.9-.008" transform="translate(-439.242 -481.007)"/>
        <g id="Group_3802" data-name="Group 3802" transform="translate(77.058 74.797)" opacity="0.2">
          <g id="Group_3801" data-name="Group 3801">
            <g id="Group_3800" data-name="Group 3800" clip-path="url(#clip-path-16)">
              <path id="Path_1697" data-name="Path 1697" d="M622.982,561.006h0c-3.37-3.707-8.563-4.3-13.2-3.311-6.712,1.437-8.064,6.789-8.064,6.789-.015,7.814-2.688,2.311-4.545,8.386s-3.7,4.046-4.712,7.952-7.217,2.3-12.756,4.612a14.139,14.139,0,0,1-5.588.948,4.273,4.273,0,0,0,.05.636c.994,6.224,13.073,4.794,20.287,4.081s6.717-4.187,2.526-5.35-.666-2.461,1.686-4.339,6.376-1.293,4.7-3.611-.826-6.368,5.546-5.78,3.357-1.153,1.353-5.641,5.047-7.807,12.713-5.372" transform="translate(-574.118 -557.268)"/>
            </g>
          </g>
        </g>
        <path id="Path_1698" data-name="Path 1698" d="M406.877,563.174c-6.568,4.5-8.806,4.595-10.651,10.347s-3.355,5.2-6.541,12.076c-2.946,6.357-3.606,6.613-3.774,11.544s1.677,9.451,5.7,8.629,5.2,2.054,12.579.137,10.734-1.918,13.921-5.2,3.858-10-1.677-12.19-6.457-1.481-10.651-1.07,2.516-3.713,3.019-7.548-2.516-6.838-.168-10.4,3.438-9.883-1.761-6.322" transform="translate(-334.106 -486.673)" fill="#333"/>
        <path id="Path_1699" data-name="Path 1699" d="M398.238,605.467a14.951,14.951,0,0,1-3.829-.548,8.358,8.358,0,0,0-4.055-.269,3.918,3.918,0,0,1-3.474-.818c-1.67-1.411-2.593-4.407-2.47-8.014.136-4.013.6-4.969,2.32-8.526.422-.872.9-1.86,1.473-3.1a35.008,35.008,0,0,1,3.57-6.175,18.305,18.305,0,0,0,2.962-5.878c1.458-4.547,3.183-5.63,6.961-8,1.085-.681,2.314-1.453,3.767-2.449,1.67-1.143,2.856-1.39,3.525-.732,1.164,1.144.178,4.814-1.482,7.331-1.35,2.047-.857,3.919-.335,5.9a11.191,11.191,0,0,1,.534,4.412c-.238,1.811-1.764,3.625-2.991,5.082-.719.854-1.534,1.823-1.383,2.11.028.054.194.222,1.136.13.71-.07,1.337-.149,1.889-.219,2.717-.345,4.214-.535,8.855,1.3a6.323,6.323,0,0,1,4.082,4.69,9.008,9.008,0,0,1-2.334,7.828c-2.493,2.572-5.134,3.176-9.509,4.176-1.315.3-2.806.642-4.506,1.084a18.642,18.642,0,0,1-4.706.682m-6.476-1.366a11.168,11.168,0,0,1,2.743.426,14.641,14.641,0,0,0,8.338-.133c1.705-.443,3.2-.785,4.518-1.086,4.449-1.017,6.9-1.578,9.31-4.064a8.589,8.589,0,0,0,2.23-7.463,5.936,5.936,0,0,0-3.836-4.4c-4.545-1.8-5.919-1.625-8.656-1.278-.555.07-1.184.15-1.9.221-.889.087-1.361-.019-1.532-.343-.277-.527.4-1.334,1.432-2.556,1.193-1.417,2.677-3.181,2.9-4.875a10.881,10.881,0,0,0-.524-4.257c-.545-2.072-1.06-4.03.388-6.226,1.51-2.29,2.531-5.844,1.535-6.822-.505-.5-1.548-.227-3.015.777l-.114-.166.114.166c-1.46,1-2.693,1.774-3.78,2.457-3.8,2.389-5.379,3.378-6.792,7.785a18.645,18.645,0,0,1-3.016,5.986,34.648,34.648,0,0,0-3.535,6.113c-.574,1.239-1.053,2.229-1.475,3.1-1.692,3.5-2.146,4.436-2.28,8.364-.119,3.485.752,6.361,2.328,7.693a3.532,3.532,0,0,0,3.133.731,7.383,7.383,0,0,1,1.488-.154" transform="translate(-332.805 -485.355)"/>
        <g id="Group_3805" data-name="Group 3805" transform="translate(77.058 74.775)" opacity="0.7" style="mix-blend-mode: overlay;isolation: isolate">
          <g id="Group_3804" data-name="Group 3804">
            <g id="Group_3803" data-name="Group 3803" clip-path="url(#clip-path-17)">
              <path id="Path_1700" data-name="Path 1700" d="M613.477,557.111c6.174.993,11.375,2.952,10.365,13.164-1.174,11.866-8.89,5.788-6.541,11s-3.019,4.63-3.69,8.537-7.883,11.431-12.244,10.274-7.212-.868-7.38,2.315-2.851.434-8.386.724-8.032-.633-11.48-2.487a19.827,19.827,0,0,0,10.306,3.355c7.212.434,10.231,2.749,14.424,1.447s6.877-4.486,14.089-11.721,15.1-16.062,13.25-25.9c-1.51-8.054-7.066-10.776-12.713-10.7" transform="translate(-574.12 -557.11)" fill="#fff"/>
            </g>
          </g>
        </g>
        <g id="Group_3808" data-name="Group 3808" transform="translate(51.795 75.629)" opacity="0.2">
          <g id="Group_3807" data-name="Group 3807">
            <g id="Group_3806" data-name="Group 3806" clip-path="url(#clip-path-18)">
              <path id="Path_1701" data-name="Path 1701" d="M416.438,589.683c-.595-.236-1.134-.436-1.632-.608a11.094,11.094,0,0,0-4.826,4.905c-2.684,5.535-7.548,7.38-13.753,6.709s-5.2-8.051-1.677-13.921,4.7-5.87,5.2-12.076c.471-5.81,5.353-7.21,8.726-11.219a7.485,7.485,0,0,0-1.6.872c-6.568,4.5-8.806,4.595-10.651,10.347s-3.354,5.2-6.541,12.076c-2.946,6.357-3.606,6.613-3.774,11.544s1.677,9.451,5.7,8.629,5.2,2.054,12.58.137,10.734-1.917,13.921-5.2,3.858-10-1.677-12.19" transform="translate(-385.901 -563.472)"/>
            </g>
          </g>
        </g>
        <path id="Path_1702" data-name="Path 1702" d="M694.811,760.847l-3.09-2.221,3.538-5.705,3.832,2.754Z" transform="translate(-598.879 -651.864)" fill="#fff"/>
        <path id="Path_1703" data-name="Path 1703" d="M693.513,759.749a.2.2,0,0,1-.117-.038l-3.09-2.221a.2.2,0,0,1-.054-.27l3.538-5.705a.2.2,0,0,1,.289-.057l3.832,2.754a.2.2,0,0,1,.038.292l-4.279,5.172a.2.2,0,0,1-.155.073m-2.82-2.476,2.785,2,4.022-4.861-3.482-2.5Z" transform="translate(-597.581 -650.565)"/>
        <path id="Path_1704" data-name="Path 1704" d="M548.51,811.662a1.751,1.751,0,0,0,.395-.409l11.7-17c.424.152.706.181.793.06s-.033-.385-.321-.746l1.437-2.087a4.6,4.6,0,0,0-1.1-6.343l-1.456-1.046a4.6,4.6,0,0,0-6.364.976l-1.52,2.028c-.434-.157-.721-.188-.81-.066s.03.379.31.732L539.2,804.277a1.746,1.746,0,0,0-.262.5c-.784-.349-1.31-.465-1.444-.279-.343.478,2.007,2.755,5.25,5.085s6.15,3.832,6.493,3.354c.134-.187-.144-.648-.725-1.28" transform="translate(-465.321 -678.106)" fill="#95a8b5"/>
        <path id="Path_1705" data-name="Path 1705" d="M547.744,811.994a5.19,5.19,0,0,1-2.012-.736,37.209,37.209,0,0,1-4.359-2.746c-.246-.177-6.026-4.349-5.3-5.366.189-.264.654-.225,1.5.129a1.946,1.946,0,0,1,.212-.358l12.285-16.389c-.212-.289-.388-.618-.221-.851s.55-.169.9-.055l1.432-1.91a4.825,4.825,0,0,1,6.642-1.019l1.456,1.046a4.826,4.826,0,0,1,1.152,6.62l-1.354,1.966c.22.295.405.634.235.871s-.536.171-.877.062l-11.617,16.87a1.947,1.947,0,0,1-.272.315c.6.686.788,1.114.6,1.377a.445.445,0,0,1-.4.174m-11.337-8.609c-.029.369,1.647,2.245,5.2,4.8s5.867,3.544,6.208,3.4c0-.055-.053-.315-.7-1.025a.2.2,0,0,1,.028-.3,1.551,1.551,0,0,0,.35-.362l11.7-17a.2.2,0,0,1,.234-.076,1.428,1.428,0,0,0,.548.122,1.461,1.461,0,0,0-.3-.493.2.2,0,0,1-.008-.24l1.437-2.087a4.422,4.422,0,0,0-1.055-6.065l-1.456-1.046a4.421,4.421,0,0,0-6.085.933l-1.52,2.028a.2.2,0,0,1-.23.069.309.309,0,1,0-.273.352.2.2,0,0,1,0,.246l-12.376,16.511a1.544,1.544,0,0,0-.232.447.2.2,0,0,1-.273.121c-.88-.392-1.143-.357-1.2-.341" transform="translate(-464.07 -676.867)"/>
        <rect id="Rectangle_1659" data-name="Rectangle 1659" width="3.044" height="12.025" transform="translate(86.573 108.443) rotate(-54.297)" fill="#f9eb6e"/>
        <path id="Path_1706" data-name="Path 1706" d="M653.48,797.924a.2.2,0,0,1-.117-.038l-9.765-7.018a.2.2,0,0,1-.046-.281l1.777-2.472a.2.2,0,0,1,.281-.046l9.765,7.018a.2.2,0,0,1,.046.281l-1.777,2.472a.2.2,0,0,1-.164.084M644,790.659l9.438,6.783,1.542-2.145-9.438-6.783Z" transform="translate(-557.142 -682.262)"/>
        <path id="Path_1707" data-name="Path 1707" d="M574.782,837.435l-9.109-6.546-10.319,13.766,9.671,6.95Z" transform="translate(-480.815 -719.367)" fill="#cd31b5"/>
        <path id="Path_1708" data-name="Path 1708" d="M563.24,850.091l-10-7.19,10.56-14.089,9.43,6.777Zm-9.436-7.277,9.337,6.71,9.529-13.838-8.789-6.316Z" transform="translate(-478.981 -717.57)"/>
        <path id="Path_1709" data-name="Path 1709" d="M601.868,882.385a3.226,3.226,0,0,1-.9-.14,9.918,9.918,0,0,1-2.02-.858,7.353,7.353,0,0,1-3.018-3.037,2.086,2.086,0,0,1-.29-1.232,1.455,1.455,0,0,1,.765-1.071,1.98,1.98,0,0,1,.952-.222,3.3,3.3,0,0,1,.767.1,1.561,1.561,0,0,1,.967-.3h.054a2.084,2.084,0,0,1,1.143.458,10.543,10.543,0,0,1,1.624,1.515,13.387,13.387,0,0,1,1.276,1.8c.372.662.786,1.621.135,2.353a1.859,1.859,0,0,1-1.455.629m-4.527-5.055a2.94,2.94,0,0,0,.353.59,6.163,6.163,0,0,0,2.924,2.15c.133.048.275.1.426.141-.046-.061-.1-.123-.147-.184l-.009-.011a9.162,9.162,0,0,0-.725-.851l-.171-.169a.417.417,0,0,1-.073-.069l-.008-.007-.123-.108a3.266,3.266,0,0,0-.261-.218l-.009-.006-.008-.007a6.016,6.016,0,0,0-.769-.571c-.028-.012-.055-.026-.081-.041a.4.4,0,0,0-.046-.023.96.96,0,0,0-.1-.03l-.074-.02-.042-.013-.035-.026-.03-.012a.307.307,0,0,1-.044-.015.963.963,0,0,1-.564-.553,1.876,1.876,0,0,0-.377.054Zm6.459,1.3a.64.64,0,0,1-.374-.125.618.618,0,0,1-.237-.71.677.677,0,0,1,.627-.479.639.639,0,0,1,.374.125.618.618,0,0,1,.237.71.677.677,0,0,1-.627.478m-1.226-1.526a.716.716,0,0,1-.418-.141.678.678,0,0,1-.259-.779.752.752,0,0,1,.695-.533.7.7,0,0,1,.409.137.687.687,0,0,1,.266.788.747.747,0,0,1-.693.528m-1.833-1.286-.067,0a.865.865,0,0,1-.714-.5.649.649,0,0,1-.04-.087.669.669,0,0,1-.073-.417.8.8,0,0,1,.15-.405.763.763,0,0,1,.329-.261.644.644,0,0,1,.317-.084.677.677,0,0,1,.109.009.736.736,0,0,1,.1.01.866.866,0,0,1,.7.509.911.911,0,0,1-.086.871.888.888,0,0,1-.722.362" transform="translate(-515.682 -756.746)" fill="#01c1c1"/>
        <path id="Path_1710" data-name="Path 1710" d="M598.914,872.6a.411.411,0,0,1,.089.01h.014a.465.465,0,0,1,.066.008.6.6,0,0,1,.493.354.639.639,0,0,1-.059.6.616.616,0,0,1-.5.25l-.048,0a.6.6,0,0,1-.493-.354.3.3,0,0,1-.032-.074.405.405,0,0,1-.055-.277.544.544,0,0,1,.1-.284.5.5,0,0,1,.228-.176.38.38,0,0,1,.2-.057m-1.551,1.565h.047a1.8,1.8,0,0,1,.985.4,10.332,10.332,0,0,1,1.586,1.48,13.214,13.214,0,0,1,1.247,1.762c.335.6.7,1.437.166,2.038a1.6,1.6,0,0,1-1.254.539,2.953,2.953,0,0,1-.823-.13,9.7,9.7,0,0,1-1.965-.835,7.136,7.136,0,0,1-2.909-2.923,1.858,1.858,0,0,1-.265-1.073,1.183,1.183,0,0,1,.628-.873,1.718,1.718,0,0,1,.823-.189,3.176,3.176,0,0,1,.836.125,1.242,1.242,0,0,1,.9-.323m2.361,4.713h-.011l.183.029.019,0c-.026-.035-.08-.125-.072-.137l-.153-.212a3.658,3.658,0,0,0-.318-.432,9.417,9.417,0,0,0-.746-.876l-.189-.186c-.022-.016-.045-.032-.048-.052l-.034-.024c-.126-.108-.256-.235-.4-.339a6.318,6.318,0,0,0-.821-.607c-.053-.021-.1-.053-.15-.074s-.155-.044-.2-.057-.064-.029-.086-.045h0l0,0h0l0,0h0c-.011-.008-.031,0-.042-.013a.729.729,0,0,1-.47-.575h-.062a2.3,2.3,0,0,0-.579.066c-.17.048-.279.1-.224.264a3.127,3.127,0,0,0,.429.75,6.418,6.418,0,0,0,3.044,2.239c.189.068.367.128.552.176l.228.062s.192.048.147.048m1.138-4.684a.427.427,0,0,1,.252.086.462.462,0,0,1-.27.829.444.444,0,0,1-.261-.09.464.464,0,0,1,.279-.825m1.224,1.665a.369.369,0,0,1,.217.075.393.393,0,0,1-.233.7.37.37,0,0,1-.217-.075.393.393,0,0,1,.233-.7m-3.173-3.8a.907.907,0,0,0-.434.11,1.029,1.029,0,0,0-.43.347,1.063,1.063,0,0,0-.2.527,1.264,1.264,0,0,0,.138.659l.02.04a2.057,2.057,0,0,0-.57-.117h-.078a1.87,1.87,0,0,0-1.024.277,3.457,3.457,0,0,0-.71-.079,2.244,2.244,0,0,0-1.078.254,1.728,1.728,0,0,0-.9,1.274,2.371,2.371,0,0,0,.313,1.38l0,0,0,0a7.619,7.619,0,0,0,3.125,3.149,10.185,10.185,0,0,0,2.075.881,3.487,3.487,0,0,0,.976.152,2.145,2.145,0,0,0,1.657-.72c.852-.959.136-2.237-.1-2.656l0-.006,0-.006a13.663,13.663,0,0,0-1.3-1.834l0,0,0,0A10.949,10.949,0,0,0,599,874.359h.009a1.157,1.157,0,0,0,.94-.474,1.181,1.181,0,0,0,.119-1.123l0-.008,0-.008a1.134,1.134,0,0,0-.909-.663.936.936,0,0,0-.107-.012.949.949,0,0,0-.134-.01m-.428,5.822a5.846,5.846,0,0,1-2.07-1.553l.041.016.046.017.041.03.083.026.086.024.072.019.018.01c.022.012.05.028.084.043a5.817,5.817,0,0,1,.72.538l.017.015.018.013a3.033,3.033,0,0,1,.239.2l.119.1a.7.7,0,0,0,.087.082l.159.157c.081.083.161.17.241.261m2.377-4.229h0a1.022,1.022,0,0,0-.951.719.951.951,0,0,0,.358,1.079.983.983,0,0,0,.575.191,1.018,1.018,0,0,0,.948-.714.987.987,0,0,0-.93-1.276m1.224,1.665h0a.948.948,0,0,0-.883.665.89.89,0,0,0,.336,1.01.906.906,0,0,0,.531.176.948.948,0,0,0,.883-.664.89.89,0,0,0-.336-1.01.907.907,0,0,0-.531-.176" transform="translate(-513.953 -755.014)" fill="#020202"/>
        <path id="Path_1711" data-name="Path 1711" d="M549.234,949.591c.074-.1.022-.291-.138-.546a51.748,51.748,0,0,1-10.912-7.9c-.365-.107-.607-.11-.692.008-.343.478,2.007,2.754,5.25,5.085s6.15,3.832,6.493,3.354" transform="translate(-465.321 -814.755)" fill="#f9eb6e"/>
        <path id="Path_1712" data-name="Path 1712" d="M547.743,948.581a5.188,5.188,0,0,1-2.012-.736,37.161,37.161,0,0,1-4.359-2.746c-.246-.177-6.026-4.349-5.3-5.366.187-.26.61-.172.912-.084a.2.2,0,0,1,.081.047,51.326,51.326,0,0,0,10.869,7.87.2.2,0,0,1,.076.071c.079.126.32.508.132.77a.446.446,0,0,1-.4.174m.24-.291h0Zm-11.576-8.318c-.029.369,1.646,2.245,5.2,4.8s5.867,3.544,6.208,3.4a.656.656,0,0,0-.113-.275,51.739,51.739,0,0,1-10.872-7.873.868.868,0,0,0-.424-.051" transform="translate(-464.069 -813.454)"/>
        <path id="Path_1713" data-name="Path 1713" d="M717.816,775.032a1.068,1.068,0,1,1-.2-1.549,1.106,1.106,0,0,1,.2,1.549" transform="translate(-619.777 -669.503)"/>
        <g id="Group_3811" data-name="Group 3811" transform="translate(76.822 103.117)" style="mix-blend-mode: overlay;isolation: isolate">
          <g id="Group_3810" data-name="Group 3810">
            <g id="Group_3809" data-name="Group 3809" clip-path="url(#clip-path-19)">
              <path id="Path_1714" data-name="Path 1714" d="M579.368,799.969s0-.01,0-.014a.2.2,0,0,0,.007-.034c0-.006,0-.012,0-.018a.3.3,0,0,0,0-.037c0-.007,0-.014,0-.021s0-.027-.008-.042,0-.014-.006-.022-.01-.032-.016-.049l-.008-.021c-.007-.018-.016-.038-.025-.057l-.009-.019c-.011-.022-.023-.045-.036-.069l-.007-.014c-.016-.028-.033-.058-.052-.088h0a5.429,5.429,0,0,0-.586-.734,1.752,1.752,0,0,0,.395-.409l8.119-11.79,2.265-3.289,1.319-1.916c.424.152.706.181.793.06s-.034-.385-.32-.746l.194-.282.385.277,1.777-2.472-.5-.359a4.6,4.6,0,0,0-.7-4.834l3.3-3.984-.989-.711-3.3,3.984a4.6,4.6,0,0,1,.7,4.834l.5.359-1.777,2.472-.385-.277-.194.282c.287.361.409.623.32.746s-.369.092-.793-.06l-1.319,1.916-2.265,3.289-8.119,11.79a1.745,1.745,0,0,1-.395.409,5.418,5.418,0,0,1,.586.734h0c.019.03.036.06.052.088l.007.014c.013.024.025.047.036.069l.009.019q.014.03.025.057l.008.021c.006.017.011.033.016.049l.006.022c0,.015.006.029.008.042s0,.014,0,.021a.282.282,0,0,1,0,.037c0,.006,0,.013,0,.018a.219.219,0,0,1-.007.034s0,.01,0,.014a.158.158,0,0,1-.021.041c-.326.453-2.959-.875-6-3q.243.179.492.359c3.243,2.33,6.15,3.832,6.493,3.354a.16.16,0,0,0,.021-.041" transform="translate(-572.362 -768.273)" fill="#fff"/>
            </g>
          </g>
        </g>
        <g id="Group_3814" data-name="Group 3814" transform="translate(72.137 101.057)" opacity="0.65" style="mix-blend-mode: overlay;isolation: isolate">
          <g id="Group_3813" data-name="Group 3813">
            <g id="Group_3812" data-name="Group 3812" clip-path="url(#clip-path-20)">
              <path id="Path_1715" data-name="Path 1715" d="M539.47,779.682a.167.167,0,0,1,.036-.035l.013-.008a.217.217,0,0,1,.035-.018l.018-.006a.348.348,0,0,1,.048-.012l.015,0a.555.555,0,0,1,.076-.005h0c.027,0,.056,0,.086,0l.021,0,.081.012.022,0c.034.006.069.014.106.022h0a5.439,5.439,0,0,1,.882.321,1.749,1.749,0,0,1,.262-.5L549.762,768l2.4-3.2,1.4-1.861c-.279-.354-.4-.611-.31-.733s.376-.091.809.066l.205-.274-.385-.277,1.777-2.472.5.359a4.6,4.6,0,0,1,4.8-.879l2.725-4.395L561.7,752.92l-2.725,4.395a4.6,4.6,0,0,0-4.8.879l-.5-.359-1.777,2.472.385.277-.205.274c-.434-.157-.721-.188-.81-.066s.031.379.31.732l-1.4,1.861-2.4,3.2L539.2,778.035a1.746,1.746,0,0,0-.262.5,5.419,5.419,0,0,0-.882-.321h0c-.037-.009-.072-.016-.106-.022l-.022,0-.081-.012-.021,0c-.03,0-.059,0-.086,0h0a.586.586,0,0,0-.076.005l-.015,0a.342.342,0,0,0-.048.011l-.017.006a.223.223,0,0,0-.035.018l-.013.008a.172.172,0,0,0-.036.035c-.343.478,2.007,2.754,5.25,5.085q.506.364,1,.7c-2.722-2.061-4.578-3.934-4.27-4.362" transform="translate(-537.459 -752.92)"/>
            </g>
          </g>
        </g>
        <path id="Path_1716" data-name="Path 1716" d="M590.754,736.9a5.637,5.637,0,0,1,.6-7.2c2.223-2.293,6.022-5.482,10.271-5.905,6.729-.67,10.487.364,11.481,2.164s-3.751,2.517-8.056,2.15a12.449,12.449,0,0,1,4.929,7.409c1.085,4.975-3.413,2.79-6.884-3.112,0,0,2.92,4.792,1.764,7.3s-4.794-2.646-5.431-5.155c0,0-1.742,5.134-5.921,4.2a4.534,4.534,0,0,1-2.753-1.853" transform="translate(-510.574 -626.468)" fill="#f6a24c"/>
        <path id="Path_1717" data-name="Path 1717" d="M602.666,739.285c-.037,0-.073,0-.108-.005-1.6-.147-3.743-3.4-4.475-5.429-.536,1.178-2.089,3.925-4.908,3.926a4.784,4.784,0,0,1-3.9-2.049,5.826,5.826,0,0,1,.619-7.455c2.413-2.489,6.176-5.545,10.4-5.965,6.278-.625,10.535.2,11.677,2.267a1.009,1.009,0,0,1,0,1.091c-.777,1.2-4.269,1.6-7.554,1.407a12.839,12.839,0,0,1,4.45,7.116c.447,2.05-.076,2.722-.594,2.925a1.2,1.2,0,0,1-.442.079c-1.16,0-2.9-1.371-4.574-3.531.617,1.565,1.1,3.494.476,4.839a1.145,1.145,0,0,1-1.057.786m-4.557-6.226h.008a.2.2,0,0,1,.187.151c.492,1.935,2.843,5.535,4.29,5.668.33.03.579-.149.763-.549,1.014-2.2-1.318-6.36-1.7-7.019l-.054-.091a.2.2,0,0,1,.345-.207c.011.017.042.068.089.149,2.307,3.862,4.994,6,6.079,5.574.525-.206.649-1.081.347-2.464a12.352,12.352,0,0,0-4.84-7.282.2.2,0,0,1,.125-.371c3.779.322,7.237-.194,7.874-1.175a.607.607,0,0,0-.012-.677c-1.045-1.89-5.264-2.661-11.285-2.061-4.1.408-7.78,3.4-10.146,5.845a5.424,5.424,0,0,0-.581,6.94,4.336,4.336,0,0,0,2.633,1.774,4.4,4.4,0,0,0,.956.109c3.268,0,4.668-3.995,4.731-4.18a.2.2,0,0,1,.191-.137" transform="translate(-509.256 -625.183)"/>
        <g id="Group_3817" data-name="Group 3817" transform="translate(79.154 99.073)" opacity="0.2">
          <g id="Group_3816" data-name="Group 3816">
            <g id="Group_3815" data-name="Group 3815" clip-path="url(#clip-path-21)">
              <path id="Path_1718" data-name="Path 1718" d="M689.09,788a5.387,5.387,0,0,1,1.844,2.824c2.913,3.652,5.77,4.535,5.15.866-.587,2.035-4.158,1.1-6.994-3.69" transform="translate(-675.755 -781.304)"/>
              <path id="Path_1719" data-name="Path 1719" d="M604.865,798.055c-1.156,2.5-4.794-2.646-5.431-5.155,0,0-1.742,5.134-5.921,4.2a4.532,4.532,0,0,1-2.753-1.853,5.444,5.444,0,0,1-.967-2.4,5.5,5.5,0,0,0,.967,4.011,4.531,4.531,0,0,0,2.753,1.853c4.179.931,5.921-4.2,5.921-4.2.637,2.509,4.275,7.658,5.431,5.155a4.036,4.036,0,0,0,.2-2.261,2.809,2.809,0,0,1-.2.65" transform="translate(-589.734 -785.506)"/>
              <path id="Path_1720" data-name="Path 1720" d="M711.825,738.139c-1.177.907-4.562,2.8-7.735,2.531A1.2,1.2,0,0,1,706,740.8c3.658.038,6.969-.71,6.123-2.241a2.49,2.49,0,0,0-.294-.416" transform="translate(-688.741 -738.139)"/>
            </g>
          </g>
        </g>
        <path id="Path_1721" data-name="Path 1721" d="M228.989,913.61a29.117,29.117,0,0,0-1.637-6.188c-.068-.186-.135-.371-.2-.557q-.2-1.313-.4-2.625-.349-2.306-.708-4.61c-.268-1.723-.433-3.53-.869-5.224-.348-1.8-.723-3.6-.951-5.424q-.379-3.034-.776-6.066a4.209,4.209,0,0,0-1.352-2.554q-.392-3.269-.736-6.543a3.789,3.789,0,0,0-2.6-3.234,3.861,3.861,0,0,0-1.738-.142,6.862,6.862,0,0,0-1.589-1.116,5.411,5.411,0,0,0-5.579.533c-2.614,2.033-2.985,5.338-2.931,8.41a50.934,50.934,0,0,0,.455,5.909q-2.122-2.249-4.3-4.442-1.871-1.88-3.8-3.706a13.17,13.17,0,0,0-1.435-1.35,3.91,3.91,0,0,0-.865-.525l-.751-.88a3.9,3.9,0,0,0-.233-.746,4.323,4.323,0,0,0-1.778-2.11,9.143,9.143,0,0,0-1.938-.829,7.049,7.049,0,0,0-4.189-.106,4.8,4.8,0,0,0-3.29,4.258,5.177,5.177,0,0,0-1.588,1.53,9.478,9.478,0,0,0-1,2.47,4.47,4.47,0,0,0,.448,3.427,3.852,3.852,0,0,0,1.416,1.479c.107.857.24,1.713.385,2.567a5.633,5.633,0,0,0-.2,1.616c.128,6.5.222,13,.385,19.492a4.31,4.31,0,0,0,1.114,2.694c-.056,2.02-.112,4.04-.13,6.061a49.779,49.779,0,0,0,.341,7.79c.492,3.291,1.517,6.706,3.79,9.229a4.932,4.932,0,0,0,2.923,1.879,5.306,5.306,0,0,0,3.5-.762c3.319-1.837,5.308-5.416,6.243-8.971.944-3.588.494-7.434.005-11.055a4.96,4.96,0,0,0-1.442-2.926q-.481-7.308-.989-14.615a131.809,131.809,0,0,1,12.69,17.422,3.2,3.2,0,0,0,.815.89c.962,3.37,1.729,6.813,3.588,9.841a14.441,14.441,0,0,0,5.333,5.056c2.5,1.391,5.54-.526,6.078-3.091a36.891,36.891,0,0,0,.485-12.159m-11.3-42.554-.038-.036c-.017-.007-.05-.023-.089-.043.029.009.053.018.071.026l-.079-.074c.35.139.383.366.135.126" transform="translate(-157.604 -752.185)" fill="#01c1c1"/>
        <path id="Path_1722" data-name="Path 1722" d="M206.566,902.494a14.07,14.07,0,0,1-.126,2.843l-.091.008a2.774,2.774,0,0,1-.717,1.248c-.475.862-1.428,1.491-1.812,2.346-.4.673-.5,1.6-.988,2.367a7.914,7.914,0,0,1-5.417,4.02,4.258,4.258,0,0,1-1.519.4,6.544,6.544,0,0,1-2.216-.27c-3.857-1.319-4.912-5.159-5.678-7.744l-.015-.181-.759-2.494c-.409-.514-1.885-2.856-1.885-2.856l-6.777-9.935-.946-1.473.153,1.814.838,6.69a8.326,8.326,0,0,0,.213,1.444,19.417,19.417,0,0,1,.247,5.1,6.357,6.357,0,0,1-2.793,4.8,6.062,6.062,0,0,1-3.329,4.941,7.464,7.464,0,0,1-5.237,2.908,6.282,6.282,0,0,1-2.3-.172c-4.083-.752-4.774-3.526-5.625-7.109a240.239,240.239,0,0,1-4.237-25.316c-.724-5.329-1.273-10.765-1.808-16.019-.1-1.179-.29-2.351-.389-3.53-.29-2.351-.044-5.935,1.92-7.563a5.854,5.854,0,0,0,1.834-3.169c.082-1.195,1.124-1.831,1.993-2.361a4.534,4.534,0,0,1,.762-1.8,5.7,5.7,0,0,1,4.42-2.84c4.627-.39,9.342,4.6,10.152,5.539q1.51,1.654,3.043,3.58l.226-.567a11.108,11.108,0,0,1,1.623-2.421,23.713,23.713,0,0,0,1.328-2.67c.392-.764,1.08-1.279,1.48-1.952a5.617,5.617,0,0,1,4.768-3.052,7.636,7.636,0,0,1,4.371.911l.862.475.779.574.114.264a3.868,3.868,0,0,1,3.8,2.786q1.718,5.748,3.164,11.519c1.557,6.538,2.932,13.092,4.034,19.669.532,3.062.982,6.221,1.34,9.389.351,3.077.528,6.26,1.151,9.313l.114.264Zm-41.77,1.97-2.538-20.343c-.717-6.335-1.434-12.67-2.053-18.922-.336-2.9-.671-5.791-.825-8.7a10.562,10.562,0,0,0-.328,4.778c.642,6.524,1.283,13.048,2.1,19.466.823,6.509,1.518,13.668,2.606,20.063.692,3.87,1.04,3.658,1.04,3.658m38.423.6c-1.667-11.1-3.614-22.262-6.362-33.177a139.248,139.248,0,0,0-4.545-15.971c-.6-1.686-1.289-3.363-1.8-5.056a1.635,1.635,0,0,0-.673-.4c-1.634-.958-4.371-.91-5.291,1.177.008.091-.083.1-.075.189a4.458,4.458,0,0,0-1.4,1.763c-.845,1.9.117,3.553.716,5.239,1.183,3.189,2,6.409,2.913,9.622,1.207,4.558,2.61,9.282,3.446,13.779l-1.689-2.69a1.8,1.8,0,0,0-.258-.892c-2.128-3.567-4.339-7.035-6.724-10.4a105.932,105.932,0,0,0-9.16-12.2c-1.915-2.123-7.537-7.039-10.036-3.082a3.646,3.646,0,0,0-.55,2.147,3.82,3.82,0,0,0-1.655.962c.057,3.924.575,7.9,1,11.884.7,6.154,1.32,12.405,2.113,18.551.915,7.6,1.83,15.2,2.926,22.777A4.6,4.6,0,0,0,168.8,910.8a4.381,4.381,0,0,0,5.01-2.341c3.674-.858,2.232-6.035,1.9-8.84-.4-3.621-.793-7.242-1.281-10.856-.52-6.169-.95-12.345-1.561-18.506.507.6,1.022,1.284,1.62,1.874l18.165,26.882.8,3.039c.653,2.32,1.434,5.087,3.975,5.969a1.855,1.855,0,0,0,1.814-.153,5.372,5.372,0,0,0,3.966-2.8m-29.228-6.4c.334,1.8.578,3.606.814,5.322a5.717,5.717,0,0,1-.466,3.146c.353-2.314-.73-4.324-.853-5.775l-.368-5.451a.282.282,0,0,1,.174-.106l.249-.3c.183,1.081.357,2.071.449,3.16m29.639,1.52a231.283,231.283,0,0,0-9.211-47.463.981.981,0,0,0-1.754-.218.927.927,0,0,0-.188,1.021A349.99,349.99,0,0,1,203.71,904.38c.075-.189.158-.288.34-.3a25.619,25.619,0,0,0-.42-3.893" transform="translate(-132.686 -733.335)" fill="#0c0c0c"/>
        <path id="Path_1723" data-name="Path 1723" d="M70.582,993.419a4.114,4.114,0,0,0-2.289-2.289,4.52,4.52,0,0,0-3.854.218l-1.331.578c-.064-.521-.14-1.041-.245-1.558a20.038,20.038,0,0,0-1.2-3.694l.127.3c-.078-.231-.141-.464-.209-.7a4.454,4.454,0,0,0-8.09-1.057,12.077,12.077,0,0,0-1.36,6.038,5.876,5.876,0,0,0-1.358-.165,5.636,5.636,0,0,0-4.105,1.7,4.907,4.907,0,0,0-.749,5.806,14.089,14.089,0,0,0,2.658,3.242l-.246.19a10.2,10.2,0,0,0-1.777,1.665,9.262,9.262,0,0,0-1.563,2.9,3.405,3.405,0,0,0-.194.782c0,.017-.014.085-.037.233a13.374,13.374,0,0,0-.169,1.578,2.594,2.594,0,0,0,1.6,2.375,2.561,2.561,0,0,0,2.838-.537c.063-.077.127-.152.192-.227a4.6,4.6,0,0,0,4.983.211c.778-.514,1.5-1.116,2.239-1.686l.065-.052,4.13,3.208a4.735,4.735,0,0,0,4.61,1.219,6.673,6.673,0,0,0,2.44-1.427,6.22,6.22,0,0,0,1.46-2.425,6.055,6.055,0,0,0,0-3.76,16.333,16.333,0,0,0-2.927-4.509l-1.036-1.348.1-.048c.828-.317,1.668-.609,2.5-.916a4.886,4.886,0,0,0,2.588-1.99,4.177,4.177,0,0,0,.218-3.854" transform="translate(-38.603 -851.119)" fill="#01c1c1"/>
        <path id="Path_1724" data-name="Path 1724" d="M33.114,982.8a8.8,8.8,0,0,0-1.265.843,4.18,4.18,0,0,1-1.265,2.847l.949,1.16a5.48,5.48,0,0,1,.738,5.9,4.422,4.422,0,0,1-.949,1.476,4.78,4.78,0,0,1-.211,2.425,4.584,4.584,0,0,1-2.636,2.425,4.244,4.244,0,0,1-4.217,4.217,3.9,3.9,0,0,1-3.058-1.476c-1.792-2.109-3.585-4.323-5.377-6.537-1.16,1.054-2.32,2.214-3.374,3.374a3.829,3.829,0,0,1-2.741,1.16H9.285a5.716,5.716,0,0,1-2.636.633,6.776,6.776,0,0,1-6.115-3.9,5.857,5.857,0,0,1,.949-6.326c.633-.738,1.16-1.371,1.792-2,0-.105.105-.211.105-.316a6.616,6.616,0,0,1-2.109-5.8,6.8,6.8,0,0,1,3.163-4.85,6.279,6.279,0,0,1,5.377-4.85,5.673,5.673,0,0,1,2.952-3.9,5.82,5.82,0,0,1,5.166-4.745,1.336,1.336,0,0,1,.633-.106,6.51,6.51,0,0,1,4.428,1.9,5.541,5.541,0,0,1,1.582,3.585c.211,1.16.316,2.425.422,3.479a6.1,6.1,0,0,1,1.476-.527,8.121,8.121,0,0,1,1.582-.211,5.583,5.583,0,0,1,4.85,2.847l.316.738a4.545,4.545,0,0,1,1.371,2,4.163,4.163,0,0,1-1.476,4.534m-2.425-4.007c-.316,0-.527.105-.738.105a2.082,2.082,0,0,0-2.53-2.847,28.356,28.356,0,0,0-5.061,2.531l-.211.211c-.105-.422-.105-.949-.211-1.265L21.3,970.25a2.7,2.7,0,1,0-5.377.527v5.166c0,.738.106,1.476.106,2.109-1.371-.422-2.741-1.054-4.007-1.371-4.639-1.582-6.432,5.061-1.792,6.326l2.636.738-.105.105-.738.422a27.427,27.427,0,0,0-5.061,4.85c-2.531,3.058,2.53,6.432,4.639,3.69.738-.633,1.371-1.265,2.109-2a11.287,11.287,0,0,1-1.476,1.687c-.316.422.422.949.738.527l6.221-6.01c2.32,3.163,4.85,6.326,7.486,9.384.738.844,1.9-.316,1.054-1.16a20.231,20.231,0,0,0-1.476-1.582c2,.527,4.323-1.9,2.741-3.9a51.253,51.253,0,0,0-5.8-5.9,29.518,29.518,0,0,0,8.013-3.8c.527-.422.106-1.476-.527-1.265m-10.965,7.591a34.088,34.088,0,0,1,4.007,4.745l-4.112-4.639a.1.1,0,0,0,.105-.105" transform="translate(0 -835.003)" fill="#0c0c0c"/>
      </g>
    </g>
  </g>
</svg>
