<svg id="safu-vector" xmlns="http://www.w3.org/2000/svg" xmlns:xlink="http://www.w3.org/1999/xlink" width="145.65" height="123.306" viewBox="0 0 145.65 123.306">
  <defs>
    <clipPath id="clip-path">
      <rect id="Rectangle_1710" data-name="Rectangle 1710" width="145.65" height="123.306" fill="none"/>
    </clipPath>
    <clipPath id="clip-path-3">
      <path id="Path_1952" data-name="Path 1952" d="M116.251,0a22.426,22.426,0,0,0-16.015,6.253,9.021,9.021,0,0,0-5.3,2.971q-.228-.03-.457-.055a24.17,24.17,0,0,0-10.3-2.246c-10.745,0-19.544,6.681-20.3,15.148a12.96,12.96,0,0,0-3.724-2.1,14.748,14.748,0,0,0-1.6-.487,5.276,5.276,0,0,0-3.574-3.834c-3.136-1.156-6.845-.053-8.286,2.462a4.093,4.093,0,0,0-.292,3.57,10.552,10.552,0,0,0-2.965,3.257C40.529,30.02,43.3,36.027,49.63,38.359l.109.037a14.384,14.384,0,0,0-3.388,7.489c-4.275,2.223-7.1,6.084-7.1,10.475a10.25,10.25,0,0,0,.822,4.012c-3.762,2.277-6.194,5.893-6.194,9.965,0,4.183,2.567,7.884,6.5,10.148-2.667.858-4.551,2.949-4.551,5.4A5.3,5.3,0,0,0,37.963,90a5.893,5.893,0,0,0-.833,3c0,3.387,2.976,6.216,6.945,6.9a7.981,7.981,0,0,0,2.443,3.668,6.063,6.063,0,0,0-3.2,5.088c0,3.55,3.675,6.428,8.209,6.428a10.109,10.109,0,0,0,3.46-.6,5.612,5.612,0,0,0,3.355,1.064,5.411,5.411,0,0,0,3.932-1.577c.305.066.615.124.93.171a4.208,4.208,0,0,0-.061.7c0,3.555,4.473,6.437,9.99,6.437,3.655,0,6.85-1.11,8.591-3a22.288,22.288,0,0,0,7.439,1.251,21,21,0,0,0,11.707-3.385,30.592,30.592,0,0,0,7.969,1.044,28.265,28.265,0,0,0,17.756-5.943,13.732,13.732,0,0,0,1.983.916c6.328,2.332,13.815-.047,16.722-5.124a8.573,8.573,0,0,0,1.1-3.33A14.234,14.234,0,0,0,158,99.844a8.506,8.506,0,0,0,3.614,2.463c4.4,1.623,9.61.075,11.633-3.457,1.969-3.438.192-7.489-3.966-9.2a8.539,8.539,0,0,0-1.908-9.23c3.91-2.975,6.349-7.183,6.349-11.848,0-5.784-3.749-10.866-9.4-13.766a13.385,13.385,0,0,0,.938-4.912c0-7.086-5.626-13.116-13.489-15.375.134-.2.263-.4.382-.607a8.944,8.944,0,0,0,.74-1.667c.24.112.488.216.746.311,4.4,1.623,9.611.075,11.633-3.457s.093-7.711-4.309-9.334a10.739,10.739,0,0,0-6.194-.342,8.136,8.136,0,0,0-4.225-3.316,10.524,10.524,0,0,0-3.043-.626c1.554-3.417-.4-7.274-4.59-8.819a10.546,10.546,0,0,0-9.372,1.041C129.942,3.08,123.545,0,116.251,0Z" transform="translate(-33.874 0)" fill="none"/>
    </clipPath>
    <clipPath id="clip-path-4">
      <rect id="Rectangle_1689" data-name="Rectangle 1689" width="9.498" height="29.883" fill="none"/>
    </clipPath>
    <clipPath id="clip-path-5">
      <rect id="Rectangle_1690" data-name="Rectangle 1690" width="18.736" height="10.918" fill="none"/>
    </clipPath>
    <clipPath id="clip-path-6">
      <rect id="Rectangle_1691" data-name="Rectangle 1691" width="21.622" height="13.946" fill="none"/>
    </clipPath>
    <clipPath id="clip-path-7">
      <rect id="Rectangle_1692" data-name="Rectangle 1692" width="51.722" height="20.957" fill="none"/>
    </clipPath>
    <clipPath id="clip-path-8">
      <rect id="Rectangle_1693" data-name="Rectangle 1693" width="18.362" height="18.819" fill="none"/>
    </clipPath>
    <clipPath id="clip-path-9">
      <rect id="Rectangle_1694" data-name="Rectangle 1694" width="35.159" height="18.741" fill="none"/>
    </clipPath>
    <clipPath id="clip-path-10">
      <rect id="Rectangle_1695" data-name="Rectangle 1695" width="39.382" height="41.359" fill="none"/>
    </clipPath>
    <clipPath id="clip-path-11">
      <rect id="Rectangle_1696" data-name="Rectangle 1696" width="38.803" height="49.644" fill="none"/>
    </clipPath>
    <clipPath id="clip-path-12">
      <rect id="Rectangle_1697" data-name="Rectangle 1697" width="46.328" height="50.154" fill="none"/>
    </clipPath>
    <clipPath id="clip-path-13">
      <rect id="Rectangle_1698" data-name="Rectangle 1698" width="7.676" height="9.714" fill="none"/>
    </clipPath>
    <clipPath id="clip-path-14">
      <rect id="Rectangle_1699" data-name="Rectangle 1699" width="14.656" height="16.029" fill="none"/>
    </clipPath>
    <clipPath id="clip-path-15">
      <rect id="Rectangle_1700" data-name="Rectangle 1700" width="33.885" height="10.568" fill="none"/>
    </clipPath>
    <clipPath id="clip-path-16">
      <rect id="Rectangle_1701" data-name="Rectangle 1701" width="33.972" height="8.695" fill="none"/>
    </clipPath>
    <clipPath id="clip-path-17">
      <rect id="Rectangle_1702" data-name="Rectangle 1702" width="12.077" height="26.588" fill="none"/>
    </clipPath>
    <clipPath id="clip-path-18">
      <rect id="Rectangle_1703" data-name="Rectangle 1703" width="16.664" height="19.274" fill="none"/>
    </clipPath>
    <clipPath id="clip-path-19">
      <rect id="Rectangle_1704" data-name="Rectangle 1704" width="8.694" height="10.997" fill="none"/>
    </clipPath>
    <clipPath id="clip-path-20">
      <rect id="Rectangle_1705" data-name="Rectangle 1705" width="9.928" height="10.129" fill="none"/>
    </clipPath>
    <clipPath id="clip-path-21">
      <rect id="Rectangle_1706" data-name="Rectangle 1706" width="59.617" height="25.638" fill="none"/>
    </clipPath>
    <clipPath id="clip-path-22">
      <rect id="Rectangle_1707" data-name="Rectangle 1707" width="11.015" height="9.785" fill="none"/>
    </clipPath>
    <clipPath id="clip-path-23">
      <rect id="Rectangle_1708" data-name="Rectangle 1708" width="37.603" height="8.112" fill="none"/>
    </clipPath>
  </defs>
  <g id="Group_3954" data-name="Group 3954" clip-path="url(#clip-path)">
    <g id="Group_3889" data-name="Group 3889">
      <g id="Group_3888" data-name="Group 3888" clip-path="url(#clip-path)">
        <path id="Path_1863" data-name="Path 1863" d="M169.279,91.652a8.539,8.539,0,0,0-1.908-9.23c3.91-2.975,6.349-7.183,6.349-11.848,0-5.784-3.749-10.866-9.4-13.766a13.386,13.386,0,0,0,.938-4.912c0-7.085-5.626-13.116-13.489-15.375.134-.2.263-.4.382-.607a8.943,8.943,0,0,0,.74-1.667c.24.112.489.216.746.311,4.4,1.623,9.611.075,11.633-3.457s.093-7.711-4.309-9.334a10.739,10.739,0,0,0-6.194-.342,8.136,8.136,0,0,0-4.225-3.316,10.523,10.523,0,0,0-3.043-.626c1.554-3.417-.4-7.274-4.59-8.819a10.545,10.545,0,0,0-9.372,1.041C129.942,5.079,123.546,2,116.252,2a22.427,22.427,0,0,0-16.015,6.252,9.022,9.022,0,0,0-5.3,2.971q-.227-.03-.457-.055a24.17,24.17,0,0,0-10.3-2.246c-10.745,0-19.544,6.681-20.3,15.148a12.967,12.967,0,0,0-3.724-2.1,14.8,14.8,0,0,0-1.6-.487,5.276,5.276,0,0,0-3.574-3.834c-3.136-1.156-6.846-.053-8.286,2.462a4.092,4.092,0,0,0-.292,3.57,10.542,10.542,0,0,0-2.965,3.257C40.53,32.02,43.3,38.027,49.631,40.359l.109.037a14.381,14.381,0,0,0-3.388,7.489c-4.275,2.223-7.1,6.084-7.1,10.475a10.254,10.254,0,0,0,.822,4.012c-3.762,2.277-6.194,5.892-6.194,9.964,0,4.183,2.566,7.885,6.5,10.148-2.667.858-4.551,2.949-4.551,5.4A5.3,5.3,0,0,0,37.964,92a5.894,5.894,0,0,0-.833,3c0,3.387,2.976,6.215,6.945,6.9a7.981,7.981,0,0,0,2.443,3.668,6.063,6.063,0,0,0-3.2,5.088c0,3.55,3.675,6.428,8.209,6.428a10.111,10.111,0,0,0,3.46-.6,5.611,5.611,0,0,0,3.355,1.064,5.411,5.411,0,0,0,3.932-1.577c.305.066.615.124.93.171a4.241,4.241,0,0,0-.061.7c0,3.555,4.473,6.437,9.99,6.437,3.655,0,6.85-1.265,8.591-3.152a22.289,22.289,0,0,0,7.44,1.251,21,21,0,0,0,11.707-3.385,30.59,30.59,0,0,0,7.969,1.044A28.266,28.266,0,0,0,126.6,113.09a13.725,13.725,0,0,0,1.983.916c6.328,2.332,13.815.108,16.722-4.969a8.572,8.572,0,0,0,1.1-3.33A14.234,14.234,0,0,0,158,101.844a8.507,8.507,0,0,0,3.614,2.463c4.4,1.623,9.611.075,11.633-3.457,1.969-3.438.192-7.489-3.966-9.2" transform="translate(-28.628 -1.69)" fill="#01c1c1"/>
        <path id="Path_1864" data-name="Path 1864" d="M71.87,122.24c-5.637,0-10.222-2.992-10.222-6.669a4.309,4.309,0,0,1,.031-.506c-.192-.032-.387-.069-.591-.111a5.658,5.658,0,0,1-4.009,1.555,5.881,5.881,0,0,1-3.392-1.036,10.322,10.322,0,0,1-3.423.571c-4.654,0-8.441-2.988-8.441-6.66a6.174,6.174,0,0,1,3.045-5.122,8.2,8.2,0,0,1-2.24-3.431c-4.063-.752-7-3.72-7-7.1a6.064,6.064,0,0,1,.767-2.943,5.452,5.452,0,0,1-2.069-4.176c0-2.351,1.648-4.447,4.239-5.449-3.887-2.4-6.193-6.139-6.193-10.094,0-3.976,2.234-7.632,6.136-10.059a10.461,10.461,0,0,1-.764-3.917c0-4.3,2.66-8.264,7.122-10.625a14.638,14.638,0,0,1,3.214-7.234,11.313,11.313,0,0,1-6.78-6.426,8.518,8.518,0,0,1,.665-7.248,10.688,10.688,0,0,1,2.889-3.225,4.33,4.33,0,0,1,.368-3.6c1.492-2.606,5.336-3.756,8.568-2.565a5.547,5.547,0,0,1,3.692,3.862,14.964,14.964,0,0,1,1.486.459,13.31,13.31,0,0,1,3.456,1.872,15.568,15.568,0,0,1,6.449-10.492A23.455,23.455,0,0,1,82.912,7.423,24.513,24.513,0,0,1,93.28,9.675l.3.035a9.241,9.241,0,0,1,5.277-2.939A22.624,22.624,0,0,1,114.983.5c7.063,0,13.524,2.847,17.333,7.626a10.865,10.865,0,0,1,9.4-.947,8.015,8.015,0,0,1,4.8,4.3,5.982,5.982,0,0,1,.052,4.532,10.691,10.691,0,0,1,2.783.616,8.486,8.486,0,0,1,4.254,3.27,11,11,0,0,1,6.165.388,7.981,7.981,0,0,1,4.9,4.565,6,6,0,0,1-.468,5.1c-2.073,3.621-7.418,5.217-11.915,3.56-.175-.065-.352-.136-.529-.213a9.191,9.191,0,0,1-.676,1.466c-.066.115-.137.232-.217.357,8,2.413,13.355,8.613,13.355,15.509a13.6,13.6,0,0,1-.879,4.8c5.856,3.073,9.345,8.247,9.345,13.877,0,4.524-2.214,8.733-6.239,11.877a8.741,8.741,0,0,1,1.865,9.075,7.8,7.8,0,0,1,4.374,4.448,6,6,0,0,1-.506,4.991c-2.073,3.621-7.419,5.217-11.915,3.56a8.857,8.857,0,0,1-3.544-2.339,14.522,14.522,0,0,1-11.376,3.773,8.83,8.83,0,0,1-1.1,3.192c-2.956,5.163-10.584,7.439-17,5.072a14.049,14.049,0,0,1-1.878-.855,28.45,28.45,0,0,1-17.78,5.9,30.848,30.848,0,0,1-7.927-1.025A21.338,21.338,0,0,1,87.9,120.338a22.454,22.454,0,0,1-7.374-1.214c-1.881,1.953-5.1,3.115-8.657,3.115M61.01,114.468a.237.237,0,0,1,.049.005c.323.069.622.124.916.168a.232.232,0,0,1,.195.268,3.96,3.96,0,0,0-.058.661c0,3.421,4.377,6.2,9.758,6.2,3.442,0,6.668-1.179,8.421-3.077a.233.233,0,0,1,.248-.061,21.963,21.963,0,0,0,7.362,1.237,20.836,20.836,0,0,0,11.577-3.345.232.232,0,0,1,.191-.032,30.364,30.364,0,0,0,7.908,1.036,27.946,27.946,0,0,0,17.61-5.891.232.232,0,0,1,.26-.022,13.568,13.568,0,0,0,1.949.9c6.216,2.291,13.591.108,16.44-4.867a8.336,8.336,0,0,0,1.074-3.24.234.234,0,0,1,.255-.206,14.006,14.006,0,0,0,11.4-3.792.223.223,0,0,1,.175-.071.231.231,0,0,1,.17.083,8.308,8.308,0,0,0,3.516,2.394c4.294,1.582,9.386.078,11.351-3.355a5.544,5.544,0,0,0,.47-4.609,7.4,7.4,0,0,0-4.322-4.259.233.233,0,0,1-.127-.3,8.308,8.308,0,0,0-1.862-8.983.232.232,0,0,1,.029-.344c4.035-3.07,6.257-7.213,6.257-11.663,0-5.511-3.468-10.58-9.277-13.559a.233.233,0,0,1-.11-.292,13.153,13.153,0,0,0,.922-4.827c0-6.773-5.353-12.862-13.321-15.152a.232.232,0,0,1-.128-.353c.151-.224.27-.412.373-.592a8.748,8.748,0,0,0,.721-1.624.232.232,0,0,1,.319-.138c.242.113.487.215.728.3,4.294,1.583,9.386.078,11.351-3.355a5.538,5.538,0,0,0,.434-4.712,7.521,7.521,0,0,0-4.622-4.288,10.529,10.529,0,0,0-6.059-.334.232.232,0,0,1-.253-.105,7.962,7.962,0,0,0-4.107-3.218,10.273,10.273,0,0,0-2.976-.612.232.232,0,0,1-.2-.328,5.53,5.53,0,0,0,.072-4.465,7.661,7.661,0,0,0-4.53-4.04A10.354,10.354,0,0,0,132.4,8.63a.232.232,0,0,1-.314-.049c-3.7-4.769-10.1-7.616-17.1-7.616A22.139,22.139,0,0,0,99.134,7.147a.234.234,0,0,1-.122.066,8.753,8.753,0,0,0-5.16,2.89.233.233,0,0,1-.21.083q-.225-.029-.452-.054a.229.229,0,0,1-.074-.021A24.038,24.038,0,0,0,82.912,7.887c-10.507,0-19.32,6.561-20.065,14.936a.232.232,0,0,1-.378.159,12.724,12.724,0,0,0-3.658-2.059,14.635,14.635,0,0,0-1.58-.479.232.232,0,0,1-.173-.184A5.048,5.048,0,0,0,53.632,16.6c-3.029-1.117-6.62-.058-8,2.36a3.873,3.873,0,0,0-.277,3.371.232.232,0,0,1-.08.271,10.278,10.278,0,0,0-2.9,3.185,8.061,8.061,0,0,0-.632,6.858,10.911,10.911,0,0,0,6.7,6.225l.051.017.056.019a.232.232,0,0,1,.1.368,14.216,14.216,0,0,0-3.335,7.368.232.232,0,0,1-.123.177c-4.37,2.272-6.979,6.111-6.979,10.269a10.017,10.017,0,0,0,.8,3.921.232.232,0,0,1-.094.289c-3.865,2.339-6.082,5.9-6.082,9.766,0,3.929,2.388,7.648,6.388,9.946a.232.232,0,0,1-.045.423c-2.667.858-4.39,2.889-4.39,5.174a5.043,5.043,0,0,0,2.048,3.939.233.233,0,0,1,.056.3,5.635,5.635,0,0,0-.8,2.881c0,3.192,2.84,6,6.752,6.667a.233.233,0,0,1,.183.162,7.774,7.774,0,0,0,2.373,3.561.232.232,0,0,1-.033.373,5.8,5.8,0,0,0-3.084,4.89c0,3.416,3.578,6.2,7.977,6.2a9.837,9.837,0,0,0,3.381-.585.232.232,0,0,1,.219.032,5.386,5.386,0,0,0,3.216,1.017,5.159,5.159,0,0,0,3.763-1.5.232.232,0,0,1,.169-.073" transform="translate(-27.36 -0.423)" fill="#020202"/>
      </g>
    </g>
    <g id="Group_3951" data-name="Group 3951" transform="translate(5.247)">
      <g id="Group_3950" data-name="Group 3950" clip-path="url(#clip-path-3)">
        <path id="Path_1865" data-name="Path 1865" d="M270.548,159.4l.017-.1.04-.22.021-.111c.013-.068.026-.136.039-.2l.022-.116.039-.2.022-.11c.014-.07.028-.139.043-.208l.02-.1q.031-.15.064-.3c1.458-6.641-3.15-4.323-.81-9.394q.071-.155.137-.3l.02-.046q.063-.145.12-.285l.02-.049c.038-.1.075-.19.11-.283l.008-.023c.035-.1.069-.191.1-.284l0-.008c.012-.035.022-.07.033-.1.816-1.857.013-3.4-2.332-4.118a15.89,15.89,0,0,0-3.59-.553l-.284-.053.041-.034q.108-.089.215-.18l.061-.053c.072-.062.143-.124.213-.187l.054-.049c.071-.065.142-.13.212-.2l.048-.046c.071-.067.141-.135.211-.2l.041-.041q.106-.106.21-.214l.033-.035c.071-.074.141-.149.21-.225l.025-.027q.106-.118.21-.237l.017-.02q.107-.124.21-.251l.006-.007a12.075,12.075,0,0,0,2.669-6.623c.486-5.021-2.106-7.289-3.24-15.064a24.622,24.622,0,0,0-2.673-8.116c4.8-8.921.568-15.532.568-15.532a21.784,21.784,0,0,0-8.6,2.08,22.349,22.349,0,0,0-1.929-5.158c-.05-.1-.106-.2-.167-.293-.02-.033-.044-.066-.066-.1-.042-.064-.083-.129-.129-.193-.029-.04-.06-.08-.091-.12-.043-.057-.086-.115-.132-.172s-.073-.086-.11-.129-.091-.107-.14-.16-.085-.09-.128-.135-.1-.1-.149-.152-.1-.092-.146-.138-.1-.1-.158-.145-.108-.094-.163-.141-.109-.092-.165-.138-.12-.1-.181-.143l-.171-.131q-.1-.073-.2-.145l-.176-.123q-.109-.074-.221-.148L250.349,89c-.08-.05-.161-.1-.243-.15l-.176-.1c-.088-.051-.177-.1-.269-.153l-.171-.092c-.1-.053-.2-.105-.3-.157l-.157-.078c-.11-.055-.221-.11-.335-.163l-.129-.059c-.127-.058-.254-.116-.384-.173l-.071-.03a22.5,22.5,0,0,0-3.948-1.253l-.034-.008c-.2-.043-.393-.084-.593-.124l-.068-.014q-.29-.057-.588-.107l-.091-.016q-.291-.049-.589-.093l-.106-.015q-.295-.042-.6-.079l-.114-.014q-.3-.036-.607-.065l-.117-.011q-.308-.029-.621-.052l-.115-.008q-.317-.022-.64-.038l-.107,0-.142-.006.1,0a2.149,2.149,0,0,0-4.23.08c.292-.022.6-.039.915-.052-.142.008-.283.015-.426.024h0c-9.233.648-12.958,2.106-14.254,5.507a15.176,15.176,0,0,0-.549,1.856l-.06.013-.148.033-.144.033-.146.034-.142.034-.144.035-.14.035-.141.036-.137.036-.14.037-.133.037-.137.038-.131.037-.137.04-.126.037-.134.04-.126.039-.129.041-.123.04-.128.042-.118.04-.126.044-.116.041-.122.044-.113.042-.12.045-.108.042-.117.046-.106.044-.113.047-.1.044-.109.048-.1.045-.107.049-.1.046-.1.05-.093.046-.1.051-.088.047-.1.052-.068.038-.022.013-.087.05-.08.048-.01.006-.02.012-.058.036-.077.049-.085.055-.072.049-.055.038a19.4,19.4,0,0,0-7.3-1.29,18.092,18.092,0,0,0,2.438,16.448q-.162.456-.31.926l-.035.114q-.1.322-.193.649l-.008.026q-.1.345-.189.7l-.032.123q-.078.3-.152.611l-.025.1q-.083.348-.16.7l-.026.12q-.065.3-.127.6c-.011.052-.021.1-.032.155q-.071.349-.138.7l-.017.091q-.058.31-.114.622l-.033.183q-.061.35-.12.7c-.972,5.831-1.612,9.262-2.43,11.662l-.014.044-.025-.018-.047-.034-.134-.1-.056-.039-.125-.084-.059-.039-.121-.076-.06-.037-.12-.07-.059-.034-.123-.066-.053-.028-.135-.067-.039-.019q-.173-.082-.341-.149l-.055-.021-.109-.041-.069-.024-.092-.031-.074-.023-.083-.025-.077-.021-.075-.02-.079-.019-.067-.015-.082-.017-.058-.011-.085-.015-.043-.006a3.024,3.024,0,0,0-.448-.032h-.01l-.1,0h-.018l-.088.008-.017,0-.084.012-.014,0-.082.016-.008,0a.68.68,0,0,0-.47.3.451.451,0,0,0,.039.446,4.855,4.855,0,0,1,.017,3.332c-8.376-1.9-12.895-.322-13.953-.09s-3.068-1.478-3.068-1.478c.373-1.343-1.347-1.41-2.559-.848q-.171.08-.34.164l-.107.055c-.077.039-.154.079-.23.12l-.12.066-.212.119-.118.069-.214.129-.1.064q-.122.076-.24.155l-.07.046q-.317.212-.614.438l-.021.017q-.136.1-.267.21l-.045.037q-.12.1-.236.2l-.044.039q-.12.1-.234.211l-.027.025q-.128.12-.249.241l-.007.007c-.06.061-.118.121-.176.182l-.032.034c-.052.055-.1.111-.151.167l-.046.051c-.045.052-.089.1-.132.157l-.053.064c-.04.049-.078.1-.116.148l-.057.075c-.035.047-.068.093-.1.14l-.058.083c-.031.045-.06.09-.089.135l-.057.089c-.027.043-.053.086-.078.13l-.055.1q-.035.062-.067.125l-.05.1c-.02.04-.039.081-.057.121s-.031.069-.045.1-.033.078-.048.117-.027.071-.039.106-.027.076-.039.114-.022.072-.032.109-.021.073-.03.11-.017.074-.024.11-.015.071-.021.106-.011.075-.016.112-.009.069-.012.1,0,.075-.007.113,0,.066,0,.1,0,.077,0,.115,0,.063,0,.094.009.078.014.116.007.06.012.089.017.08.026.12.011.055.019.082c.012.044.028.088.043.131.008.022.014.044.022.066.025.065.054.129.086.193l.383.732a21.977,21.977,0,0,0-.454,2.409h0a38.93,38.93,0,0,0,1.484,17.02,3.348,3.348,0,0,1-1.559,1.822c-1.316.744-1.143,1.511-.483,2.921h0c.108.231.229.48.359.748l.146.3.021.044c.059.124.119.251.181.383.032.07.066.136.1.2l.033.059c.024.043.048.085.073.125l.039.061c.025.038.05.074.075.109l.038.052c.031.041.063.08.094.117l.022.027c.04.045.08.087.12.127l.035.033c.03.028.059.055.09.081l.046.037q.042.033.085.064l.046.033c.031.021.063.041.095.06l.037.022c.044.025.087.048.132.069l.033.014c.034.015.068.03.1.043l.05.018.088.029.052.015.092.023.046.011c.045.009.09.017.134.023a4.307,4.307,0,0,0,2.169-.459c.18-.068.577.279,1,.737a40.632,40.632,0,0,0,4.9,6.57c.823.9,1.651,1.737,2.479,2.516.1.129.2.261.3.392l.058.08.033.045.052.073.036.051.048.07.037.054.044.065.048.073.052.081.042.068.028.048.036.062.025.045.032.061.021.041c.011.023.022.046.031.068l.012.027q.019.045.033.086c0,.008,0,.015.007.022s.012.039.016.057,0,.017.005.026.005.031.007.045,0,.016,0,.023a.253.253,0,0,1,0,.039c0,.006,0,.012,0,.018a.142.142,0,0,1-.018.046c-.276.431-1.986,2.438.146,4.047,1.9,1.435,2.756,2.39,3.846,1.534q.056-.044.114-.095h0q.057-.051.116-.108h0q.058-.057.118-.122h0l.061-.066a3.35,3.35,0,0,1,2.126-1.144h.006q.072-.009.143-.015l.023,0,.124-.008h.053l.091,0c.048,0,.095,0,.141,0q.348.175.7.336c.077.036.153.069.23.1.154.07.309.141.463.207.092.04.184.077.276.115.138.058.276.116.414.171.1.039.2.076.294.113.131.05.261.1.392.148.1.037.2.071.3.107.127.044.254.088.38.13l.109.037c.066.022.132.04.2.061.124.039.248.078.371.114l.31.089q.182.051.364.1l.312.079q.18.044.358.086l.312.07c.118.025.236.049.354.072.064.012.127.027.191.039l.119.02c.117.021.234.04.351.059s.206.034.308.049.232.032.348.047.2.027.306.039.231.024.346.035l.035,0c-1.724,5.019-2.908,8.709-2.908,8.709h.262c-.17.523-.262.81-.262.81h54.089l-4.731-.81h10.572s1.158-9.406,1.829-17.241c3.719-3.383,4.423-9.078,5.239-13.671l0-.022.052-.288M220.4,147.409l.328.09.342.09c.226.06.452.119.675.176l.4.1.6.146.423.1.561.129.427.094.539.115.428.089.524.1.425.081c.173.032.345.063.516.093l.417.074.364.06-.081.775-2.035,3.3c-.6.054-1.187.118-1.748.193a37.438,37.438,0,0,0-3.105-5.811" transform="translate(-154.538 -71.165)" fill="#0c0c0c"/>
        <path id="Path_1866" data-name="Path 1866" d="M490.374,478.872s19.361-5.266,30.512-5.421,12.081,1.7,10.222,5.731c-2.238,4.849,2.168,2.633.775,8.983s-1.394,16.573-11.926,17.657-29.583-26.95-29.583-26.95" transform="translate(-419.669 -400.113)" fill="#333"/>
        <path id="Path_1867" data-name="Path 1867" d="M517.3,504.818c-4.41,0-10.561-4.428-18.3-13.178a158.213,158.213,0,0,1-10.86-13.905l-.183-.269.314-.086c.194-.053,19.517-5.276,30.57-5.429,6.61-.092,9.856.525,10.855,2.062.735,1.132.2,2.656-.418,4-1.046,2.267-.6,2.851.02,3.659.668.872,1.5,1.957.77,5.277-.2.919-.373,1.914-.555,2.967-1.069,6.2-2.4,13.927-11.575,14.871a6.268,6.268,0,0,1-.639.032m-28.59-27.074c2,2.876,19.458,27.584,29.181,26.58,8.825-.908,10.122-8.438,11.164-14.488.182-1.059.355-2.059.559-2.988.682-3.109-.044-4.058-.686-4.9-.664-.866-1.237-1.614-.073-4.136.8-1.739.938-2.8.451-3.55-.889-1.368-4.113-1.94-10.459-1.851-10.218.142-27.579,4.649-30.137,5.328" transform="translate(-417.623 -398.846)"/>
        <g id="Group_3892" data-name="Group 3892" transform="translate(102.994 75.06)" opacity="0.7" style="mix-blend-mode: overlay;isolation: isolate">
          <g id="Group_3891" data-name="Group 3891">
            <g id="Group_3890" data-name="Group 3890" clip-path="url(#clip-path-4)">
              <path id="Path_1868" data-name="Path 1868" d="M707.292,488.627c.8-1.735,1.083-3.066.255-4.009l-1.726,4.241a3.058,3.058,0,0,0,0,3.872c1.549,2.168.929,4.492,0,9.138s-2.943,3.253-2.943,3.253-4.182,8.828-4.027,8.983c.029.029.273.176.65.4,7.19-2.721,7.339-11.3,8.566-16.891,1.394-6.35-3.013-4.134-.774-8.983" transform="translate(-698.847 -484.618)" fill="#fff"/>
            </g>
          </g>
        </g>
        <g id="Group_3895" data-name="Group 3895" transform="translate(91.184 72.951)" opacity="0.2">
          <g id="Group_3894" data-name="Group 3894">
            <g id="Group_3893" data-name="Group 3893" clip-path="url(#clip-path-5)">
              <path id="Path_1869" data-name="Path 1869" d="M625.425,481.222s11.616-2.323,14.714-5.266-.155-4.956-6.2-4.956-11.35,5.865-11.35,5.865l.415,5.054Z" transform="translate(-622.594 -471)"/>
            </g>
          </g>
        </g>
        <path id="Path_1870" data-name="Path 1870" d="M401.85,548.126c-.546-9.015-8.943-10.727-16.743-11.015-.9-.041-1.776-.052-2.622-.05h-1.749q-.28,0-.553,0c-.217,0-.43,0-.64,0-.172,0-.342,0-.509,0-.238-.006-.47,0-.695.008a5.28,5.28,0,0,0-.676,0,2,2,0,0,0-.491.009c-.11-.053-.213.012-.3.038l-.056.005-.305,0h-3.134c-7.023,0-13.64.092-16.907,1.861-3.717,2.014-14.095,34.694-14.095,34.694h57.308s2.478-20.445,2.168-25.556" transform="translate(-294.592 -453.878)" fill="#333"/>
        <path id="Path_1871" data-name="Path 1871" d="M398.155,572.647H340.324l.1-.3c.425-1.338,10.449-32.794,14.205-34.828,3.2-1.734,9.488-1.89,16.784-1.89h3.333l.026.232v-.232l.322,0,.025-.009a.552.552,0,0,1,.352-.037,2.169,2.169,0,0,1,.47,0,5.42,5.42,0,0,1,.672,0c.254-.01.482-.012.7-.007.16,0,.332,0,.507,0,.206,0,.421,0,.64,0,.176,0,.361,0,.55,0h1.748c.97,0,1.83.013,2.632.05,4.947.183,8.5.9,11.186,2.26a10.11,10.11,0,0,1,5.778,8.973c.307,5.074-2.068,24.762-2.17,25.6Zm-57.2-.465h56.784c.257-2.153,2.431-20.551,2.143-25.31a9.559,9.559,0,0,0-5.524-8.587c-2.623-1.328-6.116-2.03-11-2.21-.8-.036-1.652-.053-2.613-.049H379q-.279,0-.55,0c-.221,0-.432,0-.64,0-.176,0-.344,0-.508,0-.218,0-.44,0-.689.007h-.025a5.089,5.089,0,0,0-.646,0h-.021l-.021,0a1.805,1.805,0,0,0-.435.009l-.067.008-.061-.03a.316.316,0,0,1-.059.026c-.026.01-.051.019-.075.026l-.042.008-.077.006-.306,0h-3.136c-7.336,0-13.657.133-16.8,1.833-2.85,1.544-10.271,22.9-13.887,34.258" transform="translate(-292.859 -452.611)"/>
        <path id="Path_1872" data-name="Path 1872" d="M486.994,498.359l-.62,5.886a20.562,20.562,0,0,0,15.032,1.2l8.51-2.594-.929-6.35Z" transform="translate(-416.288 -419.599)" fill="#f6a24c"/>
        <path id="Path_1873" data-name="Path 1873" d="M494.134,505.307A20.745,20.745,0,0,1,485,503.186a.233.233,0,0,1-.129-.233l.62-5.886a.233.233,0,0,1,.212-.207L507.7,495a.233.233,0,0,1,.25.2l.929,6.35a.232.232,0,0,1-.162.256l-8.51,2.594a20.818,20.818,0,0,1-6.073.908m-8.779-2.468a20.262,20.262,0,0,0,14.716,1.116l8.32-2.535-.869-5.936-21.584,1.824Z" transform="translate(-415.021 -418.333)"/>
        <path id="Path_1874" data-name="Path 1874" d="M364.122,205.009c-3.992,2.1-5.5,7.667-6.428,13.243a78.792,78.792,0,0,1-2.323,11.152c-2.4,7.047,1.936,14.017,12.933,17.115,11.222,3.161,18.741,2.788,28.809.774s17.646-5.674,18.431-13.785c.465-4.8-2.013-6.97-3.1-14.4s-5.566-13.65-11.307-16.418c-8.674-4.182-22.613-5.266-37.018,2.323" transform="translate(-305.033 -168.533)" fill="#f6a24c"/>
        <path id="Path_1875" data-name="Path 1875" d="M382.43,247.817a55.7,55.7,0,0,1-15.449-2.345c-6.13-1.727-10.45-4.694-12.493-8.582a10.96,10.96,0,0,1-.6-8.832,78.883,78.883,0,0,0,2.314-11.115c.9-5.4,2.382-11.215,6.549-13.41l.108.206-.108-.206a46.751,46.751,0,0,1,20.761-5.6,35.766,35.766,0,0,1,16.466,3.276c5.982,2.884,10.364,9.242,11.436,16.594a38.8,38.8,0,0,0,1.921,7.561,15.057,15.057,0,0,1,1.178,6.9,12.218,12.218,0,0,1-5.836,9.349c-2.98,2-7.161,3.517-12.781,4.641a67.529,67.529,0,0,1-13.468,1.566m2.079-49.414a46.139,46.139,0,0,0-21.539,5.542c-3.988,2.1-5.426,7.789-6.307,13.075-.96,5.759-1.554,8.9-2.333,11.188a10.506,10.506,0,0,0,.568,8.466c1.983,3.772,6.2,6.659,12.208,8.351,11.361,3.2,18.852,2.74,28.7.77,5.559-1.112,9.685-2.607,12.613-4.571a11.779,11.779,0,0,0,5.633-9.008,14.7,14.7,0,0,0-1.156-6.7,39.2,39.2,0,0,1-1.941-7.644c-1.05-7.2-5.333-13.424-11.178-16.242a35.593,35.593,0,0,0-15.27-3.222" transform="translate(-303.773 -167.264)"/>
        <g id="Group_3898" data-name="Group 3898" transform="translate(88.838 65.415)" opacity="0.2">
          <g id="Group_3897" data-name="Group 3897">
            <g id="Group_3896" data-name="Group 3896" clip-path="url(#clip-path-6)">
              <path id="Path_1876" data-name="Path 1876" d="M624.4,428.639c-3.562,2.633-3.555-.928-3.555-.928l-13.393,8.577c1.055-.179,2.132-.38,3.241-.6,9.883-1.977,17.368-5.541,18.381-13.345a14.516,14.516,0,0,1-4.674,6.3" transform="translate(-607.449 -422.342)"/>
            </g>
          </g>
        </g>
        <path id="Path_1877" data-name="Path 1877" d="M403,371.1c-2.8,1.735-3.562,2.323-6.041.31s-7.435-2.943-10.687.155c-2.789,2.656-3.407,1.394-8.054,0-5.771-1.839-11.474,2.017-11,7.744.464,5.572,5.576,9.138,14.326,11.707a51.893,51.893,0,0,0,22.344.752c7.772-1.449,12.921-4.322,14.443-10.291,2.013-7.9-8.828-14.4-15.334-10.377" transform="translate(-315.567 -312.316)" fill="#fff"/>
        <path id="Path_1878" data-name="Path 1878" d="M393.3,391.892a52.166,52.166,0,0,1-12.632-1.628c-9.413-2.764-14-6.527-14.444-11.845a7.435,7.435,0,0,1,2.8-6.536,9.025,9.025,0,0,1,8.4-1.369c1.026.308,1.876.616,2.558.864,2.486.9,3.237,1.176,5.342-.829,3.484-3.318,8.559-2.058,10.892-.163,2.314,1.88,3.01,1.448,5.6-.159l.262-.162c3.779-2.34,8.572-1.112,11.645,1.143,3.333,2.445,4.8,5.961,3.92,9.4a11.454,11.454,0,0,1-4.941,6.931,25.589,25.589,0,0,1-9.623,3.474,59.825,59.825,0,0,1-9.777.874M374.44,370.353a8.336,8.336,0,0,0-5.221,1.771,7.13,7.13,0,0,0-2.684,6.268c.431,5.174,4.948,8.851,14.215,11.572a51.421,51.421,0,0,0,22.275.748c8.511-1.587,12.928-4.726,14.318-10.177.845-3.316-.577-6.71-3.8-9.078-2.989-2.193-7.642-3.393-11.3-1.13l-.081-.132.081.132-.262.162c-2.6,1.612-3.473,2.155-5.958.136-2.248-1.827-7.134-3.043-10.483.147-2.244,2.137-3.174,1.8-5.661.9-.714-.259-1.524-.554-2.544-.86a9.537,9.537,0,0,0-2.893-.456" transform="translate(-314.726 -311.417)"/>
        <path id="Path_1879" data-name="Path 1879" d="M501.09,392.907c-1.039-.346-2.013-.774-1.239-2.013s2.633-1.394,3.562-1.394,2.788.465,3.407,1.549,0,1.7-.774,1.7c-.639,0-1.239.62-1.549,1.394a1.242,1.242,0,0,1-2.168.155c-.541-1.082-.31-1.084-1.239-1.394" transform="translate(-427.442 -329.172)"/>
        <path id="Path_1880" data-name="Path 1880" d="M619.529,394.7a.155.155,0,0,1-.083-.286c.349-.222,8.6-5.446,12.922-5.909a.155.155,0,0,1,.033.308c-4.251.456-12.7,5.808-12.789,5.862a.156.156,0,0,1-.083.024" transform="translate(-528.688 -328.328)"/>
        <path id="Path_1881" data-name="Path 1881" d="M654.216,436.918a.167.167,0,0,1-.035,0c-3.343-.76-10.564-.005-10.636,0a.155.155,0,0,1-.033-.308c.3-.032,7.344-.768,10.738,0a.155.155,0,0,1-.034.306" transform="translate(-548.972 -368.691)"/>
        <path id="Path_1882" data-name="Path 1882" d="M383.274,385.16a.149.149,0,0,1-.031,0c-.066-.013-1.629-.352-3.655-3a10.256,10.256,0,0,0-4.111-3.356.155.155,0,0,1,.1-.292,10.357,10.357,0,0,1,4.253,3.459c1.944,2.543,3.455,2.882,3.47,2.885a.155.155,0,0,1-.031.307" transform="translate(-322.481 -319.876)"/>
        <path id="Path_1883" data-name="Path 1883" d="M365.313,419.786a6.756,6.756,0,0,1-3.373-1.288,6.324,6.324,0,0,0-4.375-1.065.155.155,0,0,1-.07-.3,6.5,6.5,0,0,1,4.609,1.1c2.392,1.5,3.428,1.225,3.438,1.221a.155.155,0,0,1,.085.3,1.24,1.24,0,0,1-.314.031" transform="translate(-307.269 -352.463)"/>
        <path id="Path_1884" data-name="Path 1884" d="M384.056,449.27a14.779,14.779,0,0,1-3.568-.465.155.155,0,0,1,.083-.3,13.469,13.469,0,0,0,5.2.307.155.155,0,0,1,.057.3,9.651,9.651,0,0,1-1.768.152" transform="translate(-326.706 -379.034)"/>
        <g id="Group_3901" data-name="Group 3901" transform="translate(47.782 99.311)" opacity="0.2">
          <g id="Group_3900" data-name="Group 3900">
            <g id="Group_3899" data-name="Group 3899" clip-path="url(#clip-path-7)">
              <path id="Path_1885" data-name="Path 1885" d="M373.583,658.664c-10.222-1.7-8.209-11.461-8.209-11.461l-15.649-6.011c-3.73,9.661-7.352,20.957-7.352,20.957H394.1c-6.962-1.193-15.317-2.619-20.513-3.485" transform="translate(-342.374 -641.192)"/>
            </g>
          </g>
        </g>
        <path id="Path_1886" data-name="Path 1886" d="M440.374,140.866s.465-7.28,1.7-10.532,4.8-4.647,13.63-5.266,15.446,2.5,17.037,5.576c2.323,4.492,2.478,8.209,2.788,13.165,0,0-9.913-6.041-35.159-2.943" transform="translate(-377.413 -105.629)" fill="#cd31b5"/>
        <path id="Path_1887" data-name="Path 1887" d="M474.43,142.98l-.38-.231a27.494,27.494,0,0,0-8.075-2.611c-5.119-1.016-13.948-1.893-26.935-.3l-.278.034.018-.28c.019-.3.481-7.352,1.718-10.6,1.284-3.372,4.9-4.789,13.831-5.415,8.646-.607,15.564,2.422,17.26,5.7,2.263,4.376,2.492,8.064,2.781,12.734ZM452.564,138.5a69.587,69.587,0,0,1,13.54,1.192,30.645,30.645,0,0,1,7.809,2.455l-.006-.1c-.286-4.615-.512-8.26-2.73-12.549-1.627-3.145-8.362-6.044-16.815-5.451-8.708.611-12.223,1.95-13.429,5.117-1.076,2.824-1.569,8.821-1.669,10.185a111.241,111.241,0,0,1,13.3-.845" transform="translate(-376.051 -104.371)"/>
        <g id="Group_3904" data-name="Group 3904" transform="translate(79.758 19.361)" opacity="0.7" style="mix-blend-mode: overlay;isolation: isolate">
          <g id="Group_3903" data-name="Group 3903">
            <g id="Group_3902" data-name="Group 3902" clip-path="url(#clip-path-8)">
              <path id="Path_1888" data-name="Path 1888" d="M562.847,130.652c2.2,4.26,2.457,7.824,2.741,12.409a12.626,12.626,0,0,1,1.6.756c-.31-4.956-.465-8.674-2.788-13.165-1.5-2.9-7.483-5.844-15.574-5.644,7.3.182,12.621,2.929,14.025,5.644" transform="translate(-548.822 -124.999)" fill="#fff"/>
            </g>
          </g>
        </g>
        <g id="Group_3907" data-name="Group 3907" transform="translate(62.961 19.438)" opacity="0.2">
          <g id="Group_3906" data-name="Group 3906">
            <g id="Group_3905" data-name="Group 3905" clip-path="url(#clip-path-9)">
              <path id="Path_1889" data-name="Path 1889" d="M445.485,130.455c1.065-2.8,3.852-4.219,10.225-4.956h0c-8.828.62-12.391,2.014-13.63,5.266s-1.7,10.532-1.7,10.532q1.755-.215,3.412-.373c.048-.714.528-7.392,1.7-10.469" transform="translate(-440.374 -125.499)"/>
              <path id="Path_1890" data-name="Path 1890" d="M477.126,220.418c21.056-1.612,29.467,3.513,29.467,3.513-.038-.606-.073-1.193-.111-1.765-4.59-1.488-13.91-3.368-29.356-1.748" transform="translate(-471.434 -205.19)"/>
            </g>
          </g>
        </g>
        <g id="Group_3910" data-name="Group 3910" transform="translate(49.696 38.955)" opacity="0.2">
          <g id="Group_3909" data-name="Group 3909">
            <g id="Group_3908" data-name="Group 3908" clip-path="url(#clip-path-10)">
              <path id="Path_1891" data-name="Path 1891" d="M375.429,290.54a19.315,19.315,0,0,1-15.334-13.32c-1.239-3.872,2.788-5.731,2.788-5.731-2.633.62-4.182.155-3.407-7.744s2.943-8.054,6.97-11.771l-5.114-.463c-1.992,2.715-2.966,6.736-3.637,10.763a78.792,78.792,0,0,1-2.323,11.152c-2.4,7.047,1.936,14.017,12.933,17.115a53.059,53.059,0,0,0,25.807,1.335,99.8,99.8,0,0,1-18.682-1.335" transform="translate(-354.729 -251.51)"/>
            </g>
          </g>
        </g>
        <path id="Path_1892" data-name="Path 1892" d="M478.9,436.893a1.3,1.3,0,0,1,1.31-.928,25.026,25.026,0,0,0,11.7-2.287,7.33,7.33,0,0,1,1.555-.567,1.472,1.472,0,0,1,.984.124l1.141.571a1.1,1.1,0,0,1,.6,1.166,2.913,2.913,0,0,1-1.806,2.065c-3.968,1.977-11.041,2.258-15.072.7a.692.692,0,0,1-.414-.845" transform="translate(-409.949 -365.998)" fill="#fff"/>
        <path id="Path_1893" data-name="Path 1893" d="M484.451,437.706a18.672,18.672,0,0,1-6.483-1.017.928.928,0,0,1-.553-1.128,1.537,1.537,0,0,1,1.544-1.093,24.925,24.925,0,0,0,11.591-2.264,7.577,7.577,0,0,1,1.605-.585,1.708,1.708,0,0,1,1.139.142l1.141.571a1.343,1.343,0,0,1,.724,1.412,3.136,3.136,0,0,1-1.932,2.235,20.858,20.858,0,0,1-8.776,1.728m-6.591-2.012h0a.462.462,0,0,0,.276.561c4.05,1.564,11.006,1.24,14.885-.693a2.7,2.7,0,0,0,1.681-1.9.875.875,0,0,0-.474-.919l-1.141-.571a1.241,1.241,0,0,0-.828-.105,7.109,7.109,0,0,0-1.505.55,25.407,25.407,0,0,1-11.816,2.31,1.066,1.066,0,0,0-1.076.763" transform="translate(-408.684 -364.732)"/>
        <path id="Path_1894" data-name="Path 1894" d="M223.321,424c-1.31-12.114-13.97-25.053-22.034-26.9s-12.411-.327-13.425-.1-2.934-1.413-2.934-1.413c.357-1.284-1.288-1.348-2.447-.811-3.2,1.487-5.748,4.346-4.747,6.324l.366.7a35.838,35.838,0,0,0,.985,18.579,3.2,3.2,0,0,1-1.491,1.742c-1.64.927-.862,1.891.214,4.208s3.3,1.121,3.754.949c.172-.064.552.267.959.705a38.839,38.839,0,0,0,4.687,6.282c.787.862,1.578,1.661,2.371,2.406.539.689,1.078,1.472.939,1.69-.264.412-1.9,2.331.14,3.87s2.818,2.5,4.069,1.093a3.222,3.222,0,0,1,2.589-1.12c14.66,7.358,27.636-3.132,26.006-18.2" transform="translate(-154.536 -333.358)" fill="#ed627d"/>
        <path id="Path_1895" data-name="Path 1895" d="M205.567,443.564a21.488,21.488,0,0,1-9.572-2.41,2.988,2.988,0,0,0-2.357,1.043c-1.233,1.389-2.143.679-3.651-.5-.225-.176-.468-.365-.732-.564-1.359-1.025-1.454-2.389-.282-4.054l.072-.1c-.007-.07-.088-.39-.9-1.43-.814-.766-1.611-1.575-2.37-2.406a39.313,39.313,0,0,1-4.7-6.3c-.475-.51-.665-.6-.716-.618l-.116.049c-1.874.8-3.188.416-3.9-1.127-.139-.3-.273-.577-.4-.834-.834-1.721-1.337-2.76.28-3.674a2.976,2.976,0,0,0,1.359-1.545,36.631,36.631,0,0,1-.986-18.545l-.325-.621a2.552,2.552,0,0,1-.068-2.053c.579-1.669,2.511-3.471,4.922-4.59a2.593,2.593,0,0,1,2.5-.033.957.957,0,0,1,.3.968c.587.477,1.933,1.424,2.625,1.273.091-.02.209-.051.354-.088,1.433-.371,5.792-1.5,13.173.193,4.044.927,9.283,4.633,13.673,9.674,4.829,5.545,7.942,11.9,8.54,17.428.812,7.5-1.936,14.225-7.35,17.982a16.242,16.242,0,0,1-9.372,2.884m-9.627-2.875.12,0a.232.232,0,0,1,.1.024c6.607,3.316,13.357,3.164,18.518-.418,5.272-3.659,7.946-10.22,7.153-17.551-1.328-12.278-14.175-24.939-21.855-26.7-7.271-1.666-11.547-.559-12.953-.2-.153.039-.276.071-.371.092-1.094.242-2.929-1.288-3.134-1.463a.232.232,0,0,1-.073-.239c.121-.436-.058-.588-.117-.638a2.215,2.215,0,0,0-2.009.1c-2.267,1.053-4.148,2.789-4.679,4.321a2.1,2.1,0,0,0,.042,1.688l.365.7a.233.233,0,0,1,.018.168,35.941,35.941,0,0,0,.982,18.448.232.232,0,0,1,0,.149,3.427,3.427,0,0,1-1.6,1.866c-1.185.67-.981,1.229-.091,3.067.126.259.261.539.4.841.8,1.72,2.267,1.335,3.3.9.065-.028.119-.051.16-.066.223-.083.515.014,1.21.765a.236.236,0,0,1,.029.039,38.808,38.808,0,0,0,4.659,6.245c.755.827,1.549,1.632,2.358,2.394a.226.226,0,0,1,.024.026c1.119,1.431,1.078,1.761.951,1.958-.024.037-.057.085-.1.143-.647.92-1.332,2.274.182,3.416.266.2.51.392.738.569,1.61,1.256,2.114,1.573,3.018.555a3.45,3.45,0,0,1,2.65-1.2" transform="translate(-153.274 -332.081)"/>
        <g id="Group_3913" data-name="Group 3913" transform="translate(22.114 61.605)" opacity="0.2">
          <g id="Group_3912" data-name="Group 3912">
            <g id="Group_3911" data-name="Group 3911" clip-path="url(#clip-path-11)">
              <path id="Path_1896" data-name="Path 1896" d="M191.741,444.389c-2.039-1.538-.4-3.457-.14-3.87.14-.218-.4-1-.939-1.69-.793-.745-1.584-1.544-2.371-2.406a38.863,38.863,0,0,1-4.687-6.282c-.407-.438-.786-.77-.959-.705-.459.171-2.678,1.368-3.754-.949s-1.854-3.281-.214-4.208a3.2,3.2,0,0,0,1.491-1.742,35.839,35.839,0,0,1-.985-18.58l-.366-.7c-.841-1.662.82-3.944,3.271-5.514-3.015,1.53-5.315,4.236-4.355,6.133l.366.7a35.839,35.839,0,0,0,.985,18.58,3.2,3.2,0,0,1-1.491,1.742c-1.64.927-.862,1.891.214,4.208s3.3,1.121,3.754.949c.173-.065.552.267.959.705a38.861,38.861,0,0,0,4.687,6.282c.787.862,1.578,1.661,2.371,2.406.539.689,1.078,1.472.939,1.69-.264.413-1.9,2.331.14,3.87,2.007,1.514,2.794,2.47,4.01,1.156-.757.029-1.558-.744-2.926-1.776" transform="translate(-176.65 -397.744)"/>
              <path id="Path_1897" data-name="Path 1897" d="M304.8,698.718a3.212,3.212,0,0,0-2.248.784,3.378,3.378,0,0,1,1.164-.164c6.855,3.44,13.341,2.978,18.138-.029-4.668,2.433-10.7,2.6-17.054-.59" transform="translate(-283.055 -652.1)"/>
            </g>
          </g>
        </g>
        <g id="Group_3916" data-name="Group 3916" transform="translate(22.596 61.095)" opacity="0.2" style="mix-blend-mode: overlay;isolation: isolate">
          <g id="Group_3915" data-name="Group 3915">
            <g id="Group_3914" data-name="Group 3914" clip-path="url(#clip-path-12)">
              <path id="Path_1898" data-name="Path 1898" d="M180.626,591.422c-.331-.357-.641-.627-.781-.575l-.082.033c.191.41.425.875.676,1.415a2.156,2.156,0,0,0,1.681,1.388q-.817-1.129-1.493-2.261" transform="translate(-179.763 -560.423)" fill="#fff"/>
              <path id="Path_1899" data-name="Path 1899" d="M231.385,424c-1.31-12.114-13.97-25.053-22.034-26.9s-12.411-.327-13.426-.1-2.934-1.413-2.934-1.413c.357-1.284-1.288-1.348-2.447-.811a10.477,10.477,0,0,0-4.352,3.546c.927-.359,2.1-.256,1.829.731,0,0,1.564,1.333,2.391,1.152s4.37-1.421,10.942.085,16.89,12.051,17.958,21.924c1.329,12.282-9.247,20.831-21.195,14.834-.061,0-.124,0-.189,0,.425.576.768,1.136.654,1.315-.264.412-1.9,2.331.14,3.87s2.818,2.5,4.069,1.093a3.222,3.222,0,0,1,2.589-1.12c14.66,7.358,27.636-3.132,26.006-18.2" transform="translate(-185.196 -394.453)" fill="#fff"/>
            </g>
          </g>
        </g>
        <path id="Path_1900" data-name="Path 1900" d="M330.855,391.843s1.58-3.467.653-5.107,6.645-1.387,7.639,8.961" transform="translate(-284.857 -326.2)" fill="#ed627d"/>
        <path id="Path_1901" data-name="Path 1901" d="M337.878,394.662a.232.232,0,0,1-.231-.21c-.559-5.826-3.292-8.653-5.662-9.356-.859-.254-1.431-.135-1.564.031-.017.022-.064.08.02.227.974,1.724-.577,5.172-.643,5.318a.232.232,0,0,1-.423-.193c.015-.034,1.52-3.378.662-4.9a.643.643,0,0,1,.021-.745c.312-.392,1.12-.466,2.059-.187,2.516.746,5.411,3.7,5.992,9.757a.232.232,0,0,1-.209.254h-.023" transform="translate(-283.589 -324.932)" fill="#191919"/>
        <g id="Group_3919" data-name="Group 3919" transform="translate(46.613 59.784)" opacity="0.2" style="mix-blend-mode: overlay;isolation: isolate">
          <g id="Group_3918" data-name="Group 3918">
            <g id="Group_3917" data-name="Group 3917" clip-path="url(#clip-path-13)">
              <path id="Path_1902" data-name="Path 1902" d="M340.038,394.553,342.5,395.7c-.894-9.313-7.116-10.449-7.676-9.388,1.915.786,4.419,3.116,5.209,8.241" transform="translate(-334.829 -385.986)" fill="#fff"/>
            </g>
          </g>
        </g>
        <path id="Path_1903" data-name="Path 1903" d="M260.6,428.885a.31.31,0,0,1-.3-.219c-.739-2.395-1.38-2.86-1.622-2.949a.244.244,0,0,0-.212,0l-.183-.25-.195-.241a.823.823,0,0,1,.747-.108c.746.228,1.438,1.361,2.057,3.367a.31.31,0,0,1-.3.4" transform="translate(-223.361 -359.237)" fill="#191919"/>
        <path id="Path_1904" data-name="Path 1904" d="M284.306,421.139l-.033,0A.31.31,0,0,1,284,420.8c.2-1.928-.722-2.528-.761-2.552a.312.312,0,0,1-.1-.424.308.308,0,0,1,.421-.108c.054.032,1.309.8,1.06,3.15a.31.31,0,0,1-.308.277" transform="translate(-244.489 -352.979)" fill="#191919"/>
        <path id="Path_1905" data-name="Path 1905" d="M184.73,456.723a4.56,4.56,0,0,1-3.462-1.494.31.31,0,0,1,.489-.38c.08.1,2.011,2.481,5.914.438a.31.31,0,0,1,.287.549,6.956,6.956,0,0,1-3.23.887" transform="translate(-158.384 -384.299)" fill="#191919"/>
        <path id="Path_1906" data-name="Path 1906" d="M223.39,452.366a.31.31,0,0,1-.266-.151,3.73,3.73,0,0,1-.311-3.647.31.31,0,0,1,.541.3,3.128,3.128,0,0,0,.3,3.028.31.31,0,0,1-.266.468" transform="translate(-193.272 -378.958)" fill="#191919"/>
        <path id="Path_1907" data-name="Path 1907" d="M406.391,470.805a.54.54,0,0,0-.06.786c.633.685,1.253,1.4,1.852,2.142a37.839,37.839,0,0,1,4.423,6.8.539.539,0,0,0,.749.226h0a.54.54,0,0,0,.219-.709,38.878,38.878,0,0,0-4.548-6.993c-.613-.759-1.249-1.493-1.9-2.2a.541.541,0,0,0-.736-.051" transform="translate(-348.523 -397.782)"/>
        <path id="Path_1908" data-name="Path 1908" d="M199.219,402.921a.31.31,0,0,1-.211-.536,34.493,34.493,0,0,1,4.583-3.3.31.31,0,1,1,.321.53,34.618,34.618,0,0,0-4.481,3.225.308.308,0,0,1-.211.083" transform="translate(-173.347 -337.233)" fill="#191919"/>
        <path id="Path_1909" data-name="Path 1909" d="M429.223,678.12a2.2,2.2,0,0,1-.477-.05.7.7,0,1,1,.3-1.361,2.126,2.126,0,0,0,1.737-.776,1.325,1.325,0,0,0,.19-1.467c-.026-.058-.052-.116-.078-.172a3.678,3.678,0,0,1-.789.982,2.629,2.629,0,0,1-3.3.277,2.112,2.112,0,0,1-.848-2.388,3.082,3.082,0,0,1,2.627-2.26,2.636,2.636,0,0,1,.932.1,2.643,2.643,0,0,0-2.6-1,.7.7,0,0,1-.3-1.362,3.976,3.976,0,0,1,4.408,2.179,3.609,3.609,0,0,1,.368,1.583,7.549,7.549,0,0,1,.855,1.5,2.693,2.693,0,0,1-.389,2.911,3.619,3.619,0,0,1-2.637,1.3m-.432-5.83c-.032,0-.064,0-.1,0a1.694,1.694,0,0,0-1.388,1.225.736.736,0,0,0,.279.877,1.261,1.261,0,0,0,1.606-.173,2.436,2.436,0,0,0,.768-1.361,1.669,1.669,0,0,0-1.169-.573" transform="translate(-365.158 -565.01)"/>
        <path id="Path_1910" data-name="Path 1910" d="M431.768,680.25a1.741,1.741,0,0,1-.378-.039.232.232,0,1,1,.1-.454,2.525,2.525,0,0,0,2.2-.935,1.782,1.782,0,0,0,.256-1.949,7.169,7.169,0,0,0-.568-1.063,3.378,3.378,0,0,1-1.028,1.708,2.181,2.181,0,0,1-2.734.242,1.664,1.664,0,0,1-.658-1.885,2.6,2.6,0,0,1,2.214-1.915,2.425,2.425,0,0,1,1.818.677,2.72,2.72,0,0,0-.25-.818,3.052,3.052,0,0,0-3.371-1.678.232.232,0,0,1-.1-.454,3.567,3.567,0,0,1,3.889,1.928,3.159,3.159,0,0,1,.318,1.536,6.823,6.823,0,0,1,.9,1.535,2.248,2.248,0,0,1-.323,2.43,3.169,3.169,0,0,1-2.277,1.133m-.432-5.831c-.044,0-.088,0-.133.005a2.157,2.157,0,0,0-1.8,1.57,1.2,1.2,0,0,0,.468,1.381,1.713,1.713,0,0,0,2.17-.208,2.921,2.921,0,0,0,.953-1.861,2.231,2.231,0,0,0-1.658-.888" transform="translate(-367.703 -567.605)" fill="#ed627d"/>
        <path id="Path_1911" data-name="Path 1911" d="M509.165,140.2c-1.139-7.4-2.739-11.726-4.891-13.216-1.9-1.316-8.583-2.587-9.072-2.679-.462.085-6.5,1.229-8.392,2.975-2.022,1.866-1.5,11.091-1.5,11.184l-.309.018c-.023-.386-.53-9.465,1.6-11.43,2.023-1.868,8.309-3.01,8.575-3.058l.028,0,.027.005c.293.054,7.2,1.337,9.22,2.734,2.226,1.541,3.869,5.932,5.021,13.424Z" transform="translate(-415.07 -104.787)"/>
        <g id="Group_3922" data-name="Group 3922" transform="translate(79.591 19.362)" opacity="0.7" style="mix-blend-mode: overlay;isolation: isolate">
          <g id="Group_3921" data-name="Group 3921">
            <g id="Group_3920" data-name="Group 3920" clip-path="url(#clip-path-14)">
              <path id="Path_1912" data-name="Path 1912" d="M556.363,127.717c2.007,1.389,3.706,5.242,4.944,13.243l1.1.077c-1.239-8.054-2.943-11.926-4.956-13.32s-9.159-2.709-9.159-2.709-.2.036-.541.1c1.705.338,6.939,1.444,8.616,2.6" transform="translate(-547.747 -125.008)" fill="#fff"/>
            </g>
          </g>
        </g>
        <path id="Path_1913" data-name="Path 1913" d="M548.158,438.982a22.282,22.282,0,0,1-7.4,2.792" transform="translate(-462.247 -370.99)" fill="#fff"/>
        <path id="Path_1914" data-name="Path 1914" d="M548.246,438.236a24,24,0,0,1-7.49,2.664c.321-.082.643-.159.963-.245a22.786,22.786,0,0,0,6.351-2.675.155.155,0,1,1,.176.255" transform="translate(-462.247 -370.117)"/>
        <path id="Path_1915" data-name="Path 1915" d="M418.727,344.55c-3.545-1.668-5.576-1.859-4.956-2.633s3.562-.62,6.2.62,3.717,2.323,3.407,3.562c-.155.465-2.014-.31-4.647-1.549" transform="translate(-354.837 -288.559)"/>
        <path id="Path_1916" data-name="Path 1916" d="M573.9,345.643c-2.014.929-2.734,1.341-3.253,1.549-.774.31-1.549-.774.155-2.168a12.659,12.659,0,0,1,6.815-2.633c2.478-.155,3.1.62,1.7,1.084a56.543,56.543,0,0,0-5.421,2.168" transform="translate(-486.779 -289.342)"/>
        <path id="Path_1917" data-name="Path 1917" d="M442.919,297.594c-2.274-.475-2.668-1.317-1.808-2.4s3-.891,4.286.389,1.247,2.666-.41,2.415a14,14,0,0,1-2.068-.4" transform="translate(-377.681 -248.873)" fill="#fff"/>
        <path id="Path_1918" data-name="Path 1918" d="M573.519,297.353c2.242-.607,2.586-1.471,1.664-2.5s-3.05-.714-4.256.639-1.089,2.734.55,2.386a14,14,0,0,0,2.041-.521" transform="translate(-487.065 -248.664)" fill="#fff"/>
        <path id="Path_1919" data-name="Path 1919" d="M367.735,192.946s-7.28-7.589-3.717-17.5a19.744,19.744,0,0,1,15.8,7.744" transform="translate(-312.054 -148.261)" fill="#f6a24c"/>
        <path id="Path_1920" data-name="Path 1920" d="M366.506,191.9a.232.232,0,0,1-.168-.071,18.859,18.859,0,0,1-3.24-5.1,16.871,16.871,0,0,1-.529-12.64.233.233,0,0,1,.2-.153,17.8,17.8,0,0,1,5.539.744,20.158,20.158,0,0,1,10.458,7.089.232.232,0,0,1-.367.285,19.7,19.7,0,0,0-15.449-7.661c-3.349,9.594,3.647,17.041,3.719,17.115a.232.232,0,0,1-.168.393" transform="translate(-310.825 -146.988)"/>
        <path id="Path_1921" data-name="Path 1921" d="M381.81,203.5s-4.337-3.872-2.943-11a17.434,17.434,0,0,1,10.377,5.421" transform="translate(-325.199 -162.685)" fill="#fff"/>
        <path id="Path_1922" data-name="Path 1922" d="M380.982,202.806a.155.155,0,0,1-.1-.039,12.16,12.16,0,0,1-2.992-11.142.154.154,0,0,1,.167-.124,17.741,17.741,0,0,1,10.479,5.473.155.155,0,1,1-.233.2,17.387,17.387,0,0,0-10.136-5.351,11.827,11.827,0,0,0,2.921,10.71.155.155,0,0,1-.1.27" transform="translate(-324.371 -161.839)"/>
        <path id="Path_1923" data-name="Path 1923" d="M440.51,174.338s-.465-1.394-3.408-5.266-8.209-5.576-15.334-5.266-14.559,1.859-15.179,4.492,4.492,6.66,4.492,6.66,8.906-4.879,29.428-.62" transform="translate(-348.818 -138.404)" fill="#cd31b5"/>
        <path id="Path_1924" data-name="Path 1924" d="M409.8,173.964l-.121-.095c-.214-.168-5.22-4.15-4.574-6.9.657-2.793,8.205-4.358,15.395-4.671,7.359-.32,12.584,1.483,15.529,5.358,2.932,3.858,3.423,5.275,3.443,5.333l.128.383-.4-.082c-10.546-2.189-17.944-1.91-22.293-1.29a22.787,22.787,0,0,0-6.976,1.886Zm12.33-11.233q-.787,0-1.61.036a48.618,48.618,0,0,0-9.979,1.367c-2.952.789-4.722,1.835-4.984,2.946-.529,2.249,3.55,5.72,4.294,6.331a24.134,24.134,0,0,1,6.957-1.861c4.329-.621,11.648-.909,22.046,1.2a32.507,32.507,0,0,0-3.2-4.807c-2.63-3.461-7.178-5.21-13.529-5.21" transform="translate(-347.554 -137.134)"/>
        <g id="Group_3925" data-name="Group 3925" transform="translate(57.807 25.365)" opacity="0.7" style="mix-blend-mode: overlay;isolation: isolate">
          <g id="Group_3924" data-name="Group 3924">
            <g id="Group_3923" data-name="Group 3923" clip-path="url(#clip-path-15)">
              <path id="Path_1925" data-name="Path 1925" d="M421.623,164.735c7.125-.31,12.391,1.394,15.334,5.266a41.194,41.194,0,0,1,2.812,4.094c.4.078.8.158,1.215.243,0,0-.465-1.394-3.407-5.266s-8.209-5.576-15.334-5.266c-7.012.3-14.323,1.81-15.144,4.367,2.067-1.993,8.41-3.172,14.525-3.438" transform="translate(-407.098 -163.77)" fill="#fff"/>
            </g>
          </g>
        </g>
        <path id="Path_1926" data-name="Path 1926" d="M417.108,179.718a.154.154,0,0,1-.1-.037c-1.645-1.41-4.732-4.756-4.416-6.1.15-.637,1.407-1.61,4.485-2.432a47.933,47.933,0,0,1,9.829-1.344c.531-.023,1.058-.035,1.566-.035,6.129,0,10.5,1.66,12.987,4.935.78,1.026,1.692,2.494,2.3,3.465.175.281.323.519.433.691a.155.155,0,0,1-.261.168c-.111-.173-.26-.412-.435-.695-.6-.966-1.508-2.426-2.279-3.441-2.427-3.193-6.714-4.812-12.741-4.812-.5,0-1.026.011-1.553.034a47.605,47.605,0,0,0-9.763,1.334c-3.155.843-4.164,1.782-4.263,2.2-.25,1.063,2.389,4.142,4.316,5.794a.155.155,0,0,1-.1.272" transform="translate(-353.915 -143.475)"/>
        <g id="Group_3928" data-name="Group 3928" transform="translate(57.72 27.858)" opacity="0.2">
          <g id="Group_3927" data-name="Group 3927">
            <g id="Group_3926" data-name="Group 3926" clip-path="url(#clip-path-16)">
              <path id="Path_1927" data-name="Path 1927" d="M440.262,187.394c-22.552-5.034-26.082,1.626-30.574-3.02-3.353-3.468-.929-4.492-.929-4.492l-.039-.022c-1.177.582-1.947,1.262-2.129,2.035-.62,2.633,4.492,6.66,4.492,6.66s8.906-4.879,29.428-.62a4.525,4.525,0,0,0-.249-.542" transform="translate(-406.539 -179.86)"/>
            </g>
          </g>
        </g>
        <g id="Group_3931" data-name="Group 3931" transform="translate(95.208 92.906)" opacity="0.7" style="mix-blend-mode: overlay;isolation: isolate">
          <g id="Group_3930" data-name="Group 3930">
            <g id="Group_3929" data-name="Group 3929" clip-path="url(#clip-path-17)">
              <path id="Path_1928" data-name="Path 1928" d="M652.648,626.427h5.808s2.478-20.135,2.168-25.246c-.028-.467-.079-.913-.148-1.341l-.394.18s-1.394,24.782-10.377,26.176a11.333,11.333,0,0,0-1.13.232h4.073Z" transform="translate(-648.575 -599.839)" fill="#fff"/>
            </g>
          </g>
        </g>
        <path id="Path_1929" data-name="Path 1929" d="M536.374,116.23a2.055,2.055,0,0,1,4.045-.076s-2.341-.052-4.045.076" transform="translate(-458.544 -96.766)"/>
        <path id="Path_1930" data-name="Path 1930" d="M616.374,188.4s4.337-7.434,15.179-7.9c0,0,4.956,7.744-2.323,17.657" transform="translate(-526.153 -152.543)" fill="#f6a24c"/>
        <path id="Path_1931" data-name="Path 1931" d="M627.961,197.12a.232.232,0,0,1-.187-.37c3.709-5.05,4.141-9.509,3.85-12.359a12.942,12.942,0,0,0-1.468-4.921,19.714,19.714,0,0,0-11.365,4.054,15.079,15.079,0,0,0-3.484,3.723.232.232,0,0,1-.4-.234,15.224,15.224,0,0,1,3.581-3.841A20.2,20.2,0,0,1,630.275,179a.231.231,0,0,1,.206.107,12.768,12.768,0,0,1,1.6,5.213c.3,2.938-.131,7.527-3.935,12.707a.232.232,0,0,1-.187.095" transform="translate(-524.885 -151.274)"/>
        <path id="Path_1932" data-name="Path 1932" d="M640.374,205.766s4.182-4.956,9.913-5.266a15.947,15.947,0,0,1-2.478,11" transform="translate(-546.436 -169.446)" fill="#fff"/>
        <path id="Path_1933" data-name="Path 1933" d="M646.963,210.807a.155.155,0,0,1-.127-.243,15.9,15.9,0,0,0,2.474-10.745c-5.529.375-9.622,5.154-9.663,5.2a.155.155,0,0,1-.237-.2c.042-.05,4.291-5.011,10.023-5.321a.16.16,0,0,1,.161.127,16.241,16.241,0,0,1-2.5,11.113.154.154,0,0,1-.127.066" transform="translate(-545.591 -168.601)"/>
        <path id="Path_1934" data-name="Path 1934" d="M641.906,460.823h-.011a65.417,65.417,0,0,1-10.408-2.019.155.155,0,1,1,.084-.3,65.049,65.049,0,0,0,10.346,2.008.155.155,0,0,1-.011.309" transform="translate(-538.83 -387.485)"/>
        <path id="Path_1935" data-name="Path 1935" d="M248.157,480.946a21.766,21.766,0,0,0-1.859-2.478s-1.239-5.421-1.7-6.66-2.065-.748-2.633,1.239a10.738,10.738,0,0,0,0,3.253,9.785,9.785,0,0,1-2.014-.62,33.93,33.93,0,0,1-4.956-3.717c-1.7-1.394-3.717.155-2.788,1.859A24.423,24.423,0,0,0,235.3,478a1.236,1.236,0,0,1-.929.929c-.774.155-3.407-1.7-4.956-2.323s-3.253.31-1.859,2.168,4.182,2.943,4.647,3.253.774,1.239,0,1.394-4.027-.774-4.647.62,2.323,2.633,4.337,3.1a9.943,9.943,0,0,1,3.562,1.394,13.006,13.006,0,0,0,6.505,1.859c2.633-.155,6.2-9.448,6.2-9.448" transform="translate(-197.122 -398.16)" fill="#f6a24c"/>
        <path id="Path_1936" data-name="Path 1936" d="M240.265,489.371a13.66,13.66,0,0,1-6.2-1.9l-.186-.106a9.532,9.532,0,0,0-3.314-1.263c-1.373-.317-3.859-1.177-4.464-2.389a1.158,1.158,0,0,1-.033-1.03c.51-1.148,2.368-.953,3.725-.81a5.326,5.326,0,0,0,1.088.057c.217-.043.262-.152.278-.23a.862.862,0,0,0-.361-.743c-.084-.056-.279-.153-.526-.276a11.966,11.966,0,0,1-4.178-3.031c-.842-1.123-.559-1.825-.315-2.143a2.127,2.127,0,0,1,2.446-.38,21.059,21.059,0,0,1,2.182,1.123,8.155,8.155,0,0,0,2.642,1.188.968.968,0,0,0,.717-.645l-.117-.137a23.174,23.174,0,0,1-2.926-3.99,1.779,1.779,0,0,1,.367-2.308,2.136,2.136,0,0,1,2.772.159c.239.2.487.4.74.609a26.466,26.466,0,0,0,4.161,3.075,10.038,10.038,0,0,0,1.651.54,9.548,9.548,0,0,1,.047-3.023c.4-1.4,1.266-2.056,1.946-2.083a1.152,1.152,0,0,1,1.128.826c.445,1.185,1.559,6.019,1.7,6.633a22.246,22.246,0,0,1,1.842,2.464.232.232,0,0,1,.02.206c-.37.966-3.694,9.438-6.4,9.6-.143.008-.287.012-.43.012m-12.038-7.142c-.79,0-1.512.134-1.738.642a.7.7,0,0,0,.025.633c.439.879,2.421,1.744,4.152,2.143a9.9,9.9,0,0,1,3.441,1.313l.185.106a12.978,12.978,0,0,0,6.376,1.829c2.009-.118,4.933-6.569,5.95-9.19a22.024,22.024,0,0,0-1.774-2.352.232.232,0,0,1-.052-.1c-.012-.054-1.241-5.42-1.695-6.63a.7.7,0,0,0-.675-.525c-.5.02-1.183.575-1.517,1.746a10.574,10.574,0,0,0,.007,3.156.232.232,0,0,1-.268.262,9.941,9.941,0,0,1-2.067-.635,26.371,26.371,0,0,1-4.274-3.144c-.252-.208-.5-.412-.738-.607a1.685,1.685,0,0,0-2.181-.161,1.331,1.331,0,0,0-.256,1.728,22.8,22.8,0,0,0,2.87,3.91l.2.232a.232.232,0,0,1,.051.2,1.462,1.462,0,0,1-1.111,1.112c-.516.1-1.463-.4-2.961-1.238a20.8,20.8,0,0,0-2.127-1.1,1.7,1.7,0,0,0-1.9.231c-.283.37-.17.931.318,1.582a11.573,11.573,0,0,0,4.013,2.894c.272.135.469.233.577.305a1.316,1.316,0,0,1,.559,1.22.745.745,0,0,1-.642.6,5.054,5.054,0,0,1-1.228-.051,14.78,14.78,0,0,0-1.514-.105" transform="translate(-195.842 -396.892)"/>
        <g id="Group_3934" data-name="Group 3934" transform="translate(29.919 72.972)" opacity="0.2">
          <g id="Group_3933" data-name="Group 3933">
            <g id="Group_3932" data-name="Group 3932" clip-path="url(#clip-path-18)">
              <path id="Path_1937" data-name="Path 1937" d="M262.19,479.689a1.3,1.3,0,0,1-.115.3.743.743,0,0,0,.27.008l.023,0a.883.883,0,0,0,.466-1.437,21.61,21.61,0,0,1-2.658-3.669,1.576,1.576,0,0,1,.068-1.762,1.556,1.556,0,0,0-1.152,2.381,24.426,24.426,0,0,0,3.1,4.182" transform="translate(-253.93 -472.817)"/>
              <path id="Path_1938" data-name="Path 1938" d="M323.94,476.844s-.542-3.33-.232-4.414a3.462,3.462,0,0,1,.659-1.3c-.632.017-1.389.675-1.743,1.915a16.5,16.5,0,0,0-.1,3.41c.687.224,1.413.384,1.413.384" transform="translate(-307.703 -471.134)"/>
              <path id="Path_1939" data-name="Path 1939" d="M245.4,556.305a13.007,13.007,0,0,1-6.505-1.859,9.941,9.941,0,0,0-3.562-1.394c-2.013-.465-5.344-1.317-4.724-2.711.016-.035.421-.455.44-.487a1.4,1.4,0,0,0-1.137.719c-.62,1.394,2.323,2.633,4.337,3.1a9.942,9.942,0,0,1,3.562,1.394,13.006,13.006,0,0,0,6.505,1.859,2.188,2.188,0,0,0,1.252-.643,1.231,1.231,0,0,1-.168.023" transform="translate(-229.399 -537.662)"/>
              <path id="Path_1940" data-name="Path 1940" d="M232.2,510.94c.237.158.7,1.007.077,1.471a5.814,5.814,0,0,0,.929,0c.774-.155.929-1.394.077-2.091-.432-.354-3.253-1.394-4.647-3.253-.551-.734-.617-1.323-.4-1.729-1.047.1-1.717.97-.683,2.348,1.394,1.859,4.182,2.943,4.647,3.253" transform="translate(-227.042 -500.041)"/>
            </g>
          </g>
        </g>
        <path id="Path_1941" data-name="Path 1941" d="M400.082,545.719c-1.115-3.44-6.97-5.886-17.347-3.253s-17.192,4.8-18.276,3.872c-1.6-.99-1.239-.155-2.323-.155s-7.434-2.633-14.095-5.111c-1.106-.411-1.239-.929-2.323.465-.762.979-3.128,5.092-4.469,7.453l-.177.292.009.006c-.474.836-.783,1.388-.783,1.388-.31.774,4.505,3.032,7.589,6.041,6.35,6.2,15.179,7.435,17.037,7.9s11.089,4.341,25.866-1.7c6.815-2.788,11.152-11.461,9.293-17.192" transform="translate(-292.824 -456.893)" fill="#333"/>
        <path id="Path_1942" data-name="Path 1942" d="M373.741,565.247a30.677,30.677,0,0,1-9.487-1.463c-.285-.087-.51-.156-.672-.2-.2-.05-.49-.111-.855-.187-2.9-.606-10.595-2.216-16.288-7.771a35.373,35.373,0,0,0-4.991-3.8c-2.047-1.369-2.869-1.947-2.652-2.49l.013-.027s.264-.471.677-1.2l-.006,0,.107-.2.177-.292c1.342-2.363,3.714-6.485,4.484-7.475.908-1.168,1.267-1.141,2.061-.768.151.071.323.152.527.228,2.075.772,4.152,1.572,5.985,2.277,3.931,1.513,7.325,2.82,8.028,2.82a1.217,1.217,0,0,0,.656-.172c.44-.233.76-.274,1.789.362l.029.021c.74.634,5.234-.553,11.454-2.2,1.973-.522,4.209-1.113,6.614-1.723,4.8-1.217,9.038-1.443,12.259-.651,2.838.7,4.743,2.138,5.366,4.057.919,2.834.405,6.435-1.409,9.88a16.458,16.458,0,0,1-8.017,7.6,41.724,41.724,0,0,1-15.852,3.374m-34.513-15.735c.019.283,1.382,1.195,2.478,1.928a35.69,35.69,0,0,1,5.057,3.856c5.6,5.46,13.2,7.05,16.059,7.649.37.077.662.138.872.191.174.043.4.114.7.2,2.885.883,11.662,3.57,25.026-1.9a15.989,15.989,0,0,0,7.782-7.386c1.757-3.334,2.259-6.8,1.378-9.52-1.072-3.306-6.871-5.686-17.069-3.1-2.4.61-4.638,1.2-6.609,1.722-7.55,2-10.949,2.853-11.86,2.115-.9-.556-1.058-.474-1.313-.338a1.675,1.675,0,0,1-.874.226c-.753,0-3.466-1.03-8.2-2.851-1.831-.7-3.907-1.5-5.98-2.275-.222-.083-.4-.168-.563-.243-.594-.279-.735-.346-1.5.633s-3.111,5.067-4.451,7.425l-.11.18-.059.117c-.417.735-.706,1.25-.769,1.364" transform="translate(-291.539 -455.639)"/>
        <path id="Path_1943" data-name="Path 1943" d="M331.965,535.16s-.237-.146-.574-.325a6.862,6.862,0,0,0-1.44-.6h0a.969.969,0,0,0-.618,0c-.62.31-6.815,8.828-6.2,9.448a13.577,13.577,0,0,0,2.633,1.549c1.239.155,3.872-4.8,5.111-7.125s1.084-2.943,1.084-2.943" transform="translate(-278.297 -451.444)" fill="#333"/>
        <path id="Path_1944" data-name="Path 1944" d="M324.558,544.2a.667.667,0,0,1-.083-.005l-.036,0-.033-.015a13.483,13.483,0,0,1-2.7-1.6.482.482,0,0,1-.1-.439c.257-1.585,5.66-9.034,6.356-9.381a1.146,1.146,0,0,1,.777-.017l-.048.2h0l.048-.2a7.117,7.117,0,0,1,1.495.623c.339.181.577.326.587.333l.081.05.023.092c.03.118.115.822-1.1,3.109l-.029.053c-2.3,4.317-4.078,7.2-5.233,7.2m.006-.464h.009c1.1,0,3.885-5.222,4.808-6.952l.029-.054a7.772,7.772,0,0,0,1.061-2.7c-.1-.058-.261-.151-.455-.254a6.788,6.788,0,0,0-1.365-.577l-.02-.005a.732.732,0,0,0-.46-.019,35.46,35.46,0,0,0-3.365,4.373c-2.211,3.188-2.765,4.457-2.747,4.726a13.327,13.327,0,0,0,2.506,1.462" transform="translate(-277.032 -450.176)"/>
        <g id="Group_3937" data-name="Group 3937" transform="translate(53.392 29.815)" opacity="0.2">
          <g id="Group_3936" data-name="Group 3936">
            <g id="Group_3935" data-name="Group 3935" clip-path="url(#clip-path-19)">
              <path id="Path_1945" data-name="Path 1945" d="M380.339,198.463a8.42,8.42,0,0,1-1.239-5.933c-.15-.022-.232-.03-.232-.03-1.394,7.125,2.943,11,2.943,11l5.475-4.106c-2.462.879-5.242,1.705-6.946-.928" transform="translate(-378.591 -192.5)"/>
            </g>
          </g>
        </g>
        <g id="Group_3940" data-name="Group 3940" transform="translate(93.938 31.054)" opacity="0.2">
          <g id="Group_3939" data-name="Group 3939">
            <g id="Group_3938" data-name="Group 3938" clip-path="url(#clip-path-20)">
              <path id="Path_1946" data-name="Path 1946" d="M650.3,200.591c-.009-.058-.015-.091-.015-.091-5.731.31-9.913,5.266-9.913,5.266l6.309,4.864c-1.793-1.6-3.546-3.914-2.05-6.025a11.039,11.039,0,0,1,5.668-4.013" transform="translate(-640.375 -200.5)"/>
            </g>
          </g>
        </g>
        <path id="Path_1947" data-name="Path 1947" d="M517.854,473.551a15.629,15.629,0,0,0-3.651-.541,4.085,4.085,0,0,1-.716.607c2.673.415,4.724,1.406,1.579,3.341-4.027,2.478-24.162,9.6-30.357,8.828-4.931-.616-6.057-5.653-6.057-5.653l-1.946,3.158s.867,3.24,7.538,3.734c4.182.31,8.519-.31,14.714-2.168s13.94-.929,18.122-4.027,4.337-6.2.774-7.28" transform="translate(-408.118 -399.748)" fill="#333"/>
        <path id="Path_1948" data-name="Path 1948" d="M484.912,486.039c-.693,0-1.374-.026-2.051-.076-6.758-.5-7.708-3.767-7.745-3.906l-.026-.1,2.3-3.729.125.556c.011.049,1.153,4.885,5.859,5.474,6.039.754,26.184-6.32,30.207-8.8,1.032-.635,1.554-1.215,1.47-1.633-.108-.538-1.188-1.005-2.963-1.281l-.593-.092.5-.331a3.854,3.854,0,0,0,.675-.572l.073-.078.107,0a16.131,16.131,0,0,1,3.707.55c1.543.469,2.461,1.312,2.655,2.436.273,1.581-.92,3.446-3.359,5.253-2.555,1.893-6.347,2.3-10.362,2.74a44.331,44.331,0,0,0-7.831,1.322,44.123,44.123,0,0,1-12.747,2.253m-9.315-4.014c.2.506,1.516,3.047,7.3,3.475,4.178.31,8.554-.336,14.63-2.159A44.652,44.652,0,0,1,505.44,482c3.95-.429,7.682-.834,10.136-2.652,2.257-1.672,3.416-3.422,3.177-4.8-.162-.939-.969-1.655-2.332-2.07a15.07,15.07,0,0,0-3.489-.526q-.12.121-.246.231c1.729.33,2.677.853,2.819,1.557.131.65-.419,1.343-1.682,2.12-3.951,2.432-22.191,8.921-29.422,8.921a8.8,8.8,0,0,1-1.086-.06,7.586,7.586,0,0,1-6.1-5.321Z" transform="translate(-406.752 -398.454)"/>
        <g id="Group_3943" data-name="Group 3943" transform="translate(47.458 83.735)" opacity="0.2">
          <g id="Group_3942" data-name="Group 3942">
            <g id="Group_3941" data-name="Group 3941" clip-path="url(#clip-path-21)">
              <path id="Path_1949" data-name="Path 1949" d="M399.9,552.492c-1.607,2.127-5.133,4.555-10.349,7.476-7.744,4.337-18.9,2.168-19.825-1.549s-1.859-4.027-2.168-.31-1.239,3.407-2.168-3.1-2.323-7.125-2.323-1.549-2.478,7.434-6.2,6.35-4.182-3.253-7.9-6.041-3.872-3.562-2.633-7.125a30.061,30.061,0,0,0,1.33-5.732c-.78-.355-1-.6-1.95.62-.762.979-3.128,5.092-4.469,7.453l-.177.291.009.006c-.474.836-.783,1.388-.783,1.388-.31.774,4.505,3.032,7.589,6.041,6.35,6.2,15.179,7.435,17.037,7.9s11.089,4.341,25.866-1.7a16.737,16.737,0,0,0,9.11-10.419" transform="translate(-340.283 -540.628)"/>
            </g>
          </g>
        </g>
        <g id="Group_3946" data-name="Group 3946" transform="translate(101.249 73.262)" opacity="0.7" style="mix-blend-mode: overlay;isolation: isolate">
          <g id="Group_3945" data-name="Group 3945">
            <g id="Group_3944" data-name="Group 3944" clip-path="url(#clip-path-22)">
              <path id="Path_1950" data-name="Path 1950" d="M696.063,473.551a15.629,15.629,0,0,0-3.651-.541,4.082,4.082,0,0,1-.716.607c2.672.415,4.724,1.406,1.579,3.341a42.448,42.448,0,0,1-5.7,2.584c1.126.189,3.2.31,3.3,1.83a1.868,1.868,0,0,1-.559,1.423,12.457,12.457,0,0,0,4.973-1.965c4.182-3.1,4.337-6.2.774-7.28" transform="translate(-687.576 -473.01)" fill="#fff"/>
            </g>
          </g>
        </g>
        <g id="Group_3949" data-name="Group 3949" transform="translate(70.086 84.465)" opacity="0.7" style="mix-blend-mode: overlay;isolation: isolate">
          <g id="Group_3948" data-name="Group 3948">
            <g id="Group_3947" data-name="Group 3947" clip-path="url(#clip-path-23)">
              <path id="Path_1951" data-name="Path 1951" d="M523.552,549.7c-1.116-3.44-6.97-5.886-17.347-3.253s-17.192,4.8-18.276,3.872c-1.017-.628-1.242-.521-1.548-.36,0,0,.077,3.225,9.834.282s21.064-5.266,25.091-1.7a8.543,8.543,0,0,1,2.645,4.911,9.809,9.809,0,0,0-.4-3.75" transform="translate(-486.38 -545.339)" fill="#fff"/>
            </g>
          </g>
        </g>
      </g>
    </g>
    <g id="Group_3953" data-name="Group 3953">
      <g id="Group_3952" data-name="Group 3952" clip-path="url(#clip-path)">
        <path id="Path_1953" data-name="Path 1953" d="M80.345,85.425l-3.784-2.971-4.788-.46,2.971-3.784.46-4.788,3.784,2.971,4.788.46-2.971,3.784Z" transform="translate(-60.657 -62.051)" fill="#f4ca22"/>
        <path id="Path_1954" data-name="Path 1954" d="M79.078,84.39a.232.232,0,0,1-.143-.05L75.2,81.411l-4.721-.454a.232.232,0,0,1-.16-.375l2.929-3.73.454-4.721a.232.232,0,0,1,.375-.16L77.81,74.9l4.721.454a.232.232,0,0,1,.16.375l-2.929,3.73-.454,4.721a.232.232,0,0,1-.231.21m-8.127-3.854,4.366.419a.233.233,0,0,1,.121.049l3.449,2.708.42-4.366a.232.232,0,0,1,.048-.121l2.708-3.449L77.7,75.357a.233.233,0,0,1-.121-.049L74.127,72.6l-.419,4.366a.232.232,0,0,1-.049.121Z" transform="translate(-59.389 -60.782)"/>
        <path id="Path_1955" data-name="Path 1955" d="M247.771,312.034l.135-3.836-1.956-3.3,3.836.134,3.3-1.956-.134,3.836,1.956,3.3-3.836-.135Z" transform="translate(-207.855 -256.132)" fill="#f4ca22"/>
        <path id="Path_1956" data-name="Path 1956" d="M246.5,311a.232.232,0,0,1-.232-.241l.132-3.768-1.922-3.244a.232.232,0,0,1,.208-.35l3.768.132,3.244-1.922a.232.232,0,0,1,.351.208l-.132,3.768,1.922,3.244a.233.233,0,0,1,0,.237.237.237,0,0,1-.208.114l-3.768-.132-3.244,1.922a.233.233,0,0,1-.118.032m-1.405-7.124,1.74,2.937a.232.232,0,0,1,.032.127l-.12,3.411,2.937-1.74a.229.229,0,0,1,.127-.032l3.411.12-1.74-2.937a.233.233,0,0,1-.032-.127l.12-3.411-2.937,1.74a.239.239,0,0,1-.127.032Z" transform="translate(-206.587 -254.864)"/>
        <path id="Path_1957" data-name="Path 1957" d="M788.427,462.96l-1.173-2.193-2.17-1.214,2.193-1.173,1.214-2.17,1.173,2.193,2.17,1.214-2.193,1.173Z" transform="translate(-663.486 -385.549)" fill="#f4ca22"/>
        <path id="Path_1958" data-name="Path 1958" d="M787.159,461.925h0a.233.233,0,0,1-.2-.123l-1.14-2.133-2.111-1.181a.232.232,0,0,1,0-.408l2.133-1.14,1.181-2.111a.228.228,0,0,1,.205-.119.232.232,0,0,1,.2.123l1.14,2.133,2.111,1.181a.233.233,0,0,1,0,.408l-2.133,1.14-1.181,2.111a.233.233,0,0,1-.2.119M784.3,458.29l1.8,1.006a.234.234,0,0,1,.091.093l.972,1.818,1.006-1.8a.234.234,0,0,1,.093-.092l1.818-.972-1.8-1.007a.234.234,0,0,1-.091-.093l-.972-1.818-1.007,1.8a.235.235,0,0,1-.093.092Z" transform="translate(-662.218 -384.282)"/>
        <path id="Path_1959" data-name="Path 1959" d="M35.566,599.446l.075-4.565L33.241,591l4.566.075,3.885-2.4-.075,4.566,2.4,3.885-4.566-.075Z" transform="translate(-28.092 -497.495)" fill="#f4ca22"/>
        <path id="Path_1960" data-name="Path 1960" d="M34.3,598.411a.233.233,0,0,1-.232-.236l.074-4.5-2.364-3.827a.232.232,0,0,1,0-.237.225.225,0,0,1,.206-.118l4.5.074,3.827-2.364a.233.233,0,0,1,.355.2l-.074,4.5,2.364,3.827a.232.232,0,0,1-.2.354h0l-4.5-.074-3.827,2.364a.233.233,0,0,1-.122.035m-1.9-8.443,2.177,3.523a.233.233,0,0,1,.035.126l-.068,4.141,3.523-2.177a.254.254,0,0,1,.126-.035l4.141.068-2.177-3.523a.233.233,0,0,1-.035-.126l.068-4.141L36.661,590a.231.231,0,0,1-.126.035Z" transform="translate(-26.825 -496.227)"/>
        <path id="Path_1961" data-name="Path 1961" d="M702.526,85.679l-.5-2.675-1.86-1.985,2.675-.5,1.985-1.86.5,2.675,1.86,1.985-2.674.5Z" transform="translate(-591.725 -66.48)" fill="#f4ca22"/>
        <path id="Path_1962" data-name="Path 1962" d="M701.259,84.643a.232.232,0,0,1-.228-.19l-.483-2.608-1.814-1.935a.232.232,0,0,1,.127-.387l2.608-.483,1.935-1.814a.232.232,0,0,1,.387.127l.483,2.608,1.814,1.935a.232.232,0,0,1-.127.387l-2.608.483-1.935,1.814a.233.233,0,0,1-.159.063m-1.9-4.741,1.57,1.675a.232.232,0,0,1,.059.117l.418,2.257,1.675-1.57a.233.233,0,0,1,.116-.059l2.257-.418-1.57-1.675a.231.231,0,0,1-.059-.117l-.418-2.257-1.675,1.57a.232.232,0,0,1-.116.059Z" transform="translate(-590.457 -65.212)"/>
        <path id="Path_1963" data-name="Path 1963" d="M16.526,401.679l-.5-2.675-1.86-1.985,2.675-.5,1.985-1.86.5,2.675,1.86,1.985-2.675.5Z" transform="translate(-11.976 -333.536)" fill="#f4ca22"/>
        <path id="Path_1964" data-name="Path 1964" d="M15.259,400.643a.229.229,0,0,1-.072-.012.232.232,0,0,1-.156-.178l-.483-2.608-1.814-1.935a.232.232,0,0,1,.127-.387l2.608-.483,1.935-1.814a.232.232,0,0,1,.387.127l.483,2.608,1.814,1.935a.232.232,0,0,1-.127.387l-2.608.483-1.935,1.814a.232.232,0,0,1-.159.063m-1.9-4.741,1.57,1.675a.233.233,0,0,1,.059.116l.418,2.257,1.675-1.57a.233.233,0,0,1,.117-.059l2.257-.418-1.57-1.675a.233.233,0,0,1-.059-.116l-.418-2.257-1.675,1.57a.233.233,0,0,1-.117.059Z" transform="translate(-10.709 -332.268)"/>
        <path id="Path_1965" data-name="Path 1965" d="M240.564,16.282a7.746,7.746,0,1,1-5.408-9.527,7.746,7.746,0,0,1,5.408,9.527" transform="translate(-190.446 -5.471)" fill="#f9dc62"/>
        <path id="Path_1966" data-name="Path 1966" d="M231.834,20.928a8.012,8.012,0,0,1-2.134-.291,7.931,7.931,0,1,1,2.134.291m-.024-15.5a7.537,7.537,0,1,0,2.01.274,7.551,7.551,0,0,0-2.01-.274" transform="translate(-189.17 -4.195)"/>
        <path id="Path_1967" data-name="Path 1967" d="M231.657,22.539a7.5,7.5,0,1,1,6-13.739,7.5,7.5,0,0,0-6,13.739" transform="translate(-191.804 -6.831)" fill="#fff"/>
        <path id="Path_1968" data-name="Path 1968" d="M246.413,23.039a6.445,6.445,0,1,1-4.5-7.927,6.445,6.445,0,0,1,4.5,7.927" transform="translate(-197.548 -12.574)" fill="#f4ca22"/>
        <path id="Path_1969" data-name="Path 1969" d="M238.935,26.731a6.711,6.711,0,0,1-1.786-.243,6.638,6.638,0,1,1,1.786.243m-.02-12.9a6.23,6.23,0,1,0,1.662.226,6.249,6.249,0,0,0-1.662-.226" transform="translate(-196.274 -11.3)"/>
        <path id="Path_1970" data-name="Path 1970" d="M263.773,40.066q-.089-.024-.177-.052a6.308,6.308,0,0,0,6.463-10.029,6.2,6.2,0,0,1-6.286,10.08" transform="translate(-222.769 -25.342)" fill="#fff"/>
        <path id="Path_1971" data-name="Path 1971" d="M253.712,34.228l-.3,1.088-1.381-.381.287-1.039a5.977,5.977,0,0,1-2.329-1.38l1.209-1.48a4.88,4.88,0,0,0,2.09,1.251c.657.181.929.109.994-.126.238-.862-3.745-1.212-3.04-3.77.305-1.107,1.365-1.816,3.034-1.6l.294-1.068,1.381.381-.289,1.048a5.308,5.308,0,0,1,1.832,1.117l-1.158,1.483a4.388,4.388,0,0,0-1.77-1.036c-.676-.186-.946-.05-1.01.185-.227.823,3.754,1.183,3.056,3.711-.292,1.058-1.31,1.768-2.9,1.614" transform="translate(-211.269 -21.741)" fill="#f9dc62"/>
        <path id="Path_1972" data-name="Path 1972" d="M252.144,34.28a.234.234,0,0,1-.062-.008L250.7,33.89a.232.232,0,0,1-.162-.286l.229-.831a6.009,6.009,0,0,1-2.217-1.368.233.233,0,0,1-.01-.305l1.209-1.48a.232.232,0,0,1,.347-.014,4.65,4.65,0,0,0,1.985,1.189c.461.127.688.11.709.036.037-.134-.519-.42-.887-.609-1.055-.542-2.649-1.36-2.153-3.16a2.665,2.665,0,0,1,3.087-1.789l.242-.877a.232.232,0,0,1,.286-.162l1.381.381a.232.232,0,0,1,.162.286l-.234.848a5.359,5.359,0,0,1,1.716,1.091.232.232,0,0,1,.02.308l-1.158,1.483a.233.233,0,0,1-.164.089.231.231,0,0,1-.176-.06,4.183,4.183,0,0,0-1.675-.984,1.286,1.286,0,0,0-.616-.064c-.091.023-.1.063-.109.087-.032.115.557.411.873.57,1.066.537,2.678,1.347,2.183,3.14a2.648,2.648,0,0,1-2.953,1.8l-.249.9a.232.232,0,0,1-.224.171m-1.1-.776.934.258.238-.864a.233.233,0,0,1,.246-.169c1.377.134,2.369-.407,2.655-1.444.393-1.426-.9-2.078-1.944-2.6-.7-.35-1.245-.626-1.112-1.109a.582.582,0,0,1,.443-.414,1.723,1.723,0,0,1,.853.067,4.484,4.484,0,0,1,1.676.924l.876-1.122a5.266,5.266,0,0,0-1.6-.925.232.232,0,0,1-.141-.279L254.4,25l-.933-.258-.233.844a.233.233,0,0,1-.254.169c-1.443-.188-2.481.346-2.78,1.43-.4,1.435.887,2.094,1.917,2.623.676.347,1.261.647,1.123,1.146-.164.6-.975.373-1.28.289a5.158,5.158,0,0,1-2.009-1.132l-.916,1.121a6.111,6.111,0,0,0,2.091,1.176.232.232,0,0,1,.149.282Z" transform="translate(-210.001 -20.473)"/>
        <path id="Path_1973" data-name="Path 1973" d="M762.5,149.654a8.491,8.491,0,1,1-11.491-3.484,8.49,8.49,0,0,1,11.491,3.484" transform="translate(-630.892 -122.681)" fill="#f9dc62"/>
        <path id="Path_1974" data-name="Path 1974" d="M753.772,161.1a8.722,8.722,0,1,1,7.677-12.835h0a8.721,8.721,0,0,1-7.678,12.835m-.025-16.984a8.282,8.282,0,1,0,2.407.359,8.217,8.217,0,0,0-2.407-.359" transform="translate(-629.641 -121.4)"/>
        <path id="Path_1975" data-name="Path 1975" d="M759.538,165.051a8.219,8.219,0,1,1-5.611-15.444,8.22,8.22,0,0,0,5.611,15.444" transform="translate(-632.39 -126.435)" fill="#fff"/>
        <path id="Path_1976" data-name="Path 1976" d="M769.024,158.112a7.064,7.064,0,1,1-9.561-2.9,7.064,7.064,0,0,1,9.561,2.9" transform="translate(-638.677 -130.466)" fill="#f4ca22"/>
        <path id="Path_1977" data-name="Path 1977" d="M761.524,167.488a7.307,7.307,0,1,1,3.431-.866,7.319,7.319,0,0,1-3.431.866m-.021-14.131a6.831,6.831,0,1,0,6.036,3.609,6.79,6.79,0,0,0-6.036-3.609" transform="translate(-637.398 -129.212)"/>
        <path id="Path_1978" data-name="Path 1978" d="M807.732,169.07q-.089.048-.179.092a6.914,6.914,0,0,0-2.441-12.848,6.791,6.791,0,0,1,2.62,12.755" transform="translate(-680.413 -132.104)" fill="#fff"/>
        <path id="Path_1979" data-name="Path 1979" d="M782.188,175.739l.583,1.091-1.385.741-.557-1.041a6.555,6.555,0,0,1-2.892.662l-.157-2.089a5.35,5.35,0,0,0,2.605-.585c.658-.352.82-.616.694-.851-.462-.865-3.891,1.866-5.262-.7-.594-1.11-.287-2.474,1.2-3.561l-.573-1.071,1.385-.741.562,1.051a5.82,5.82,0,0,1,2.3-.5l.2,2.053a4.811,4.811,0,0,0-2.189.513c-.678.362-.789.675-.663.91.441.825,3.875-1.9,5.231.639.567,1.061.295,2.394-1.086,3.473" transform="translate(-655.415 -141.637)" fill="#f9dc62"/>
        <path id="Path_1980" data-name="Path 1980" d="M780.117,176.533a.232.232,0,0,1-.205-.123l-.455-.851a6.581,6.581,0,0,1-2.8.594.232.232,0,0,1-.217-.214l-.157-2.089a.232.232,0,0,1,.065-.179.225.225,0,0,1,.177-.07,5.128,5.128,0,0,0,2.486-.558c.425-.227.654-.433.6-.537-.08-.151-.723.038-1.191.175-1.24.364-3.115.915-4.071-.873-.669-1.252-.243-2.669,1.11-3.736l-.479-.9a.232.232,0,0,1,.1-.315l1.385-.741a.232.232,0,0,1,.314.1l.464.867a5.865,5.865,0,0,1,2.2-.435.232.232,0,0,1,.226.21l.2,2.053a.232.232,0,0,1-.226.255,4.606,4.606,0,0,0-2.084.486,1.425,1.425,0,0,0-.546.422.153.153,0,0,0-.022.174c.071.132.72-.065,1.151-.2,1.245-.377,3.127-.947,4.08.835a2.886,2.886,0,0,1-1,3.642l.493.921a.232.232,0,0,1-.1.315l-1.385.741a.23.23,0,0,1-.109.028m-.557-1.506a.232.232,0,0,1,.205.123l.447.837.975-.521-.474-.886a.232.232,0,0,1,.062-.293c1.2-.941,1.586-2.13,1.024-3.181-.773-1.446-2.3-.982-3.536-.609-.807.244-1.445.438-1.7-.03a.616.616,0,0,1,.039-.642,1.868,1.868,0,0,1,.72-.583,4.905,4.905,0,0,1,2.043-.531l-.156-1.6a5.768,5.768,0,0,0-2,.477.232.232,0,0,1-.295-.1l-.452-.846-.976.522.463.866a.232.232,0,0,1-.068.3c-1.3.947-1.722,2.167-1.135,3.264.778,1.455,2.3,1.007,3.53.647.823-.242,1.473-.433,1.732.051.309.578-.489,1-.79,1.166a5.632,5.632,0,0,1-2.464.616l.122,1.627a6.691,6.691,0,0,0,2.579-.647.23.23,0,0,1,.1-.021" transform="translate(-654.146 -140.368)"/>
        <path id="Path_1981" data-name="Path 1981" d="M683.957,666.706a10.328,10.328,0,1,1-13.978-4.238,10.328,10.328,0,0,1,13.978,4.238" transform="translate(-561.595 -558.829)" fill="#f9dc62"/>
        <path id="Path_1982" data-name="Path 1982" d="M673.618,680.886a10.558,10.558,0,1,1,4.962-1.246,10.57,10.57,0,0,1-4.962,1.246m-.035-20.653a10.095,10.095,0,1,0,8.92,5.334,10.035,10.035,0,0,0-8.92-5.334" transform="translate(-560.346 -557.58)"/>
        <path id="Path_1983" data-name="Path 1983" d="M680.359,685.435a10,10,0,1,1-6.825-18.787,10,10,0,0,0,6.825,18.787" transform="translate(-563.417 -563.394)" fill="#fff"/>
        <path id="Path_1984" data-name="Path 1984" d="M691.9,676.993a8.593,8.593,0,1,1-11.629-3.526,8.593,8.593,0,0,1,11.629,3.526" transform="translate(-571.064 -568.297)" fill="#f4ca22"/>
        <path id="Path_1985" data-name="Path 1985" d="M683.078,688.623a8.827,8.827,0,1,1,7.771-12.991h0a8.832,8.832,0,0,1-7.771,12.991m-.025-17.189a8.36,8.36,0,1,0,7.387,4.417,8.308,8.308,0,0,0-7.387-4.417" transform="translate(-569.812 -567.046)"/>
        <path id="Path_1986" data-name="Path 1986" d="M738.981,690.324q-.108.058-.218.112a8.411,8.411,0,0,0-2.969-15.628,8.261,8.261,0,0,1,3.186,15.516" transform="translate(-621.831 -570.29)" fill="#fff"/>
        <path id="Path_1987" data-name="Path 1987" d="M707.909,698.435l.709,1.326-1.685.9-.677-1.267a7.973,7.973,0,0,1-3.518.806l-.191-2.541a6.506,6.506,0,0,0,3.169-.711c.8-.428,1-.749.845-1.035-.562-1.052-4.733,2.269-6.4-.849-.722-1.35-.349-3.009,1.464-4.332l-.7-1.3,1.685-.9.684,1.279a7.079,7.079,0,0,1,2.8-.6l.244,2.5a5.853,5.853,0,0,0-2.662.624c-.824.441-.96.821-.806,1.107.537,1,4.714-2.305,6.362.778.69,1.291.359,2.912-1.321,4.225" transform="translate(-591.423 -581.886)" fill="#f9dc62"/>
        <path id="Path_1988" data-name="Path 1988" d="M705.668,699.626a.232.232,0,0,1-.205-.123l-.575-1.076a7.967,7.967,0,0,1-3.43.737.232.232,0,0,1-.217-.214l-.191-2.541a.232.232,0,0,1,.242-.25,6.275,6.275,0,0,0,3.05-.684c.33-.177.865-.5.749-.721s-.856,0-1.507.189c-1.493.439-3.749,1.1-4.894-1.038-.807-1.51-.281-3.222,1.37-4.507l-.6-1.127a.232.232,0,0,1,.1-.314l1.685-.9a.232.232,0,0,1,.314.1l.585,1.094a7.14,7.14,0,0,1,2.695-.543.233.233,0,0,1,.227.21l.244,2.5a.232.232,0,0,1-.226.255,5.651,5.651,0,0,0-2.558.6,1.778,1.778,0,0,0-.683.531.233.233,0,0,0-.028.262c.106.2.856-.031,1.458-.213,1.5-.454,3.765-1.14,4.9.991.774,1.448.3,3.117-1.23,4.395l.619,1.157a.232.232,0,0,1-.1.314l-1.685.9a.23.23,0,0,1-.109.027m-.678-1.731a.232.232,0,0,1,.2.123l.568,1.062,1.275-.682-.6-1.122a.232.232,0,0,1,.062-.292c1.485-1.16,1.955-2.63,1.259-3.932-.959-1.795-2.845-1.224-4.36-.765-.96.291-1.718.521-2-.012a.7.7,0,0,1,.045-.73,2.223,2.223,0,0,1,.857-.692,5.952,5.952,0,0,1,2.517-.643l-.2-2.041a7.016,7.016,0,0,0-2.5.586.232.232,0,0,1-.295-.1l-.574-1.074-1.275.682.587,1.1a.232.232,0,0,1-.068.3c-1.6,1.168-2.122,2.676-1.4,4.035.966,1.806,2.844,1.255,4.352.811.979-.288,1.753-.515,2.048.038.352.659-.586,1.161-.94,1.35a6.791,6.791,0,0,1-3.028.743l.156,2.079a8.207,8.207,0,0,0,3.205-.791.231.231,0,0,1,.1-.021" transform="translate(-590.158 -580.617)"/>
        <path id="Path_1989" data-name="Path 1989" d="M20.957,562.706A10.328,10.328,0,1,1,6.98,558.468a10.328,10.328,0,0,1,13.978,4.238" transform="translate(-1.284 -470.937)" fill="#f9dc62"/>
        <path id="Path_1990" data-name="Path 1990" d="M10.579,576.892a10.6,10.6,0,0,1-3.077-.459,10.5,10.5,0,1,1,3.077.459m-.03-20.66a10.095,10.095,0,1,0,8.92,5.334,10.034,10.034,0,0,0-8.92-5.334" transform="translate(0 -469.688)"/>
        <path id="Path_1991" data-name="Path 1991" d="M17.359,581.435a10,10,0,1,1-6.825-18.787,10,10,0,0,0,6.825,18.787" transform="translate(-3.106 -475.502)" fill="#fff"/>
        <path id="Path_1992" data-name="Path 1992" d="M28.9,572.993a8.593,8.593,0,1,1-11.629-3.526A8.593,8.593,0,0,1,28.9,572.993" transform="translate(-10.753 -480.406)" fill="#f4ca22"/>
        <path id="Path_1993" data-name="Path 1993" d="M20.078,584.622a8.827,8.827,0,1,1,7.771-12.991,8.832,8.832,0,0,1-7.771,12.991m-.025-17.189a8.359,8.359,0,1,0,7.387,4.417,8.308,8.308,0,0,0-7.387-4.417" transform="translate(-9.501 -479.154)"/>
        <path id="Path_1994" data-name="Path 1994" d="M75.981,586.324q-.108.058-.218.112a8.41,8.41,0,0,0-2.969-15.628,8.261,8.261,0,0,1,3.186,15.516" transform="translate(-61.52 -482.398)" fill="#fff"/>
        <path id="Path_1995" data-name="Path 1995" d="M44.909,594.435l.709,1.326-1.685.9-.677-1.267a7.976,7.976,0,0,1-3.518.806l-.191-2.541a6.508,6.508,0,0,0,3.169-.711c.8-.428,1-.749.845-1.035-.562-1.052-4.733,2.27-6.4-.849-.722-1.35-.349-3.009,1.464-4.332l-.7-1.3,1.685-.9.684,1.279a7.079,7.079,0,0,1,2.8-.6l.244,2.5a5.851,5.851,0,0,0-2.662.625c-.824.441-.96.82-.806,1.107.537,1,4.714-2.305,6.362.778.69,1.291.359,2.912-1.321,4.225" transform="translate(-31.112 -493.994)" fill="#f9dc62"/>
        <path id="Path_1996" data-name="Path 1996" d="M42.669,595.626a.232.232,0,0,1-.205-.123l-.575-1.076a7.986,7.986,0,0,1-3.43.737.232.232,0,0,1-.217-.214l-.191-2.541a.232.232,0,0,1,.241-.25,6.27,6.27,0,0,0,3.05-.684,2.3,2.3,0,0,0,.705-.508c.093-.121.064-.177.044-.214-.118-.22-.856,0-1.507.189-1.493.439-3.749,1.1-4.893-1.038-.807-1.51-.282-3.222,1.37-4.507l-.6-1.127a.232.232,0,0,1,.1-.314l1.685-.9a.232.232,0,0,1,.314.1l.585,1.094a7.14,7.14,0,0,1,2.695-.543.232.232,0,0,1,.226.21l.244,2.5a.232.232,0,0,1-.226.255,5.65,5.65,0,0,0-2.558.6,1.779,1.779,0,0,0-.683.531.233.233,0,0,0-.028.262c.105.2.855-.031,1.458-.213,1.5-.454,3.764-1.14,4.9.991.774,1.448.3,3.117-1.23,4.395l.619,1.157a.233.233,0,0,1-.1.315l-1.685.9a.232.232,0,0,1-.11.027m-.678-1.731a.232.232,0,0,1,.205.123l.568,1.062,1.275-.682-.6-1.122a.232.232,0,0,1,.062-.293c1.485-1.16,1.955-2.63,1.259-3.932-.96-1.795-2.845-1.224-4.36-.765-.96.291-1.718.521-2-.012a.7.7,0,0,1,.045-.73,2.226,2.226,0,0,1,.857-.692,5.951,5.951,0,0,1,2.517-.643l-.2-2.041a7.021,7.021,0,0,0-2.5.586.233.233,0,0,1-.295-.1l-.574-1.074-1.275.682.587,1.1a.232.232,0,0,1-.068.3c-1.6,1.168-2.122,2.676-1.4,4.035.966,1.806,2.844,1.255,4.353.811.979-.288,1.752-.515,2.048.038a.624.624,0,0,1-.085.716,2.665,2.665,0,0,1-.855.634,6.793,6.793,0,0,1-3.028.743l.156,2.079h.03a8.168,8.168,0,0,0,3.175-.792.231.231,0,0,1,.1-.021" transform="translate(-29.847 -492.726)"/>
        <path id="Path_1997" data-name="Path 1997" d="M168.452,158.026c-.627,2.178-3.367,3.3-6.121,2.51s-4.478-3.2-3.852-5.379,3.367-3.3,6.121-2.51,4.478,3.2,3.852,5.379" transform="translate(-133.824 -128.79)" fill="#fff"/>
        <path id="Path_1998" data-name="Path 1998" d="M187.953,227.863a2.889,2.889,0,1,1-2.087-2.915,2.57,2.57,0,0,1,2.087,2.915" transform="translate(-154.216 -189.991)" fill="#fff"/>
        <path id="Path_1999" data-name="Path 1999" d="M848.231,539.871a1.894,1.894,0,1,1-1.368-1.911,1.685,1.685,0,0,1,1.368,1.911" transform="translate(-713.82 -454.562)" fill="#fff"/>
        <path id="Path_2000" data-name="Path 2000" d="M596.277,54.1c-.433,1.5-2.326,2.281-4.229,1.734s-3.094-2.211-2.661-3.716,2.326-2.281,4.229-1.734,3.094,2.211,2.661,3.716" transform="translate(-498.025 -42.435)" fill="#fff"/>
      </g>
    </g>
  </g>
</svg>
