<svg xmlns="http://www.w3.org/2000/svg" xmlns:xlink="http://www.w3.org/1999/xlink" width="86.058" height="87.487" viewBox="0 0 86.058 87.487">
  <defs>
    <clipPath id="clip-path">
      <path id="Path_917" data-name="Path 917" d="M18.321,0A33,33,0,0,1,31.354,7.785c5.582,5.689,2.95,9.8,9.294,14.969a41.752,41.752,0,0,0,14.515,7.171A35.164,35.164,0,0,0,44.4,38.245c-4.273,5.248-6.329,12.672-6.329,12.672s-8.563-2.093-15.036-6.944-3.709-8.543-9.468-14.048A39.418,39.418,0,0,0,0,21.953,68.076,68.076,0,0,0,11.469,11.668,44.475,44.475,0,0,0,18.321,0Z" transform="translate(0 10.526) rotate(-11)" fill="#f2ca66"/>
    </clipPath>
    <clipPath id="clip-path-2">
      <rect id="Rectangle_1539" data-name="Rectangle 1539" width="69" height="20" transform="translate(137 7468)" fill="#658434" stroke="#707070" stroke-width="1"/>
    </clipPath>
  </defs>
  <g id="Arabia-flag" transform="translate(-130.645 -7400.513)">
    <g id="flag" transform="translate(-2777.947 4473.347) rotate(-30)">
      <path id="Path_803" data-name="Path 803" d="M4634.981,4024.825,4607.9,4074.42" transform="translate(-3569 -4.287)" fill="none" stroke="#c3c1c1" stroke-linecap="round" stroke-width="1.5"/>
      <path id="Path_802" data-name="Path 802" d="M18.321,0A33,33,0,0,1,31.354,7.785c5.582,5.689,2.95,9.8,9.294,14.969a41.752,41.752,0,0,0,14.515,7.171A35.164,35.164,0,0,0,44.4,38.245c-4.273,5.248-6.329,12.672-6.329,12.672s-8.563-2.093-15.036-6.944-3.709-8.543-9.468-14.048A39.418,39.418,0,0,0,0,21.953,68.076,68.076,0,0,0,11.469,11.668,44.475,44.475,0,0,0,18.321,0Z" transform="translate(1046.781 4026.148) rotate(-11)" fill="#f2ca66"/>
      <g id="Mask_Group_11" data-name="Mask Group 11" transform="translate(1046.781 4015.623)" clip-path="url(#clip-path)">
        <g id="g4701" transform="translate(-30.328 91.402) rotate(30)">
          <path id="_x32_1461584" d="M49.179-67.214V-100H0v32.786Z" fill="#006c35"/>
          <g id="g4699" transform="translate(12.295 -91.804)">
            <g id="g4695" transform="translate(0 0)">
              <g id="g4623" transform="translate(13.809 0)">
                <path id="path4621" d="M470.633,148.092a6.679,6.679,0,0,1,.848-.578,1.722,1.722,0,0,1-.627.855c-.139.108-.076.307-.095.458-.076-.018-.146-.036-.221-.06.07.9.171,1.8.215,2.7a.34.34,0,0,0,.1.277,6.137,6.137,0,0,1,1.152,1.216,2.333,2.333,0,0,1,.247.608,3.343,3.343,0,0,0,.032-1.066q-.228-2.059-.411-4.13a2.767,2.767,0,0,1-.019-.512.319.319,0,0,1,.329-.277.791.791,0,0,1,.2.295,1.817,1.817,0,0,1,.209.909c-.076-.024-.152-.054-.234-.084.114.933.228,1.866.3,2.805a7.314,7.314,0,0,1-.006,1.9,2.279,2.279,0,0,1-.9,1.493,4.077,4.077,0,0,1-1.411.536,1.3,1.3,0,0,1-.608.006c.209-.114.443-.2.664-.295a5.787,5.787,0,0,0,.924-.482,2.975,2.975,0,0,0,.759-.626,3.631,3.631,0,0,0-1.266-1.722,11.026,11.026,0,0,1-.051,1.993.685.685,0,0,1-.2.4,6.353,6.353,0,0,1-.108-.849c-.057-.614-.108-1.234-.152-1.848a.382.382,0,0,0-.177-.295c-.373-.313-.721-.662-1.082-.987.013.379.07.752.095,1.126.044.506.051,1.011.1,1.517a2.336,2.336,0,0,1-.095,1.066.967.967,0,0,1-.785.614,2.2,2.2,0,0,1-.563-.03.627.627,0,0,1-.437-.349c-.108-.2-.165-.433-.253-.644a.838.838,0,0,0-.456.2,2.345,2.345,0,0,0-.449.921.865.865,0,0,1-.335.494.626.626,0,0,1-.608-.036,1.17,1.17,0,0,1-.532-.734c-.082-.229.032-.494-.108-.71a.923.923,0,0,1,.006-.638,2.208,2.208,0,0,1,.608-.945l-1.082-.939a15.443,15.443,0,0,1-.013,2.595.753.753,0,0,1-.209.464,3.286,3.286,0,0,1-.076-.5q-.133-1.427-.228-2.853a.4.4,0,0,0-.114-.3,13.825,13.825,0,0,1-1.051-1.114,2.8,2.8,0,0,1-.487-.777c-.038-.12-.07-.289.044-.379a.991.991,0,0,1,.367.132,2.563,2.563,0,0,1,.576.458.679.679,0,0,1,.146.283c-.108,0-.209-.006-.316-.006a4.212,4.212,0,0,0,.759.831c-.025-.807-.114-1.619-.152-2.426a.474.474,0,0,1,.076-.319.654.654,0,0,1,.272-.144,2.623,2.623,0,0,1,.38.855,1.227,1.227,0,0,1,.019.373c-.076-.018-.152-.042-.221-.066.051.656.12,1.306.165,1.962a1.386,1.386,0,0,0,.038.277.709.709,0,0,0,.146.157c.449.379.9.758,1.354,1.126.272-.235.538-.476.81-.7a1.486,1.486,0,0,0,.177-.163c.051-.054.032-.132.032-.2-.089-.789-.152-1.577-.221-2.366-.019-.289-.063-.572-.063-.855a.331.331,0,0,1,.3-.343c.076-.006.108.078.146.126a2.611,2.611,0,0,1,.278.716.827.827,0,0,1-.006.373c-.07-.03-.146-.066-.215-.1.095.74.171,1.481.241,2.221.2-.144.373-.313.557-.47.2-.175.418-.343.614-.53-.234-.253-.481-.488-.721-.734a1.345,1.345,0,0,1-.4-.53.931.931,0,0,1,.013-.476,1.84,1.84,0,0,1,.759.385,4.45,4.45,0,0,1,.437.4c-.013-.313-.051-.626-.076-.939a.511.511,0,0,1,.07-.349.77.77,0,0,1,.266-.15,2.312,2.312,0,0,1,.373.819,1.207,1.207,0,0,1,.032.4l-.234-.054c.025.241.051.476.082.716.3-.223.57-.476.867-.7.1-.1.285-.169.285-.337a5.283,5.283,0,0,1-.006-.548.318.318,0,0,1,.329-.271A1.615,1.615,0,0,1,470.633,148.092Zm-1.544,1.74c-.051.054-.146.1-.139.193a.909.909,0,0,0,.177.2c.367.331.715.68,1.1.981-.013-.355-.051-.7-.07-1.059-.032-.373-.044-.746-.082-1.12C469.734,149.278,469.424,149.567,469.089,149.832Zm-.93-.656c.082.09.158.181.24.271,0-.09-.006-.181-.006-.271Zm-.886,2.2c-.063.054-.139.114-.133.2a5.847,5.847,0,0,1-.07,1.373.513.513,0,0,1-.19.265c-.1-.439-.108-.891-.184-1.336-.272.217-.532.451-.785.686a1.3,1.3,0,0,1,.342.56.847.847,0,0,1-.266.867,2.072,2.072,0,0,1-1.114.349,2.01,2.01,0,0,0,.259.734.406.406,0,0,0,.411.2.582.582,0,0,0,.348-.373,5.038,5.038,0,0,1,.456-.921.875.875,0,0,1,.69-.445c.095.006.221-.024.278.078a5.408,5.408,0,0,0,.329.662.806.806,0,0,0,1.145.066.442.442,0,0,0,.095-.385c-.146-1.2-.253-2.408-.38-3.606C468.082,150.68,467.684,151.03,467.272,151.373Zm-2.234,2.047a.918.918,0,0,0-.139.319,1.353,1.353,0,0,0,.823-.175c.076-.048.165-.126.146-.229a.745.745,0,0,0-.342-.47A4.675,4.675,0,0,0,465.038,153.419Z" transform="translate(-461.934 -147.514)" fill="#fff"/>
              </g>
              <path id="path4625" d="M214.244,148.478c.076-.048.146.036.2.09a2.322,2.322,0,0,1,.405.6l-.234.036c.019.361.323.608.411.951a1.333,1.333,0,0,1,.025.65.767.767,0,0,1-.6.59,1.149,1.149,0,0,1-1-.283,1.549,1.549,0,0,1-.31-.626,1.94,1.94,0,0,1-.411.807,1.486,1.486,0,0,1-.437.319,17.107,17.107,0,0,1,.057,2.414.846.846,0,0,1-.247.65,8.329,8.329,0,0,1-.127-.981c-.07-.668-.12-1.336-.19-2a1.191,1.191,0,0,1-.563-.235,1.124,1.124,0,0,1-.316-.909,3.8,3.8,0,0,1,.146-.746.917.917,0,0,0-.215.337,10.107,10.107,0,0,1-.405,1.21.55.55,0,0,1-.367.313.656.656,0,0,1-.6-.126,1.041,1.041,0,0,1-.234-.65,1.4,1.4,0,0,1,.076-.7.7.7,0,0,1,.31-.271,1.088,1.088,0,0,0-.184.4,2,2,0,0,0,.051.614.589.589,0,0,0,.146.337.405.405,0,0,0,.532-.012.881.881,0,0,0,.152-.295c.127-.385.228-.783.386-1.156a1.1,1.1,0,0,1,.74-.686c-.038.427-.234.825-.247,1.258a.807.807,0,0,0,.139.554.709.709,0,0,0,.4.211c-.038-.584-.095-1.168-.133-1.758a2.846,2.846,0,0,1-.013-.656c.032-.151.2-.2.323-.253a2.152,2.152,0,0,1,.411,1.21l-.24-.054c.051.5.1,1.005.158,1.5a.949.949,0,0,0,.519-.379,1.449,1.449,0,0,0,.165-1.228c-.051-.175-.133-.337-.171-.518a.361.361,0,0,1,.234-.4c.07-.03.1.054.133.1a2.871,2.871,0,0,1,.171.656,5.131,5.131,0,0,0,.108.885,1.094,1.094,0,0,0,.475.59.92.92,0,0,0,.608.09.273.273,0,0,0,.209-.2.847.847,0,0,0-.1-.566,5.384,5.384,0,0,1-.513-1.21A.448.448,0,0,1,214.244,148.478Z" transform="translate(-209.215 -148.412)" fill="#fff"/>
              <path id="path4627" d="M459.142,149.189a1.2,1.2,0,0,1,.525-.464,2.372,2.372,0,0,1-.228.409.644.644,0,0,0-.07.325,2.065,2.065,0,0,0,.43-.066.539.539,0,0,1-.184.307.359.359,0,0,1-.424.036A.472.472,0,0,1,459.142,149.189Z" transform="translate(-445.424 -148.66)" fill="#fff"/>
              <g id="g4631" transform="translate(0.124 0.09)">
                <path id="path4629" d="M217.228,149.341a.586.586,0,0,1,.278-.175,2.313,2.313,0,0,1,.392.867.99.99,0,0,1,.006.361l-.215-.072c.082.584.184,1.162.253,1.746.335-.163.646-.361.994-.506a1.091,1.091,0,0,1,.342-.084.412.412,0,0,1-.2.235c-.367.187-.74.349-1.1.554.032.289.063.584.1.873.165-.211.31-.476.595-.542.013.157-.038.343.076.47a.483.483,0,0,0,.582-.072,2.711,2.711,0,0,1,.095-.674c.07.03.158.042.184.126a1.1,1.1,0,0,1,0,.656.847.847,0,0,1-.468.53.543.543,0,0,1-.443.042.943.943,0,0,1-.348-.331,1.9,1.9,0,0,0-.24.662,2.582,2.582,0,0,1-.538,1.421,4.2,4.2,0,0,1-2.2,1.373,4.79,4.79,0,0,1-1.487.229,1.56,1.56,0,0,1-.785-.211c-.1-.066-.19-.157-.291-.217a2.156,2.156,0,0,0-.392.012,4.482,4.482,0,0,1-.943-.03c.38-.126.766-.223,1.139-.361a3.026,3.026,0,0,1,.38-1.975,2.043,2.043,0,0,1,.342-.415,3.192,3.192,0,0,0-.3.668,2.832,2.832,0,0,0,.025,1.541c.259-.084.513-.2.759-.307a10.839,10.839,0,0,0,1.664-.873,1.845,1.845,0,0,0,.532-.494.614.614,0,0,0,.051-.337,3.845,3.845,0,0,1-.823.175.707.707,0,0,1-.494-.187.613.613,0,0,1-.108-.512.987.987,0,0,1,.323-.608.733.733,0,0,1,.759-.06,1.139,1.139,0,0,1,.481.554c.354-.132.595-.445.943-.6a.8.8,0,0,0,.133.536c.082.1.221.1.335.108-.019-.289-.063-.572-.1-.855-.12-.945-.24-1.9-.342-2.847A.7.7,0,0,1,217.228,149.341Zm-2.164,4.112c-.032.066.044.108.095.132a1.174,1.174,0,0,0,.595-.012.588.588,0,0,0-.386-.235c-.108-.006-.259,0-.3.114Zm1.38.391a1.415,1.415,0,0,1-.044.566,1.782,1.782,0,0,1-.576.759,8.781,8.781,0,0,1-1.532.9,6.368,6.368,0,0,1-.74.355,6.4,6.4,0,0,0,.962-.054,4.53,4.53,0,0,0,1.4-.349,3.95,3.95,0,0,0,1.291-.8,1.7,1.7,0,0,0,.475-.795,2.26,2.26,0,0,0,.044-.464,1.2,1.2,0,0,1-.563-.1.945.945,0,0,1-.3-.361A3.115,3.115,0,0,1,216.443,153.844Z" transform="translate(-211.482 -149.166)" fill="#fff"/>
              </g>
              <path id="path4633" d="M395.829,151.067a.22.22,0,0,1,.278-.012.637.637,0,0,1,.278.56,1.051,1.051,0,0,1-.082.283,1.474,1.474,0,0,0-.082-.409c-.095-.132-.272-.157-.386-.265A.1.1,0,0,1,395.829,151.067Z" transform="translate(-385.599 -150.821)" fill="#fff"/>
              <path id="path4635" d="M359.73,150.933c.013-.084.095-.175.184-.126a1.206,1.206,0,0,1,.538.6c-.089,0-.177-.006-.259-.012a3.452,3.452,0,0,0,.158.494,3.023,3.023,0,0,1,.266.7.9.9,0,0,1-1.62.7,1.749,1.749,0,0,1-.247-.524,1.54,1.54,0,0,1-.677.987,1.14,1.14,0,0,1-1.2-.042.77.77,0,0,1-.361-.632,5.232,5.232,0,0,1,.171-1.084.792.792,0,0,0-.209.319,8.208,8.208,0,0,1-.43,1.216.655.655,0,0,1-.487.361.623.623,0,0,1-.557-.247,1.051,1.051,0,0,1-.133-.572,1.983,1.983,0,0,1,.215-.873,2.353,2.353,0,0,0,.076,1.15.409.409,0,0,0,.544.2.88.88,0,0,0,.323-.5,7.87,7.87,0,0,1,.468-1.174,1.277,1.277,0,0,1,.31-.415.543.543,0,0,1,.259-.078,3.924,3.924,0,0,1-.234.957.971.971,0,0,0,.12.855.943.943,0,0,0,.924.223,1.157,1.157,0,0,0,.772-1.035,1.408,1.408,0,0,0-.12-.807c-.063-.126-.184-.259-.133-.415a.529.529,0,0,1,.278-.349,1.167,1.167,0,0,1,.2.494,5.467,5.467,0,0,0,.2,1.24.979.979,0,0,0,.456.572.793.793,0,0,0,.69.018.312.312,0,0,0,.133-.361,10.558,10.558,0,0,0-.525-1.192A1.2,1.2,0,0,1,359.73,150.933Z" transform="translate(-346.905 -150.614)" fill="#fff"/>
              <path id="path4637" d="M510.385,151.259a.3.3,0,0,1,.386.126.143.143,0,0,1-.07.163,1.214,1.214,0,0,1-.259-.1,3.3,3.3,0,0,0-.228.662,1.491,1.491,0,0,0-.152-.319c-.089-.12-.228-.181-.329-.289a.149.149,0,0,1,.177-.175.644.644,0,0,1,.3.283C510.252,151.482,510.271,151.332,510.385,151.259Z" transform="translate(-493.307 -151.031)" fill="#fff"/>
              <path id="path4639" d="M209.48,152.206a1.114,1.114,0,0,1,.544-.506,3.336,3.336,0,0,1-.228.415.639.639,0,0,0-.063.325,1.879,1.879,0,0,0,.437-.09.656.656,0,0,1-.2.319.361.361,0,0,1-.405.048A.449.449,0,0,1,209.48,152.206Z" transform="translate(-209.426 -151.472)" fill="#fff"/>
              <g id="g4643" transform="translate(7.522 0.275)">
                <path id="path4641" d="M347.5,152.7c.038-.2.335-.193.43-.042.063.108.095.223.158.331a.466.466,0,0,1,.089.349c-.057.2-.2.355-.221.566.07-.03.139-.066.209-.1-.019.108,0,.253-.114.313a.22.22,0,0,1-.3-.217c.019-.271.285-.482.2-.771a1.739,1.739,0,0,1-1.082.74,6.015,6.015,0,0,0,.595-.445,1.6,1.6,0,0,0,.266-.379C347.638,152.947,347.473,152.857,347.5,152.7Zm.184-.018a.5.5,0,0,0,.165.157A.246.246,0,0,0,347.682,152.682Z" transform="translate(-346.872 -152.548)" fill="#fff"/>
              </g>
              <path id="path4645" d="M332.626,157.153c.095-.024.209-.06.285.024a.888.888,0,0,1,.259.849c-.051-.114-.089-.235-.146-.343C332.93,157.478,332.721,157.357,332.626,157.153Z" transform="translate(-325.883 -156.599)" fill="#fff"/>
              <path id="path4647" d="M286.231,159.963a.439.439,0,0,1,.12.367c-.152.024-.3.066-.456.1a.158.158,0,0,1-.19-.12.968.968,0,0,1,.044-.265c.032.09.063.181.095.277.038-.018.082-.03.12-.048v-.247h.089c.013.072.025.15.038.223l.146-.018C286.231,160.143,286.231,160.053,286.231,159.963Z" transform="translate(-281.526 -159.283)" fill="#fff"/>
              <path id="path4649" d="M506.634,162.765a1.34,1.34,0,0,1,.38-.048.61.61,0,0,1-.221.175,12.714,12.714,0,0,0-1.3.524c.038.078.076.15.114.229a.479.479,0,0,1-.3-.1.169.169,0,0,1,.006-.253,1.017,1.017,0,0,1,.228-.12C505.9,163.036,506.261,162.886,506.634,162.765Z" transform="translate(-489.075 -161.886)" fill="#fff"/>
              <path id="path4651" d="M394.907,167.557a1.174,1.174,0,0,1,.158-.1.947.947,0,0,0,.12.451.269.269,0,0,1-.158.385.408.408,0,0,1-.38-.126c-.082.072-.171.169-.291.15a.367.367,0,0,1-.285-.464.5.5,0,0,1,.209-.283,1.207,1.207,0,0,0-.032.4c.025.09.133.09.209.12.025-.144.032-.295.07-.445.013-.078.108-.084.158-.12a1.823,1.823,0,0,0,.044.373c.032.09.139.12.215.163A2.166,2.166,0,0,0,394.907,167.557Z" transform="translate(-383.961 -166.365)" fill="#fff"/>
              <path id="path4653" d="M289.311,173.482c.095,0,.209-.018.285.06a.875.875,0,0,1,.24.837,1.382,1.382,0,0,0-.3-.566A.574.574,0,0,1,289.311,173.482Z" transform="translate(-284.934 -172.062)" fill="#fff"/>
              <path id="path4655" d="M514.595,185.1a.822.822,0,0,1,.158-.132.977.977,0,0,0,.114.421c.063.132.063.343-.095.4a.431.431,0,0,1-.418-.1.407.407,0,0,1-.342.126.381.381,0,0,1-.247-.451c.013-.132.127-.217.215-.3a1.032,1.032,0,0,0-.038.415c.032.09.139.072.215.09a1.876,1.876,0,0,1,.076-.464.649.649,0,0,1,.158-.084.921.921,0,0,0,.051.415c.044.078.139.084.215.108C514.652,185.4,514.607,185.254,514.595,185.1Z" transform="translate(-497.118 -182.924)" fill="#fff"/>
              <path id="path4657" d="M625.124,188.028a.143.143,0,0,1,.139-.193.454.454,0,0,1,.354.259,1.052,1.052,0,0,1,.089.849c-.057-.247-.051-.56-.278-.722A1.068,1.068,0,0,1,625.124,188.028Z" transform="translate(-602.388 -185.632)" fill="#fff"/>
              <path id="path4659" d="M456.7,199.767a.292.292,0,0,1,.285-.078.357.357,0,0,1,0,.464.979.979,0,0,1-.785.355,3.8,3.8,0,0,0,.557-.307c.076-.054.063-.157.076-.241-.089.012-.177.03-.259.042A1.217,1.217,0,0,1,456.7,199.767Z" transform="translate(-442.707 -196.829)" fill="#fff"/>
              <path id="path4661" d="M516.247,204.314c.057-.012.133-.048.171.012-.044.144-.2.2-.316.265-.456.211-.9.445-1.348.674-.019-.042-.044-.078-.063-.12a7.142,7.142,0,0,1,.8-.476A6.541,6.541,0,0,1,516.247,204.314Z" transform="translate(-497.999 -201.19)" fill="#fff"/>
              <g id="g4665" transform="translate(4.402 3.257)">
                <path id="path4663" d="M295.046,207.337a.5.5,0,0,1,.127-.223,3.577,3.577,0,0,1,.8,1.318,12.718,12.718,0,0,1,.285,1.463,1.544,1.544,0,0,0,.259.7,1.294,1.294,0,0,0,.418.307.579.579,0,0,1,.215-.415,5.81,5.81,0,0,1,1.462-.638c-.411-.012-.829,0-1.24-.006a6.147,6.147,0,0,1-1-.036.774.774,0,0,1,.089-.373,1.579,1.579,0,0,1,.671-.53,6.2,6.2,0,0,1,1.2-.488c-.108-.114-.272-.241-.228-.427a.581.581,0,0,1,.506-.427,1.539,1.539,0,0,1,.753.241c.139.09.31.187.361.355a.628.628,0,0,1-.139.325c-.146.181-.405.169-.62.193-.013.144-.032.319-.177.385-.044-.114-.089-.223-.139-.337a3.248,3.248,0,0,0-1.4.692c1.164.006,2.323-.024,3.487-.018.076.006.152.012.228.024-.051.307-.361.458-.633.524-.551.12-1.1.229-1.652.337a4.855,4.855,0,0,0-1.2.367.978.978,0,0,0-.348.307,5.065,5.065,0,0,0,.842.217c.095.024.228.042.253.157a.419.419,0,0,1-.1.458,1.451,1.451,0,0,1-.557-.03,1.887,1.887,0,0,1-1.285-.777,2.467,2.467,0,0,1-.342-1.078,3.612,3.612,0,0,1-.481.578,5.927,5.927,0,0,1-1.709,1.072.762.762,0,0,1-.7-.006.812.812,0,0,1-.272-.433,6.752,6.752,0,0,1-1.8.7,6.087,6.087,0,0,1-1.19.12c.209-.1.424-.181.633-.265.7-.289,1.38-.614,2.05-.963a.741.741,0,0,0,.24-.169,3.214,3.214,0,0,1,.165-.53,1.206,1.206,0,0,1,.449-.482,2.979,2.979,0,0,0-.285.825,6.144,6.144,0,0,0,1.133-.861c.089-.1.215-.217.165-.361-.063-.2-.171-.385-.247-.584a1.992,1.992,0,0,1-.221-.909.569.569,0,0,1,.133-.259,2.04,2.04,0,0,1,.614.758l-.177.036a4.9,4.9,0,0,1,.335.873.818.818,0,0,1-.19.686,10.873,10.873,0,0,1-1.462,1.192.571.571,0,0,0,.291.108,1.737,1.737,0,0,0,.6-.157,8.569,8.569,0,0,0,1.854-1.294,7.566,7.566,0,0,0-.677-1.613A1.074,1.074,0,0,1,295.046,207.337Zm3.36.746a.607.607,0,0,0,.278.217.567.567,0,0,0,.462-.175.916.916,0,0,0-.544-.217A.2.2,0,0,0,298.406,208.084Z" transform="translate(-289.774 -207.114)" fill="#fff"/>
              </g>
              <g id="g4669" transform="translate(0.023 3.333)">
                <path id="path4667" d="M210.572,208.652a.149.149,0,0,1,.146-.144c.215-.024.367.151.5.289a.249.249,0,0,1,.082.271c-.025.114-.158.108-.247.132-.19.012-.266.217-.411.307a1.5,1.5,0,0,1-1.013.307.659.659,0,0,1,.373-.223,1.7,1.7,0,0,0,.658-.464A1.044,1.044,0,0,1,210.572,208.652Zm.12.024a.733.733,0,0,0,.095.3c.038-.084.076-.175.108-.259A1.984,1.984,0,0,0,210.692,208.676Zm.285.391c.07-.006.139-.018.209-.024a.965.965,0,0,0-.07-.265C211.027,208.845,211.015,208.965,210.977,209.068Z" transform="translate(-209.629 -208.506)" fill="#fff"/>
              </g>
              <path id="path4671" d="M409.179,210.2a.531.531,0,0,1,.152-.108c0,.211.152.373.171.578s-.253.319-.418.223c-.051-.036-.095-.078-.139-.114-.089.078-.184.193-.316.163a.39.39,0,0,1-.272-.464.5.5,0,0,1,.221-.295,1.522,1.522,0,0,0-.051.379c.013.1.12.126.2.169a2.673,2.673,0,0,0,.089-.457c.013-.084.114-.1.171-.138a1.515,1.515,0,0,0,.038.379c.038.084.127.126.2.175C409.293,210.522,409.185,210.36,409.179,210.2Z" transform="translate(-397.467 -206.67)" fill="#fff"/>
              <path id="path4673" d="M215.706,224.088a1.151,1.151,0,0,1,.342-.12.14.14,0,0,1,.082.241,1.975,1.975,0,0,1-.443.211c-.354.169-.709.331-1.057.518a.367.367,0,0,1-.253.024.6.6,0,0,1,.221-.259C214.966,224.479,215.333,224.274,215.706,224.088Z" transform="translate(-214.095 -219.79)" fill="#fff"/>
              <path id="path4675" d="M470.109,226.568c.025-.12.165-.138.266-.175a1.056,1.056,0,0,0,.152.5l-.165.018a.787.787,0,0,1-.285.3,1.339,1.339,0,0,1-.671.09c.24-.066.538-.084.7-.3C470.21,226.875,470.1,226.713,470.109,226.568Z" transform="translate(-455.189 -222.083)" fill="#fff"/>
              <g id="g4679" transform="translate(18.736 4.57)">
                <path id="path4677" d="M553.061,231.231c.032-.1.146-.1.228-.084a.8.8,0,0,1,.418.307.237.237,0,0,1,.032.313c-.114.09-.3.036-.4.157a1.486,1.486,0,0,1-1.24.524.655.655,0,0,1,.38-.223,1.747,1.747,0,0,0,.652-.464A.9.9,0,0,1,553.061,231.231Zm.12.072a1.382,1.382,0,0,0,.076.319,1.35,1.35,0,0,0,.114-.259C553.308,231.339,553.239,231.321,553.182,231.3Zm.367.132a1.875,1.875,0,0,0-.089.265c.07-.006.139-.018.209-.024a1.105,1.105,0,0,0-.07-.247C553.587,231.429,553.561,231.435,553.549,231.435Z" transform="translate(-552.099 -231.141)" fill="#fff"/>
              </g>
              <path id="path4681" d="M340.006,235.158a.277.277,0,0,1,.411.084c.038.078-.044.138-.076.2a.865.865,0,0,0-.2-.1c-.063-.018-.082.054-.1.1a5.73,5.73,0,0,0-.171.56,1.561,1.561,0,0,0-.146-.331,1.992,1.992,0,0,0-.3-.259c-.089-.072.006-.229.108-.211.146.018.234.151.335.247A.9.9,0,0,1,340.006,235.158Z" transform="translate(-332.282 -230.312)" fill="#fff"/>
              <path id="path4683" d="M210.306,247.348a1.2,1.2,0,0,1,.525-.464,2.429,2.429,0,0,1-.228.415.621.621,0,0,0-.07.319,2.718,2.718,0,0,0,.437-.06.53.53,0,0,1-.19.307.358.358,0,0,1-.418.036A.484.484,0,0,1,210.306,247.348Z" transform="translate(-210.188 -241.455)" fill="#fff"/>
              <path id="path4685" d="M391.962,271.793c.108-.018.234-.066.329.012a.2.2,0,0,1,.038.3c-.133.072-.3.03-.418.132.019.156.139.283.165.433.006.1-.07.175-.114.253a1.363,1.363,0,0,0-.139-.445c-.051-.1-.127-.193-.1-.307s.158-.187.253-.247A.789.789,0,0,1,391.962,271.793Z" transform="translate(-381.744 -264.972)" fill="#fff"/>
              <path id="path4687" d="M484.273,271.374a.585.585,0,0,1,.278-.253,1.183,1.183,0,0,0-.133.319c.051.09.133.157.177.253.013.156-.215.181-.3.084A.385.385,0,0,1,484.273,271.374Z" transform="translate(-469.201 -264.367)" fill="#fff"/>
              <path id="path4689" d="M458.051,272.135a.653.653,0,0,1,.525.09c-.114.235-.38.295-.576.439a.5.5,0,0,1,.013.1.708.708,0,0,0,.405-.048,1.875,1.875,0,0,1,.5-.2c-.139.12-.272.241-.411.355a.657.657,0,0,1-.589.078c-.095-.03-.215-.114-.184-.235.051-.151.2-.229.323-.319l-.259-.018C457.868,272.279,457.931,272.159,458.051,272.135Z" transform="translate(-444.15 -265.302)" fill="#fff"/>
              <path id="path4691" d="M547.117,276.763a.13.13,0,0,1,.082-.2.407.407,0,0,1,.392.247.677.677,0,0,1,.013.632,1.5,1.5,0,0,0-.1-.409C547.408,276.9,547.231,276.877,547.117,276.763Z" transform="translate(-528.628 -269.503)" fill="#fff"/>
              <path id="path4693" d="M580.778,279.053a1.686,1.686,0,0,1,.721-.169.46.46,0,0,1-.234.211c-.392.144-.791.277-1.177.439a1.991,1.991,0,0,1-.38.126c-.013-.036-.032-.072-.044-.108A8.327,8.327,0,0,1,580.778,279.053Z" transform="translate(-559.421 -271.703)" fill="#fff"/>
            </g>
            <path id="path4697" d="M298.768-154.76h-1.949v-.185c.088-.076.207-.179.207-.239,0-.1-.245-.315-.3-.315s-.3.217-.3.315c0,.065.107.158.195.234l.006.005v.19H281.25c.547.544,1.358.538,2.987.554,1.452.022,1.446.022,12.381,0v.2c-.088.076-.195.179-.195.239,0,.1.233.315.3.315a.664.664,0,0,0,.264-.223h.673a.3.3,0,0,0,.264.12.309.309,0,0,0,.264-.12h.8a.4.4,0,0,0,.321.12c.308-.011.377-.168.377-.712-.006-.457-.314-.505-.924-.495Zm.138.919h-.717a.3.3,0,0,0-.264-.125.3.3,0,0,0-.264.125H297a.789.789,0,0,0-.176-.168v-.2h2.088A.6.6,0,0,0,298.906-153.842Z" transform="translate(-278.176 169.843)" fill="#fff"/>
          </g>
        </g>
      </g>
    </g>
    <g id="Mask_Group_12" data-name="Mask Group 12" clip-path="url(#clip-path-2)">
      <circle id="Ellipse_1800" data-name="Ellipse 1800" cx="13" cy="13" r="13" transform="translate(142 7470)" fill="#466226"/>
      <ellipse id="Ellipse_1802" data-name="Ellipse 1802" cx="13" cy="9" rx="13" ry="9" transform="translate(179 7478)" fill="#466226"/>
      <ellipse id="Ellipse_1801" data-name="Ellipse 1801" cx="18.5" cy="17" rx="18.5" ry="17" transform="translate(155 7472)" fill="#658434"/>
    </g>
  </g>
</svg>
