<svg xmlns="http://www.w3.org/2000/svg" xmlns:xlink="http://www.w3.org/1999/xlink" width="86.058" height="87.487" viewBox="0 0 86.058 87.487">
  <defs>
    <clipPath id="clip-path">
      <path id="Path_917" data-name="Path 917" d="M18.321,0A33,33,0,0,1,31.354,7.785c5.582,5.689,2.95,9.8,9.294,14.969a41.752,41.752,0,0,0,14.515,7.171A35.164,35.164,0,0,0,44.4,38.245c-4.273,5.248-6.329,12.672-6.329,12.672s-8.563-2.093-15.036-6.944-3.709-8.543-9.468-14.048A39.418,39.418,0,0,0,0,21.953,68.076,68.076,0,0,0,11.469,11.668,44.475,44.475,0,0,0,18.321,0Z" transform="translate(0 10.526) rotate(-11)" fill="#f2ca66"/>
    </clipPath>
    <clipPath id="clip-path-2">
      <rect id="Rectangle_1539" data-name="Rectangle 1539" width="69" height="20" transform="translate(137 7468)" fill="#658434" stroke="#707070" stroke-width="1"/>
    </clipPath>
  </defs>
  <g id="China-flag" transform="translate(-130.645 -7400.513)">
    <g id="flag" transform="translate(-2777.947 4473.347) rotate(-30)">
      <path id="Path_803" data-name="Path 803" d="M4634.981,4024.825,4607.9,4074.42" transform="translate(-3569 -4.287)" fill="none" stroke="#c3c1c1" stroke-linecap="round" stroke-width="1.5"/>
      <path id="Path_802" data-name="Path 802" d="M18.321,0A33,33,0,0,1,31.354,7.785c5.582,5.689,2.95,9.8,9.294,14.969a41.752,41.752,0,0,0,14.515,7.171A35.164,35.164,0,0,0,44.4,38.245c-4.273,5.248-6.329,12.672-6.329,12.672s-8.563-2.093-15.036-6.944-3.709-8.543-9.468-14.048A39.418,39.418,0,0,0,0,21.953,68.076,68.076,0,0,0,11.469,11.668,44.475,44.475,0,0,0,18.321,0Z" transform="translate(1046.781 4026.148) rotate(-11)" fill="#f2ca66"/>
      <g id="Mask_Group_11" data-name="Mask Group 11" transform="translate(1046.781 4015.623)" clip-path="url(#clip-path)">
        <g id="Flag_of_the_People_s_Republic_of_China" data-name="Flag_of_the_People&apos;s_Republic_of_China" transform="translate(19.69 5.162) rotate(30)">
          <rect id="Rectangle_1540" data-name="Rectangle 1540" width="50" height="33" transform="translate(-0.458 -0.214)" fill="#ee1c25"/>
          <path id="Path_918" data-name="Path 918" d="M1.778-3,4.639,5.808-2.853.364H6.408L-1.084,5.808Z" transform="translate(6.353 6.256)" fill="#ff0"/>
          <path id="Path_919" data-name="Path 919" d="M1.544,0,2.5,2.936,0,1.121H3.087L.59,2.936Z" transform="translate(15.46 1.159) rotate(23.036)" fill="#ff0"/>
          <path id="Path_920" data-name="Path 920" d="M1.544,0,2.5,2.936,0,1.121H3.087L.59,2.936Z" transform="matrix(0.696, 0.718, -0.718, 0.696, 19.582, 4.264)" fill="#ff0"/>
          <path id="Path_921" data-name="Path 921" d="M1.544,0,2.5,2.936,0,1.121H3.087L.59,2.936Z" transform="matrix(0.343, 0.939, -0.939, 0.343, 20.487, 9.365)" fill="#ff0"/>
          <path id="Path_922" data-name="Path 922" d="M1.544,0,2.5,2.936,0,1.121H3.087L.59,2.936Z" transform="translate(15.374 12.554) rotate(20.66)" fill="#ff0"/>
        </g>
      </g>
    </g>
    <g id="Mask_Group_12" data-name="Mask Group 12" clip-path="url(#clip-path-2)">
      <circle id="Ellipse_1800" data-name="Ellipse 1800" cx="13" cy="13" r="13" transform="translate(142 7470)" fill="#466226"/>
      <ellipse id="Ellipse_1802" data-name="Ellipse 1802" cx="13" cy="9" rx="13" ry="9" transform="translate(179 7478)" fill="#466226"/>
      <ellipse id="Ellipse_1801" data-name="Ellipse 1801" cx="18.5" cy="17" rx="18.5" ry="17" transform="translate(155 7472)" fill="#658434"/>
    </g>
  </g>
</svg>
