<svg xmlns="http://www.w3.org/2000/svg" xmlns:xlink="http://www.w3.org/1999/xlink" width="86.058" height="87.487" viewBox="0 0 86.058 87.487">
  <defs>
    <clipPath id="clip-path">
      <path id="Path_917" data-name="Path 917" d="M18.321,0A33,33,0,0,1,31.354,7.785c5.582,5.689,2.95,9.8,9.294,14.969a41.752,41.752,0,0,0,14.515,7.171A35.164,35.164,0,0,0,44.4,38.245c-4.273,5.248-6.329,12.672-6.329,12.672s-8.563-2.093-15.036-6.944-3.709-8.543-9.468-14.048A39.418,39.418,0,0,0,0,21.953,68.076,68.076,0,0,0,11.469,11.668,44.475,44.475,0,0,0,18.321,0Z" transform="translate(0 10.526) rotate(-11)" fill="#f2ca66"/>
    </clipPath>
    <clipPath id="clip-path-2">
      <rect id="Rectangle_1539" data-name="Rectangle 1539" width="69" height="20" transform="translate(137 7468)" fill="#658434" stroke="#707070" stroke-width="1"/>
    </clipPath>
  </defs>
  <g id="Iran-flag" transform="translate(-130.645 -7400.513)">
    <g id="flag" transform="translate(-2777.947 4473.347) rotate(-30)">
      <path id="Path_803" data-name="Path 803" d="M4634.981,4024.825,4607.9,4074.42" transform="translate(-3569 -4.287)" fill="none" stroke="#c3c1c1" stroke-linecap="round" stroke-width="1.5"/>
      <path id="Path_802" data-name="Path 802" d="M18.321,0A33,33,0,0,1,31.354,7.785c5.582,5.689,2.95,9.8,9.294,14.969a41.752,41.752,0,0,0,14.515,7.171A35.164,35.164,0,0,0,44.4,38.245c-4.273,5.248-6.329,12.672-6.329,12.672s-8.563-2.093-15.036-6.944-3.709-8.543-9.468-14.048A39.418,39.418,0,0,0,0,21.953,68.076,68.076,0,0,0,11.469,11.668,44.475,44.475,0,0,0,18.321,0Z" transform="translate(1046.781 4026.148) rotate(-11)" fill="#f2ca66"/>
      <g id="Mask_Group_11" data-name="Mask Group 11" transform="translate(1046.781 4015.623)" clip-path="url(#clip-path)">
        <g id="Flag_of_Iran" transform="translate(13.966 1.506) rotate(30)">
          <g id="Group_3450" data-name="Group 3450">
            <rect id="Rectangle_1547" data-name="Rectangle 1547" width="57.452" height="32.83" fill="#da0000"/>
          </g>
          <g id="Group_3451" data-name="Group 3451">
            <rect id="Rectangle_1548" data-name="Rectangle 1548" width="57.452" height="21.887" fill="#fff"/>
          </g>
          <g id="Group_3452" data-name="Group 3452">
            <rect id="Rectangle_1549" data-name="Rectangle 1549" width="57.452" height="10.943" fill="#239f40"/>
          </g>
          <g id="Group_3486" data-name="Group 3486" transform="translate(0.766 9.156)">
            <g id="tb4">
              <g id="tb1">
                <g id="tbp1">
                  <path id="Path_1081" data-name="Path 1081" d="M4.852,1.277H3.575V.766H2.809v.255h.511v.255H2.553V.511H3.575V0H3.83V1.021h.255V0h.255V1.021H4.6V0h.255Zm-2.553,0H1.021V.766H.255v.511H0V.511H1.277v.511h.766V.766H1.532V.511H2.3v.766Zm-1.532,0H.511V1.021H.766ZM3.319.255H0V0H3.319Z" fill="#fff"/>
                </g>
                <g id="tbp2" transform="translate(0 1.532)">
                  <path id="Path_1082" data-name="Path 1082" d="M4.852,17.311h-2.3V16.8h2.3Zm-2.553,0H0V16.8H2.3Z" transform="translate(0 -16.8)" fill="#fff"/>
                </g>
                <g id="Group_3453" data-name="Group 3453" transform="translate(0 12.475)">
                  <g id="tbp2_00000024701834410478587860000001320145996740838273_">
                    <path id="Path_1083" data-name="Path 1083" d="M4.852,137.311h-2.3V136.8h2.3Zm-2.553,0H0V136.8H2.3Z" transform="translate(0 -136.8)" fill="#fff"/>
                  </g>
                </g>
                <g id="Group_3454" data-name="Group 3454" transform="translate(0 13.241)">
                  <g id="tbp1_00000075160501878734577160000012429348724344509626_">
                    <path id="Path_1084" data-name="Path 1084" d="M4.852,146.477H3.575v-.511H2.809v.255h.511v.255H2.553v-.766H3.575V145.2H3.83v1.021h.255V145.2h.255v1.021H4.6V145.2h.255Zm-2.553,0H1.021v-.511H.255v.511H0v-.766H1.277v.511h.766v-.255H1.532v-.255H2.3v.766Zm-1.532,0H.511v-.255H.766Zm2.553-1.021H0V145.2H3.319Z" transform="translate(0 -145.2)" fill="#fff"/>
                  </g>
                </g>
              </g>
              <g id="tb3" transform="translate(5.107)">
                <g id="Group_3457" data-name="Group 3457">
                  <g id="tb1_00000132075037934628812150000004654555149590986895_">
                    <g id="tbp1_00000180365953775717804180000010560457225571298457_">
                      <path id="Path_1085" data-name="Path 1085" d="M60.852,1.277H59.575V.766h-.766v.255h.511v.255h-.766V.511h1.021V0h.255V1.021h.255V0h.255V1.021H60.6V0h.255Zm-2.553,0H57.021V.766h-.766v.511H56V.511h1.277v.511h.766V.766h-.511V.511H58.3Zm-1.532,0h-.255V1.021h.255ZM59.319.255H56V0h3.319Z" transform="translate(-56)" fill="#fff"/>
                    </g>
                    <g id="tbp2_00000167383826177005651690000015210031809919996566_" transform="translate(0 1.532)">
                      <path id="Path_1086" data-name="Path 1086" d="M60.852,17.311h-2.3V16.8h2.3Zm-2.553,0H56V16.8h2.3Z" transform="translate(-56 -16.8)" fill="#fff"/>
                    </g>
                    <g id="Group_3455" data-name="Group 3455" transform="translate(0 12.475)">
                      <g id="tbp2_00000001659749921221191690000005648430662107910074_">
                        <path id="Path_1087" data-name="Path 1087" d="M60.852,137.311h-2.3V136.8h2.3Zm-2.553,0H56V136.8h2.3Z" transform="translate(-56 -136.8)" fill="#fff"/>
                      </g>
                    </g>
                    <g id="Group_3456" data-name="Group 3456" transform="translate(0 13.241)">
                      <g id="tbp1_00000075884625372707265550000009219239733020375735_">
                        <path id="Path_1088" data-name="Path 1088" d="M60.852,146.477H59.575v-.511h-.766v.255h.511v.255h-.766v-.766h1.021V145.2h.255v1.021h.255V145.2h.255v1.021H60.6V145.2h.255Zm-2.553,0H57.021v-.511h-.766v.511H56v-.766h1.277v.511h.766v-.255h-.511v-.255H58.3Zm-1.532,0h-.255v-.255h.255Zm2.553-1.021H56V145.2h3.319Z" transform="translate(-56 -145.2)" fill="#fff"/>
                      </g>
                    </g>
                  </g>
                </g>
                <g id="Group_3460" data-name="Group 3460" transform="translate(5.107)">
                  <g id="tb1_00000049179661619895051260000009937354162427801753_">
                    <g id="tbp1_00000040570664644506292460000004197575390334938815_">
                      <path id="Path_1089" data-name="Path 1089" d="M116.852,1.277h-1.277V.766h-.766v.255h.511v.255h-.766V.511h1.021V0h.255V1.021h.255V0h.255V1.021h.255V0h.255Zm-2.553,0h-1.277V.766h-.766v.511H112V.511h1.277v.511h.766V.766h-.511V.511h.766Zm-1.532,0h-.255V1.021h.255ZM115.319.255H112V0h3.319Z" transform="translate(-112)" fill="#fff"/>
                    </g>
                    <g id="tbp2_00000163073867271267860500000007644630858600339647_" transform="translate(0 1.532)">
                      <path id="Path_1090" data-name="Path 1090" d="M116.852,17.311h-2.3V16.8h2.3Zm-2.553,0H112V16.8h2.3Z" transform="translate(-112 -16.8)" fill="#fff"/>
                    </g>
                    <g id="Group_3458" data-name="Group 3458" transform="translate(0 12.475)">
                      <g id="tbp2_00000025434982340140563760000001104123642318351282_">
                        <path id="Path_1091" data-name="Path 1091" d="M116.852,137.311h-2.3V136.8h2.3Zm-2.553,0H112V136.8h2.3Z" transform="translate(-112 -136.8)" fill="#fff"/>
                      </g>
                    </g>
                    <g id="Group_3459" data-name="Group 3459" transform="translate(0 13.241)">
                      <g id="tbp1_00000105424870029978618430000004455079762882004634_">
                        <path id="Path_1092" data-name="Path 1092" d="M116.852,146.477h-1.277v-.511h-.766v.255h.511v.255h-.766v-.766h1.021V145.2h.255v1.021h.255V145.2h.255v1.021h.255V145.2h.255Zm-2.553,0h-1.277v-.511h-.766v.511H112v-.766h1.277v.511h.766v-.255h-.511v-.255h.766Zm-1.532,0h-.255v-.255h.255Zm2.553-1.021H112V145.2h3.319Z" transform="translate(-112 -145.2)" fill="#fff"/>
                      </g>
                    </g>
                  </g>
                </g>
                <g id="Group_3463" data-name="Group 3463" transform="translate(10.214)">
                  <g id="tb1_00000015355419961986323190000015173418893063150477_">
                    <g id="tbp1_00000030462983601857600180000015472480182497886638_">
                      <path id="Path_1093" data-name="Path 1093" d="M172.852,1.277h-1.277V.766h-.766v.255h.511v.255h-.766V.511h1.021V0h.255V1.021h.255V0h.255V1.021h.255V0h.255Zm-2.553,0h-1.277V.766h-.766v.511H168V.511h1.277v.511h.766V.766h-.511V.511h.766Zm-1.532,0h-.255V1.021h.255ZM171.319.255H168V0h3.319Z" transform="translate(-168)" fill="#fff"/>
                    </g>
                    <g id="tbp2_00000003075259840787532870000000572681394547745190_" transform="translate(0 1.532)">
                      <path id="Path_1094" data-name="Path 1094" d="M172.852,17.311h-2.3V16.8h2.3Zm-2.553,0H168V16.8h2.3Z" transform="translate(-168 -16.8)" fill="#fff"/>
                    </g>
                    <g id="Group_3461" data-name="Group 3461" transform="translate(0 12.475)">
                      <g id="tbp2_00000140728920974129651340000013340181173041717126_">
                        <path id="Path_1095" data-name="Path 1095" d="M172.852,137.311h-2.3V136.8h2.3Zm-2.553,0H168V136.8h2.3Z" transform="translate(-168 -136.8)" fill="#fff"/>
                      </g>
                    </g>
                    <g id="Group_3462" data-name="Group 3462" transform="translate(0 13.241)">
                      <g id="tbp1_00000088839129753646464440000010935656423164389300_">
                        <path id="Path_1096" data-name="Path 1096" d="M172.852,146.477h-1.277v-.511h-.766v.255h.511v.255h-.766v-.766h1.021V145.2h.255v1.021h.255V145.2h.255v1.021h.255V145.2h.255Zm-2.553,0h-1.277v-.511h-.766v.511H168v-.766h1.277v.511h.766v-.255h-.511v-.255h.766Zm-1.532,0h-.255v-.255h.255Zm2.553-1.021H168V145.2h3.319Z" transform="translate(-168 -145.2)" fill="#fff"/>
                      </g>
                    </g>
                  </g>
                </g>
              </g>
            </g>
            <g id="Group_3473" data-name="Group 3473" transform="translate(20.427)">
              <g id="tb3_00000034050126568736674420000010111837984275051165_">
                <g id="Group_3466" data-name="Group 3466">
                  <g id="tb1_00000054970590737339798170000014693814787694272667_">
                    <g id="tbp1_00000176025499641621925510000005721404538048665239_">
                      <path id="Path_1097" data-name="Path 1097" d="M228.852,1.277h-1.277V.766h-.766v.255h.511v.255h-.766V.511h1.021V0h.255V1.021h.255V0h.255V1.021h.255V0h.255Zm-2.553,0h-1.277V.766h-.766v.511H224V.511h1.277v.511h.766V.766h-.511V.511h.766Zm-1.532,0h-.255V1.021h.255ZM227.319.255H224V0h3.319Z" transform="translate(-224)" fill="#fff"/>
                    </g>
                    <g id="tbp2_00000106119284661226242030000009721610603838402994_" transform="translate(0 1.532)">
                      <path id="Path_1098" data-name="Path 1098" d="M228.852,17.311h-2.3V16.8h2.3Zm-2.553,0H224V16.8h2.3Z" transform="translate(-224 -16.8)" fill="#fff"/>
                    </g>
                    <g id="Group_3464" data-name="Group 3464" transform="translate(0 12.475)">
                      <g id="tbp2_00000069368300087236097000000012619868070682586815_">
                        <path id="Path_1099" data-name="Path 1099" d="M228.852,137.311h-2.3V136.8h2.3Zm-2.553,0H224V136.8h2.3Z" transform="translate(-224 -136.8)" fill="#fff"/>
                      </g>
                    </g>
                    <g id="Group_3465" data-name="Group 3465" transform="translate(0 13.241)">
                      <g id="tbp1_00000144325703745385404190000017343911074920883336_">
                        <path id="Path_1100" data-name="Path 1100" d="M228.852,146.477h-1.277v-.511h-.766v.255h.511v.255h-.766v-.766h1.021V145.2h.255v1.021h.255V145.2h.255v1.021h.255V145.2h.255Zm-2.553,0h-1.277v-.511h-.766v.511H224v-.766h1.277v.511h.766v-.255h-.511v-.255h.766Zm-1.532,0h-.255v-.255h.255Zm2.553-1.021H224V145.2h3.319Z" transform="translate(-224 -145.2)" fill="#fff"/>
                      </g>
                    </g>
                  </g>
                </g>
                <g id="Group_3469" data-name="Group 3469" transform="translate(5.107)">
                  <g id="tb1_00000124162601900114086950000002551724030282421428_">
                    <g id="tbp1_00000168093302245674811820000003898065859681493146_">
                      <path id="Path_1101" data-name="Path 1101" d="M284.852,1.277h-1.277V.766h-.766v.255h.511v.255h-.766V.511h1.021V0h.255V1.021h.255V0h.255V1.021h.255V0h.255Zm-2.553,0h-1.277V.766h-.766v.511H280V.511h1.277v.511h.766V.766h-.511V.511h.766v.766Zm-1.532,0h-.255V1.021h.255ZM283.319.255H280V0h3.319Z" transform="translate(-280)" fill="#fff"/>
                    </g>
                    <g id="tbp2_00000150100157714966290020000000640445147362579116_" transform="translate(0 1.532)">
                      <path id="Path_1102" data-name="Path 1102" d="M284.852,17.311h-2.3V16.8h2.3Zm-2.553,0H280V16.8h2.3Z" transform="translate(-280 -16.8)" fill="#fff"/>
                    </g>
                    <g id="Group_3467" data-name="Group 3467" transform="translate(0 12.475)">
                      <g id="tbp2_00000113353128160427827780000014706924323113651633_">
                        <path id="Path_1103" data-name="Path 1103" d="M284.852,137.311h-2.3V136.8h2.3Zm-2.553,0H280V136.8h2.3Z" transform="translate(-280 -136.8)" fill="#fff"/>
                      </g>
                    </g>
                    <g id="Group_3468" data-name="Group 3468" transform="translate(0 13.241)">
                      <g id="tbp1_00000044868451567785309890000000184900468870332296_">
                        <path id="Path_1104" data-name="Path 1104" d="M284.852,146.477h-1.277v-.511h-.766v.255h.511v.255h-.766v-.766h1.021V145.2h.255v1.021h.255V145.2h.255v1.021h.255V145.2h.255Zm-2.553,0h-1.277v-.511h-.766v.511H280v-.766h1.277v.511h.766v-.255h-.511v-.255h.766v.766Zm-1.532,0h-.255v-.255h.255Zm2.553-1.021H280V145.2h3.319Z" transform="translate(-280 -145.2)" fill="#fff"/>
                      </g>
                    </g>
                  </g>
                </g>
                <g id="Group_3472" data-name="Group 3472" transform="translate(10.214)">
                  <g id="tb1_00000152958451259372198830000013753119864289402782_">
                    <g id="tbp1_00000130614743229122374830000011822321216859942530_">
                      <path id="Path_1105" data-name="Path 1105" d="M340.852,1.277h-1.277V.766h-.766v.255h.511v.255h-.766V.511h1.021V0h.255V1.021h.255V0h.255V1.021h.255V0h.255Zm-2.553,0h-1.277V.766h-.766v.511H336V.511h1.277v.511h.766V.766h-.511V.511h.766Zm-1.532,0h-.255V1.021h.255ZM339.319.255H336V0h3.319Z" transform="translate(-336)" fill="#fff"/>
                    </g>
                    <g id="tbp2_00000106131817435181534210000002337631416710489502_" transform="translate(0 1.532)">
                      <path id="Path_1106" data-name="Path 1106" d="M340.852,17.311h-2.3V16.8h2.3Zm-2.553,0H336V16.8h2.3Z" transform="translate(-336 -16.8)" fill="#fff"/>
                    </g>
                    <g id="Group_3470" data-name="Group 3470" transform="translate(0 12.475)">
                      <g id="tbp2_00000075145250440436105980000002657647897654123145_">
                        <path id="Path_1107" data-name="Path 1107" d="M340.852,137.311h-2.3V136.8h2.3Zm-2.553,0H336V136.8h2.3Z" transform="translate(-336 -136.8)" fill="#fff"/>
                      </g>
                    </g>
                    <g id="Group_3471" data-name="Group 3471" transform="translate(0 13.241)">
                      <g id="tbp1_00000115515498475635138530000015365514033799584395_">
                        <path id="Path_1108" data-name="Path 1108" d="M340.852,146.477h-1.277v-.511h-.766v.255h.511v.255h-.766v-.766h1.021V145.2h.255v1.021h.255V145.2h.255v1.021h.255V145.2h.255Zm-2.553,0h-1.277v-.511h-.766v.511H336v-.766h1.277v.511h.766v-.255h-.511v-.255h.766Zm-1.532,0h-.255v-.255h.255Zm2.553-1.021H336V145.2h3.319Z" transform="translate(-336 -145.2)" fill="#fff"/>
                      </g>
                    </g>
                  </g>
                </g>
              </g>
            </g>
            <g id="Group_3485" data-name="Group 3485" transform="translate(35.748)">
              <g id="tb4_00000115513309553290691840000004023533204619204789_">
                <g id="tb1_00000145027122174712818280000014668434559965405886_">
                  <g id="tbp1_00000180337965947933356700000004473337688878879629_">
                    <path id="Path_1109" data-name="Path 1109" d="M396.852,1.277h-1.277V.766h-.766v.255h.511v.255h-.766V.511h1.021V0h.255V1.021h.255V0h.255V1.021h.255V0h.255Zm-2.553,0h-1.277V.766h-.766v.511H392V.511h1.277v.511h.766V.766h-.511V.511h.766v.766Zm-1.532,0h-.255V1.021h.255ZM395.319.255H392V0h3.319Z" transform="translate(-392)" fill="#fff"/>
                  </g>
                  <g id="tbp2_00000000187416964546038990000013874207979455713671_" transform="translate(0 1.532)">
                    <path id="Path_1110" data-name="Path 1110" d="M396.852,17.311h-2.3V16.8h2.3Zm-2.553,0H392V16.8h2.3Z" transform="translate(-392 -16.8)" fill="#fff"/>
                  </g>
                  <g id="Group_3474" data-name="Group 3474" transform="translate(0 12.475)">
                    <g id="tbp2_00000044889094182056090810000015953122096570328974_">
                      <path id="Path_1111" data-name="Path 1111" d="M396.852,137.311h-2.3V136.8h2.3Zm-2.553,0H392V136.8h2.3Z" transform="translate(-392 -136.8)" fill="#fff"/>
                    </g>
                  </g>
                  <g id="Group_3475" data-name="Group 3475" transform="translate(0 13.241)">
                    <g id="tbp1_00000129885321559205580170000009174653068979803790_">
                      <path id="Path_1112" data-name="Path 1112" d="M396.852,146.477h-1.277v-.511h-.766v.255h.511v.255h-.766v-.766h1.021V145.2h.255v1.021h.255V145.2h.255v1.021h.255V145.2h.255Zm-2.553,0h-1.277v-.511h-.766v.511H392v-.766h1.277v.511h.766v-.255h-.511v-.255h.766v.766Zm-1.532,0h-.255v-.255h.255Zm2.553-1.021H392V145.2h3.319Z" transform="translate(-392 -145.2)" fill="#fff"/>
                    </g>
                  </g>
                </g>
                <g id="tb3_00000147902576365303389580000009653300718723566225_" transform="translate(5.107)">
                  <g id="Group_3478" data-name="Group 3478">
                    <g id="tb1_00000136381254192505712550000001617210805970405018_">
                      <g id="tbp1_00000101791701525775035770000008863869398289548466_">
                        <path id="Path_1113" data-name="Path 1113" d="M452.852,1.277h-1.277V.766h-.766v.255h.511v.255h-.766V.511h1.021V0h.255V1.021h.255V0h.255V1.021h.255V0h.255Zm-2.553,0h-1.277V.766h-.766v.511H448V.511h1.277v.511h.766V.766h-.511V.511h.766Zm-1.532,0h-.255V1.021h.255ZM451.319.255H448V0h3.319Z" transform="translate(-448)" fill="#fff"/>
                      </g>
                      <g id="tbp2_00000005984891129828647870000010259479943552879773_" transform="translate(0 1.532)">
                        <path id="Path_1114" data-name="Path 1114" d="M452.852,17.311h-2.3V16.8h2.3Zm-2.553,0H448V16.8h2.3Z" transform="translate(-448 -16.8)" fill="#fff"/>
                      </g>
                      <g id="Group_3476" data-name="Group 3476" transform="translate(0 12.475)">
                        <g id="tbp2_00000008140263930602197670000012509001668423269773_">
                          <path id="Path_1115" data-name="Path 1115" d="M452.852,137.311h-2.3V136.8h2.3Zm-2.553,0H448V136.8h2.3Z" transform="translate(-448 -136.8)" fill="#fff"/>
                        </g>
                      </g>
                      <g id="Group_3477" data-name="Group 3477" transform="translate(0 13.241)">
                        <g id="tbp1_00000173864091884329501990000001894222671560657572_">
                          <path id="Path_1116" data-name="Path 1116" d="M452.852,146.477h-1.277v-.511h-.766v.255h.511v.255h-.766v-.766h1.021V145.2h.255v1.021h.255V145.2h.255v1.021h.255V145.2h.255Zm-2.553,0h-1.277v-.511h-.766v.511H448v-.766h1.277v.511h.766v-.255h-.511v-.255h.766Zm-1.532,0h-.255v-.255h.255Zm2.553-1.021H448V145.2h3.319Z" transform="translate(-448 -145.2)" fill="#fff"/>
                        </g>
                      </g>
                    </g>
                  </g>
                  <g id="Group_3481" data-name="Group 3481" transform="translate(5.107)">
                    <g id="tb1_00000119103183548130635120000006282004160981838478_">
                      <g id="tbp1_00000134957427233100133990000017446049133761988258_">
                        <path id="Path_1117" data-name="Path 1117" d="M508.852,1.277h-1.277V.766h-.766v.255h.511v.255h-.766V.511h1.021V0h.255V1.021h.255V0h.255V1.021h.255V0h.255Zm-2.553,0h-1.277V.766h-.766v.511H504V.511h1.277v.511h.766V.766h-.511V.511h.766Zm-1.532,0h-.255V1.021h.255ZM507.319.255H504V0h3.319Z" transform="translate(-504)" fill="#fff"/>
                      </g>
                      <g id="tbp2_00000142139095937665517470000013786829654593361316_" transform="translate(0 1.532)">
                        <path id="Path_1118" data-name="Path 1118" d="M508.852,17.311h-2.3V16.8h2.3Zm-2.553,0H504V16.8h2.3Z" transform="translate(-504 -16.8)" fill="#fff"/>
                      </g>
                      <g id="Group_3479" data-name="Group 3479" transform="translate(0 12.475)">
                        <g id="tbp2_00000177458700348551349700000015191316531250392767_">
                          <path id="Path_1119" data-name="Path 1119" d="M508.852,137.311h-2.3V136.8h2.3Zm-2.553,0H504V136.8h2.3Z" transform="translate(-504 -136.8)" fill="#fff"/>
                        </g>
                      </g>
                      <g id="Group_3480" data-name="Group 3480" transform="translate(0 13.241)">
                        <g id="tbp1_00000000935387886415913510000016071109339691590534_">
                          <path id="Path_1120" data-name="Path 1120" d="M508.852,146.477h-1.277v-.511h-.766v.255h.511v.255h-.766v-.766h1.021V145.2h.255v1.021h.255V145.2h.255v1.021h.255V145.2h.255Zm-2.553,0h-1.277v-.511h-.766v.511H504v-.766h1.277v.511h.766v-.255h-.511v-.255h.766Zm-1.532,0h-.255v-.255h.255Zm2.553-1.021H504V145.2h3.319Z" transform="translate(-504 -145.2)" fill="#fff"/>
                        </g>
                      </g>
                    </g>
                  </g>
                  <g id="Group_3484" data-name="Group 3484" transform="translate(10.214)">
                    <g id="tb1_00000106841851166299414180000000681960136439979906_">
                      <g id="tbp1_00000092455759415229255890000005315319318322291088_">
                        <path id="Path_1121" data-name="Path 1121" d="M564.852,1.277h-1.277V.766h-.766v.255h.511v.255h-.766V.511h1.021V0h.255V1.021h.255V0h.255V1.021h.255V0h.255Zm-2.553,0h-1.277V.766h-.766v.511H560V.511h1.277v.511h.766V.766h-.511V.511h.766Zm-1.532,0h-.255V1.021h.255ZM563.32.255H560V0h3.319Z" transform="translate(-560)" fill="#fff"/>
                      </g>
                      <g id="tbp2_00000134938797348576812330000012587166447252903348_" transform="translate(0 1.532)">
                        <path id="Path_1122" data-name="Path 1122" d="M564.852,17.311h-2.3V16.8h2.3Zm-2.553,0H560V16.8h2.3Z" transform="translate(-560 -16.8)" fill="#fff"/>
                      </g>
                      <g id="Group_3482" data-name="Group 3482" transform="translate(0 12.475)">
                        <g id="tbp2_00000142152269093080579620000016613936329728857251_">
                          <path id="Path_1123" data-name="Path 1123" d="M564.852,137.311h-2.3V136.8h2.3Zm-2.553,0H560V136.8h2.3Z" transform="translate(-560 -136.8)" fill="#fff"/>
                        </g>
                      </g>
                      <g id="Group_3483" data-name="Group 3483" transform="translate(0 13.241)">
                        <g id="tbp1_00000117656500862699804020000003159704352108947106_">
                          <path id="Path_1124" data-name="Path 1124" d="M564.852,146.477h-1.277v-.511h-.766v.255h.511v.255h-.766v-.766h1.021V145.2h.255v1.021h.255V145.2h.255v1.021h.255V145.2h.255Zm-2.553,0h-1.277v-.511h-.766v.511H560v-.766h1.277v.511h.766v-.255h-.511v-.255h.766Zm-1.532,0h-.255v-.255h.255Zm2.553-1.021H560V145.2h3.319Z" transform="translate(-560 -145.2)" fill="#fff"/>
                        </g>
                      </g>
                    </g>
                  </g>
                </g>
              </g>
            </g>
          </g>
          <g id="Group_3496" data-name="Group 3496" transform="translate(26.674 12.311)">
            <g id="emblem_half" transform="translate(0 0)">
              <g id="Group_3487" data-name="Group 3487" transform="translate(0 0.821)">
                <path id="Path_1125" data-name="Path 1125" d="M-22.5-29.434A3.284,3.284,0,0,0-17.986-31.9,4.164,4.164,0,0,0-19.217-36a4.036,4.036,0,0,1-1.231,5.745c-.41.821-1.231.821-2.052.821" transform="translate(22.5 36)" fill="#da0000"/>
              </g>
              <g id="Group_3488" data-name="Group 3488" transform="translate(3.693 1.231)">
                <path id="Path_1126" data-name="Path 1126" d="M18.821-25.755a3.3,3.3,0,0,0,1.231-4.514A2.257,2.257,0,0,0,18-31.5c2.052,1.231,2.462,3.693.821,5.745h0" transform="translate(-18 31.5)" fill="#da0000"/>
              </g>
              <g id="Group_3489" data-name="Group 3489" transform="translate(1.641 0.821)">
                <path id="Path_1127" data-name="Path 1127" d="M-4.09-28.613l-.41-4.1L-4.09-36l.41.41v6.566Z" transform="translate(4.5 36)" fill="#da0000"/>
              </g>
              <g id="Group_3490" data-name="Group 3490" transform="translate(2.052)">
                <path id="Path_1128" data-name="Path 1128" d="M0-44.59H0c0,.41.41.41.821.41s.41-.41.41-.821c0,.41-.41.41-.821.41H0" transform="translate(0 45)" fill="#da0000"/>
              </g>
            </g>
            <g id="Group_3495" data-name="Group 3495" transform="translate(6.156 8.207) rotate(180)">
              <g id="emblem_half_00000114048938069325610220000011164350965167337898_" transform="translate(0 0)">
                <g id="Group_3491" data-name="Group 3491" transform="translate(1.488 0.56)">
                  <path id="Path_1129" data-name="Path 1129" d="M4.668.261C3.027-.56.975.672.154,2.313a4.164,4.164,0,0,0,1.231,4.1A4.036,4.036,0,0,1,2.616.672,3.075,3.075,0,0,1,4.668.261" transform="translate(0 0)" fill="#da0000"/>
                </g>
                <g id="Group_3492" data-name="Group 3492" transform="translate(0 1.231)">
                  <path id="Path_1130" data-name="Path 1130" d="M1.641,0A3.3,3.3,0,0,0,.41,4.514,4.1,4.1,0,0,0,2.462,6.156,4.156,4.156,0,0,1,1.641,0h0" transform="translate(0 0)" fill="#da0000"/>
                </g>
                <g id="Group_3493" data-name="Group 3493" transform="translate(3.693)">
                  <path id="Path_1131" data-name="Path 1131" d="M.41,0l.41,4.1L.41,7.387,0,6.976V.41Z" transform="translate(0)" fill="#da0000"/>
                </g>
                <g id="Group_3494" data-name="Group 3494" transform="translate(2.873 7.387)">
                  <path id="Path_1132" data-name="Path 1132" d="M1.231.41h0C1.231,0,.821,0,.41,0S0,.41,0,.821C0,.41.41.41.821.41h.41" transform="translate(0 0)" fill="#da0000"/>
                </g>
              </g>
            </g>
          </g>
        </g>
      </g>
    </g>
    <g id="Mask_Group_12" data-name="Mask Group 12" clip-path="url(#clip-path-2)">
      <circle id="Ellipse_1800" data-name="Ellipse 1800" cx="13" cy="13" r="13" transform="translate(142 7470)" fill="#466226"/>
      <ellipse id="Ellipse_1802" data-name="Ellipse 1802" cx="13" cy="9" rx="13" ry="9" transform="translate(179 7478)" fill="#466226"/>
      <ellipse id="Ellipse_1801" data-name="Ellipse 1801" cx="18.5" cy="17" rx="18.5" ry="17" transform="translate(155 7472)" fill="#658434"/>
    </g>
  </g>
</svg>
