<svg xmlns="http://www.w3.org/2000/svg" xmlns:xlink="http://www.w3.org/1999/xlink" width="86.058" height="87.487" viewBox="0 0 86.058 87.487">
  <defs>
    <clipPath id="clip-path">
      <path id="Path_917" data-name="Path 917" d="M18.321,0A33,33,0,0,1,31.354,7.785c5.582,5.689,2.95,9.8,9.294,14.969a41.752,41.752,0,0,0,14.515,7.171A35.164,35.164,0,0,0,44.4,38.245c-4.273,5.248-6.329,12.672-6.329,12.672s-8.563-2.093-15.036-6.944-3.709-8.543-9.468-14.048A39.418,39.418,0,0,0,0,21.953,68.076,68.076,0,0,0,11.469,11.668,44.475,44.475,0,0,0,18.321,0Z" transform="translate(0 10.526) rotate(-11)" fill="#f2ca66"/>
    </clipPath>
    <clipPath id="clip-path-2">
      <rect id="Rectangle_1539" data-name="Rectangle 1539" width="69" height="20" transform="translate(137 7468)" fill="#658434" stroke="#707070" stroke-width="1"/>
    </clipPath>
  </defs>
  <g id="Philippines-flag" transform="translate(-130.645 -7400.513)">
    <g id="flag" transform="translate(-2777.947 4473.347) rotate(-30)">
      <path id="Path_803" data-name="Path 803" d="M4634.981,4024.825,4607.9,4074.42" transform="translate(-3569 -4.287)" fill="none" stroke="#c3c1c1" stroke-linecap="round" stroke-width="1.5"/>
      <path id="Path_802" data-name="Path 802" d="M18.321,0A33,33,0,0,1,31.354,7.785c5.582,5.689,2.95,9.8,9.294,14.969a41.752,41.752,0,0,0,14.515,7.171A35.164,35.164,0,0,0,44.4,38.245c-4.273,5.248-6.329,12.672-6.329,12.672s-8.563-2.093-15.036-6.944-3.709-8.543-9.468-14.048A39.418,39.418,0,0,0,0,21.953,68.076,68.076,0,0,0,11.469,11.668,44.475,44.475,0,0,0,18.321,0Z" transform="translate(1046.781 4026.148) rotate(-11)" fill="#f2ca66"/>
      <g id="Mask_Group_11" data-name="Mask Group 11" transform="translate(1046.781 4015.623)" clip-path="url(#clip-path)">
        <g id="Flag_of_the_Philippines" transform="translate(20.712 57.362) rotate(30)">
          <path id="Path_1135" data-name="Path 1135" d="M-28-45H37.571v16.393L-17.8-12.579Z" fill="#0038a8"/>
          <path id="Path_1136" data-name="Path 1136" d="M-17.8,0H37.571V16.393H-28Z" transform="translate(0 -28.607)" fill="#ce1126"/>
          <path id="Path_1137" data-name="Path 1137" d="M.393-28.607-28-12.214V-45Z" fill="#fff"/>
          <circle id="Ellipse_1805" data-name="Ellipse 1805" cx="3.279" cy="3.279" r="3.279" transform="translate(-21.079 -31.886)" fill="#fcd116"/>
          <g id="c" transform="translate(-24.721 -35.529)">
            <g id="b" transform="translate(5.769)">
              <path id="a" d="M-2.011-12.079l-1.153-5.8.344-.345Zm0,0-.426-6.5L-2.011-19l.426.426Zm0,0,.808-6.14.344.345Z" transform="translate(3.164 19)" fill="#fcd116"/>
              <path id="Path_1138" data-name="Path 1138" d="M1.153,6.921,0,1.126.344.781Zm0,0L.727.426,1.153,0l.426.426Zm0,0L1.961.781l.344.345Z" transform="translate(2.305 13.843) rotate(180)" fill="#fcd116"/>
            </g>
            <g id="Group_3497" data-name="Group 3497" transform="translate(13.843 5.769) rotate(90)">
              <path id="a-2" data-name="a" d="M1.153,6.921,0,1.126.344.781Zm0,0L.727.426,1.153,0l.426.426Zm0,0L1.961.781l.344.345Z" fill="#fcd116"/>
              <path id="Path_1139" data-name="Path 1139" d="M1.153,6.921,0,1.126.344.781Zm0,0L.727.426,1.153,0l.426.426Zm0,0L1.961.781l.344.345Z" transform="translate(2.305 13.843) rotate(180)" fill="#fcd116"/>
            </g>
          </g>
          <g id="Group_3499" data-name="Group 3499" transform="translate(-17.8 -38.396) rotate(45)">
            <g id="b-2" data-name="b" transform="translate(5.769 0)">
              <path id="a-3" data-name="a" d="M1.153,6.921,0,1.126.344.781Zm0,0L.727.426,1.153,0l.426.426Zm0,0L1.961.781l.344.345Z" transform="translate(0)" fill="#fcd116"/>
              <path id="Path_1140" data-name="Path 1140" d="M1.153,6.921,0,1.126.344.781Zm0,0L.727.426,1.153,0l.426.426Zm0,0L1.961.781l.344.345Z" transform="translate(2.305 13.843) rotate(180)" fill="#fcd116"/>
            </g>
            <g id="Group_3498" data-name="Group 3498" transform="translate(13.843 5.769) rotate(90)">
              <path id="a-4" data-name="a" d="M1.153,6.921,0,1.126.344.781Zm0,0L.727.426,1.153,0l.426.426Zm0,0L1.961.781l.344.345Z" transform="translate(0 0)" fill="#fcd116"/>
              <path id="Path_1141" data-name="Path 1141" d="M1.153,6.921,0,1.126.344.781Zm0,0L.727.426,1.153,0l.426.426Zm0,0L1.961.781l.344.345Z" transform="translate(2.305 13.843) rotate(180)" fill="#fcd116"/>
            </g>
          </g>
          <path id="s" d="M35.192-3.023l-1.232.428-.027,1.3L33.145-2.33,31.9-1.952l.745-1.071L31.9-4.093l1.248.378.788-1.039.027,1.3Z" transform="translate(-38.077 -25.584)" fill="#fcd116"/>
          <path id="Path_1142" data-name="Path 1142" d="M3.295,1.732l-1.232.428-.027,1.3L1.248,2.425,0,2.8.745,1.732,0,.662l1.248.378L2.036,0l.027,1.3Z" transform="translate(-23.213 -17.041) rotate(120)" fill="#fcd116"/>
          <path id="Path_1143" data-name="Path 1143" d="M3.295,1.732l-1.232.428-.027,1.3L1.248,2.425,0,2.8.745,1.732,0,.662l1.248.378L2.036,0l.027,1.3Z" transform="translate(-26.213 -38.441) rotate(-120)" fill="#fcd116"/>
        </g>
      </g>
    </g>
    <g id="Mask_Group_12" data-name="Mask Group 12" clip-path="url(#clip-path-2)">
      <circle id="Ellipse_1800" data-name="Ellipse 1800" cx="13" cy="13" r="13" transform="translate(142 7470)" fill="#466226"/>
      <ellipse id="Ellipse_1802" data-name="Ellipse 1802" cx="13" cy="9" rx="13" ry="9" transform="translate(179 7478)" fill="#466226"/>
      <ellipse id="Ellipse_1801" data-name="Ellipse 1801" cx="18.5" cy="17" rx="18.5" ry="17" transform="translate(155 7472)" fill="#658434"/>
    </g>
  </g>
</svg>
